<svg width="41" height="41" viewBox="0 0 41 41" fill="none" xmlns="http://www.w3.org/2000/svg">
  <path fill-rule="evenodd" clip-rule="evenodd"
    d="M39.8338 27.332H1.16797C3.9821 35.2942 11.5753 40.9987 20.5009 40.9987C29.4264 40.9987 37.0197 35.2942 39.8338 27.332H39.8338Z"
    fill="#F2C500" />
  <path fill-rule="evenodd" clip-rule="evenodd"
    d="M1.16645 27.3346H39.8323C40.5877 25.1973 40.9987 22.8973 40.9987 20.5013C40.9987 18.1053 40.5877 15.8053 39.8323 13.668H1.16645C0.411041 15.8053 0 18.1053 0 20.5013C0 22.8973 0.411041 25.1973 1.16645 27.3346H1.16645Z"
    fill="#E94B35" />
  <path fill-rule="evenodd" clip-rule="evenodd"
    d="M1.16797 13.6667H39.8338C37.0197 5.70452 29.4264 0 20.5009 0C11.5753 0 3.9821 5.70452 1.16797 13.6667H1.16797Z"
    fill="black" />
</svg>