<svg width="41" height="41" viewBox="0 0 41 41" fill="none" xmlns="http://www.w3.org/2000/svg">
  <path fill-rule="evenodd" clip-rule="evenodd"
    d="M27.332 39.835C35.2942 37.0208 40.9987 29.4273 40.9987 20.5015C40.9987 11.5757 35.2942 3.98218 27.332 1.16797V39.835Z"
    fill="#E94B35" />
  <path fill-rule="evenodd" clip-rule="evenodd"
    d="M27.3346 39.8335C25.1973 40.5889 22.8973 41 20.5013 41C18.1053 41 15.8053 40.5889 13.668 39.8335V1.16649C15.8053 0.411054 18.1053 0 20.5013 0C22.8973 0 25.1973 0.411054 27.3346 1.16649V39.8335Z"
    fill="white" />
  <path fill-rule="evenodd" clip-rule="evenodd"
    d="M13.6667 1.16797C5.70452 3.98218 0 11.5757 0 20.5015C0 29.4273 5.70452 37.0208 13.6667 39.835V1.16797V1.16797Z"
    fill="#1AAF5D" />
</svg>