<svg width="40" height="40" viewBox="0 0 40 40" fill="none" xmlns="http://www.w3.org/2000/svg">
  <path
    d="M20 40C31.0457 40 40 31.0457 40 20C40 8.9543 31.0457 0 20 0C8.9543 0 0 8.9543 0 20C0 31.0457 8.9543 40 20 40Z"
    fill="#E94B35" />
  <path fill-rule="evenodd" clip-rule="evenodd"
    d="M13.3333 1.13672C5.56538 3.8823 0 11.2906 0 19.9987C0 28.7068 5.56538 36.1151 13.3333 38.8606V1.13672V1.13672Z"
    fill="#1AAF5D" />
  <path fill-rule="evenodd" clip-rule="evenodd"
    d="M19.3565 24.7795C17.0301 24.7095 6.36222 18.0506 6.28906 16.9902L6.87814 16.0078C7.9363 17.5453 18.8421 24.0212 19.9132 23.7918L19.3565 24.7792"
    fill="#FFFF00" />
  <path fill-rule="evenodd" clip-rule="evenodd"
    d="M6.75482 15.874C6.54619 16.4356 9.53865 18.2857 13.139 20.4755C16.7393 22.6653 19.8437 24.0183 20.0738 23.8243C20.0877 23.7992 20.187 23.6286 20.1779 23.63C20.1347 23.6951 20.0297 23.7154 19.8659 23.6682C18.8933 23.3877 16.3563 22.2233 13.2144 20.3179C10.0727 18.4125 7.33919 16.6568 6.91426 15.9106C6.88479 15.859 6.86367 15.7648 6.86802 15.6914H6.85762L6.76709 15.8494L6.75473 15.8742L6.7548 15.874L6.75482 15.874ZM19.4118 24.8092C19.3723 24.8808 19.2988 24.8833 19.159 24.8678C18.2888 24.7715 15.6483 23.4874 12.524 21.6171C8.88828 19.4407 5.8856 17.4578 6.2118 16.9393L6.30043 16.7826L6.31788 16.7881C6.02497 17.6663 12.2435 21.2219 12.6096 21.4487C16.2077 23.6779 19.241 24.9796 19.5095 24.6412L19.4119 24.8092L19.4118 24.8092Z"
    fill="#FFFF00" />
  <path fill-rule="evenodd" clip-rule="evenodd"
    d="M6.75492 15.8743C6.54622 16.4359 9.53867 18.286 13.1391 20.4758C16.7394 22.6654 19.8438 24.0186 20.0739 23.8245C20.0879 23.7995 20.1871 23.6289 20.178 23.6302C20.1349 23.6952 20.0299 23.7157 19.8661 23.6685C18.8934 23.388 16.3564 22.2235 13.2146 20.3182C10.0728 18.4128 7.33936 16.657 6.91451 15.9109C6.88497 15.8592 6.86391 15.7649 6.86819 15.6916L6.85787 15.6914L6.76741 15.8495L6.75498 15.8743H6.75491L6.75492 15.8743ZM19.4119 24.8102C19.3724 24.8818 19.2989 24.8842 19.1592 24.8688C18.289 24.7725 15.6485 23.4885 12.5241 21.6181C8.88852 19.4419 5.88599 17.4589 6.21174 16.9407L6.30036 16.784L6.31782 16.7894C6.0249 17.6677 12.2434 21.2234 12.6095 21.4501C16.2076 23.6792 19.241 24.981 19.5095 24.6427L19.4118 24.8106V24.8105L19.4119 24.8102Z"
    stroke="black" stroke-width="0.1" />
  <path fill-rule="evenodd" clip-rule="evenodd"
    d="M13.344 17.6286C15.6725 17.6102 18.5459 17.3104 20.1995 16.6514L19.8432 16.0725C18.8658 16.6135 15.9767 16.9692 13.3244 17.0224C10.1874 16.9936 7.9731 16.7015 6.86365 15.957L6.52734 16.5734C8.56682 17.4365 10.6567 17.6197 13.3441 17.6287"
    fill="#FFFF00" />
  <path fill-rule="evenodd" clip-rule="evenodd"
    d="M20.2972 16.6666C20.2403 16.7576 19.1618 17.1294 17.5731 17.4039C16.496 17.5681 15.0909 17.7085 13.3374 17.7102C11.6715 17.7117 10.3106 17.5932 9.28026 17.4535C7.61258 17.192 6.75187 16.8282 6.43359 16.6998C6.46402 16.6393 6.48358 16.5967 6.51292 16.5402C7.42893 16.905 8.29364 17.1249 9.30668 17.2808C10.3302 17.4194 11.6747 17.5397 13.3324 17.538C15.0777 17.5364 16.4673 17.3853 17.5383 17.226C19.1674 16.9631 20.0573 16.6249 20.1822 16.4679L20.2973 16.6665V16.6666L20.2972 16.6666ZM19.9844 16.0795C19.8078 16.2213 18.928 16.5333 17.3801 16.7805C16.347 16.9287 15.0335 17.0612 13.3553 17.0629C11.7609 17.0644 10.4583 16.957 9.46746 16.8125C7.89542 16.6073 7.05881 16.237 6.75702 16.129C6.78704 16.0771 6.8176 16.0255 6.84897 15.9738C7.08375 16.092 7.89119 16.4199 9.48471 16.6457C10.4643 16.7844 11.7688 16.8879 13.3553 16.8863C15.0256 16.8847 16.3241 16.7495 17.3507 16.6024C18.9066 16.3883 19.7438 15.9904 19.871 15.8906L19.9844 16.0795H19.9844Z"
    fill="#FFFF00" />
  <path fill-rule="evenodd" clip-rule="evenodd"
    d="M20.297 16.6665C20.2401 16.7575 19.1617 17.1294 17.573 17.4039C16.4958 17.5681 15.0907 17.7085 13.3373 17.7102C11.6713 17.7117 10.3105 17.5932 9.28018 17.4535C7.6125 17.192 6.75179 16.8282 6.43359 16.6996C6.46402 16.6391 6.48358 16.5967 6.51292 16.5402C7.42893 16.9049 8.29364 17.1248 9.30668 17.2807C10.3302 17.4193 11.6747 17.5396 13.3323 17.538C15.0776 17.5362 16.4672 17.3852 17.5382 17.2259C19.1673 16.9631 20.0572 16.6249 20.1822 16.4679L20.2972 16.6665H20.2971H20.297ZM19.9843 16.0795C19.8077 16.2213 18.9279 16.5333 17.38 16.7805C16.3469 16.9286 15.0334 17.0611 13.3552 17.0627C11.7608 17.0643 10.4582 16.9568 9.46744 16.8125C7.89541 16.6072 7.05872 16.2369 6.75708 16.1289C6.7871 16.077 6.81766 16.0255 6.84903 15.9738C7.08375 16.092 7.89118 16.4198 9.4847 16.6455C10.4642 16.7844 11.7688 16.8879 13.3553 16.8863C15.0256 16.8846 16.3241 16.7495 17.3506 16.6023C18.9066 16.3882 19.7438 15.9903 19.871 15.8906L19.9844 16.0794V16.0795L19.9843 16.0795Z"
    stroke="black" stroke-width="0.1" />
  <path fill-rule="evenodd" clip-rule="evenodd"
    d="M5.70141 20.4358C7.13359 21.2061 10.3146 21.5943 13.3247 21.621C16.0655 21.6253 19.6361 21.1973 20.9713 20.4898L20.9346 19.7188C20.5169 20.3716 16.6905 20.9978 13.295 20.9721C9.89947 20.9465 6.74639 20.4221 5.69531 19.7432L5.70143 20.4356"
    fill="#FFFF00" />
  <path fill-rule="evenodd" clip-rule="evenodd"
    d="M21.0413 20.3238L21.0414 20.5078C20.8407 20.7476 19.5824 21.1103 18.0045 21.3657C16.8035 21.5498 15.2377 21.6887 13.2868 21.6887C11.4333 21.6887 9.95533 21.5567 8.80899 21.3805C6.99715 21.1168 5.83811 20.6548 5.60547 20.5168L5.60649 20.3025C6.30531 20.767 8.19864 21.1068 8.83442 21.2109C9.97321 21.3858 11.4425 21.517 13.2868 21.517C15.2286 21.517 16.7855 21.3789 17.9789 21.196C19.111 21.0324 20.7238 20.6071 21.0413 20.3239V20.3238L21.0413 20.3238ZM21.0421 19.6699L21.0421 19.8538C20.8414 20.0937 19.5831 20.4563 18.0052 20.7117C16.8042 20.8958 15.2385 21.0347 13.2876 21.0347C11.4341 21.0347 9.95602 20.9027 8.80976 20.7266C6.99792 20.4629 5.83888 20.0008 5.60624 19.8628L5.60719 19.6484C6.30608 20.113 8.19934 20.4529 8.83512 20.5568C9.97391 20.7318 11.4432 20.863 13.2875 20.863C15.2293 20.863 16.7862 20.725 17.9797 20.5419C19.1118 20.3784 20.7246 19.9531 21.0421 19.6699L21.0421 19.6699Z"
    fill="#FFFF00" />
  <path fill-rule="evenodd" clip-rule="evenodd"
    d="M21.0414 20.324L21.0414 20.5079C20.8407 20.7478 19.5824 21.1105 18.0045 21.3659C16.8035 21.55 15.2378 21.6889 13.2868 21.6889C11.4333 21.6889 9.95525 21.5567 8.80899 21.3808C6.99707 21.1169 5.83811 20.6549 5.60547 20.517L5.60649 20.3025C6.30531 20.7671 8.19864 21.107 8.83442 21.211C9.97321 21.3858 11.4425 21.517 13.2868 21.517C15.2286 21.517 16.7855 21.379 17.9789 21.1961C19.111 21.0326 20.7238 20.6073 21.0413 20.3241H21.0414L21.0414 20.324ZM21.0421 19.6701L21.0422 19.8539C20.8415 20.0937 19.5832 20.4564 18.0052 20.7118C16.8043 20.8959 15.2386 21.0348 13.2876 21.0348C11.4341 21.0348 9.95602 20.9027 8.80976 20.7266C6.99784 20.4629 5.83888 20.0009 5.60624 19.8629L5.60726 19.6484C6.30608 20.113 8.19941 20.4529 8.83519 20.5568C9.97398 20.7318 11.4433 20.863 13.2875 20.863C15.2294 20.863 16.7863 20.725 17.9797 20.5419C19.1118 20.3784 20.7246 19.9531 21.0421 19.6699L21.0421 19.6701L21.0421 19.6701Z"
    stroke="black" stroke-width="0.1" />
  <path fill-rule="evenodd" clip-rule="evenodd"
    d="M13.3175 24.6452C10.0237 24.6256 7.20143 23.7474 6.60547 23.6022L7.04005 24.2826C8.09274 24.7254 10.8461 25.3853 13.3491 25.3122C15.8521 25.2392 18.0396 25.0453 19.5811 24.2949L20.0267 23.5898C18.9762 24.0846 15.401 24.6402 13.3174 24.6452"
    fill="#FFFF00" />
  <path fill-rule="evenodd" clip-rule="evenodd"
    d="M19.7468 24.1374C19.6813 24.2373 19.6146 24.3361 19.5468 24.4323C18.8197 24.6885 17.674 24.9577 17.1906 25.0362C16.2031 25.2398 14.6752 25.3901 13.3192 25.3908C10.4014 25.3481 8.01297 24.7768 6.88935 24.2895L6.79869 24.1336L6.81356 24.1102L6.96732 24.1698C8.96551 24.8846 11.2097 25.1698 13.3356 25.2211C14.6862 25.2259 16.0382 25.0664 17.1314 24.8708C18.808 24.5349 19.4859 24.2817 19.6939 24.1669L19.7468 24.1373V24.1374L19.7468 24.1374ZM20.1331 23.5C20.1348 23.502 20.1365 23.504 20.1381 23.506C20.0892 23.5886 20.0387 23.6727 19.987 23.7572C19.5992 23.896 18.5467 24.2038 17.01 24.4188C15.9974 24.5566 15.368 24.6902 13.3537 24.7294C9.57912 24.6334 7.13528 23.8953 6.5548 23.7132L6.46875 23.5482C8.65623 24.1193 10.8906 24.5179 13.3539 24.5587C15.1967 24.5194 15.9807 24.3837 16.9848 24.2469C18.7768 23.9681 19.6797 23.6731 19.9508 23.5879C19.9473 23.583 19.9433 23.5779 19.9388 23.5727L20.1331 23.5001L20.1331 23.5Z"
    fill="#FFFF00" />
  <path fill-rule="evenodd" clip-rule="evenodd"
    d="M19.7467 24.1374C19.6813 24.2374 19.6145 24.3363 19.5468 24.4323C18.8197 24.6887 17.674 24.9578 17.1906 25.0363C16.203 25.2398 14.6751 25.3901 13.3191 25.3908C10.4013 25.3481 8.01289 24.7769 6.88927 24.2897L6.79861 24.1338L6.81342 24.1104L6.96717 24.17C8.96537 24.8849 11.2096 25.1701 13.3356 25.2213C14.6861 25.2261 16.0381 25.0665 17.1314 24.871C18.808 24.5351 19.4858 24.2819 19.6938 24.1671L19.7468 24.1374H19.7467L19.7467 24.1374ZM20.1331 23.5001C20.1348 23.5021 20.1365 23.504 20.1381 23.5061C20.0892 23.5888 20.0387 23.6728 19.987 23.7573C19.5992 23.8959 18.5468 24.2039 17.01 24.4188C15.9974 24.5567 15.368 24.6903 13.3537 24.7294C9.5792 24.6334 7.13536 23.8954 6.5548 23.7133L6.46875 23.5483C8.65623 24.1193 10.8907 24.518 13.3539 24.5587C15.1967 24.5194 15.9807 24.3837 16.9849 24.2468C18.777 23.9682 19.6799 23.6731 19.9509 23.588C19.9475 23.5831 19.9435 23.5779 19.939 23.5726L20.1333 23.5L20.1331 23.5002L20.1331 23.5001Z"
    stroke="black" stroke-width="0.1" />
  <path fill-rule="evenodd" clip-rule="evenodd"
    d="M20.1734 19.8292C20.1841 21.996 19.0753 23.9404 18.1822 24.7982C16.9186 26.0117 15.2433 26.7923 13.2868 26.8283C11.1021 26.8684 9.04219 25.4442 8.48966 24.8185C7.40939 23.5952 6.52989 22.0418 6.5017 19.9483C6.63551 17.5835 7.56387 15.9362 8.90958 14.8066C10.2553 13.6769 12.0471 13.1268 13.5394 13.1661C15.2611 13.2116 17.2723 14.0562 18.662 15.733C19.5724 16.8316 19.9667 18.0238 20.1734 19.8292C20.1734 19.8292 19.9667 18.0238 20.1734 19.8292ZM13.3054 12.4102C17.5012 12.4102 20.952 15.8245 20.952 20.011C20.952 24.1975 17.5012 27.612 13.3054 27.612C9.10964 27.612 5.6875 24.1976 5.6875 20.011C5.6875 15.8245 9.10964 12.4102 13.3054 12.4102Z"
    fill="#FFFF00" />
  <path fill-rule="evenodd" clip-rule="evenodd"
    d="M20.9484 20.0083C20.9484 24.2081 17.5233 27.6336 13.3238 27.6336C9.12429 27.6336 5.69922 24.2082 5.69922 20.0083C5.69922 15.8083 9.12437 12.3828 13.3238 12.3828C17.5234 12.3828 20.9484 15.8083 20.9484 20.0083ZM20.7807 20.0083C20.7807 24.1097 17.4127 27.4659 13.3238 27.4659C9.23503 27.4659 5.86702 24.1097 5.86702 20.0083C5.86702 15.9069 9.23503 12.5506 13.3238 12.5506C17.4126 12.5506 20.7807 15.9067 20.7807 20.0083Z"
    stroke="black" stroke-width="0.1" />
  <path fill-rule="evenodd" clip-rule="evenodd"
    d="M20.3158 20.0005C20.3158 23.842 17.1613 26.9854 13.3317 26.9854C9.50212 26.9854 6.34766 23.842 6.34766 20.0005C6.34766 16.1592 9.5022 13.0156 13.3317 13.0156C17.1614 13.0156 20.3158 16.1592 20.3158 20.0005ZM20.1481 20.0005C20.1481 23.7496 17.0694 26.8175 13.3317 26.8175C9.59407 26.8175 6.51538 23.7496 6.51538 20.0005C6.51538 16.2513 9.59407 13.1834 13.3317 13.1834C17.0694 13.1834 20.1481 16.2513 20.1481 20.0005Z"
    stroke="black" stroke-width="0.1" />
  <path fill-rule="evenodd" clip-rule="evenodd"
    d="M13.5731 12.2656V12.3498H13.0918V12.2681H12.9258V27.7636H13.0918V27.6914H13.5756V27.7658H13.7416L13.7391 12.2658H13.5731V12.2656Z"
    fill="#FFFF00" />
  <path fill-rule="evenodd" clip-rule="evenodd"
    d="M13.1038 12.2227H13.5673H13.1038ZM13.1045 27.556H13.5703H13.1045ZM13.5743 12.2647H13.7406L13.742 27.7625H13.5756L13.5743 12.2647H13.5743H13.5743ZM12.9258 12.2648H13.0934L13.0936 27.7626H12.9259V12.2648H12.9258H12.9258Z"
    stroke="black" stroke-width="0.1" />
  <path fill-rule="evenodd" clip-rule="evenodd"
    d="M5.67203 19.6826C6.62816 18.8023 10.156 18.2315 13.2859 18.2464C16.4159 18.2611 20.1228 18.9042 20.9291 19.6639L20.9372 20.3203C20.2619 19.6851 17.382 18.9276 13.2921 18.9191C9.20214 18.9106 6.23265 19.689 5.67188 20.3374L5.67203 19.6826"
    fill="#FFFF00" />
  <path d="M20.888 19.7379V20.3044M5.55469 19.7148V20.2814V19.7148Z" stroke="black" stroke-width="0.1" />
  <path fill-rule="evenodd" clip-rule="evenodd"
    d="M13.3284 18.8259C15.1291 18.8226 16.8761 18.9966 18.2619 19.2663C19.6919 19.5523 20.6982 19.9099 21.0422 20.3115L21.0418 20.5103C20.6269 20.0106 19.2727 19.6442 18.2296 19.4348C16.8544 19.1671 15.119 18.9944 13.3283 18.9979C11.4387 19.0013 9.67917 19.1804 8.32407 19.4446C7.23672 19.6604 5.78651 20.0891 5.60547 20.5118V20.3047C5.70496 20.0122 6.78469 19.5748 8.29958 19.2715C9.66477 19.0053 11.4276 18.8295 13.3283 18.8259H13.3284L13.3284 18.8259ZM13.3292 18.1719C15.1299 18.1687 16.8768 18.3427 18.2627 18.6124C19.6926 18.8984 20.699 19.2559 21.043 19.6576L21.0426 19.8563C20.6276 19.3566 19.2735 18.9902 18.2304 18.7808C16.8551 18.5132 15.1198 18.3405 13.3291 18.3439C11.4395 18.3473 9.68841 18.5264 8.33323 18.7907C7.28393 18.9896 5.7745 19.4352 5.60624 19.8578V19.6508C5.70573 19.3613 6.80733 18.9083 8.30043 18.6175C9.66562 18.3513 11.4285 18.1755 13.3292 18.172V18.1719Z"
    fill="#FFFF00" />
  <path fill-rule="evenodd" clip-rule="evenodd"
    d="M18.2618 19.2663C19.6917 19.5522 20.6981 19.9097 21.0421 20.3114L21.0417 20.5102C20.6268 20.0104 19.2726 19.644 18.2296 19.4346C16.8544 19.1671 15.119 18.9943 13.3283 18.9977C11.4386 19.0012 9.6791 19.1802 8.324 19.4446C7.23665 19.6603 5.78651 20.089 5.60547 20.5117V20.3047C5.70489 20.012 6.78469 19.5747 8.29951 19.2714C9.66478 19.0052 11.4276 18.8293 13.3283 18.8259C15.1289 18.8225 16.876 18.9965 18.2618 19.2663ZM18.2625 18.6123C19.6925 18.8983 20.6988 19.2558 21.0429 19.6574L21.0425 19.8563C20.6276 19.3566 19.2734 18.9902 18.2303 18.7808C16.8551 18.5131 15.1198 18.3404 13.329 18.3439C11.4394 18.3473 9.68842 18.5264 8.33316 18.7906C7.28385 18.9895 5.7745 19.4351 5.60616 19.8579V19.6507C5.70559 19.3613 6.80725 18.9083 8.30028 18.6175C9.66555 18.3513 11.4283 18.1755 13.329 18.1719C15.1297 18.1686 16.8768 18.3426 18.2625 18.6123Z"
    stroke="black" stroke-width="0.1" />
  <path fill-rule="evenodd" clip-rule="evenodd"
    d="M19.7391 15.813L20.1521 16.5275C19.1679 15.9971 16.4976 15.4456 13.298 15.5281C10.691 15.5441 7.90543 15.8151 6.50781 16.5607L7.00093 15.7361C8.14796 15.1412 10.853 14.8395 13.294 14.8363C16.1316 14.822 18.6067 15.2329 19.7391 15.813Z"
    fill="#FFFF00" />
  <path d="M19.8086 15.9297L20.0897 16.381" stroke="black" stroke-width="0.1" />
  <path fill-rule="evenodd" clip-rule="evenodd"
    d="M13.3304 15.4268C14.9489 15.4224 16.5128 15.5138 17.7566 15.7382C18.9148 15.9538 20.0194 16.2772 20.1773 16.4515L20.2997 16.6678C19.9156 16.417 18.9597 16.1378 17.7323 15.905C16.4997 15.6733 14.9369 15.5966 13.3274 15.6008C11.5006 15.5946 10.0814 15.6909 8.86335 15.9032C7.57524 16.1444 6.68149 16.4886 6.46094 16.6523L6.58101 16.4236C7.00941 16.2051 7.68915 15.9416 8.8314 15.736C10.091 15.5059 11.5254 15.4367 13.3304 15.4268H13.3305L13.3304 15.4268ZM13.3297 14.7736C14.8786 14.7694 16.4079 14.8557 17.5999 15.0701C18.5401 15.253 19.4699 15.5389 19.8103 15.793L19.9894 16.0777C19.685 15.7392 18.5389 15.4185 17.5271 15.2389C16.3441 15.0349 14.8784 14.9542 13.3296 14.9413C11.7041 14.9457 10.2019 15.0453 9.03626 15.2576C7.92411 15.4692 7.20656 15.7198 6.90292 15.9153L7.0604 15.6776C7.47943 15.457 8.15638 15.2544 9.00893 15.0889C10.1833 14.8751 11.6947 14.778 13.3297 14.7736H13.3297Z"
    fill="#FFFF00" />
  <path fill-rule="evenodd" clip-rule="evenodd"
    d="M17.7563 15.7383C18.9146 15.9539 20.0192 16.2775 20.1772 16.4514L20.2996 16.6678C19.9155 16.417 18.9596 16.1377 17.7322 15.905C16.4997 15.6733 14.9369 15.5966 13.3274 15.6008C11.5006 15.5946 10.0814 15.691 8.86335 15.9034C7.57516 16.1444 6.68141 16.4887 6.46094 16.6524L6.58094 16.4236C7.00934 16.2051 7.68908 15.9416 8.83133 15.736C10.0909 15.5059 11.5253 15.4368 13.3304 15.4269C14.9487 15.4226 16.5126 15.5139 17.7563 15.7383ZM17.5998 15.0701C18.54 15.2531 19.4698 15.5389 19.8102 15.7931L19.9893 16.0777C19.6848 15.7393 18.5388 15.4186 17.5271 15.2389C16.3441 15.0349 14.8784 14.9542 13.3295 14.9413C11.704 14.9458 10.2019 15.0454 9.03619 15.2576C7.92412 15.4692 7.20649 15.7198 6.90285 15.9155L7.06033 15.6778C7.47936 15.4572 8.15631 15.2546 9.00886 15.0889C10.1832 14.8751 11.6946 14.7781 13.3296 14.7736C14.8784 14.7695 16.4077 14.8558 17.5998 15.0701Z"
    stroke="black" stroke-width="0.1" />
  <path fill-rule="evenodd" clip-rule="evenodd"
    d="M17.1176 23.1779C15.7147 22.916 14.3092 22.8779 13.3275 22.8895C8.59871 22.9449 7.0711 23.8605 6.88467 24.1377L6.53125 23.5616C7.73519 22.6889 10.3102 22.1995 13.3531 22.2496C14.9332 22.2755 16.2967 22.3804 17.4437 22.6026L17.1175 23.178"
    fill="#FFFF00" />
  <path d="M6.60938 23.6406L6.84137 24.04" stroke="black" stroke-width="0.1" />
  <path fill-rule="evenodd" clip-rule="evenodd"
    d="M13.3006 22.8065C14.6161 22.8262 15.9073 22.8805 17.1535 23.1129L17.0633 23.2722C15.9058 23.0586 14.6718 22.9768 13.3051 22.9833C11.5599 22.9698 9.79469 23.1328 8.25792 23.5739C7.77302 23.7087 6.97028 24.0205 6.88834 24.2782L6.79863 24.13C6.82443 23.9777 7.30968 23.6618 8.21657 23.407C9.97681 22.9029 11.6233 22.8179 13.3005 22.8064L13.3005 22.8066L13.3006 22.8065ZM13.3603 22.1446C14.7232 22.17 16.1307 22.2331 17.4987 22.504L17.4047 22.67C16.1694 22.4247 14.9891 22.343 13.3684 22.3181C11.6177 22.3211 9.76062 22.4461 8.07199 22.937C7.52685 23.0958 6.58598 23.4391 6.55456 23.7108L6.46484 23.5517C6.48522 23.3048 7.29976 22.9828 8.03257 22.7696C9.73413 22.2749 11.5961 22.1477 13.3604 22.1445L13.3603 22.1446Z"
    fill="#FFFF00" />
  <path fill-rule="evenodd" clip-rule="evenodd"
    d="M13.3007 22.8065C14.6161 22.8261 15.9073 22.8805 17.1536 23.1129L17.0634 23.2722C15.9059 23.0586 14.6719 22.9768 13.3052 22.9834C11.5599 22.9698 9.79476 23.1328 8.25799 23.5738C7.77309 23.7088 6.97035 24.0205 6.88849 24.2781L6.7987 24.1301C6.82458 23.9778 7.30975 23.6618 8.21672 23.407C9.97696 22.9029 11.6235 22.8179 13.3007 22.8064V22.8065L13.3007 22.8065ZM13.3604 22.1445C14.7233 22.17 16.1307 22.233 17.4988 22.504L17.4048 22.6699C16.1694 22.4246 14.9891 22.3428 13.3684 22.3179C11.6177 22.3211 9.76053 22.446 8.07199 22.9369C7.52684 23.0956 6.58597 23.439 6.55463 23.7108L6.46484 23.5517C6.48529 23.3048 7.29976 22.9828 8.03257 22.7696C9.73413 22.2749 11.5961 22.1477 13.3604 22.1445C13.3604 22.1445 11.5961 22.1477 13.3604 22.1445L13.3604 22.1445Z"
    stroke="black" stroke-width="0.1" />
  <path fill-rule="evenodd" clip-rule="evenodd"
    d="M6.93187 15.7267C9.27437 15.6962 20.0933 22.3377 20.1248 23.5607L19.4546 24.588C19.152 23.168 8.1745 16.7047 6.36328 16.8272L6.93151 15.7267"
    fill="#FFFF00" />
  <path d="M6.91499 15.7852L6.38672 16.7647M20.0764 23.6484L19.5081 24.5301L20.0764 23.6484Z" stroke="black"
    stroke-width="0.1" />
  <path fill-rule="evenodd" clip-rule="evenodd"
    d="M6.29914 16.7871C6.73399 16.4922 9.92921 17.9156 13.2726 19.9315C16.6071 21.9533 19.7934 24.2378 19.5058 24.6655L19.4111 24.8142L19.3677 24.8486C19.377 24.8418 19.425 24.7833 19.3631 24.6248C19.221 24.1573 16.9608 22.3538 13.2106 20.0894C9.55466 17.9093 6.50777 16.5955 6.20312 16.971L6.29915 16.7872H6.29909L6.29914 16.7871ZM20.1944 23.635C20.4693 23.0921 17.5056 20.8594 13.8311 18.6856C10.0721 16.5553 7.36293 15.301 6.86807 15.675L6.75805 15.875C6.75717 15.8861 6.76206 15.8615 6.78529 15.8434C6.87534 15.7649 7.02441 15.7702 7.09172 15.769C7.94388 15.7817 10.3775 16.9017 13.7918 18.8591C15.2879 19.7306 20.1119 22.8243 20.0935 23.6944C20.0948 23.7691 20.0997 23.7844 20.0715 23.8214L20.1943 23.6349L20.1944 23.635Z"
    fill="#FFFF00" />
  <path fill-rule="evenodd" clip-rule="evenodd"
    d="M13.2726 19.9315C16.6071 21.9533 19.7934 24.2379 19.5057 24.6654L19.4111 24.8142L19.3677 24.8484C19.377 24.8418 19.425 24.7832 19.3631 24.6246C19.221 24.1572 16.9608 22.3536 13.2106 20.0893C9.55465 17.9093 6.50777 16.5954 6.20312 16.9709L6.29915 16.7869C6.73393 16.4921 9.92922 17.9155 13.2726 19.9315ZM13.8311 18.6856C10.0721 16.5551 7.36293 15.301 6.86808 15.675L6.75813 15.8751C6.75718 15.8861 6.76213 15.8615 6.78536 15.8436C6.87535 15.765 7.02449 15.7703 7.09179 15.7691C7.94388 15.7819 10.3775 16.9018 13.7919 18.8593C15.288 19.7306 20.112 22.8245 20.0936 23.6945C20.0949 23.7693 20.0998 23.7847 20.0717 23.8217L20.1944 23.6351C20.4693 23.092 17.5056 20.8594 13.8311 18.6856Z"
    stroke="black" stroke-width="0.1" />
  <path fill-rule="evenodd" clip-rule="evenodd"
    d="M8.75873 20.8471C8.75873 22.1 9.27181 23.2333 10.1031 24.0615C10.936 24.8915 12.0678 25.4152 13.3227 25.4152C14.5842 25.4152 15.729 24.9029 16.5583 24.0761C17.3876 23.2495 17.9016 22.1085 17.9018 20.8512H17.9017V14.7531L8.75781 14.7422L8.75876 20.847"
    fill="white" />
  <path fill-rule="evenodd" clip-rule="evenodd"
    d="M8.75889 20.8472C8.75889 22.1002 9.27198 23.2335 10.1032 24.0617C10.9361 24.8917 12.0678 25.4154 13.3228 25.4154C14.5843 25.4154 15.7291 24.9031 16.5584 24.0763C17.3877 23.2496 17.9016 22.1086 17.9019 20.8512H17.9017V14.7531L8.75781 14.7422L8.75876 20.8472H8.75891L8.75889 20.8472Z"
    stroke="black" stroke-width="0.1" />
  <path fill-rule="evenodd" clip-rule="evenodd"
    d="M8.92969 20.8557C8.92969 22.0572 9.42579 23.1481 10.2216 23.9401C11.0189 24.7337 12.117 25.2271 13.3184 25.2271C14.5258 25.2271 15.6218 24.7373 16.4157 23.9468C17.2096 23.1562 17.7015 22.0652 17.7016 20.8629L17.7015 14.9469L8.93492 14.9453L8.92969 20.8557ZM15.9393 20.4815L15.936 20.8798C15.9361 20.9847 15.9298 21.1042 15.9176 21.2058C15.8463 21.8012 15.5725 22.3199 15.1671 22.7235C14.6925 23.1961 14.0373 23.489 13.3153 23.489C12.5971 23.489 11.957 23.1858 11.4803 22.7113C10.9914 22.2247 10.708 21.5574 10.708 20.8673L10.707 16.7071L15.939 16.7166L15.9393 20.4815Z"
    fill="#E94B35" />
  <path fill-rule="evenodd" clip-rule="evenodd"
    d="M16.8103 15.9649C16.8125 15.9634 17.1362 16.0733 17.1351 16.4961L16.4961 16.4922C16.5065 16.067 16.8082 15.9664 16.8103 15.9649Z"
    fill="#FFFF00" />
  <path fill-rule="evenodd" clip-rule="evenodd"
    d="M16.1847 16.4604L16.5036 16.4611C16.5066 16.0568 16.8096 15.9896 16.8169 15.9911C16.8238 15.9907 17.1241 16.0805 17.1321 16.4611H17.4518L17.394 15.9688L16.2372 15.9717L16.1847 16.4604ZM16.1633 16.4623H17.4682C17.4957 16.4623 17.5182 16.4895 17.5182 16.5227C17.5182 16.5559 17.4957 16.5829 17.4682 16.5829H16.1633C16.1358 16.5829 16.1133 16.5559 16.1133 16.5227C16.1133 16.4895 16.1358 16.4623 16.1633 16.4623C16.1633 16.4623 16.1358 16.4623 16.1633 16.4623Z"
    fill="#FFFF00" />
  <path
    d="M16.1633 16.4623H17.4682C17.4957 16.4623 17.5182 16.4895 17.5182 16.5227C17.5182 16.5559 17.4957 16.5829 17.4682 16.5829H16.1633C16.1358 16.5829 16.1133 16.5559 16.1133 16.5227C16.1133 16.4895 16.1358 16.4623 16.1633 16.4623ZM16.1633 16.4623C16.1633 16.4623 16.1358 16.4623 16.1633 16.4623ZM16.1847 16.4604L16.5036 16.4611C16.5066 16.0568 16.8096 15.9896 16.8169 15.9911C16.8238 15.9907 17.1241 16.0805 17.1321 16.4611H17.4518L17.394 15.9688L16.2372 15.9717L16.1847 16.4604Z"
    stroke="black" stroke-width="0.1" />
  <path
    d="M16.6367 16.46C16.6381 16.2049 16.8109 16.1327 16.8118 16.1328C16.8119 16.1328 16.9922 16.2072 16.9936 16.46H16.6367"
    stroke="black" stroke-width="0.1" />
  <path fill-rule="evenodd" clip-rule="evenodd"
    d="M16.1633 15.7812H17.4682C17.4957 15.7812 17.5182 15.8084 17.5182 15.8416C17.5182 15.8748 17.4957 15.9018 17.4682 15.9018H16.1633C16.1358 15.9018 16.1133 15.8748 16.1133 15.8416C16.1133 15.8084 16.1358 15.7812 16.1633 15.7812C16.1633 15.7812 16.1358 15.7812 16.1633 15.7812Z"
    fill="#FFFF00" />
  <path
    d="M16.1633 15.7812H17.4682C17.4957 15.7812 17.5182 15.8084 17.5182 15.8416C17.5182 15.8748 17.4957 15.9018 17.4682 15.9018H16.1633C16.1358 15.9018 16.1133 15.8748 16.1133 15.8416C16.1133 15.8084 16.1358 15.7812 16.1633 15.7812ZM16.1633 15.7812C16.1633 15.7812 16.1358 15.7812 16.1633 15.7812Z"
    stroke="black" stroke-width="0.1" />
  <path fill-rule="evenodd" clip-rule="evenodd"
    d="M16.1633 15.8905H17.4682C17.4957 15.8905 17.5182 15.9176 17.5182 15.9508C17.5182 15.984 17.4957 16.011 17.4682 16.011H16.1633C16.1358 16.011 16.1133 15.984 16.1133 15.9508C16.1133 15.9176 16.1358 15.8905 16.1633 15.8905C16.1633 15.8905 16.1358 15.8905 16.1633 15.8905ZM16.6982 15.064V15.1311H16.7671V15.0625L16.8639 15.0628V15.1311H16.9331V15.0625H17.0299L17.0297 15.2175C17.0297 15.2418 17.0102 15.2575 16.9875 15.2575H16.6478C16.625 15.2575 16.6039 15.2393 16.6039 15.217L16.6036 15.0639L16.6982 15.064Z"
    fill="#FFFF00" />
  <path
    d="M16.1633 15.8905H17.4682C17.4957 15.8905 17.5182 15.9176 17.5182 15.9508C17.5182 15.984 17.4957 16.011 17.4682 16.011H16.1633C16.1358 16.011 16.1133 15.984 16.1133 15.9508C16.1133 15.9176 16.1358 15.8905 16.1633 15.8905ZM16.1633 15.8905C16.1633 15.8905 16.1358 15.8905 16.1633 15.8905ZM16.6982 15.064V15.1311H16.7671V15.0625L16.8639 15.0628V15.1311H16.9331V15.0625H17.0299L17.0297 15.2175C17.0297 15.2418 17.0102 15.2575 16.9875 15.2575H16.6478C16.625 15.2575 16.6039 15.2393 16.6039 15.217L16.6036 15.0639L16.6982 15.064Z"
    stroke="black" stroke-width="0.1" />
  <path fill-rule="evenodd" clip-rule="evenodd"
    d="M16.9584 15.2709L16.9798 15.7678L16.6484 15.7664L16.6702 15.2695L16.9584 15.2709Z" fill="#FFFF00" stroke="black"
    stroke-width="0.1" />
  <path fill-rule="evenodd" clip-rule="evenodd" d="M17.384 15.7678L17.0664 15.768L17.0753 15.5H17.374L17.384 15.7678Z"
    fill="#FFFF00" stroke="black" stroke-width="0.1" />
  <path fill-rule="evenodd" clip-rule="evenodd"
    d="M17.0157 15.306L17.1081 15.3063V15.3734H17.1757V15.3047L17.2703 15.305V15.3735H17.3381V15.3047L17.4328 15.3049L17.4326 15.4598C17.4326 15.484 17.4135 15.4997 17.3913 15.4997H17.0589C17.0366 15.4997 17.0159 15.4816 17.0159 15.4593L17.0156 15.3061H17.0157L17.0157 15.306Z"
    fill="#FFFF00" stroke="black" stroke-width="0.1" />
  <path fill-rule="evenodd" clip-rule="evenodd" d="M16.56 15.7678L16.2422 15.768L16.2513 15.5H16.55L16.56 15.7678Z"
    fill="#FFFF00" stroke="black" stroke-width="0.1" />
  <path fill-rule="evenodd" clip-rule="evenodd"
    d="M16.1993 15.306L16.2917 15.3063V15.3734H16.3593V15.3047L16.4539 15.305V15.3735H16.5217V15.3047L16.6164 15.3049L16.6162 15.4598C16.6162 15.484 16.5971 15.4997 16.5749 15.4997H16.2425C16.2202 15.4997 16.1995 15.4816 16.1994 15.4593L16.1992 15.3061H16.1993L16.1993 15.306Z"
    fill="#FFFF00" stroke="black" stroke-width="0.1" />
  <path fill-rule="evenodd" clip-rule="evenodd"
    d="M13.3338 15.9649C13.3359 15.9634 13.6596 16.0733 13.6585 16.4961L13.0195 16.4922C13.0299 16.067 13.3316 15.9664 13.3338 15.9649Z"
    fill="#FFFF00" />
  <path fill-rule="evenodd" clip-rule="evenodd"
    d="M12.7081 16.4604L13.027 16.4611C13.03 16.0568 13.333 15.9896 13.3403 15.9911C13.3472 15.9907 13.6475 16.0805 13.6555 16.4611H13.9752L13.9175 15.9688L12.7607 15.9717L12.7081 16.4604ZM12.6867 16.4623H13.9917C14.0192 16.4623 14.0417 16.4895 14.0417 16.5227C14.0417 16.5559 14.0192 16.5829 13.9917 16.5829H12.6867C12.6592 16.5829 12.6367 16.5559 12.6367 16.5227C12.6367 16.4895 12.6592 16.4623 12.6867 16.4623C12.6867 16.4623 12.6592 16.4623 12.6867 16.4623Z"
    fill="#FFFF00" />
  <path
    d="M12.6867 16.4623H13.9917C14.0192 16.4623 14.0417 16.4895 14.0417 16.5227C14.0417 16.5559 14.0192 16.5829 13.9917 16.5829H12.6867C12.6592 16.5829 12.6367 16.5559 12.6367 16.5227C12.6367 16.4895 12.6592 16.4623 12.6867 16.4623ZM12.6867 16.4623C12.6867 16.4623 12.6592 16.4623 12.6867 16.4623ZM12.7081 16.4604L13.027 16.4611C13.03 16.0568 13.333 15.9896 13.3403 15.9911C13.3472 15.9907 13.6475 16.0805 13.6555 16.4611H13.9752L13.9175 15.9688L12.7607 15.9717L12.7081 16.4604Z"
    stroke="black" stroke-width="0.1" />
  <path
    d="M13.1602 16.46C13.1616 16.2049 13.3344 16.1327 13.3352 16.1328C13.3353 16.1328 13.5156 16.2072 13.5171 16.46H13.1602"
    stroke="black" stroke-width="0.1" />
  <path fill-rule="evenodd" clip-rule="evenodd"
    d="M12.6867 15.7812H13.9917C14.0192 15.7812 14.0417 15.8084 14.0417 15.8416C14.0417 15.8748 14.0192 15.9018 13.9917 15.9018H12.6867C12.6592 15.9018 12.6367 15.8748 12.6367 15.8416C12.6367 15.8084 12.6592 15.7812 12.6867 15.7812C12.6867 15.7812 12.6592 15.7812 12.6867 15.7812Z"
    fill="#FFFF00" />
  <path
    d="M12.6867 15.7812H13.9917C14.0192 15.7812 14.0417 15.8084 14.0417 15.8416C14.0417 15.8748 14.0192 15.9018 13.9917 15.9018H12.6867C12.6592 15.9018 12.6367 15.8748 12.6367 15.8416C12.6367 15.8084 12.6592 15.7812 12.6867 15.7812ZM12.6867 15.7812C12.6867 15.7812 12.6592 15.7812 12.6867 15.7812Z"
    stroke="black" stroke-width="0.1" />
  <path fill-rule="evenodd" clip-rule="evenodd"
    d="M12.6867 15.8905H13.9917C14.0192 15.8905 14.0417 15.9176 14.0417 15.9508C14.0417 15.984 14.0192 16.011 13.9917 16.011H12.6867C12.6592 16.011 12.6367 15.984 12.6367 15.9508C12.6367 15.9176 12.6592 15.8905 12.6867 15.8905C12.6592 15.8905 12.6867 15.8905 12.6867 15.8905ZM13.2217 15.064V15.1311H13.2906V15.0625L13.3874 15.0628V15.1311H13.4565V15.0625H13.5533L13.5532 15.2175C13.5532 15.2418 13.5336 15.2575 13.5109 15.2575H13.1712C13.1484 15.2575 13.1274 15.2393 13.1273 15.217L13.1271 15.0639L13.2217 15.064Z"
    fill="#FFFF00" />
  <path
    d="M12.6867 15.8905H13.9917C14.0192 15.8905 14.0417 15.9176 14.0417 15.9508C14.0417 15.984 14.0192 16.011 13.9917 16.011H12.6867C12.6592 16.011 12.6367 15.984 12.6367 15.9508C12.6367 15.9176 12.6592 15.8905 12.6867 15.8905ZM12.6867 15.8905C12.6867 15.8905 12.6592 15.8905 12.6867 15.8905ZM13.2217 15.064V15.1311H13.2906V15.0625L13.3874 15.0628V15.1311H13.4565V15.0625H13.5533L13.5532 15.2175C13.5532 15.2418 13.5336 15.2575 13.5109 15.2575H13.1712C13.1484 15.2575 13.1274 15.2393 13.1273 15.217L13.1271 15.0639L13.2217 15.064Z"
    stroke="black" stroke-width="0.1" />
  <path fill-rule="evenodd" clip-rule="evenodd"
    d="M13.4819 15.2709L13.5032 15.7678L13.1719 15.7664L13.1937 15.2695L13.4819 15.2709Z" fill="#FFFF00" stroke="black"
    stroke-width="0.1" />
  <path fill-rule="evenodd" clip-rule="evenodd"
    d="M13.9074 15.7678L13.5898 15.768L13.5987 15.5H13.8974L13.9074 15.7678Z" fill="#FFFF00" stroke="black"
    stroke-width="0.1" />
  <path fill-rule="evenodd" clip-rule="evenodd"
    d="M13.5392 15.306L13.6315 15.3063V15.3734H13.6991V15.3047L13.7938 15.305V15.3735H13.8615V15.3047L13.9562 15.3049L13.9561 15.4598C13.9561 15.484 13.9369 15.4997 13.9148 15.4997H13.5824C13.5601 15.4997 13.5394 15.4816 13.5393 15.4593L13.5391 15.3061H13.5391L13.5392 15.306Z"
    fill="#FFFF00" stroke="black" stroke-width="0.1" />
  <path fill-rule="evenodd" clip-rule="evenodd"
    d="M13.0834 15.7678L12.7656 15.768L12.7747 15.5H13.0734L13.0834 15.7678Z" fill="#FFFF00" stroke="black"
    stroke-width="0.1" />
  <path fill-rule="evenodd" clip-rule="evenodd"
    d="M12.7228 15.306L12.8151 15.3063V15.3734H12.8827V15.3047L12.9774 15.305V15.3735H13.0451V15.3047L13.1398 15.3049L13.1397 15.4598C13.1397 15.484 13.1205 15.4997 13.0984 15.4997H12.7659C12.7437 15.4997 12.723 15.4816 12.7229 15.4593L12.7227 15.3061H12.7227L12.7228 15.306Z"
    fill="#FFFF00" stroke="black" stroke-width="0.1" />
  <path fill-rule="evenodd" clip-rule="evenodd"
    d="M9.7986 15.9649C9.80078 15.9634 10.1245 16.0733 10.1234 16.4961L9.48438 16.4922C9.49476 16.067 9.79643 15.9664 9.7986 15.9649Z"
    fill="#FFFF00" />
  <path fill-rule="evenodd" clip-rule="evenodd"
    d="M9.17298 16.4604L9.49184 16.4611C9.49489 16.0568 9.79786 15.9896 9.80519 15.9911C9.81205 15.9907 10.1124 16.0805 10.1204 16.4611H10.44L10.3823 15.9688L9.2255 15.9717L9.17298 16.4604ZM9.15155 16.4623H10.4565C10.484 16.4623 10.5065 16.4895 10.5065 16.5227C10.5065 16.5559 10.484 16.5829 10.4565 16.5829H9.15155C9.12404 16.5829 9.10156 16.5559 9.10156 16.5227C9.10156 16.4895 9.12404 16.4623 9.15155 16.4623C9.12404 16.4623 9.15155 16.4623 9.15155 16.4623Z"
    fill="#FFFF00" />
  <path
    d="M9.15155 16.4623H10.4565C10.484 16.4623 10.5065 16.4895 10.5065 16.5227C10.5065 16.5559 10.484 16.5829 10.4565 16.5829H9.15155C9.12404 16.5829 9.10156 16.5559 9.10156 16.5227C9.10156 16.4895 9.12404 16.4623 9.15155 16.4623ZM9.15155 16.4623C9.15155 16.4623 9.12404 16.4623 9.15155 16.4623ZM9.17298 16.4604L9.49184 16.4611C9.49489 16.0568 9.79786 15.9896 9.80519 15.9911C9.81205 15.9907 10.1124 16.0805 10.1204 16.4611H10.44L10.3823 15.9688L9.2255 15.9717L9.17298 16.4604Z"
    stroke="black" stroke-width="0.1" />
  <path
    d="M9.625 16.46C9.62642 16.2049 9.7992 16.1327 9.80009 16.1328C9.80015 16.1328 9.98046 16.2072 9.98189 16.46H9.62501"
    stroke="black" stroke-width="0.1" />
  <path fill-rule="evenodd" clip-rule="evenodd"
    d="M9.15155 15.7812H10.4565C10.484 15.7812 10.5065 15.8084 10.5065 15.8416C10.5065 15.8748 10.484 15.9018 10.4565 15.9018H9.15155C9.12404 15.9018 9.10156 15.8748 9.10156 15.8416C9.10156 15.8084 9.12404 15.7812 9.15155 15.7812C9.12404 15.7812 9.15155 15.7812 9.15155 15.7812Z"
    fill="#FFFF00" />
  <path
    d="M9.15155 15.7812H10.4565C10.484 15.7812 10.5065 15.8084 10.5065 15.8416C10.5065 15.8748 10.484 15.9018 10.4565 15.9018H9.15155C9.12404 15.9018 9.10156 15.8748 9.10156 15.8416C9.10156 15.8084 9.12404 15.7812 9.15155 15.7812ZM9.15155 15.7812C9.15155 15.7812 9.12404 15.7812 9.15155 15.7812Z"
    stroke="black" stroke-width="0.1" />
  <path fill-rule="evenodd" clip-rule="evenodd"
    d="M9.15155 15.8905H10.4565C10.484 15.8905 10.5065 15.9176 10.5065 15.9508C10.5065 15.984 10.484 16.011 10.4565 16.011H9.15155C9.12404 16.011 9.10156 15.984 9.10156 15.9508C9.10156 15.9176 9.12404 15.8905 9.15155 15.8905C9.15155 15.8905 9.12404 15.8905 9.15155 15.8905ZM9.6865 15.064V15.1311H9.75543V15.0625L9.8522 15.0628V15.1311H9.92134V15.0625H10.0182L10.018 15.2175C10.018 15.2418 9.99847 15.2575 9.97579 15.2575H9.63609C9.61327 15.2575 9.59221 15.2393 9.59214 15.217L9.59191 15.0639L9.6865 15.064Z"
    fill="#FFFF00" />
  <path
    d="M9.15155 15.8905H10.4565C10.484 15.8905 10.5065 15.9176 10.5065 15.9508C10.5065 15.984 10.484 16.011 10.4565 16.011H9.15155C9.12404 16.011 9.10156 15.984 9.10156 15.9508C9.10156 15.9176 9.12404 15.8905 9.15155 15.8905ZM9.15155 15.8905C9.15155 15.8905 9.12404 15.8905 9.15155 15.8905ZM9.6865 15.064V15.1311H9.75543V15.0625L9.8522 15.0628V15.1311H9.92134V15.0625H10.0182L10.018 15.2175C10.018 15.2418 9.99847 15.2575 9.97579 15.2575H9.63609C9.61327 15.2575 9.59221 15.2393 9.59214 15.217L9.59191 15.0639L9.6865 15.064Z"
    stroke="black" stroke-width="0.1" />
  <path fill-rule="evenodd" clip-rule="evenodd"
    d="M9.94672 15.2709L9.96805 15.7678L9.63672 15.7664L9.6585 15.2695L9.94672 15.2709Z" fill="#FFFF00" stroke="black"
    stroke-width="0.1" />
  <path fill-rule="evenodd" clip-rule="evenodd"
    d="M10.3722 15.7678L10.0547 15.768L10.0636 15.5H10.3622L10.3722 15.7678Z" fill="#FFFF00" stroke="black"
    stroke-width="0.1" />
  <path fill-rule="evenodd" clip-rule="evenodd"
    d="M10.004 15.306L10.0964 15.3063V15.3734H10.164V15.3047L10.2586 15.305V15.3735H10.3263V15.3047L10.4211 15.3049L10.4209 15.4598C10.4209 15.484 10.4018 15.4997 10.3796 15.4997H10.0472C10.0249 15.4997 10.0042 15.4816 10.0041 15.4593L10.0039 15.3061H10.004L10.004 15.306Z"
    fill="#FFFF00" stroke="black" stroke-width="0.1" />
  <path fill-rule="evenodd" clip-rule="evenodd"
    d="M9.54825 15.7678L9.23047 15.768L9.23958 15.5H9.53825L9.54825 15.7678Z" fill="#FFFF00" stroke="black"
    stroke-width="0.1" />
  <path fill-rule="evenodd" clip-rule="evenodd"
    d="M9.18761 15.306L9.27998 15.3063V15.3734H9.34755V15.3047L9.44222 15.305V15.3735H9.50993V15.3047L9.60467 15.3049L9.60451 15.4598C9.60451 15.484 9.58536 15.4997 9.56322 15.4997H9.23079C9.20851 15.4997 9.1878 15.4816 9.18773 15.4593L9.1875 15.3061H9.18757L9.18761 15.306Z"
    fill="#FFFF00" stroke="black" stroke-width="0.1" />
  <path fill-rule="evenodd" clip-rule="evenodd"
    d="M9.7986 19.5195C9.80078 19.5181 10.1245 19.6279 10.1234 20.0508L9.48438 20.0469C9.49476 19.6217 9.79643 19.521 9.7986 19.5195Z"
    fill="#FFFF00" />
  <path fill-rule="evenodd" clip-rule="evenodd"
    d="M9.17298 20.0151L9.49184 20.0158C9.49489 19.6115 9.79786 19.5443 9.80519 19.5458C9.81205 19.5454 10.1124 19.6352 10.1204 20.0158H10.44L10.3823 19.5234L9.2255 19.5264L9.17298 20.0151ZM9.15155 20.017H10.4565C10.484 20.017 10.5065 20.0442 10.5065 20.0774C10.5065 20.1105 10.484 20.1376 10.4565 20.1376H9.15155C9.12404 20.1376 9.10156 20.1105 9.10156 20.0774C9.10156 20.0442 9.12404 20.017 9.15155 20.017C9.12404 20.017 9.15155 20.017 9.15155 20.017Z"
    fill="#FFFF00" />
  <path
    d="M9.15155 20.017H10.4565C10.484 20.017 10.5065 20.0442 10.5065 20.0774C10.5065 20.1105 10.484 20.1376 10.4565 20.1376H9.15155C9.12404 20.1376 9.10156 20.1105 9.10156 20.0774C9.10156 20.0442 9.12404 20.017 9.15155 20.017ZM9.15155 20.017C9.15155 20.017 9.12404 20.017 9.15155 20.017ZM9.17298 20.0151L9.49184 20.0158C9.49489 19.6115 9.79786 19.5443 9.80519 19.5458C9.81205 19.5454 10.1124 19.6352 10.1204 20.0158H10.44L10.3823 19.5234L9.2255 19.5264L9.17298 20.0151Z"
    stroke="black" stroke-width="0.1" />
  <path
    d="M9.625 20.0146C9.62642 19.7596 9.7992 19.6874 9.80009 19.6875C9.80015 19.6875 9.98046 19.7619 9.98189 20.0146H9.62501"
    stroke="black" stroke-width="0.1" />
  <path fill-rule="evenodd" clip-rule="evenodd"
    d="M9.15155 19.3359H10.4565C10.484 19.3359 10.5065 19.3631 10.5065 19.3963C10.5065 19.4295 10.484 19.4565 10.4565 19.4565H9.15155C9.12404 19.4565 9.10156 19.4295 9.10156 19.3963C9.10156 19.3631 9.12404 19.3359 9.15155 19.3359C9.12404 19.3359 9.15155 19.3359 9.15155 19.3359Z"
    fill="#FFFF00" />
  <path
    d="M9.15155 19.3359H10.4565C10.484 19.3359 10.5065 19.3631 10.5065 19.3963C10.5065 19.4295 10.484 19.4565 10.4565 19.4565H9.15155C9.12404 19.4565 9.10156 19.4295 9.10156 19.3963C9.10156 19.3631 9.12404 19.3359 9.15155 19.3359ZM9.15155 19.3359C9.15155 19.3359 9.12404 19.3359 9.15155 19.3359Z"
    stroke="black" stroke-width="0.1" />
  <path fill-rule="evenodd" clip-rule="evenodd"
    d="M9.15155 19.4452H10.4565C10.484 19.4452 10.5065 19.4723 10.5065 19.5055C10.5065 19.5387 10.484 19.5657 10.4565 19.5657H9.15155C9.12404 19.5657 9.10156 19.5387 9.10156 19.5055C9.10156 19.4723 9.12404 19.4452 9.15155 19.4452C9.12404 19.4452 9.15155 19.4452 9.15155 19.4452ZM9.6865 18.6187V18.6858H9.75543V18.6172L9.8522 18.6175V18.6858H9.92134V18.6172H10.0182L10.018 18.7721C10.018 18.7965 9.99847 18.8122 9.97579 18.8122H9.63609C9.61327 18.8122 9.59221 18.7939 9.59214 18.7717L9.59191 18.6186L9.6865 18.6187Z"
    fill="#FFFF00" />
  <path
    d="M9.15155 19.4452H10.4565C10.484 19.4452 10.5065 19.4723 10.5065 19.5055C10.5065 19.5387 10.484 19.5657 10.4565 19.5657H9.15155C9.12404 19.5657 9.10156 19.5387 9.10156 19.5055C9.10156 19.4723 9.12404 19.4452 9.15155 19.4452ZM9.15155 19.4452C9.15155 19.4452 9.12404 19.4452 9.15155 19.4452ZM9.6865 18.6187V18.6858H9.75543V18.6172L9.8522 18.6175V18.6858H9.92134V18.6172H10.0182L10.018 18.7721C10.018 18.7965 9.99847 18.8122 9.97579 18.8122H9.63609C9.61327 18.8122 9.59221 18.7939 9.59214 18.7717L9.59191 18.6186L9.6865 18.6187Z"
    stroke="black" stroke-width="0.1" />
  <path fill-rule="evenodd" clip-rule="evenodd"
    d="M9.94672 18.8256L9.96805 19.3224L9.63672 19.3211L9.6585 18.8242L9.94672 18.8256Z" fill="#FFFF00" stroke="black"
    stroke-width="0.1" />
  <path fill-rule="evenodd" clip-rule="evenodd"
    d="M10.3722 19.3225L10.0547 19.3227L10.0636 19.0547H10.3622L10.3722 19.3225Z" fill="#FFFF00" stroke="black"
    stroke-width="0.1" />
  <path fill-rule="evenodd" clip-rule="evenodd"
    d="M10.004 18.8607L10.0964 18.8609V18.9281H10.164V18.8594L10.2586 18.8597V18.9281H10.3263V18.8594L10.4211 18.8596L10.4209 19.0145C10.4209 19.0387 10.4018 19.0544 10.3796 19.0544H10.0472C10.0249 19.0544 10.0042 19.0363 10.0041 19.0139L10.0039 18.8608H10.004L10.004 18.8607Z"
    fill="#FFFF00" stroke="black" stroke-width="0.1" />
  <path fill-rule="evenodd" clip-rule="evenodd"
    d="M9.54825 19.3225L9.23047 19.3227L9.23958 19.0547H9.53825L9.54825 19.3225Z" fill="#FFFF00" stroke="black"
    stroke-width="0.1" />
  <path fill-rule="evenodd" clip-rule="evenodd"
    d="M9.18761 18.8607L9.27998 18.8609V18.9281H9.34755V18.8594L9.44222 18.8597V18.9281H9.50993V18.8594L9.60467 18.8596L9.60451 19.0145C9.60451 19.0387 9.58536 19.0544 9.56322 19.0544H9.23079C9.20851 19.0544 9.1878 19.0363 9.18773 19.0139L9.1875 18.8608H9.18757L9.18761 18.8607Z"
    fill="#FFFF00" stroke="black" stroke-width="0.1" />
  <path fill-rule="evenodd" clip-rule="evenodd"
    d="M16.822 19.5195C16.8242 19.5181 17.1479 19.6279 17.1468 20.0508L16.5078 20.0469C16.5182 19.6217 16.8199 19.521 16.822 19.5195Z"
    fill="#FFFF00" />
  <path fill-rule="evenodd" clip-rule="evenodd"
    d="M16.1964 20.0151L16.5153 20.0158C16.5183 19.6115 16.8213 19.5443 16.8286 19.5458C16.8355 19.5454 17.1358 19.6352 17.1438 20.0158H17.4635L17.4058 19.5234L16.2489 19.5264L16.1964 20.0151ZM16.175 20.017H17.48C17.5075 20.017 17.5299 20.0442 17.5299 20.0774C17.5299 20.1105 17.5075 20.1376 17.48 20.1376H16.175C16.1475 20.1376 16.125 20.1105 16.125 20.0774C16.125 20.0442 16.1475 20.017 16.175 20.017C16.175 20.017 16.1475 20.017 16.175 20.017Z"
    fill="#FFFF00" />
  <path
    d="M16.175 20.017H17.48C17.5075 20.017 17.5299 20.0442 17.5299 20.0774C17.5299 20.1105 17.5075 20.1376 17.48 20.1376H16.175C16.1475 20.1376 16.125 20.1105 16.125 20.0774C16.125 20.0442 16.1475 20.017 16.175 20.017ZM16.175 20.017C16.175 20.017 16.1475 20.017 16.175 20.017ZM16.1964 20.0151L16.5153 20.0158C16.5183 19.6115 16.8213 19.5443 16.8286 19.5458C16.8355 19.5454 17.1358 19.6352 17.1438 20.0158H17.4635L17.4058 19.5234L16.2489 19.5264L16.1964 20.0151Z"
    stroke="black" stroke-width="0.1" />
  <path
    d="M16.6484 20.0146C16.6499 19.7596 16.8226 19.6874 16.8235 19.6875C16.8236 19.6875 17.0039 19.7619 17.0053 20.0146H16.6484"
    stroke="black" stroke-width="0.1" />
  <path fill-rule="evenodd" clip-rule="evenodd"
    d="M16.175 19.3359H17.48C17.5075 19.3359 17.5299 19.3631 17.5299 19.3963C17.5299 19.4295 17.5075 19.4565 17.48 19.4565H16.175C16.1475 19.4565 16.125 19.4295 16.125 19.3963C16.125 19.3631 16.1475 19.3359 16.175 19.3359C16.1475 19.3359 16.175 19.3359 16.175 19.3359Z"
    fill="#FFFF00" />
  <path
    d="M16.175 19.3359H17.48C17.5075 19.3359 17.5299 19.3631 17.5299 19.3963C17.5299 19.4295 17.5075 19.4565 17.48 19.4565H16.175C16.1475 19.4565 16.125 19.4295 16.125 19.3963C16.125 19.3631 16.1475 19.3359 16.175 19.3359ZM16.175 19.3359C16.175 19.3359 16.1475 19.3359 16.175 19.3359Z"
    stroke="black" stroke-width="0.1" />
  <path fill-rule="evenodd" clip-rule="evenodd"
    d="M16.175 19.4452H17.48C17.5075 19.4452 17.5299 19.4723 17.5299 19.5055C17.5299 19.5387 17.5075 19.5657 17.48 19.5657H16.175C16.1475 19.5657 16.125 19.5387 16.125 19.5055C16.125 19.4723 16.1475 19.4452 16.175 19.4452C16.1475 19.4452 16.175 19.4452 16.175 19.4452ZM16.7099 18.6187V18.6858H16.7789V18.6172L16.8756 18.6175V18.6858H16.9448V18.6172H17.0416L17.0415 18.7721C17.0415 18.7965 17.0219 18.8122 16.9992 18.8122H16.6595C16.6367 18.8122 16.6157 18.7939 16.6156 18.7717L16.6154 18.6186L16.7099 18.6187Z"
    fill="#FFFF00" />
  <path
    d="M16.175 19.4452H17.48C17.5075 19.4452 17.5299 19.4723 17.5299 19.5055C17.5299 19.5387 17.5075 19.5657 17.48 19.5657H16.175C16.1475 19.5657 16.125 19.5387 16.125 19.5055C16.125 19.4723 16.1475 19.4452 16.175 19.4452ZM16.175 19.4452C16.175 19.4452 16.1475 19.4452 16.175 19.4452ZM16.7099 18.6187V18.6858H16.7789V18.6172L16.8756 18.6175V18.6858H16.9448V18.6172H17.0416L17.0415 18.7721C17.0415 18.7965 17.0219 18.8122 16.9992 18.8122H16.6595C16.6367 18.8122 16.6157 18.7939 16.6156 18.7717L16.6154 18.6186L16.7099 18.6187Z"
    stroke="black" stroke-width="0.1" />
  <path fill-rule="evenodd" clip-rule="evenodd"
    d="M16.9702 18.8256L16.9915 19.3224L16.6602 19.3211L16.6819 18.8242L16.9702 18.8256Z" fill="#FFFF00" stroke="black"
    stroke-width="0.1" />
  <path fill-rule="evenodd" clip-rule="evenodd"
    d="M17.3957 19.3225L17.0781 19.3227L17.087 19.0547H17.3857L17.3957 19.3225Z" fill="#FFFF00" stroke="black"
    stroke-width="0.1" />
  <path fill-rule="evenodd" clip-rule="evenodd"
    d="M17.0275 18.8607L17.1198 18.8609V18.9281H17.1874V18.8594L17.2821 18.8597V18.9281H17.3498V18.8594L17.4445 18.8596L17.4444 19.0145C17.4444 19.0387 17.4252 19.0544 17.4031 19.0544H17.0706C17.0484 19.0544 17.0276 19.0363 17.0276 19.0139L17.0273 18.8608H17.0274L17.0275 18.8607Z"
    fill="#FFFF00" stroke="black" stroke-width="0.1" />
  <path fill-rule="evenodd" clip-rule="evenodd"
    d="M16.5717 19.3225L16.2539 19.3227L16.263 19.0547H16.5617L16.5717 19.3225Z" fill="#FFFF00" stroke="black"
    stroke-width="0.1" />
  <path fill-rule="evenodd" clip-rule="evenodd"
    d="M16.2111 18.8607L16.3034 18.8609V18.9281H16.371V18.8594L16.4657 18.8597V18.9281H16.5334V18.8594L16.6281 18.8596L16.628 19.0145C16.628 19.0387 16.6088 19.0544 16.5867 19.0544H16.2542C16.232 19.0544 16.2112 19.0363 16.2112 19.0139L16.2109 18.8608H16.211L16.2111 18.8607Z"
    fill="#FFFF00" stroke="black" stroke-width="0.1" />
  <path fill-rule="evenodd" clip-rule="evenodd"
    d="M15.8863 23.1373C15.8889 23.1374 16.091 23.413 15.8476 23.7587L15.3265 23.389C15.5788 23.0467 15.8837 23.1373 15.8863 23.1373Z"
    fill="#FFFF00" />
  <path fill-rule="evenodd" clip-rule="evenodd"
    d="M15.089 23.182L15.3498 23.3654C15.5842 23.036 15.8709 23.1547 15.8761 23.1602C15.8819 23.1638 16.0764 23.4096 15.8647 23.7259L16.1265 23.9093L16.3616 23.4729L15.4124 22.8118L15.089 23.182ZM15.0703 23.1713L16.1393 23.9198C16.1618 23.9356 16.1647 23.9707 16.1456 23.9979C16.1266 24.0251 16.0927 24.0343 16.0702 24.0185L15.0012 23.27C14.9787 23.2542 14.9758 23.2192 14.9948 23.1921C15.0138 23.1649 15.0478 23.1555 15.0703 23.1713C15.0703 23.1713 15.0478 23.1555 15.0703 23.1713Z"
    fill="#FFFF00" />
  <path
    d="M15.0703 23.1713L16.1393 23.9198C16.1618 23.9356 16.1647 23.9707 16.1456 23.9979C16.1266 24.0251 16.0927 24.0343 16.0702 24.0185L15.0012 23.27C14.9787 23.2542 14.9758 23.2192 14.9948 23.1921C15.0138 23.1649 15.0478 23.1555 15.0703 23.1713ZM15.0703 23.1713C15.0703 23.1713 15.0478 23.1555 15.0703 23.1713ZM15.089 23.182L15.3498 23.3654C15.5842 23.036 15.8709 23.1547 15.8761 23.1602C15.8819 23.1638 16.0764 23.4096 15.8647 23.7259L16.1265 23.9093L16.3616 23.4729L15.4124 22.8118L15.089 23.182Z"
    stroke="black" stroke-width="0.1" />
  <path
    d="M15.4608 23.4438C15.6083 23.2356 15.7912 23.2756 15.7919 23.2762C15.7919 23.2762 15.8969 23.4406 15.7531 23.6485L15.4608 23.4438"
    stroke="black" stroke-width="0.1" />
  <path fill-rule="evenodd" clip-rule="evenodd"
    d="M15.4628 22.6107L16.5318 23.3592C16.5543 23.375 16.5572 23.4101 16.5381 23.4373C16.5191 23.4645 16.4852 23.4737 16.4626 23.458L15.3937 22.7095C15.3711 22.6937 15.3682 22.6586 15.3872 22.6315C15.4063 22.6043 15.4403 22.5949 15.4628 22.6107C15.4403 22.5949 15.4628 22.6107 15.4628 22.6107Z"
    fill="#FFFF00" />
  <path
    d="M15.4628 22.6107L16.5318 23.3592C16.5543 23.375 16.5572 23.4101 16.5381 23.4373C16.5191 23.4645 16.4852 23.4737 16.4626 23.458L15.3937 22.7095C15.3711 22.6937 15.3682 22.6586 15.3872 22.6315C15.4063 22.6043 15.4403 22.5949 15.4628 22.6107ZM15.4628 22.6107C15.4628 22.6107 15.4403 22.5949 15.4628 22.6107Z"
    stroke="black" stroke-width="0.1" />
  <path fill-rule="evenodd" clip-rule="evenodd"
    d="M15.3981 22.703L16.467 23.4515C16.4896 23.4673 16.4924 23.5024 16.4734 23.5296C16.4544 23.5568 16.4204 23.566 16.3979 23.5502L15.3289 22.8017C15.3064 22.786 15.3035 22.7509 15.3225 22.7238C15.3416 22.6966 15.3755 22.6872 15.3981 22.703C15.3755 22.6872 15.3981 22.703 15.3981 22.703ZM16.3103 22.3328L16.2718 22.3878L16.3283 22.4273L16.3676 22.3711L16.4467 22.4269L16.4076 22.4829L16.4642 22.5225L16.5035 22.4663L16.5829 22.5219L16.4939 22.6487C16.4799 22.6686 16.4549 22.6703 16.4363 22.6573L16.158 22.4624C16.1393 22.4493 16.1326 22.4223 16.1453 22.404L16.2329 22.2785L16.3103 22.3328Z"
    fill="#FFFF00" />
  <path
    d="M15.3981 22.703L16.467 23.4515C16.4896 23.4673 16.4924 23.5024 16.4734 23.5296C16.4544 23.5568 16.4204 23.566 16.3979 23.5502L15.3289 22.8017C15.3064 22.786 15.3035 22.7509 15.3225 22.7238C15.3416 22.6966 15.3755 22.6872 15.3981 22.703ZM15.3981 22.703C15.3981 22.703 15.3755 22.6872 15.3981 22.703ZM16.3103 22.3328L16.2718 22.3878L16.3283 22.4273L16.3676 22.3711L16.4467 22.4269L16.4076 22.4829L16.4642 22.5225L16.5035 22.4663L16.5829 22.5219L16.4939 22.6487C16.4799 22.6686 16.4549 22.6703 16.4363 22.6573L16.158 22.4624C16.1393 22.4493 16.1326 22.4223 16.1453 22.404L16.2329 22.2785L16.3103 22.3328Z"
    stroke="black" stroke-width="0.1" />
  <path fill-rule="evenodd" clip-rule="evenodd"
    d="M16.4055 22.6516L16.138 23.0708L15.8673 22.8797L16.1702 22.4851L16.4055 22.6516Z" fill="#FFFF00" stroke="black"
    stroke-width="0.1" />
  <path fill-rule="evenodd" clip-rule="evenodd"
    d="M16.4659 23.3038L16.2057 23.1219L16.3667 22.9074L16.6113 23.0787L16.4659 23.3038Z" fill="#FFFF00" stroke="black"
    stroke-width="0.1" />
  <path fill-rule="evenodd" clip-rule="evenodd"
    d="M16.429 22.7121L16.5045 22.7653L16.466 22.8203L16.5214 22.859L16.5608 22.8027L16.6382 22.8573L16.5989 22.9134L16.6544 22.9522L16.6938 22.8959L16.7713 22.9504L16.6823 23.0772C16.6685 23.097 16.6437 23.0989 16.6256 23.0862L16.3533 22.8955C16.335 22.8828 16.3285 22.856 16.3412 22.8377L16.4289 22.7121L16.4289 22.7121L16.429 22.7121Z"
    fill="#FFFF00" stroke="black" stroke-width="0.1" />
  <path fill-rule="evenodd" clip-rule="evenodd"
    d="M15.7942 22.8313L15.5338 22.6492L15.695 22.4349L15.9396 22.6062L15.7942 22.8313Z" fill="#FFFF00" stroke="black"
    stroke-width="0.1" />
  <path fill-rule="evenodd" clip-rule="evenodd"
    d="M15.761 22.2433L15.8366 22.2965L15.798 22.3515L15.8534 22.3903L15.8928 22.334L15.9702 22.3885L15.9309 22.4446L15.9864 22.4835L16.0258 22.4272L16.1033 22.4816L16.0144 22.6084C16.0005 22.6282 15.9758 22.6302 15.9576 22.6175L15.6853 22.4268C15.6671 22.414 15.6605 22.3873 15.6733 22.3689L15.7609 22.2433L15.761 22.2434L15.761 22.2433Z"
    fill="#FFFF00" stroke="black" stroke-width="0.1" />
  <path fill-rule="evenodd" clip-rule="evenodd"
    d="M10.6723 23.0904C10.6697 23.0905 10.4675 23.3661 10.711 23.7118L11.2321 23.3421C10.9798 22.9998 10.6749 23.0904 10.6723 23.0904Z"
    fill="#FFFF00" />
  <path fill-rule="evenodd" clip-rule="evenodd"
    d="M11.4696 23.1351L11.2088 23.3186C10.9744 22.9892 10.6877 23.1079 10.6825 23.1133C10.6767 23.1169 10.4822 23.3627 10.6939 23.6791L10.4321 23.8624L10.197 23.426L11.1462 22.7649L11.4696 23.1351ZM11.4883 23.1244L10.4193 23.8729C10.3968 23.8887 10.3939 23.9238 10.413 23.951C10.432 23.9782 10.4659 23.9874 10.4884 23.9717L11.5574 23.2231C11.5799 23.2074 11.5828 23.1723 11.5638 23.1452C11.5448 23.118 11.5108 23.1086 11.4883 23.1244C11.5108 23.1086 11.4883 23.1244 11.4883 23.1244Z"
    fill="#FFFF00" />
  <path
    d="M11.4883 23.1244L10.4193 23.8729C10.3968 23.8887 10.3939 23.9238 10.413 23.951C10.432 23.9782 10.4659 23.9874 10.4884 23.9717L11.5574 23.2231C11.5799 23.2074 11.5828 23.1723 11.5638 23.1452C11.5448 23.118 11.5108 23.1086 11.4883 23.1244ZM11.4883 23.1244C11.4883 23.1244 11.5108 23.1086 11.4883 23.1244ZM11.4696 23.1351L11.2088 23.3186C10.9744 22.9892 10.6877 23.1079 10.6825 23.1133C10.6767 23.1169 10.4822 23.3627 10.6939 23.6791L10.4321 23.8624L10.197 23.426L11.1462 22.7649L11.4696 23.1351Z"
    stroke="black" stroke-width="0.1" />
  <path
    d="M11.0978 23.3969C10.9503 23.1887 10.7674 23.2287 10.7667 23.2293C10.7667 23.2294 10.6617 23.3938 10.8055 23.6016L11.0978 23.3969"
    stroke="black" stroke-width="0.1" />
  <path fill-rule="evenodd" clip-rule="evenodd"
    d="M11.0958 22.5638L10.0268 23.3123C10.0043 23.3281 10.0014 23.3633 10.0205 23.3905C10.0395 23.4176 10.0734 23.4269 10.096 23.4111L11.1649 22.6626C11.1875 22.6468 11.1904 22.6118 11.1713 22.5846C11.1523 22.5574 11.1183 22.548 11.0958 22.5638C11.0958 22.5638 11.1183 22.548 11.0958 22.5638Z"
    fill="#FFFF00" />
  <path
    d="M11.0958 22.5638L10.0268 23.3123C10.0043 23.3281 10.0014 23.3633 10.0205 23.3905C10.0395 23.4176 10.0734 23.4269 10.096 23.4111L11.1649 22.6626C11.1875 22.6468 11.1904 22.6118 11.1713 22.5846C11.1523 22.5574 11.1183 22.548 11.0958 22.5638ZM11.0958 22.5638C11.0958 22.5638 11.1183 22.548 11.0958 22.5638Z"
    stroke="black" stroke-width="0.1" />
  <path fill-rule="evenodd" clip-rule="evenodd"
    d="M11.1605 22.6561L10.0915 23.4046C10.069 23.4204 10.0662 23.4555 10.0852 23.4827C10.1042 23.5099 10.1382 23.5191 10.1607 23.5034L11.2297 22.7549C11.2522 22.7391 11.2551 22.704 11.2361 22.6769C11.217 22.6497 11.183 22.6403 11.1605 22.6561C11.1605 22.6561 11.183 22.6403 11.1605 22.6561ZM10.2483 22.2859L10.2868 22.3409L10.2303 22.3804L10.1909 22.3243L10.1119 22.38L10.151 22.436L10.0944 22.4756L10.0551 22.4195L9.97573 22.475L10.0647 22.6018C10.0787 22.6217 10.1037 22.6234 10.1223 22.6104L10.4006 22.4156C10.4193 22.4025 10.426 22.3754 10.4133 22.3571L10.3257 22.2316L10.2483 22.2859Z"
    fill="#FFFF00" />
  <path
    d="M11.1605 22.6561L10.0915 23.4046C10.069 23.4204 10.0662 23.4555 10.0852 23.4827C10.1042 23.5099 10.1382 23.5191 10.1607 23.5034L11.2297 22.7549C11.2522 22.7391 11.2551 22.704 11.2361 22.6769C11.217 22.6497 11.183 22.6403 11.1605 22.6561ZM11.1605 22.6561C11.1605 22.6561 11.183 22.6403 11.1605 22.6561ZM10.2483 22.2859L10.2868 22.3409L10.2303 22.3804L10.1909 22.3243L10.1119 22.38L10.151 22.436L10.0944 22.4756L10.0551 22.4195L9.97573 22.475L10.0647 22.6018C10.0787 22.6217 10.1037 22.6234 10.1223 22.6104L10.4006 22.4156C10.4193 22.4025 10.426 22.3754 10.4133 22.3571L10.3257 22.2316L10.2483 22.2859Z"
    stroke="black" stroke-width="0.1" />
  <path fill-rule="evenodd" clip-rule="evenodd"
    d="M10.1531 22.6047L10.4206 23.0239L10.6913 22.8328L10.3884 22.4383L10.1531 22.6047Z" fill="#FFFF00" stroke="black"
    stroke-width="0.1" />
  <path fill-rule="evenodd" clip-rule="evenodd"
    d="M10.0927 23.257L10.3529 23.075L10.1919 22.8606L9.94728 23.0319L10.0927 23.257Z" fill="#FFFF00" stroke="black"
    stroke-width="0.1" />
  <path fill-rule="evenodd" clip-rule="evenodd"
    d="M10.1296 22.6652L10.0541 22.7184L10.0926 22.7734L10.0372 22.8122L9.9978 22.7559L9.92043 22.8104L9.95969 22.8665L9.90423 22.9053L9.86481 22.849L9.78729 22.9035L9.87627 23.0303C9.89014 23.0501 9.91487 23.052 9.933 23.0393L10.2053 22.8487C10.2236 22.8359 10.2301 22.8092 10.2174 22.7908L10.1297 22.6652L10.1297 22.6653L10.1296 22.6652Z"
    fill="#FFFF00" stroke="black" stroke-width="0.1" />
  <path fill-rule="evenodd" clip-rule="evenodd"
    d="M10.7644 22.7844L11.0248 22.6023L10.8636 22.388L10.619 22.5593L10.7644 22.7844Z" fill="#FFFF00" stroke="black"
    stroke-width="0.1" />
  <path fill-rule="evenodd" clip-rule="evenodd"
    d="M10.7975 22.1965L10.722 22.2496L10.7605 22.3047L10.7052 22.3434L10.6658 22.2871L10.5884 22.3417L10.6277 22.3977L10.5722 22.4366L10.5328 22.3803L10.4553 22.4347L10.5442 22.5616C10.5581 22.5814 10.5828 22.5833 10.601 22.5706L10.8733 22.3799C10.8915 22.3671 10.8981 22.3404 10.8853 22.3221L10.7977 22.1965L10.7976 22.1965L10.7975 22.1965Z"
    fill="#FFFF00" stroke="black" stroke-width="0.1" />
  <path fill-rule="evenodd" clip-rule="evenodd"
    d="M12.9282 22.6114C13.0333 22.7243 13.1781 22.7945 13.3365 22.7945C13.4957 22.7945 13.6402 22.7248 13.7448 22.6123C13.8494 22.5 13.9144 22.3449 13.9144 22.1739V21.3447L12.7599 21.3438L12.7578 22.1728C12.7579 22.3436 12.8233 22.4988 12.9282 22.6114Z"
    fill="#003399" />
  <path fill-rule="evenodd" clip-rule="evenodd"
    d="M13.6628 22.176C13.5998 22.176 13.5484 22.2274 13.5484 22.2904C13.5484 22.3533 13.5998 22.4048 13.6628 22.4048C13.7258 22.4048 13.7772 22.3534 13.7772 22.2904C13.7772 22.2274 13.7258 22.176 13.6628 22.176ZM13.0285 22.1768C12.9655 22.1768 12.9141 22.2281 12.9141 22.2912C12.9141 22.3541 12.9655 22.4055 13.0285 22.4055C13.0915 22.4055 13.1429 22.3542 13.1429 22.2912C13.1429 22.2281 13.0915 22.1768 13.0285 22.1768ZM13.3427 21.855C13.2797 21.855 13.2283 21.9063 13.2283 21.9694C13.2283 22.0322 13.2797 22.0837 13.3427 22.0837C13.4057 22.0837 13.4571 22.0324 13.4571 21.9694C13.4571 21.9063 13.4057 21.855 13.3427 21.855ZM13.6635 21.5474C13.6005 21.5474 13.5491 21.5988 13.5491 21.6618C13.5491 21.7247 13.6005 21.7762 13.6635 21.7762C13.7265 21.7762 13.7779 21.7248 13.7779 21.6618C13.7779 21.5988 13.7265 21.5474 13.6635 21.5474ZM13.0285 21.5469C12.9655 21.5469 12.9141 21.5982 12.9141 21.6612C12.9141 21.7241 12.9655 21.7756 13.0285 21.7756C13.0915 21.7756 13.1429 21.7243 13.1429 21.6612C13.1429 21.5982 13.0915 21.5469 13.0285 21.5469Z"
    fill="white" />
  <path fill-rule="evenodd" clip-rule="evenodd"
    d="M12.7657 18.1807V18.1811C12.7657 18.3514 12.8311 18.5066 12.936 18.6192C13.0411 18.7321 13.1859 18.8023 13.3443 18.8023C13.5035 18.8023 13.648 18.7326 13.7526 18.6201C13.8572 18.5078 13.9222 18.3527 13.9222 18.1817V17.3525L12.7677 17.3516L12.7656 18.1806"
    fill="#003399" />
  <path fill-rule="evenodd" clip-rule="evenodd"
    d="M13.0324 17.5547C12.9694 17.5547 12.918 17.606 12.918 17.6691C12.918 17.732 12.9694 17.7834 13.0324 17.7834C13.0954 17.7834 13.1468 17.7321 13.1468 17.6691C13.1468 17.606 13.0954 17.5547 13.0324 17.5547ZM13.6592 17.5547C13.5961 17.5547 13.5447 17.606 13.5447 17.6691C13.5447 17.732 13.5961 17.7834 13.6592 17.7834C13.7222 17.7834 13.7736 17.7321 13.7736 17.6691C13.7736 17.606 13.7222 17.5547 13.6592 17.5547ZM13.3383 17.8628C13.2753 17.8628 13.2238 17.9141 13.2238 17.9772C13.2238 18.0401 13.2753 18.0915 13.3383 18.0915C13.4013 18.0915 13.4527 18.0402 13.4527 17.9772C13.4527 17.9141 13.4013 17.8628 13.3383 17.8628ZM13.0324 18.1847C12.9694 18.1847 12.918 18.236 12.918 18.2991C12.918 18.362 12.9694 18.4134 13.0324 18.4134C13.0954 18.4134 13.1468 18.3621 13.1468 18.2991C13.1468 18.236 13.0954 18.1847 13.0324 18.1847ZM13.6586 18.1838C13.5955 18.1838 13.5441 18.2352 13.5441 18.2982C13.5441 18.3611 13.5955 18.4126 13.6586 18.4126C13.7216 18.4126 13.773 18.3612 13.773 18.2982C13.773 18.2352 13.7216 18.1838 13.6586 18.1838Z"
    fill="white" />
  <path fill-rule="evenodd" clip-rule="evenodd"
    d="M12.7735 20.1846V20.185C12.7735 20.3553 12.8389 20.5105 12.9438 20.6231C13.0489 20.736 13.1937 20.8062 13.3521 20.8062C13.5113 20.8062 13.6558 20.7365 13.7605 20.624C13.865 20.5117 13.93 20.3567 13.93 20.1856V19.3564L12.7755 19.3555L12.7734 20.1845"
    fill="#003399" />
  <path fill-rule="evenodd" clip-rule="evenodd"
    d="M13.0402 19.5586C12.9772 19.5586 12.9258 19.6099 12.9258 19.673C12.9258 19.7359 12.9772 19.7873 13.0402 19.7873C13.1032 19.7873 13.1546 19.736 13.1546 19.673C13.1546 19.6099 13.1032 19.5586 13.0402 19.5586ZM13.667 19.5586C13.604 19.5586 13.5525 19.6099 13.5525 19.673C13.5525 19.7359 13.604 19.7873 13.667 19.7873C13.73 19.7873 13.7814 19.736 13.7814 19.673C13.7814 19.6099 13.73 19.5586 13.667 19.5586ZM13.3461 19.8667C13.2831 19.8667 13.2317 19.918 13.2317 19.9811C13.2317 20.044 13.2831 20.0954 13.3461 20.0954C13.4091 20.0954 13.4605 20.0441 13.4605 19.9811C13.4605 19.918 13.4091 19.8667 13.3461 19.8667ZM13.0402 20.1886C12.9772 20.1886 12.9258 20.2399 12.9258 20.303C12.9258 20.3659 12.9772 20.4173 13.0402 20.4173C13.1032 20.4173 13.1546 20.366 13.1546 20.303C13.1546 20.2399 13.1032 20.1886 13.0402 20.1886ZM13.6664 20.1877C13.6033 20.1877 13.5519 20.2391 13.5519 20.3021C13.5519 20.365 13.6033 20.4165 13.6664 20.4165C13.7294 20.4165 13.7808 20.3651 13.7808 20.3021C13.7808 20.2391 13.7294 20.1877 13.6664 20.1877Z"
    fill="white" />
  <path fill-rule="evenodd" clip-rule="evenodd"
    d="M14.4571 20.1846V20.185C14.4571 20.3553 14.5225 20.5105 14.6274 20.6231C14.7325 20.736 14.8773 20.8062 15.0357 20.8062C15.1949 20.8062 15.3394 20.7365 15.4441 20.624C15.5486 20.5117 15.6136 20.3567 15.6136 20.1856V19.3564L14.4591 19.3555L14.457 20.1845"
    fill="#003399" />
  <path fill-rule="evenodd" clip-rule="evenodd"
    d="M14.7238 19.5586C14.6608 19.5586 14.6094 19.6099 14.6094 19.673C14.6094 19.7359 14.6608 19.7873 14.7238 19.7873C14.7868 19.7873 14.8382 19.736 14.8382 19.673C14.8382 19.6099 14.7868 19.5586 14.7238 19.5586ZM15.3506 19.5586C15.2875 19.5586 15.2361 19.6099 15.2361 19.673C15.2361 19.7359 15.2875 19.7873 15.3506 19.7873C15.4136 19.7873 15.465 19.736 15.465 19.673C15.465 19.6099 15.4136 19.5586 15.3506 19.5586ZM15.0297 19.8667C14.9667 19.8667 14.9152 19.918 14.9152 19.9811C14.9152 20.044 14.9667 20.0954 15.0297 20.0954C15.0927 20.0954 15.1441 20.0441 15.1441 19.9811C15.1441 19.918 15.0927 19.8667 15.0297 19.8667ZM15.3353 20.1921C15.2723 20.1921 15.2209 20.2434 15.2209 20.3064C15.2209 20.3693 15.2723 20.4208 15.3353 20.4208C15.3983 20.4208 15.4497 20.3695 15.4497 20.3064C15.4497 20.2434 15.3983 20.1921 15.3353 20.1921ZM14.7293 20.193C14.6657 20.193 14.6138 20.2444 14.6138 20.3074C14.6138 20.3703 14.6657 20.4218 14.7293 20.4218C14.7929 20.4218 14.8448 20.3704 14.8448 20.3074C14.8448 20.2444 14.7929 20.193 14.7293 20.193Z"
    fill="white" />
  <path fill-rule="evenodd" clip-rule="evenodd"
    d="M11.0704 20.1846V20.185C11.0704 20.3553 11.1358 20.5105 11.2407 20.6231C11.3458 20.736 11.4906 20.8062 11.649 20.8062C11.8082 20.8062 11.9527 20.7365 12.0573 20.624C12.1619 20.5117 12.2269 20.3567 12.2269 20.1856V19.3564L11.0724 19.3555L11.0703 20.1845"
    fill="#003399" />
  <path fill-rule="evenodd" clip-rule="evenodd"
    d="M11.3371 19.5586C11.2741 19.5586 11.2227 19.6099 11.2227 19.673C11.2227 19.7359 11.2741 19.7873 11.3371 19.7873C11.4001 19.7873 11.4515 19.736 11.4515 19.673C11.4515 19.6099 11.4001 19.5586 11.3371 19.5586ZM11.9639 19.5586C11.9008 19.5586 11.8494 19.6099 11.8494 19.673C11.8494 19.7359 11.9008 19.7873 11.9639 19.7873C12.0269 19.7873 12.0783 19.736 12.0783 19.673C12.0783 19.6099 12.0269 19.5586 11.9639 19.5586ZM11.643 19.8667C11.5799 19.8667 11.5285 19.918 11.5285 19.9811C11.5285 20.044 11.5799 20.0954 11.643 20.0954C11.706 20.0954 11.7574 20.0441 11.7574 19.9811C11.7574 19.918 11.706 19.8667 11.643 19.8667ZM11.3371 20.1886C11.2741 20.1886 11.2227 20.2399 11.2227 20.303C11.2227 20.3659 11.2741 20.4173 11.3371 20.4173C11.4001 20.4173 11.4515 20.366 11.4515 20.303C11.4515 20.2399 11.4001 20.1886 11.3371 20.1886ZM11.9632 20.1877C11.9002 20.1877 11.8488 20.2391 11.8488 20.3021C11.8488 20.365 11.9002 20.4165 11.9632 20.4165C12.0263 20.4165 12.0777 20.3651 12.0777 20.3021C12.0777 20.2391 12.0263 20.1877 11.9632 20.1877Z"
    fill="white" />
</svg>