<svg width="40" height="40" viewBox="0 0 40 40" fill="none" xmlns="http://www.w3.org/2000/svg">
  <path fill-rule="evenodd" clip-rule="evenodd"
    d="M38.8606 26.668C36.1151 34.4359 28.7068 40.0013 19.9987 40.0013C11.2906 40.0013 3.88229 34.4359 1.13672 26.668H38.8606Z"
    fill="#E94B35" />
  <path fill-rule="evenodd" clip-rule="evenodd"
    d="M38.862 26.6654C39.599 24.5802 40 22.3363 40 19.9987C40 17.6611 39.599 15.4172 38.862 13.332H1.13804C0.401028 15.4172 0 17.6611 0 19.9987C0 22.3363 0.401028 24.5802 1.13804 26.6654H38.862Z"
    fill="#227FBB" />
  <path fill-rule="evenodd" clip-rule="evenodd"
    d="M38.8606 13.3333C36.1151 5.56538 28.7068 0 19.9987 0C11.2906 0 3.88229 5.56538 1.13672 13.3333H38.8606Z"
    fill="white" />
</svg>