<svg width="40" height="40" viewBox="0 0 40 40" fill="none" xmlns="http://www.w3.org/2000/svg">
  <path
    d="M20 0C31.0457 0 40 8.95431 40 20C40 31.0457 31.0457 40 20 40C8.9543 40 0 31.0457 0 20C0 8.95431 8.9543 0 20 0Z"
    fill="white" />
  <path fill-rule="evenodd" clip-rule="evenodd"
    d="M6.16406 14.8047L7.08522 15.426L10.8132 9.8991L9.89202 9.27777L6.16406 14.8047ZM7.45368 15.6745L8.37483 16.2959L12.1028 10.769L11.1816 10.1476L7.45368 15.6745ZM8.74329 16.5444L9.66444 17.1657L13.3924 11.6388L12.4712 11.0175L8.74329 16.5444Z"
    fill="black" />
  <path fill-rule="evenodd" clip-rule="evenodd"
    d="M9.89062 30.7227L10.8118 30.1013L7.08382 24.5744L6.16267 25.1957L9.89062 30.7227ZM11.1802 29.8528L12.1014 29.2315L10.3617 26.6523L9.44053 27.2736L11.1802 29.8528ZM9.192 26.9051L10.1132 26.2838L8.37344 23.7046L7.45229 24.3259L9.192 26.9051ZM12.4699 28.9829L13.391 28.3616L9.66305 22.8347L8.7419 23.456L12.4699 28.9829Z"
    fill="black" />
  <path fill-rule="evenodd" clip-rule="evenodd"
    d="M30.3359 17.1641L31.2571 16.5427L29.5174 13.9635L28.5962 14.5848L30.3359 17.1641ZM28.3477 14.2164L29.2688 13.595L27.5291 11.0158L26.608 11.6371L28.3477 14.2164ZM31.6256 16.2942L32.5467 15.6729L28.8188 10.146L27.8976 10.7673L31.6256 16.2942ZM32.9152 15.4244L33.8363 14.803L32.0966 12.2238L31.1755 12.8451L32.9152 15.4244ZM30.9269 12.4767L31.8481 11.8553L30.1084 9.27611L29.1872 9.89743L30.9269 12.4767Z"
    fill="black" />
  <path fill-rule="evenodd" clip-rule="evenodd"
    d="M33.8359 25.1953L32.9148 24.574L31.1751 27.1532L32.0962 27.7745L33.8359 25.1953ZM31.8477 28.143L30.9265 27.5217L29.1868 30.1009L30.108 30.7222L31.8477 28.143ZM32.5463 24.3255L31.6252 23.7041L29.8855 26.2834L30.8066 26.9047L32.5463 24.3255ZM30.5581 27.2731L29.6369 26.6518L27.8972 29.231L28.8184 29.8524L30.5581 27.2731ZM31.2567 23.4556L30.3356 22.8343L28.5958 25.4135L29.517 26.0348L31.2567 23.4556ZM29.2685 26.4033L28.3473 25.782L26.6076 28.3612L27.5288 28.9825L29.2685 26.4033Z"
    fill="black" />
  <path
    d="M19.9987 26.6654C23.6806 26.6654 26.6654 23.6806 26.6654 19.9987C26.6654 16.3168 23.6806 13.332 19.9987 13.332C16.3168 13.332 13.332 16.3168 13.332 19.9987C13.332 23.6806 16.3168 26.6654 19.9987 26.6654Z"
    fill="#E94B35" />
  <path fill-rule="evenodd" clip-rule="evenodd"
    d="M25.6224 23.5792C23.688 26.6749 19.5886 27.6028 16.4662 25.6517C13.3437 23.7006 12.3807 19.6093 14.3151 16.5136C13.3479 18.0615 13.8294 20.1071 15.3906 21.0827C16.9518 22.0582 19.0015 21.5943 19.9688 20.0464C20.936 18.4985 22.9857 18.0346 24.5469 19.0101C26.1081 19.9857 26.5896 22.0313 25.6224 23.5792C26.5896 22.0313 25.6224 23.5792 25.6224 23.5792Z"
    fill="#227FBB" />
</svg>