<svg width="40" height="40" viewBox="0 0 40 40" fill="none" xmlns="http://www.w3.org/2000/svg">
  <path fill-rule="evenodd" clip-rule="evenodd"
    d="M37.3244 30C39.0261 27.0583 40 23.6429 40 20C40 16.3571 39.0261 12.9417 37.3244 10L2.67564 10C0.973944 12.9417 0 16.3571 0 20C0 23.6429 0.973944 27.0583 2.67565 30L37.3244 30L37.3244 30Z"
    fill="#F2C500" />
  <path fill-rule="evenodd" clip-rule="evenodd"
    d="M37.3245 30C33.8664 35.978 27.403 40 20.0001 40C12.5973 40 6.13388 35.978 2.67578 30L37.3245 30L37.3245 30ZM37.3245 9.99999C33.8664 4.02198 27.403 0 20.0001 0C12.5973 0 6.13388 4.02198 2.67578 9.99999L37.3245 10L37.3245 9.99999Z"
    fill="#E94B35" />
  <path fill-rule="evenodd" clip-rule="evenodd"
    d="M8.65459 28.0166C7.85932 27.6259 7.33203 26.8383 7.33203 25.9371V17.1133H17.2714V25.9371C17.2714 26.8383 16.7441 27.6259 15.9488 28.0166C14.87 28.54 13.6067 28.8547 12.3115 28.8547C11.0168 28.8547 9.73349 28.54 8.65459 28.0166Z"
    fill="white" />
  <path fill-rule="evenodd" clip-rule="evenodd"
    d="M15.3633 18.5617C15.3699 18.6277 15.3422 18.6854 15.3529 18.7219C15.3633 18.7588 15.3684 18.7878 15.3825 18.8144C15.3959 18.841 15.4032 18.9083 15.4032 18.9083C15.4032 18.9083 15.3651 18.881 15.3299 18.8545C15.2952 18.8275 15.2702 18.8109 15.2702 18.8109C15.2702 18.8109 15.2774 18.8828 15.2807 18.9137C15.2844 18.9445 15.3022 19.0026 15.3311 19.037C15.3596 19.0706 15.4166 19.1259 15.4342 19.1702C15.4525 19.2149 15.4488 19.3134 15.4488 19.3134C15.4488 19.3134 15.4025 19.2386 15.3628 19.2252C15.3237 19.2113 15.2378 19.1632 15.2378 19.1632C15.2378 19.1632 15.3165 19.2422 15.3165 19.3173C15.3165 19.3924 15.2844 19.4778 15.2844 19.4778C15.2844 19.4778 15.2489 19.4098 15.2027 19.3652C15.156 19.3208 15.0916 19.2762 15.0916 19.2762C15.0916 19.2762 15.1419 19.3924 15.1419 19.4708C15.1419 19.5498 15.1279 19.7174 15.1279 19.7174C15.1279 19.7174 15.0887 19.6526 15.0494 19.621C15.0099 19.5906 14.9636 19.5632 14.9491 19.543C14.9351 19.5225 14.9958 19.6076 15.0024 19.6589C15.0094 19.7104 15.0335 19.8936 15.1919 20.1275C15.2844 20.2643 15.4277 20.5034 15.7345 20.4247C16.0416 20.3465 15.9277 19.929 15.8633 19.7341C15.7989 19.5395 15.7667 19.3237 15.7704 19.2482C15.7737 19.1734 15.8274 18.9512 15.8203 18.9097C15.8133 18.869 15.7966 18.7103 15.8347 18.5823C15.874 18.4491 15.9066 18.3973 15.9277 18.3424C15.9486 18.2878 15.9664 18.2569 15.9736 18.2091C15.9806 18.1613 15.9806 18.0719 15.9806 18.0719C15.9806 18.0719 16.0376 18.1783 16.052 18.2158C16.0661 18.2537 16.0661 18.3661 16.0661 18.3661C16.0661 18.3661 16.0767 18.2537 16.1627 18.1992C16.2486 18.1439 16.3484 18.0861 16.3735 18.0553C16.3984 18.0241 16.4058 18.0039 16.4058 18.0039C16.4058 18.0039 16.3984 18.1956 16.3451 18.2711C16.3096 18.3201 16.1697 18.4795 16.1697 18.4795C16.1697 18.4795 16.2415 18.4519 16.2914 18.4491C16.3414 18.4452 16.377 18.4491 16.377 18.4491C16.377 18.4491 16.3162 18.4969 16.2377 18.6131C16.1593 18.7291 16.1912 18.7393 16.1342 18.835C16.0767 18.9306 16.0305 18.9342 15.9591 18.9923C15.8517 19.0795 15.9096 19.4261 15.9236 19.4775C15.938 19.5286 16.1234 19.953 16.1271 20.0555C16.1304 20.1582 16.1486 20.3873 15.9698 20.5343C15.8547 20.6297 15.6664 20.6304 15.6234 20.6576C15.5804 20.6845 15.4953 20.7699 15.4953 20.9479C15.4953 21.1262 15.559 21.1531 15.609 21.1977C15.6593 21.2423 15.7234 21.2183 15.7377 21.2527C15.7522 21.2867 15.7592 21.3073 15.7808 21.3278C15.8022 21.348 15.8166 21.3721 15.8093 21.4093C15.8022 21.4473 15.72 21.5327 15.6915 21.5947C15.6627 21.6556 15.6056 21.8169 15.6056 21.8406C15.6056 21.8647 15.599 21.9399 15.6234 21.9777C15.6234 21.9777 15.7127 22.0831 15.6519 22.1036C15.6127 22.117 15.5742 22.0787 15.5558 22.0831C15.5024 22.0972 15.4746 22.1305 15.4592 22.1277C15.4236 22.1209 15.4236 22.1033 15.4199 22.0525C15.4166 22.0015 15.4184 21.9806 15.4025 21.9806C15.381 21.9806 15.3702 21.9983 15.3666 22.0253C15.3628 22.0525 15.3628 22.1138 15.3381 22.1138C15.313 22.1138 15.2774 22.0695 15.2559 22.0596C15.2345 22.0493 15.1738 22.039 15.1704 22.0118C15.1668 21.9845 15.206 21.9264 15.2452 21.916C15.2844 21.9058 15.3203 21.8856 15.2952 21.8651C15.27 21.8445 15.2452 21.8445 15.2204 21.8651C15.1953 21.8856 15.1419 21.8682 15.1453 21.8375C15.149 21.8066 15.156 21.7693 15.1523 21.752C15.149 21.7354 15.1061 21.701 15.1627 21.6697C15.22 21.6393 15.2448 21.6975 15.3018 21.6871C15.3592 21.6773 15.3877 21.656 15.4092 21.6223C15.4306 21.5882 15.4269 21.5163 15.3877 21.4721C15.3485 21.4274 15.3093 21.4203 15.2948 21.393C15.2804 21.3658 15.2593 21.3008 15.2593 21.3008C15.2593 21.3008 15.2696 21.4203 15.2626 21.4377C15.2556 21.4547 15.2593 21.5262 15.2593 21.5262C15.2593 21.5262 15.22 21.4819 15.1878 21.448C15.156 21.4136 15.1238 21.3112 15.1238 21.3112C15.1238 21.3112 15.1205 21.4069 15.1205 21.4447C15.1205 21.4819 15.163 21.5163 15.149 21.5302C15.1346 21.5436 15.0669 21.4582 15.0491 21.4447C15.0309 21.431 14.974 21.3867 14.9488 21.3384C14.924 21.2906 14.9058 21.2226 14.8988 21.1981C14.8917 21.1743 14.88 21.0677 14.8917 21.0408C14.9095 21 14.9381 20.928 14.9381 20.928H14.7989C14.7241 20.928 14.6705 20.9043 14.6419 20.9553C14.6135 21.0067 14.6275 21.1095 14.6631 21.2428C14.699 21.3756 14.72 21.4408 14.7097 21.4649C14.6993 21.4887 14.6528 21.5436 14.635 21.5536C14.6168 21.5642 14.5668 21.5606 14.5453 21.5508C14.5243 21.5404 14.4888 21.523 14.4206 21.523C14.3529 21.523 14.31 21.5262 14.2853 21.5202C14.2601 21.5132 14.1994 21.4823 14.1705 21.4891C14.1419 21.4961 14.0926 21.5216 14.1061 21.561C14.1279 21.6226 14.085 21.6365 14.0562 21.633C14.0277 21.6293 14.0032 21.6191 13.9669 21.6091C13.9314 21.5986 13.8777 21.6091 13.8848 21.5677C13.8918 21.5266 13.9063 21.5234 13.924 21.493C13.9421 21.4617 13.9487 21.4419 13.9287 21.4398C13.9036 21.4373 13.8785 21.4345 13.8589 21.4508C13.84 21.4668 13.8093 21.5011 13.7841 21.4884C13.7588 21.4749 13.7393 21.4454 13.7393 21.3809C13.7393 21.3168 13.6723 21.2608 13.7338 21.2637C13.7952 21.2665 13.8733 21.3119 13.8873 21.2771C13.901 21.2421 13.8926 21.2265 13.8593 21.1991C13.8258 21.1726 13.7841 21.1566 13.8288 21.1219C13.8733 21.0875 13.8844 21.0875 13.9014 21.0684C13.9181 21.0499 13.9421 20.9897 13.9733 21.0046C14.0346 21.034 13.9762 21.0768 14.0376 21.146C14.0991 21.2154 14.138 21.2399 14.2412 21.2289C14.3444 21.2183 14.3726 21.2049 14.3726 21.1754C14.3726 21.146 14.364 21.0928 14.361 21.0712C14.3585 21.0499 14.3752 20.9723 14.3752 20.9723C14.3752 20.9723 14.3278 21.0021 14.3138 21.0311C14.3003 21.0606 14.2722 21.1109 14.2722 21.1109C14.2722 21.1109 14.2608 21.051 14.2641 21.0021C14.266 20.9734 14.276 20.9234 14.2749 20.9135C14.2722 20.8869 14.2526 20.82 14.2526 20.82C14.2526 20.82 14.2358 20.8922 14.2249 20.9135C14.2138 20.9347 14.2082 21.0206 14.2082 21.0206C14.2082 21.0206 14.1427 20.9628 14.1609 20.8657C14.1745 20.7908 14.1497 20.6921 14.1719 20.6598C14.1938 20.6275 14.2467 20.4967 14.3752 20.4911C14.5036 20.4862 14.6039 20.4967 14.6487 20.4943C14.6933 20.4911 14.8522 20.462 14.8522 20.462C14.8522 20.462 14.5593 20.31 14.4925 20.2643C14.4255 20.2193 14.3222 20.1016 14.2885 20.0481C14.2551 19.9946 14.2245 19.8907 14.2245 19.8907C14.2245 19.8907 14.1719 19.8932 14.1242 19.9198C14.0768 19.946 14.0295 19.9868 14.0017 20.0183C13.9735 20.0505 13.9292 20.1229 13.9292 20.1229C13.9292 20.1229 13.9373 20.0293 13.9373 19.9999C13.9373 19.9711 13.9317 19.9142 13.9317 19.9142C13.9317 19.9142 13.8984 20.0424 13.8315 20.0902C13.7645 20.1388 13.6864 20.2054 13.6864 20.2054C13.6864 20.2054 13.6949 20.1338 13.6949 20.1176C13.6949 20.1016 13.7116 20.0187 13.7116 20.0187C13.7116 20.0187 13.6642 20.0902 13.5916 20.1044C13.5191 20.1176 13.4129 20.1147 13.4044 20.1605C13.3963 20.2054 13.424 20.2671 13.4074 20.2989C13.3906 20.3312 13.3544 20.3525 13.3544 20.3525C13.3544 20.3525 13.3127 20.3174 13.2763 20.3149C13.24 20.3121 13.2064 20.3312 13.2064 20.3312C13.2064 20.3312 13.1757 20.2908 13.1868 20.2643C13.1982 20.2376 13.2537 20.1976 13.24 20.1814C13.226 20.1654 13.1813 20.187 13.1535 20.2002C13.1257 20.2136 13.0669 20.2267 13.0725 20.1814C13.078 20.1359 13.092 20.1094 13.078 20.0772C13.0641 20.0456 13.0725 20.024 13.095 20.0159C13.1172 20.0084 13.2064 20.0183 13.2149 19.9978C13.223 19.9762 13.1927 19.9495 13.1339 19.9361C13.0754 19.923 13.0473 19.8879 13.078 19.8585C13.1087 19.829 13.1172 19.8213 13.1311 19.7944C13.145 19.7674 13.1505 19.7195 13.2038 19.7436C13.2563 19.7674 13.2452 19.8262 13.3015 19.845C13.3567 19.8641 13.4881 19.8372 13.5157 19.8213C13.5439 19.8049 13.6331 19.7383 13.6638 19.722C13.6946 19.7064 13.8226 19.6101 13.8226 19.6101C13.8226 19.6101 13.7475 19.5572 13.7194 19.53C13.6916 19.5034 13.6416 19.4395 13.6169 19.4261C13.5916 19.4123 13.4688 19.3648 13.427 19.362C13.3851 19.3591 13.2567 19.3141 13.2567 19.3141C13.2567 19.3141 13.3153 19.295 13.3348 19.2791C13.3544 19.2631 13.3984 19.2227 13.4214 19.2255C13.4433 19.2284 13.4487 19.2284 13.4487 19.2284C13.4487 19.2284 13.3293 19.2227 13.304 19.2152C13.279 19.2067 13.2064 19.1614 13.1787 19.1614C13.1505 19.1614 13.095 19.1723 13.095 19.1723C13.095 19.1723 13.1702 19.1242 13.2316 19.1135C13.293 19.1033 13.3404 19.1054 13.3404 19.1054C13.3404 19.1054 13.2457 19.0788 13.223 19.0469C13.2009 19.0147 13.1787 18.9671 13.1616 18.9455C13.145 18.9243 13.1339 18.8892 13.1032 18.8867C13.0725 18.8839 13.0194 18.9243 12.9888 18.9214C12.9585 18.919 12.9358 18.8998 12.9328 18.8548C12.9308 18.8092 12.9328 18.825 12.9222 18.8013C12.9111 18.7769 12.8664 18.7208 12.9081 18.7078C12.9503 18.6943 13.0395 18.7156 13.0476 18.6996C13.0562 18.6836 13.0003 18.6355 12.964 18.6167C12.9278 18.5982 12.8692 18.566 12.8999 18.5394C12.9308 18.5128 12.9613 18.5023 12.9781 18.4781C12.9948 18.454 13.0143 18.3874 13.0506 18.4086C13.0869 18.4299 13.1371 18.5344 13.165 18.5263C13.1931 18.5181 13.1952 18.4434 13.1901 18.4115C13.1846 18.3793 13.1901 18.3233 13.2176 18.3285C13.2457 18.3338 13.2679 18.3711 13.3127 18.3742C13.357 18.3767 13.424 18.3637 13.4184 18.3951C13.4129 18.4271 13.3876 18.4668 13.357 18.5019C13.3271 18.5369 13.313 18.6061 13.3323 18.6514C13.3517 18.6971 13.4022 18.7695 13.4466 18.7985C13.491 18.8278 13.5747 18.8496 13.6279 18.8839C13.6808 18.919 13.8037 19.0175 13.8456 19.0281C13.8873 19.0391 13.9292 19.0604 13.9292 19.0604C13.9292 19.0604 13.9765 19.0391 14.041 19.0391C14.105 19.0391 14.2526 19.0497 14.3085 19.0256C14.3643 19.0012 14.4369 18.9615 14.4146 18.9104C14.3926 18.8601 14.2696 18.8144 14.2808 18.7747C14.2919 18.7347 14.3366 18.7319 14.4117 18.7291C14.4869 18.7266 14.5901 18.7425 14.6094 18.6355C14.629 18.5288 14.6346 18.4671 14.5291 18.4434C14.4229 18.4192 14.3447 18.4168 14.3256 18.3392C14.3058 18.2619 14.2863 18.2432 14.3085 18.2215C14.3312 18.2006 14.3699 18.1896 14.448 18.1847C14.5261 18.179 14.6153 18.179 14.6405 18.1599C14.6657 18.1418 14.6708 18.0907 14.7016 18.0691C14.7322 18.0482 14.8525 18.029 14.8525 18.029C14.8525 18.029 14.9958 18.1 15.129 18.1999C15.2482 18.2899 15.3559 18.4229 15.3559 18.4229C15.3559 18.421 15.3563 18.493 15.3633 18.5617Z"
    fill="#9C56B8" />
  <path fill-rule="evenodd" clip-rule="evenodd"
    d="M15.1637 17.9894L15.1334 17.9913C15.132 17.9944 15.1183 18.0128 15.1054 18.0229C15.0785 18.0447 15.0379 18.0472 15.0151 18.0289C15.004 18.0194 14.9985 18.0062 15.0005 17.9925C14.9827 18.0002 14.9641 18.0002 14.9468 17.9919C14.9196 17.9787 14.9128 17.947 14.9326 17.9208C14.9358 17.9158 14.9389 17.9092 14.9437 17.9054L14.9417 17.8766L14.905 17.8839L14.8944 17.9009C14.8715 17.9228 14.8376 17.9284 14.8207 17.9155C14.8124 17.9095 14.8064 17.8928 14.8069 17.8921C14.8072 17.8928 14.7981 17.8997 14.7887 17.9015C14.7324 17.9133 14.7099 17.8084 14.7086 17.7812L14.6901 17.8034C14.6901 17.8034 14.7067 17.8662 14.6984 17.9193C14.6901 17.9723 14.668 18.0254 14.668 18.0254C14.7465 18.0424 14.8641 18.0964 14.9807 18.1726C15.0975 18.2481 15.1893 18.3302 15.2272 18.3877C15.2272 18.3877 15.2875 18.3592 15.351 18.3422C15.4137 18.3248 15.4937 18.3245 15.4937 18.3245L15.5165 18.3056C15.483 18.3097 15.3502 18.3144 15.3529 18.2673C15.3534 18.2598 15.3601 18.2516 15.3612 18.2516C15.3605 18.2522 15.3392 18.2506 15.3297 18.2456C15.3104 18.2348 15.3108 18.2073 15.3321 18.1846L15.3506 18.1732L15.3518 18.1429L15.3162 18.147C15.313 18.1508 15.3049 18.1552 15.3001 18.159C15.2722 18.1796 15.2319 18.1811 15.2098 18.1618C15.1965 18.1508 15.1923 18.1359 15.198 18.1204C15.1818 18.1246 15.1649 18.1233 15.1506 18.1163C15.1235 18.1024 15.1183 18.0699 15.1393 18.0447C15.149 18.0323 15.1684 18.0178 15.1718 18.0163L15.1645 17.9897L15.1637 17.9894L15.1637 17.9894Z"
    fill="#F2C500" />
  <path fill-rule="evenodd" clip-rule="evenodd"
    d="M12.3521 28.4712C12.3521 28.4712 11.9256 28.2632 11.8315 28.2453C11.5982 28.2007 11.3361 28.2368 11.2227 28.2314C11.2259 28.2344 11.3587 28.3202 11.4169 28.3732C11.4753 28.426 11.6697 28.5315 11.7795 28.5564C12.0147 28.6099 12.3521 28.5571 12.3521 28.5571L12.3123 28.8362L12.4328 28.7805V28.5028C12.632 28.3732 13.0696 28.6495 13.664 28.2727C12.7875 28.1155 12.5371 28.4536 12.4176 28.4728L12.4114 28.3475H12.3326L12.3521 28.4712Z"
    fill="#058E6E" />
  <path fill-rule="evenodd" clip-rule="evenodd"
    d="M12.6137 27.561C12.8267 27.6215 12.9347 27.7715 12.9347 27.9471C12.9347 28.1757 12.7 28.3492 12.3954 28.3492C12.0908 28.3492 11.8438 28.1757 11.8438 27.9471C11.8438 27.7742 11.9453 27.5811 12.1571 27.5672C12.1571 27.5672 12.1507 27.549 12.1324 27.5193C12.1105 27.4971 12.0671 27.4557 12.0671 27.4557C12.0671 27.4557 12.148 27.4414 12.1946 27.4582C12.2416 27.4749 12.2724 27.5029 12.2724 27.5029C12.2724 27.5029 12.2946 27.4619 12.3255 27.4302C12.3568 27.3987 12.3973 27.3789 12.3973 27.3789C12.3973 27.3789 12.4442 27.4161 12.4595 27.441C12.4748 27.4667 12.4847 27.4971 12.4847 27.4971C12.4847 27.4971 12.5278 27.4636 12.5652 27.4499C12.6025 27.436 12.6507 27.425 12.6507 27.425C12.6507 27.425 12.637 27.4691 12.6278 27.4916C12.6186 27.5139 12.6137 27.561 12.6137 27.561"
    fill="#F6CB7E" />
  <path fill-rule="evenodd" clip-rule="evenodd" d="M7.33203 22.6928H12.3018V17.1133H7.33203V22.6928Z" fill="#CA4638"
    stroke="#262626" stroke-width="0.1" />
  <path fill-rule="evenodd" clip-rule="evenodd"
    d="M9.82266 28.3696C8.44702 28.3696 7.33203 27.306 7.33203 25.994V17.1133H12.3017V22.6244H17.2775V25.994C17.2775 25.994 17.2775 28.3696 14.8141 28.3696C12.3508 28.3696 12.3017 25.994 12.3017 25.994C12.3017 27.306 11.1978 28.3696 9.82266 28.3696Z"
    fill="#E94B35" />
  <path fill-rule="evenodd" clip-rule="evenodd"
    d="M8.63629 18.95V20.4101L8.22266 20.4113V21.1939L11.1318 21.1895V20.407L10.7317 20.4054V18.9457L10.9903 18.9451V18.224L10.6392 18.2229L10.5515 18.2993L10.5561 18.6316L10.302 18.6303L10.2911 18.294L10.208 18.224L9.93434 18.2242L9.86313 18.2993L9.85907 18.6427L9.58051 18.6416L9.58133 18.2948L9.4873 18.2227L9.21175 18.2229L9.12995 18.279L9.13214 18.6406L8.86301 18.6398L8.85892 18.2895L8.7641 18.2256L8.44488 18.2274V18.9504V18.9504L8.63629 18.95ZM8.88932 19.4958V19.0915C8.88932 18.9812 8.95544 18.8893 9.07114 18.8893C9.18684 18.8893 9.25296 18.9812 9.25296 19.0915V19.4958H8.88932ZM10.1185 19.4976V19.0933C10.1185 18.983 10.1846 18.8911 10.3003 18.8911C10.416 18.8911 10.4821 18.983 10.4821 19.0933V19.4976H10.1185ZM10.1064 20.8513V20.3694C10.1064 20.2776 10.065 20.0023 9.67176 20.0023C9.29926 20.0023 9.25787 20.2776 9.25787 20.3694V20.8513H10.1064Z"
    fill="#F2C500" />
  <path fill-rule="evenodd" clip-rule="evenodd"
    d="M13.2501 25.082C13.2586 25.1 13.2633 25.118 13.2633 25.1371C13.2633 25.2019 13.2083 25.2537 13.1397 25.2537C13.0716 25.2537 13.0163 25.2019 13.0163 25.1371C13.0163 25.118 13.0211 25.1 13.0297 25.0842L12.8573 25.082C12.8537 25.0997 12.8516 25.118 12.8516 25.1371C12.8516 25.2593 12.936 25.3628 13.0525 25.3976L13.0523 25.8212L13.2333 25.8223L13.2336 25.3957C13.3176 25.3684 13.3837 25.3054 13.4126 25.2252H13.8985V25.082H13.2501ZM15.6336 25.082V25.2252L15.1967 25.2263C15.1899 25.2454 15.1791 25.2631 15.1686 25.2798L15.676 25.8564L15.5398 25.9666L15.0349 25.3894C15.0256 25.3924 15.0209 25.3961 15.0111 25.3987L15.0099 26.3526H14.831L14.8306 25.3946C14.823 25.3928 14.8167 25.389 14.8096 25.3856L14.284 25.9666L14.1478 25.8564L14.6731 25.2732C14.664 25.2585 14.6573 25.2425 14.6513 25.2252H14.1997V25.082H15.634H15.6336ZM15.9246 25.082V25.2252H16.4109C16.4398 25.3054 16.5052 25.3684 16.5898 25.3957L16.5901 25.8223L16.7707 25.8212L16.7703 25.3976C16.8871 25.3628 16.9718 25.2593 16.9718 25.1371C16.9718 25.118 16.9698 25.0997 16.9654 25.082H16.7936C16.802 25.1 16.8063 25.118 16.8063 25.1371C16.8063 25.2019 16.7517 25.2537 16.6832 25.2537C16.6152 25.2537 16.5597 25.2019 16.5597 25.1371C16.5597 25.118 16.5645 25.1 16.5732 25.0842L15.9246 25.082ZM15.1902 27.5141C15.332 27.4918 15.4627 27.4527 15.5917 27.3985L15.6803 27.5495C15.5319 27.6132 15.372 27.659 15.2053 27.684C15.1776 27.8073 15.0625 27.8998 14.924 27.8998C14.7859 27.8998 14.6706 27.8084 14.6421 27.686C14.466 27.6619 14.299 27.6165 14.1427 27.5495L14.2318 27.3985C14.3676 27.4558 14.5124 27.494 14.6627 27.5149C14.6945 27.4461 14.7526 27.3929 14.829 27.3681L14.8306 26.6285H15.009L15.0107 27.3654C15.0899 27.3891 15.1567 27.443 15.1899 27.5141H15.1902ZM13.9771 27.2661L13.8891 27.4179C13.7381 27.3241 13.6036 27.2085 13.4882 27.0786C13.3963 27.1056 13.2926 27.0896 13.2143 27.0258C13.0931 26.9276 13.0784 26.7552 13.1822 26.6409L13.1973 26.6248C13.1242 26.4599 13.0748 26.2825 13.0579 26.0966L13.2384 26.0974C13.2526 26.256 13.2922 26.4071 13.3538 26.5487C13.4046 26.5416 13.4588 26.5476 13.5075 26.5656L13.9591 26.0659L14.0951 26.1758L13.6464 26.6747C13.707 26.7668 13.7046 26.8857 13.6353 26.9763C13.735 27.0866 13.8494 27.1848 13.9771 27.2661ZM13.3076 26.7421C13.352 26.6926 13.4299 26.687 13.4817 26.7289C13.5337 26.7709 13.54 26.8451 13.4957 26.8939C13.4511 26.943 13.3733 26.949 13.3215 26.907C13.2697 26.8647 13.2633 26.7912 13.3076 26.7421ZM13.08 26.248L12.8944 26.2065L12.8682 25.7365L13.0523 25.6757L13.0525 25.9453C13.0525 26.0498 13.0618 26.1488 13.08 26.248ZM13.234 25.6652L13.4188 25.7087C13.4188 25.7087 13.4283 26.0108 13.4244 25.9429C13.4196 25.8639 13.4446 26.1792 13.4446 26.1792L13.2582 26.2406C13.2396 26.1447 13.2333 26.0464 13.2333 25.9453L13.2336 25.6652H13.234ZM13.8434 27.169C13.9991 27.2905 14.18 27.3891 14.3755 27.4515L14.4166 27.2728C14.256 27.2222 14.107 27.1481 13.976 27.0517L13.8434 27.169ZM13.754 27.3234C13.9119 27.4423 14.0925 27.5375 14.286 27.6034L14.1478 27.7327C13.9926 27.6754 13.8467 27.5997 13.7129 27.5097L13.754 27.3234ZM13.9952 26.2875L14.1716 26.3624L14.4945 26.0041L14.3885 25.8515L13.9952 26.2875ZM13.8582 26.1769L13.7524 26.0236L14.0755 25.6652L14.2514 25.7405L13.8582 26.1769ZM15.8462 27.2661L15.9344 27.4179C16.0851 27.3241 16.2198 27.2085 16.3353 27.0786C16.4267 27.1056 16.5309 27.0896 16.6091 27.0258C16.7303 26.9276 16.7442 26.7552 16.6411 26.6409L16.6258 26.6248C16.6991 26.4599 16.7486 26.2825 16.7647 26.0966L16.5852 26.0974C16.5709 26.256 16.5309 26.4071 16.4695 26.5487C16.4185 26.5416 16.3647 26.5476 16.3156 26.5656L15.8644 26.0659L15.7283 26.1758L16.1767 26.6747C16.1165 26.7668 16.1188 26.8857 16.1877 26.9763C16.0883 27.0866 15.974 27.1848 15.8462 27.2661ZM16.5154 26.7421C16.4711 26.6926 16.3935 26.687 16.3418 26.7289C16.2897 26.7709 16.2835 26.8451 16.3278 26.8939C16.3722 26.943 16.4502 26.949 16.502 26.907C16.5539 26.8647 16.5597 26.7912 16.5154 26.7421ZM16.7431 26.248L16.9286 26.2065L16.9548 25.7365L16.7712 25.6757L16.7707 25.9453C16.7707 26.0498 16.7615 26.1488 16.7431 26.248ZM16.5895 25.6652L16.4047 25.7087C16.4047 25.7087 16.3946 26.0108 16.3988 25.9429C16.4038 25.8639 16.3785 26.1792 16.3785 26.1792L16.5649 26.2406C16.5836 26.1447 16.5898 26.0464 16.5898 25.9453L16.5895 25.6652ZM15.9799 27.169C15.824 27.2905 15.6431 27.3891 15.448 27.4515L15.4068 27.2728C15.5672 27.2222 15.7163 27.1481 15.847 27.0517L15.9799 27.169ZM16.0694 27.3234C15.911 27.4423 15.731 27.5375 15.5374 27.6034L15.6756 27.7327C15.8308 27.6754 15.9767 27.5997 16.1106 27.5097L16.0694 27.3234ZM15.8283 26.2875L15.6518 26.3624L15.3288 26.0041L15.4349 25.8515L15.8283 26.2875ZM15.9651 26.1769L16.071 26.0236L15.748 25.6652L15.5719 25.7405L15.9651 26.1769ZM13.7545 25.2256L13.8087 25.4017H14.3062L14.3598 25.2256H13.7545ZM16.0784 25.2256L16.0238 25.4017H15.5267L15.473 25.2256H16.0784ZM14.8005 27.6267C14.8005 27.5617 14.8558 27.5094 14.924 27.5094C14.992 27.5094 15.047 27.5617 15.047 27.6267C15.047 27.6912 14.992 27.7432 14.924 27.7432C14.8558 27.7432 14.8005 27.6912 14.8005 27.6267ZM15.0099 26.7743L15.1955 26.7223V26.2518L15.0099 26.2008V26.7743ZM14.8299 26.7743L14.6446 26.7223V26.2518L14.8299 26.2008V26.7743Z"
    fill="#F2C500" />
  <path fill-rule="evenodd" clip-rule="evenodd"
    d="M12.8594 25.0855C12.8807 24.9874 12.9573 24.9078 13.0561 24.878L13.0547 24.2973H13.2338L13.2341 24.8812C13.3224 24.909 13.3904 24.9743 13.4178 25.0584L13.9006 25.0592V25.0855H13.2523C13.2322 25.0498 13.1901 25.0232 13.1418 25.0232C13.094 25.0232 13.052 25.0498 13.0319 25.0877L12.8594 25.0855ZM14.2014 25.0855V25.0592H14.6499C14.655 25.0445 14.6616 25.0302 14.6692 25.0167L14.1159 24.4001L14.252 24.2897L14.7983 24.8963C14.8077 24.8917 14.8177 24.8875 14.8275 24.8842L14.828 24.076H15.0068V24.8792C15.0148 24.8815 15.027 24.8837 15.035 24.8861L15.5686 24.2785L15.7057 24.3873L15.17 24.9924C15.1838 25.0126 15.1932 25.0352 15.2008 25.0592H15.6354V25.0855H14.201H14.2014ZM16.5754 25.0855C16.5954 25.0498 16.6371 25.0232 16.6853 25.0232C16.7337 25.0232 16.7753 25.0498 16.7958 25.0877L16.9675 25.0855C16.9461 24.9874 16.8702 24.9078 16.7713 24.878L16.7724 24.2976H16.5938L16.5931 24.8815C16.5053 24.9093 16.4372 24.9743 16.4098 25.0584L15.9267 25.0592V25.0855H16.5754ZM13.2627 23.4451L13.9282 24.1913L14.0645 24.0809L13.3953 23.3377C13.4086 23.3177 13.4181 23.2961 13.4261 23.2726H13.9129V23.1029H13.4258C13.3884 22.9929 13.2793 22.9141 13.1507 22.9141C12.9915 22.9141 12.8621 23.0365 12.8621 23.1876C12.8621 23.3073 12.9431 23.4094 13.0563 23.4463L13.0553 24.022H13.2341V23.4501C13.2417 23.4479 13.2554 23.4479 13.2627 23.4451ZM16.7744 23.4489L16.7728 24.022H16.5938V23.4467C16.5801 23.4424 16.5666 23.4368 16.5538 23.4303L15.8919 24.1775L15.755 24.0685L16.4296 23.3068C16.4241 23.2961 16.4182 23.2848 16.4142 23.2726H15.9247V23.1029H16.4127C16.4503 22.9929 16.5584 22.9141 16.6865 22.9141C16.8456 22.9141 16.9751 23.0365 16.9751 23.1876C16.9751 23.3103 16.8915 23.4139 16.7744 23.4489ZM15.0088 23.4467L15.0072 23.7996H14.8284L14.8288 23.4497C14.7397 23.4233 14.6695 23.3573 14.6403 23.2726H14.2037V23.1029H14.6403C14.678 22.9929 14.7856 22.9141 14.9138 22.9141C15.0421 22.9141 15.1505 22.9929 15.1881 23.1029H15.6334V23.2726H15.187C15.1588 23.3542 15.094 23.4193 15.0088 23.4467ZM13.0569 23.875L12.8713 23.9273V24.399L13.0569 24.4501V23.875ZM13.2369 23.875L13.4221 23.9273V24.399L13.2369 24.4501V23.875ZM16.5922 23.875L16.4071 23.9273V24.399L16.5922 24.4501V23.875ZM16.7724 23.875L16.9581 23.9273V24.399L16.7724 24.4501V23.875ZM13.9634 23.9681L14.1401 23.8932L14.4631 24.2522L14.357 24.4054L13.9634 23.9681ZM13.8267 24.0794L13.721 24.2331L14.0439 24.5917L14.22 24.5162L13.8267 24.0794ZM15.8546 23.9543L15.6777 23.8807L15.3579 24.2424L15.4651 24.3945L15.8546 23.9543ZM15.9924 24.0644L16.0995 24.2168L15.7798 24.5785L15.6033 24.5045L15.9924 24.0644ZM13.7566 25.0589L13.8109 24.8827H14.3083L14.362 25.0589H13.7566ZM13.0272 23.1879C13.0272 23.1234 13.0825 23.0707 13.1507 23.0707C13.2187 23.0707 13.2738 23.1234 13.2738 23.1879C13.2738 23.2525 13.2187 23.3046 13.1507 23.3046C13.0825 23.3046 13.0272 23.2525 13.0272 23.1879ZM14.3577 23.2731L14.3032 23.4497H13.806L13.7523 23.2731H14.3577ZM14.3577 23.1022L14.3032 22.9261H13.806L13.7523 23.1022H14.3577ZM16.0805 25.0589L16.0259 24.8827H15.5288L15.4751 25.0589H16.0805ZM16.5631 23.1879C16.5631 23.1234 16.6181 23.0707 16.6865 23.0707C16.7547 23.0707 16.8097 23.1234 16.8097 23.1879C16.8097 23.2525 16.7547 23.3046 16.6865 23.3046C16.6181 23.3046 16.5631 23.2525 16.5631 23.1879ZM14.7904 23.1879C14.7904 23.1234 14.8458 23.0707 14.9138 23.0707C14.982 23.0707 15.037 23.1234 15.037 23.1879C15.037 23.2525 14.982 23.3046 14.9138 23.3046C14.8458 23.3046 14.7904 23.2525 14.7904 23.1879ZM15.4794 23.2731L15.534 23.4497H16.0311L16.0849 23.2731H15.4794ZM15.4794 23.1022L15.534 22.9261H16.0311L16.0849 23.1022H15.4794ZM14.83 23.6532L14.6447 23.7053V24.177L14.83 24.2281V23.6532ZM15.0081 23.6532L15.1932 23.7053V24.177L15.0081 24.2281V23.6532Z"
    fill="#F2C500" />
  <path fill-rule="evenodd" clip-rule="evenodd"
    d="M14.6367 25.1411C14.6367 24.9897 14.7662 24.8672 14.9257 24.8672C15.0848 24.8672 15.2142 24.9897 15.2142 25.1411C15.2142 25.2918 15.0848 25.414 14.9257 25.414C14.7662 25.414 14.6367 25.2918 14.6367 25.1411Z"
    fill="#058E6E" />
  <path fill-rule="evenodd" clip-rule="evenodd"
    d="M8.37863 27.9327C8.53642 28.0143 8.75316 28.1501 8.98469 28.2045L8.97001 22.625H8.37863V27.9327ZM10.0958 28.3544V22.625H9.48974V28.3544C9.72691 28.3775 9.90378 28.3729 10.0958 28.3544ZM10.6009 28.2045C10.8323 28.1592 11.0933 28.0188 11.2069 27.9464V22.625H10.6156L10.6009 28.2045ZM11.7271 27.4767C11.9794 27.2624 12.2167 26.7744 12.303 26.2182L12.318 22.625H11.712L11.7271 27.4767ZM7.91903 27.4767C7.66671 27.2624 7.42943 26.7744 7.34318 26.2182L7.32812 22.625H7.93419L7.91903 27.4767Z"
    fill="#C8A200" />
  <path fill-rule="evenodd" clip-rule="evenodd"
    d="M12.2436 20.8906C13.114 20.8906 13.8195 21.7052 13.8195 22.71C13.8195 23.7148 13.114 24.5294 12.2436 24.5294C11.3734 24.5294 10.668 23.7148 10.668 22.71C10.668 21.7052 11.3734 20.8906 12.2436 20.8906Z"
    fill="#E94B35" />
  <path fill-rule="evenodd" clip-rule="evenodd"
    d="M12.2649 21.3359C12.9009 21.3359 13.4163 21.9331 13.4163 22.6698C13.4163 23.4068 12.9009 24.0044 12.2649 24.0044C11.6285 24.0044 11.1133 23.4068 11.1133 22.6698C11.1133 21.9328 11.6285 21.3359 12.2649 21.3359Z"
    fill="#346DA6" />
  <path fill-rule="evenodd" clip-rule="evenodd"
    d="M11.7647 21.7812C11.7647 21.7812 11.6314 21.9386 11.6314 22.0842C11.6314 22.2306 11.6877 22.3522 11.6877 22.3522C11.6676 22.2944 11.6132 22.2528 11.5491 22.2528C11.4682 22.2528 11.4023 22.3196 11.4023 22.4026C11.4023 22.4266 11.416 22.4641 11.4263 22.4847L11.4741 22.5887C11.4899 22.5504 11.5271 22.529 11.5705 22.529C11.6285 22.529 11.6757 22.5767 11.6757 22.6361C11.6757 22.645 11.6746 22.6541 11.6724 22.6623L11.5528 22.6627V22.7723H11.6595L11.5801 22.942L11.6853 22.8977L11.7647 22.9942L11.8471 22.8977L11.952 22.942L11.8729 22.7723H11.9796V22.6627L11.8596 22.6623C11.8575 22.6541 11.8571 22.645 11.8571 22.6361C11.8571 22.5767 11.9034 22.529 11.9615 22.529C12.0048 22.529 12.0421 22.5504 12.0582 22.5887L12.1056 22.4847C12.116 22.4641 12.1296 22.4266 12.1296 22.4026C12.1296 22.3196 12.0641 22.2528 11.9828 22.2528C11.9188 22.2528 11.8648 22.2944 11.8445 22.3522C11.8445 22.3522 11.9004 22.2306 11.9004 22.0842C11.9004 21.9386 11.7644 21.7812 11.7644 21.7812H11.7647H11.7647ZM12.8759 21.7812C12.8759 21.7812 12.7427 21.9386 12.7427 22.0842C12.7427 22.2306 12.7986 22.3522 12.7986 22.3522C12.7787 22.2944 12.7243 22.2528 12.6603 22.2528C12.579 22.2528 12.5135 22.3196 12.5135 22.4026C12.5135 22.4266 12.5271 22.4641 12.5374 22.4847L12.5848 22.5887C12.6011 22.5504 12.6382 22.529 12.6816 22.529C12.7397 22.529 12.7864 22.5767 12.7864 22.6361C12.7864 22.645 12.7857 22.6541 12.7836 22.6623L12.6639 22.6627V22.7723H12.7706L12.6912 22.942L12.796 22.8977L12.8759 22.9942L12.958 22.8977L13.0632 22.942L12.9836 22.7723H13.0903V22.6627L12.9708 22.6623C12.9685 22.6541 12.9678 22.645 12.9678 22.6361C12.9678 22.5767 13.0146 22.529 13.0728 22.529C13.1161 22.529 13.1533 22.5504 13.1691 22.5887L13.2169 22.4847C13.2273 22.4641 13.2407 22.4266 13.2407 22.4026C13.2407 22.3196 13.175 22.2528 13.094 22.2528C13.0301 22.2528 12.9754 22.2944 12.9554 22.3522C12.9554 22.3522 13.0116 22.2306 13.0116 22.0842C13.0116 21.9386 12.8756 21.7812 12.8756 21.7812H12.8759H12.8759ZM12.2089 22.6701C12.2089 22.6701 12.0758 22.8275 12.0758 22.9735C12.0758 23.1195 12.1321 23.2411 12.1321 23.2411C12.1119 23.1833 12.0578 23.1417 11.9935 23.1417C11.9126 23.1417 11.8468 23.2085 11.8468 23.2914C11.8468 23.3158 11.8604 23.353 11.8707 23.3736L11.9185 23.4776C11.9347 23.4393 11.9714 23.4176 12.0147 23.4176C12.0729 23.4176 12.12 23.4656 12.12 23.525C12.12 23.5343 12.1189 23.5433 12.1166 23.5516L11.9972 23.5519V23.6616H12.1042L12.0247 23.8312L12.1296 23.7866L12.2089 23.8831L12.2913 23.7866L12.3964 23.8312L12.3167 23.6616H12.4236V23.5519L12.3041 23.5516C12.3019 23.5433 12.3012 23.5343 12.3012 23.525C12.3012 23.4656 12.348 23.4176 12.406 23.4176C12.4493 23.4176 12.4861 23.4393 12.5024 23.4776L12.5502 23.3736C12.5603 23.353 12.5741 23.3158 12.5741 23.2914C12.5741 23.2085 12.5082 23.1417 12.4273 23.1417C12.3634 23.1417 12.3094 23.1833 12.2887 23.2411C12.2887 23.2411 12.345 23.1195 12.345 22.9735C12.345 22.8275 12.2086 22.6701 12.2086 22.6701H12.209H12.2089Z"
    fill="#F2C500" />
  <path fill-rule="evenodd" clip-rule="evenodd"
    d="M18.272 17.7197C18.272 17.7197 18.354 17.8488 18.354 17.9676C18.354 18.0863 18.272 18.2048 18.272 18.2048H19.9983C19.9983 18.2048 19.848 18.1031 19.848 17.9676C19.848 17.832 19.9983 17.7197 19.9983 17.7197H20.1818V17.1133H18V17.7197H18.272Z"
    fill="#C8A200" />
  <path fill-rule="evenodd" clip-rule="evenodd"
    d="M18.272 27.8389C18.272 27.8389 18.354 27.7098 18.354 27.591C18.354 27.4723 18.272 27.3538 18.272 27.3538H19.9983C19.9983 27.3538 19.848 27.4555 19.848 27.591C19.848 27.7266 19.9983 27.8389 19.9983 27.8389H20.1818V28.4453H18V27.8389H18.272Z"
    fill="#C8A200" />
  <path d="M19.9965 18.2227H18.2188V27.3338H19.9965V18.2227Z" fill="white" />
  <path fill-rule="evenodd" clip-rule="evenodd"
    d="M20.2031 28.2957C20.1054 28.2504 19.9731 28.2227 19.8271 28.2227C19.6805 28.2227 19.5449 28.2507 19.4471 28.2964C19.349 28.3434 19.2134 28.3723 19.0653 28.3723C18.9153 28.3723 18.7819 28.3405 18.6834 28.2926C18.5865 28.2491 18.4566 28.2227 18.3144 28.2227C18.1674 28.2227 18.0368 28.2482 17.9391 28.2945C17.8406 28.3421 17.7042 28.3723 17.5547 28.3723V29.4754C17.7042 29.4754 17.8406 29.4442 17.9391 29.397C18.0368 29.351 18.1674 29.3249 18.3144 29.3249C18.4562 29.3249 18.5861 29.3516 18.6834 29.3955C18.7816 29.443 18.9153 29.4754 19.0653 29.4754C19.2134 29.4754 19.349 29.4458 19.4471 29.3992C19.5449 29.3529 19.6805 29.3249 19.8271 29.3249C19.9731 29.3249 20.1054 29.3529 20.2031 29.3986C20.3017 29.4465 20.4329 29.4754 20.5832 29.4754L20.585 28.3723C20.4351 28.3723 20.3017 28.3436 20.2031 28.2957Z"
    fill="#227FBB" />
  <path fill-rule="evenodd" clip-rule="evenodd"
    d="M20.585 29.0411C20.4351 29.0411 20.3017 29.0121 20.2031 28.9643C20.1054 28.9187 19.9731 28.8906 19.8271 28.8906C19.6805 28.8906 19.5449 28.9187 19.4471 28.9649C19.349 29.0115 19.2134 29.0411 19.0653 29.0411C18.9153 29.0411 18.7819 29.0086 18.6834 28.9612C18.5865 28.9173 18.4566 28.8906 18.3144 28.8906C18.1674 28.8906 18.0368 28.9167 17.9391 28.9627C17.8406 29.0099 17.7042 29.0411 17.5547 29.0411V29.2545C17.7042 29.2545 17.8406 29.224 17.9391 29.1768C18.0368 29.1302 18.1674 29.1044 18.3144 29.1044C18.4562 29.1044 18.5861 29.1311 18.6834 29.1749C18.7816 29.2225 18.9153 29.2545 19.0653 29.2545C19.2134 29.2545 19.349 29.225 19.4471 29.1784C19.5449 29.1324 19.6805 29.1044 19.8271 29.1044C19.9731 29.1044 20.1054 29.1324 20.2031 29.178C20.3017 29.2256 20.4329 29.2545 20.5832 29.2545L20.585 29.0411"
    fill="white" />
  <path fill-rule="evenodd" clip-rule="evenodd"
    d="M18.9491 21.3379C19.1828 21.3396 19.4434 21.3611 19.7126 21.4052C20.0619 21.4625 20.3807 21.5489 20.6417 21.6505L19.9808 21.8481L20.0236 22.5992C20.0236 22.5992 20.4622 22.5931 20.8105 22.4922C21.1165 22.4035 21.3486 22.2584 21.3443 22.2807C21.3431 22.2872 21.6865 21.4742 21.6917 21.4442C21.7557 21.1066 20.9506 20.6916 19.8927 20.5183C19.5607 20.464 19.2366 20.4428 18.9557 20.4455C18.2786 20.4455 17.64 20.5104 17.2857 20.6396L17.2812 21.5853C17.6292 21.4442 18.2708 21.3598 18.9491 21.3379ZM20.5008 23.5123C20.2249 23.4139 19.997 23.3114 19.7146 23.1872C18.8758 22.8178 18.2274 22.2389 18.2274 22.2389V23.021C18.1509 23.1627 18.718 23.5807 19.4896 23.9494C19.7368 24.0671 20.2591 24.2593 20.5055 24.3453C20.7046 24.4142 21.1198 24.6162 21.1198 24.6162C21.1198 24.6162 20.5646 24.9229 21.0788 25.5098C21.1198 25.1582 21.5027 25.0159 21.4905 25.0487L21.4905 24.1074C21.532 23.9824 21.1047 23.7331 20.5008 23.5123Z"
    fill="#E94B35" />
  <path fill-rule="evenodd" clip-rule="evenodd"
    d="M20.585 28.5957C20.4351 28.5957 20.3017 28.5668 20.2031 28.519C20.1054 28.4733 19.9731 28.4453 19.8271 28.4453C19.6805 28.4453 19.5449 28.4733 19.4471 28.5196C19.349 28.5662 19.2134 28.5957 19.0653 28.5957C18.9153 28.5957 18.7819 28.5633 18.6834 28.5158C18.5865 28.472 18.4566 28.4453 18.3144 28.4453C18.1674 28.4453 18.0368 28.4714 17.9391 28.5174C17.8406 28.5646 17.7042 28.5957 17.5547 28.5957V28.8092C17.7042 28.8092 17.8406 28.7787 17.9391 28.7314C18.0368 28.6848 18.1674 28.659 18.3144 28.659C18.4562 28.659 18.5861 28.6858 18.6834 28.7296C18.7816 28.7771 18.9153 28.8092 19.0653 28.8092C19.2134 28.8092 19.349 28.7796 19.4471 28.733C19.5449 28.6871 19.6805 28.659 19.8271 28.659C19.9731 28.659 20.1054 28.6871 20.2031 28.7327C20.3017 28.7803 20.4329 28.8092 20.5832 28.8092L20.585 28.5957"
    fill="white" />
  <path fill-rule="evenodd" clip-rule="evenodd"
    d="M18.4444 16.6638C18.4193 16.6458 18.3433 16.5575 18.3433 16.5575L18.2825 16.5043L18.2272 16.4101C18.2272 16.4101 18.1613 16.2812 18.1915 16.1806C18.2217 16.0806 18.2724 16.045 18.3182 16.0157C18.3638 15.9863 18.4596 15.9509 18.4596 15.9509C18.4596 15.9509 18.5358 15.9097 18.561 15.9035C18.5861 15.8977 18.6775 15.8683 18.6775 15.8683C18.6775 15.8683 18.7027 15.8508 18.7279 15.839C18.7534 15.8273 18.7887 15.8273 18.8092 15.8211C18.8293 15.8152 18.88 15.7953 18.9103 15.7933C18.9573 15.7909 19.0318 15.8035 19.0574 15.8035C19.0825 15.8035 19.1686 15.8097 19.2038 15.8097C19.2391 15.8097 19.3656 15.7976 19.4013 15.7976C19.4365 15.7976 19.4621 15.7921 19.5027 15.7976C19.543 15.8035 19.6139 15.8327 19.6343 15.8449C19.6545 15.8567 19.7761 15.9097 19.8215 15.9274C19.8671 15.9446 19.9786 15.9684 20.0294 15.9978C20.0797 16.0275 20.1106 16.0771 20.1358 16.1185C20.1613 16.1596 20.166 16.2045 20.1761 16.2342C20.1858 16.2635 20.1862 16.3268 20.1765 16.3562C20.1663 16.3855 20.1305 16.4461 20.1305 16.4461L20.0746 16.5578L20.0038 16.6282C20.0038 16.6282 19.9531 16.6876 19.9128 16.6814C19.8722 16.6763 19.8215 16.8105 19.2038 16.8105C18.5862 16.8105 18.4873 16.6814 18.4873 16.6814C18.4877 16.6814 18.4696 16.6814 18.4444 16.6638Z"
    fill="#CA4638" />
  <path fill-rule="evenodd" clip-rule="evenodd"
    d="M18.658 16.2724L18.6336 16.1228C18.4991 15.9524 18.3753 15.8405 18.3338 15.8645C18.3437 15.833 18.3555 15.8094 18.3814 15.7949C18.501 15.7266 18.7479 15.8904 18.9335 16.1595C18.9502 16.1841 18.9663 16.2086 18.9804 16.2333H19.1155C19.1155 16.2333 19.0102 15.984 19.0658 15.8614C19.0839 15.8214 19.1497 15.8279 19.1497 15.8279V15.6915H19.0722V15.6456H19.1497V15.5625H19.2064V15.6456H19.28V15.6915H19.2045C19.2045 15.6915 19.2032 15.8066 19.2064 15.8279C19.2146 15.8279 19.28 15.8279 19.2979 15.8638C19.3426 15.9375 19.2538 16.2333 19.2538 16.2333H19.3838C19.3838 16.2333 19.4143 16.1844 19.4311 16.1595C19.6163 15.8904 19.8635 15.7266 19.9828 15.7949C20.0086 15.8094 20.0205 15.833 20.0307 15.8645C19.9889 15.8409 19.8654 15.9524 19.7301 16.1228L19.7121 16.2349L19.7311 16.2701C19.7233 16.2809 19.7206 16.2934 19.7206 16.3068C19.7206 16.3514 19.7684 16.3875 19.8269 16.3875C19.8641 16.3875 19.8964 16.373 19.9156 16.3514L19.9382 16.3287L19.9378 16.3568C19.9378 16.3846 19.9529 16.4097 19.9871 16.4142C19.9871 16.4142 20.0257 16.4164 20.0784 16.3835C20.1303 16.3509 20.1588 16.3236 20.1588 16.3236L20.1621 16.3571C20.1621 16.3571 20.1111 16.4241 20.0645 16.4454C20.0392 16.4573 19.9685 16.6731 19.9378 16.6688C19.9352 16.6685 19.586 16.5846 19.1945 16.5842C18.8203 16.5839 18.4662 16.6859 18.4504 16.6878C18.4196 16.6921 18.3497 16.4573 18.3242 16.4454C18.2776 16.4241 18.2227 16.3571 18.2227 16.3571L18.2298 16.3236C18.2298 16.3236 18.2588 16.3509 18.3103 16.3835C18.3625 16.4164 18.4016 16.4142 18.4016 16.4142C18.4358 16.4097 18.4508 16.3846 18.4508 16.3568L18.4504 16.3287L18.4729 16.3514C18.4921 16.373 18.5245 16.3875 18.5616 16.3875C18.615 16.3875 18.6593 16.3577 18.6669 16.3187L18.658 16.2724Z"
    fill="#C8A200" />
  <path fill-rule="evenodd" clip-rule="evenodd"
    d="M4.7173 17.7197C4.7173 17.7197 4.79933 17.8488 4.79933 17.9676C4.79933 18.0863 4.7173 18.2048 4.7173 18.2048H6.44364C6.44364 18.2048 6.29328 18.1031 6.29328 17.9676C6.29328 17.832 6.44364 17.7197 6.44364 17.7197H6.62713V17.1133H4.44531V17.7197H4.7173Z"
    fill="#C8A200" />
  <path fill-rule="evenodd" clip-rule="evenodd"
    d="M4.7173 27.8389C4.7173 27.8389 4.79933 27.7098 4.79933 27.591C4.79933 27.4723 4.7173 27.3538 4.7173 27.3538H6.44364C6.44364 27.3538 6.29328 27.4555 6.29328 27.591C6.29328 27.7266 6.44364 27.8389 6.44364 27.8389H6.62713V28.4453H4.44531V27.8389H4.7173Z"
    fill="#C8A200" />
  <path d="M6.44184 18.2227H4.66406V27.3338H6.44184V18.2227Z" fill="white" />
  <path fill-rule="evenodd" clip-rule="evenodd"
    d="M6.64844 28.2957C6.5507 28.2504 6.41839 28.2227 6.27246 28.2227C6.12584 28.2227 5.9902 28.2507 5.89246 28.2964C5.79432 28.3434 5.65868 28.3723 5.5106 28.3723C5.36065 28.3723 5.22726 28.3405 5.12874 28.2926C5.03178 28.2491 4.90191 28.2227 4.75971 28.2227C4.6127 28.2227 4.48215 28.2482 4.38441 28.2945C4.28588 28.3421 4.14955 28.3723 4 28.3723V29.4754C4.14955 29.4754 4.28588 29.4442 4.38441 29.397C4.48215 29.351 4.6127 29.3249 4.75971 29.3249C4.90152 29.3249 5.03139 29.3516 5.12874 29.3955C5.22687 29.443 5.36065 29.4754 5.5106 29.4754C5.65868 29.4754 5.79432 29.4458 5.89246 29.3992C5.9902 29.3529 6.12584 29.3249 6.27246 29.3249C6.41839 29.3249 6.5507 29.3529 6.64844 29.3986C6.74697 29.4465 6.87821 29.4754 7.02854 29.4754L7.0303 28.3723C6.88046 28.3723 6.74697 28.3436 6.64844 28.2957Z"
    fill="#227FBB" />
  <path fill-rule="evenodd" clip-rule="evenodd"
    d="M7.0303 29.0411C6.88046 29.0411 6.74697 29.0121 6.64844 28.9643C6.5507 28.9187 6.41839 28.8906 6.27246 28.8906C6.12585 28.8906 5.9902 28.9187 5.89246 28.9649C5.79433 29.0115 5.65868 29.0411 5.5106 29.0411C5.36065 29.0411 5.22726 29.0086 5.12874 28.9612C5.03178 28.9173 4.90191 28.8906 4.75971 28.8906C4.6127 28.8906 4.48215 28.9167 4.38441 28.9627C4.28588 29.0099 4.14955 29.0411 4 29.0411V29.2545C4.14955 29.2545 4.28588 29.224 4.38441 29.1768C4.48215 29.1302 4.6127 29.1044 4.75971 29.1044C4.90152 29.1044 5.03139 29.1311 5.12874 29.1749C5.22687 29.2225 5.36065 29.2545 5.5106 29.2545C5.65868 29.2545 5.79433 29.225 5.89246 29.1784C5.9902 29.1324 6.12585 29.1044 6.27246 29.1044C6.41839 29.1044 6.5507 29.1324 6.64844 29.178C6.74697 29.2256 6.87821 29.2545 7.02854 29.2545L7.0303 29.0411"
    fill="white" />
  <path fill-rule="evenodd" clip-rule="evenodd"
    d="M5.71497 21.3379C5.48131 21.3396 5.2207 21.3611 4.9515 21.4052C4.60217 21.4625 4.28331 21.5489 4.02239 21.6505L4.6833 21.8481L4.64048 22.5992C4.64048 22.5992 4.20185 22.5931 3.85355 22.4922C3.54761 22.4035 3.31549 22.2584 3.31973 22.2808C3.32092 22.2872 2.97759 21.4742 2.97235 21.4442C2.90839 21.1066 3.71351 20.6916 4.77135 20.5183C5.10333 20.464 5.42751 20.4428 5.70836 20.4455C6.38545 20.4455 7.02408 20.5104 7.37837 20.6396L7.38281 21.5853C7.03484 21.4442 6.39325 21.3598 5.71497 21.3379Z"
    fill="#E94B35" />
  <path fill-rule="evenodd" clip-rule="evenodd"
    d="M4.16499 23.5117C4.44093 23.4133 4.66881 23.3108 4.95121 23.1866C5.78999 22.8171 6.43839 22.2383 6.43839 22.2383V23.0204C6.51494 23.1621 5.94779 23.5801 5.17625 23.9488C4.92899 24.0665 4.40677 24.2587 4.1603 24.3447C3.96122 24.4135 3.54605 24.6156 3.54605 24.6156C3.54605 24.6156 4.10124 24.9222 3.58706 25.5092C3.54605 25.1576 3.16316 25.0153 3.17537 25.0481L3.17537 24.1067C3.13386 23.9818 3.56113 23.7325 4.16499 23.5117Z"
    fill="#E94B35" />
  <path fill-rule="evenodd" clip-rule="evenodd"
    d="M7.0303 28.5957C6.88046 28.5957 6.74697 28.5668 6.64844 28.519C6.5507 28.4733 6.41839 28.4453 6.27246 28.4453C6.12585 28.4453 5.9902 28.4733 5.89246 28.5196C5.79433 28.5662 5.65868 28.5957 5.5106 28.5957C5.36065 28.5957 5.22726 28.5633 5.12874 28.5158C5.03178 28.472 4.90191 28.4453 4.75971 28.4453C4.6127 28.4453 4.48215 28.4714 4.38441 28.5174C4.28588 28.5646 4.14955 28.5957 4 28.5957V28.8092C4.14955 28.8092 4.28588 28.7787 4.38441 28.7314C4.48215 28.6848 4.6127 28.659 4.75971 28.659C4.90152 28.659 5.03139 28.6858 5.12874 28.7296C5.22687 28.7771 5.36065 28.8092 5.5106 28.8092C5.65868 28.8092 5.79433 28.7796 5.89246 28.733C5.9902 28.6871 6.12585 28.659 6.27246 28.659C6.41839 28.659 6.5507 28.6871 6.64844 28.7327C6.74697 28.7803 6.87821 28.8092 7.02854 28.8092L7.0303 28.5957"
    fill="white" />
  <path fill-rule="evenodd" clip-rule="evenodd"
    d="M4.77645 16.6638C4.75129 16.6458 4.67535 16.5575 4.67535 16.5575L4.61456 16.5043L4.55918 16.4101C4.55918 16.4101 4.49334 16.2812 4.52356 16.1806C4.55377 16.0806 4.60446 16.045 4.65019 16.0157C4.69582 15.9863 4.79161 15.9509 4.79161 15.9509C4.79161 15.9509 4.86782 15.9097 4.89298 15.9035C4.91815 15.8977 5.00951 15.8683 5.00951 15.8683C5.00951 15.8683 5.03476 15.8508 5.05993 15.839C5.08545 15.8273 5.12072 15.8273 5.14119 15.8211C5.1613 15.8152 5.21208 15.7953 5.24229 15.7933C5.28928 15.7909 5.36387 15.8035 5.3894 15.8035C5.41456 15.8035 5.5006 15.8097 5.53587 15.8097C5.57113 15.8097 5.69767 15.7976 5.7333 15.7976C5.76856 15.7976 5.79409 15.7921 5.83476 15.7976C5.87508 15.8035 5.94588 15.8327 5.96635 15.8449C5.98656 15.8567 6.10814 15.9097 6.1535 15.9274C6.19914 15.9446 6.31062 15.9684 6.36139 15.9978C6.41172 16.0275 6.44266 16.0771 6.46782 16.1185C6.49334 16.1596 6.49803 16.2045 6.50814 16.2342C6.51788 16.2635 6.51824 16.3268 6.50849 16.3562C6.4983 16.3855 6.4625 16.4461 6.4625 16.4461L6.40667 16.5578L6.33587 16.6282C6.33587 16.6282 6.28509 16.6876 6.24486 16.6814C6.20419 16.6763 6.1535 16.8105 5.53587 16.8105C4.91824 16.8105 4.81933 16.6814 4.81933 16.6814C4.81969 16.6814 4.80162 16.6814 4.77645 16.6638Z"
    fill="#CA4638" />
  <path fill-rule="evenodd" clip-rule="evenodd"
    d="M4.99003 16.2724L4.96568 16.1228C4.83114 15.9524 4.70734 15.8405 4.6658 15.8645C4.67572 15.833 4.68749 15.8094 4.71348 15.7949C4.83308 15.7266 5.07996 15.8904 5.26556 16.1595C5.28224 16.1841 5.2983 16.2086 5.31242 16.2333H5.4475C5.4475 16.2333 5.34224 15.984 5.39782 15.8614C5.41594 15.8214 5.48176 15.8279 5.48176 15.8279V15.6915H5.40419V15.6456H5.48176V15.5625H5.53847V15.6456H5.612V15.6915H5.53652C5.53652 15.6915 5.53528 15.8066 5.53847 15.8279C5.54664 15.8279 5.612 15.8279 5.62998 15.8638C5.6746 15.9375 5.58586 16.2333 5.58586 16.2333H5.71584C5.71584 16.2333 5.74633 16.1844 5.76311 16.1595C5.9483 15.8904 6.19549 15.7266 6.31478 15.7949C6.34067 15.8094 6.35254 15.833 6.36277 15.8645C6.32092 15.8409 6.19743 15.9524 6.06217 16.1228L6.04415 16.2349L6.06317 16.2701C6.0553 16.2809 6.05267 16.2934 6.05267 16.3068C6.05267 16.3514 6.10041 16.3875 6.15894 16.3875C6.19618 16.3875 6.22847 16.373 6.24764 16.3514L6.27025 16.3287L6.26985 16.3568C6.26985 16.3846 6.28488 16.4097 6.31909 16.4142C6.31909 16.4142 6.35775 16.4164 6.41042 16.3835C6.46229 16.3509 6.49085 16.3236 6.49085 16.3236L6.49408 16.3571C6.49408 16.3571 6.44312 16.4241 6.3965 16.4454C6.37127 16.4573 6.30053 16.6731 6.26985 16.6688C6.26723 16.6685 5.91799 16.5846 5.52651 16.5842C5.15234 16.5839 4.79824 16.6859 4.78246 16.6878C4.75168 16.6921 4.68174 16.4573 4.65621 16.4454C4.60959 16.4241 4.55469 16.3571 4.55469 16.3571L4.56185 16.3236C4.56185 16.3236 4.59082 16.3509 4.64228 16.3835C4.69456 16.4164 4.73361 16.4142 4.73361 16.4142C4.76782 16.4097 4.78286 16.3846 4.78286 16.3568L4.78246 16.3287L4.80496 16.3514C4.82414 16.373 4.85653 16.3875 4.89367 16.3875C4.947 16.3875 4.99131 16.3577 4.99889 16.3187L4.99003 16.2724Z"
    fill="#C8A200" />
  <path fill-rule="evenodd" clip-rule="evenodd"
    d="M14.0614 12.9139C14.2782 13.0114 14.5692 13.0834 14.8878 13.1258C15.1304 13.1582 15.361 13.1648 15.5615 13.1495C15.8297 13.1443 16.2176 13.2225 16.6056 13.3927C16.9267 13.5347 17.1948 13.7073 17.3729 13.8743L17.2188 14.011L17.1742 14.3993L16.7515 14.8815L16.5402 15.0601L16.0398 15.4592L15.7842 15.48L15.7065 15.7003C15.7065 15.7003 16.6056 16.8557 12.564 16.7858C8.52246 16.7158 9.22157 15.7003 9.22157 15.7003L9.14373 15.48L8.88774 15.4592L8.38743 15.0601L8.1761 14.8815L7.75354 14.3993L7.70957 14.011L7.55469 13.8743C7.73354 13.7073 8.00171 13.5347 8.32207 13.3927C8.71008 13.2225 9.09808 13.1443 9.36605 13.1495C9.56659 13.1648 9.79723 13.1582 10.0399 13.1258C10.3585 13.0834 10.6499 13.0114 10.8663 12.9139C11.2455 12.7644 11.7945 12.668 12.4476 12.668C13.1011 12.668 13.6826 12.7644 14.0614 12.9139Z"
    fill="#E94B35" />
  <path
    d="M12.3329 11.5564C12.6397 11.5564 12.8885 11.3077 12.8885 11.0009C12.8885 10.694 12.6397 10.4453 12.3329 10.4453C12.0261 10.4453 11.7773 10.694 11.7773 11.0009C11.7773 11.3077 12.0261 11.5564 12.3329 11.5564Z"
    fill="#346DA6" />
  <path fill-rule="evenodd" clip-rule="evenodd"
    d="M10.0007 13.6953C9.98194 13.7616 9.97468 13.8322 9.98193 13.9011C9.98193 13.9011 9.96054 13.8795 9.89241 13.8661C9.82428 13.8528 9.77691 13.8715 9.77691 13.8715C9.77691 13.8715 9.82837 13.9635 9.84934 13.9954C9.87072 14.027 9.90878 14.1312 9.96474 14.2176C9.97766 14.2377 9.99117 14.2564 10.0043 14.2733C9.98449 14.2666 9.96353 14.2601 9.94228 14.2546C9.86637 14.2351 9.73281 14.2343 9.69247 14.2336C9.65213 14.2325 9.57155 14.2307 9.57155 14.2307C9.57155 14.2307 9.57824 14.2488 9.60117 14.2882C9.62877 14.3359 9.6533 14.3657 9.6533 14.3657C9.51963 14.3961 9.40582 14.4827 9.33384 14.5832C9.43831 14.6544 9.57707 14.6976 9.71339 14.6839C9.71339 14.6839 9.7015 14.7198 9.6929 14.774C9.68578 14.8187 9.68621 14.8371 9.68621 14.8371C9.68621 14.8371 9.76127 14.8098 9.79885 14.7962C9.83643 14.7825 9.96171 14.7397 10.0262 14.6969C10.0555 14.6771 10.087 14.6613 10.1156 14.6492C10.1481 14.7078 10.1611 14.7735 10.1611 14.8439C10.1611 15.0796 9.95236 15.2703 9.69478 15.2703C9.533 15.2703 9.39014 15.1949 9.30665 15.0806L9.20864 14.9602L9.20934 15.1079C9.20934 15.2563 9.14457 15.3894 8.99471 15.4129C8.99471 15.4129 8.82282 15.4235 8.59467 15.2502C8.52367 15.1963 8.46258 15.1452 8.41212 15.1005C8.4291 15.0976 8.44187 15.0987 8.44524 15.1102C8.48637 15.1181 8.55424 15.1281 8.61476 15.1319C8.69682 15.1374 8.83382 15.1156 8.87554 15.1102C8.91667 15.1043 8.99981 15.0925 8.99981 15.0925C8.99981 15.0925 8.98933 15.0773 8.95711 15.0448C8.91853 15.0065 8.87623 14.9716 8.87623 14.9716C8.99393 14.927 9.08334 14.8398 9.13045 14.7472C9.02028 14.7044 8.87877 14.6847 8.75812 14.7006C8.75812 14.7006 8.76214 14.6698 8.75959 14.6197C8.75695 14.5778 8.7544 14.5609 8.7544 14.5609C8.7544 14.5609 8.68664 14.6072 8.62083 14.638C8.55492 14.6691 8.4284 14.7372 8.37885 14.7994C8.3292 14.862 8.29639 14.956 8.29639 14.956C8.29639 14.956 8.3623 14.7372 8.30188 14.5858C8.24136 14.4347 8.10935 14.4085 8.10935 14.4085L8.08741 14.5129C8.05359 14.4706 8.00569 14.4392 7.95098 14.4214L8.22291 13.9324C8.05824 13.7891 7.95307 13.5792 7.95307 13.345C7.95307 13.2301 7.97849 13.1205 8.02386 13.0223C8.19428 12.637 8.78245 12.3518 9.48553 12.3518C9.62058 12.3518 9.75128 12.3622 9.87574 12.3819C9.82049 12.4837 9.7877 12.5928 9.78142 12.7058C9.77841 12.7363 9.77691 12.7672 9.77691 12.798C9.77691 13.0777 9.90282 13.3297 10.1017 13.5048L10.0927 13.5199C10.0908 13.5186 10.089 13.5174 10.0871 13.5162C10.0588 13.5547 10.0351 13.5986 10.0172 13.6455L9.99165 13.688L10.0007 13.6953ZM10.224 13.6441C10.2692 13.7023 10.3042 13.7697 10.3217 13.8411C10.3217 13.8411 10.3344 13.8137 10.3937 13.7775C10.4535 13.7421 10.5042 13.7432 10.5042 13.7432C10.5042 13.7432 10.4871 13.8471 10.4787 13.8844C10.47 13.9209 10.4692 14.0324 10.4464 14.1328C10.4413 14.1552 10.4352 14.1766 10.4289 14.1964C10.4966 14.1589 10.5983 14.1239 10.6315 14.1122C10.6691 14.0986 10.7444 14.0708 10.7444 14.0708C10.7444 14.0708 10.7447 14.0897 10.7376 14.1344C10.729 14.1883 10.717 14.2241 10.717 14.2241C10.8537 14.21 10.9929 14.255 11.0975 14.3266C11.0255 14.4267 10.9107 14.5119 10.7773 14.5423C10.7773 14.5423 10.8014 14.5721 10.8295 14.6197C10.8524 14.6596 10.8592 14.6773 10.8592 14.6773C10.8592 14.6773 10.7784 14.6755 10.738 14.6748C10.6976 14.674 10.5639 14.6736 10.4878 14.6537C10.4357 14.6401 10.3851 14.6211 10.3485 14.6061L10.3509 14.6084C10.3486 14.6262 10.3472 14.6446 10.3472 14.663C10.3472 14.91 10.5654 15.1096 10.8351 15.1096C11.0756 15.1096 11.2884 14.9571 11.3198 14.7315C11.3265 14.7346 11.3247 14.5634 11.3417 14.5617C11.3619 14.5596 11.4018 14.7261 11.4085 14.7214C11.4722 14.9005 11.6564 15.0301 11.8738 15.0301C12.1436 15.0301 12.3621 14.8295 12.3621 14.5829C12.3621 14.5275 12.3587 14.475 12.3386 14.4269L12.3548 14.4241C12.3452 14.3898 12.3358 14.3559 12.3267 14.3242C12.2474 14.3463 12.1645 14.3665 12.181 14.3843C12.181 14.3843 12.0954 14.4437 12.0007 14.4849C11.929 14.5167 11.7958 14.5382 11.7558 14.5459C11.7156 14.5529 11.6357 14.5671 11.6357 14.5671C11.6357 14.5671 11.6389 14.5485 11.6544 14.507C11.6732 14.4557 11.6918 14.4232 11.6918 14.4232C11.553 14.4145 11.4229 14.3499 11.3325 14.2648C11.4229 14.179 11.5534 14.1129 11.6918 14.1049C11.6918 14.1049 11.6732 14.0721 11.6544 14.021C11.6389 13.9789 11.6357 13.9606 11.6357 13.9606C11.6357 13.9606 11.7156 13.9751 11.7558 13.9825C11.7958 13.9896 11.929 14.0113 12.0007 14.0428C12.0954 14.0839 12.1795 14.1443 12.1795 14.1443C12.1658 14.1587 12.2212 14.1755 12.286 14.1937C12.2718 14.1548 12.2598 14.1339 12.2513 14.143C12.2513 14.143 12.1883 14.0703 12.1427 13.9737C12.0965 13.8778 12.0738 13.7665 12.0568 13.731C12.0394 13.6956 11.9991 13.5942 11.9991 13.5942C11.9991 13.5942 12.0568 13.5843 12.131 13.6096C12.2056 13.6348 12.2254 13.6601 12.2254 13.6601C12.2266 13.6443 12.2287 13.6285 12.2315 13.6128L11.7769 13.193C11.8497 13.0057 11.9 12.6997 11.9069 12.3531C11.9073 12.3331 11.9111 12.312 11.9111 12.2925C11.9111 12.2756 11.9099 12.2588 11.9103 12.2417C11.9112 12.1836 11.9137 12.1269 11.9176 12.0717C11.7133 11.9675 11.457 11.9056 11.1791 11.9056C10.5112 11.9056 9.98533 12.2678 9.96368 12.7061C9.95987 12.7363 9.95806 12.7668 9.95806 12.798C9.95806 13.0745 10.1121 13.3171 10.3369 13.4568L10.224 13.6441ZM11.9354 11.8935C11.9403 11.8562 11.9459 11.8201 11.952 11.7851C11.988 11.631 12.1475 11.5161 12.3253 11.5161C12.5036 11.5161 12.6568 11.631 12.6932 11.7851C12.7018 11.8345 12.7093 11.8864 12.7155 11.9404C12.9507 11.8136 13.2461 11.7384 13.5672 11.7384C14.0831 11.7384 14.5235 11.9385 14.7658 12.2289C14.9222 12.1988 15.0881 12.1828 15.2601 12.1828C16.0283 12.1828 16.6745 12.5044 16.8809 12.9464C16.9374 13.0675 16.9688 13.2032 16.9688 13.345C16.9688 13.5803 16.8816 13.7955 16.7391 13.9625L16.9977 14.4576C17.0034 14.4574 17.0091 14.4572 17.0149 14.4572C17.179 14.4572 17.3063 14.583 17.3063 14.7385C17.3063 14.7385 17.0922 14.7213 16.9656 14.7894C16.8391 14.8567 16.7323 15.0596 16.7323 15.0596C16.7305 15.0561 16.7173 15.0638 16.7024 15.0732L16.7062 15.1072C16.7062 15.1072 16.5169 15.3901 16.3108 15.5054C16.1981 15.5689 16.0271 15.6353 15.891 15.6138C15.747 15.5913 15.6445 15.4798 15.5917 15.3512C15.4891 15.4095 15.3679 15.4436 15.2382 15.4436C14.9594 15.4436 14.7088 15.2959 14.6097 15.0734C14.4815 15.2071 14.3029 15.2894 14.0934 15.2894C13.8708 15.2894 13.6669 15.1925 13.539 15.0437C13.4134 15.1543 13.2426 15.2225 13.0544 15.2225C12.8079 15.2225 12.5881 15.1058 12.4634 14.9298C12.339 15.1058 12.1194 15.2225 11.8733 15.2225C11.6852 15.2225 11.514 15.1543 11.3882 15.0437C11.2609 15.1925 11.0566 15.2894 10.834 15.2894C10.6245 15.2894 10.4459 15.2071 10.3176 15.0734C10.2186 15.2959 9.96808 15.4436 9.68917 15.4436C9.55933 15.4436 9.4387 15.4095 9.33618 15.3512C9.28282 15.4798 9.18031 15.5913 9.03675 15.6138C8.9007 15.6353 8.72961 15.5689 8.61669 15.5054C8.41046 15.3901 8.22135 15.1072 8.22135 15.1072L8.22279 15.0947C8.17871 15.0511 8.13084 15.0029 8.12864 15.0074C8.12864 15.0074 8.02141 14.8045 7.89489 14.7372C7.76876 14.6691 7.55469 14.6863 7.55469 14.6863C7.55469 14.5618 7.63624 14.4564 7.7529 14.4193L8.00682 13.9625C7.86426 13.7955 7.77691 13.5803 7.77691 13.345C7.77691 13.2032 7.80836 13.0675 7.86533 12.9464C8.07129 12.5044 8.7175 12.1828 9.48553 12.1828C9.65768 12.1828 9.8237 12.1988 9.98012 12.229C10.2224 11.9385 10.663 11.7384 11.1791 11.7384C11.4578 11.7384 11.7177 11.7953 11.9354 11.8935ZM12.5664 13.4744C12.597 13.5328 12.617 13.5961 12.6218 13.6601C12.6218 13.6601 12.6412 13.6348 12.7158 13.6096C12.7904 13.5843 12.8476 13.5942 12.8476 13.5942C12.8476 13.5942 12.8078 13.6956 12.7904 13.731C12.7731 13.7665 12.7506 13.8778 12.7041 13.9737C12.6589 14.0703 12.5959 14.143 12.5959 14.143C12.5882 14.1348 12.5819 14.1513 12.5763 14.1834C12.6353 14.1692 12.6783 14.156 12.6671 14.1443C12.6671 14.1443 12.7514 14.0839 12.8461 14.0428C12.9182 14.0113 13.0515 13.9896 13.0915 13.9825C13.1311 13.9751 13.2109 13.9606 13.2109 13.9606C13.2109 13.9606 13.2082 13.9789 13.1922 14.021C13.1734 14.0721 13.1551 14.1049 13.1551 14.1049C13.2937 14.1129 13.4241 14.179 13.5143 14.2648C13.4241 14.3499 13.294 14.4145 13.1551 14.4232C13.1551 14.4232 13.1734 14.4557 13.1922 14.507C13.2078 14.5485 13.2109 14.5671 13.2109 14.5671C13.2109 14.5671 13.1314 14.5529 13.0915 14.5459C13.0515 14.5382 12.9182 14.5167 12.8461 14.4849C12.7514 14.4437 12.6658 14.3843 12.6658 14.3843C12.6779 14.3712 12.6258 14.3568 12.5588 14.3413C12.5566 14.3668 12.5543 14.3934 12.552 14.4203L12.5892 14.4269C12.5694 14.475 12.5653 14.5275 12.5653 14.5829C12.5653 14.8295 12.7845 15.0301 13.0544 15.0301C13.271 15.0301 13.4555 14.9005 13.5189 14.7214C13.526 14.7261 13.5656 14.5596 13.586 14.5617C13.6031 14.5634 13.6013 14.7346 13.6076 14.7315C13.639 14.9571 13.8522 15.1096 14.0923 15.1096C14.3617 15.1096 14.5803 14.91 14.5803 14.663C14.5803 14.6446 14.5792 14.6262 14.5766 14.6084L14.6505 14.5377C14.6499 14.5175 14.6495 14.4971 14.6492 14.4768C14.602 14.4677 14.5704 14.4547 14.5807 14.4715C14.5807 14.4715 14.4861 14.5172 14.3863 14.5435C14.3108 14.5634 14.1761 14.5638 14.1361 14.5645C14.0957 14.5653 14.0154 14.5671 14.0154 14.5671C14.0154 14.5671 14.0217 14.5494 14.045 14.5095C14.0728 14.4619 14.097 14.432 14.097 14.432C13.9635 14.4017 13.8491 14.3165 13.7769 14.2164C13.8811 14.1448 14.0205 14.0998 14.1571 14.1138C14.1571 14.1138 14.1452 14.078 14.1368 14.0241C14.1298 13.9794 14.1301 13.9606 14.1301 13.9606C14.1301 13.9606 14.205 13.9883 14.2426 14.0019C14.2802 14.0152 14.4062 14.0585 14.4703 14.1013C14.5411 14.1487 14.6024 14.2081 14.6202 14.2259C14.6085 14.2013 14.5789 14.1346 14.5609 14.0554C14.538 13.955 14.5377 13.8435 14.5289 13.807C14.5201 13.7697 14.503 13.6658 14.503 13.6658C14.503 13.6658 14.5164 13.6655 14.5375 13.67L14.409 13.4568C14.6336 13.3171 14.7878 13.0745 14.7878 12.798C14.7878 12.7668 14.786 12.7363 14.7823 12.7061C14.7609 12.2678 14.2343 11.9056 13.5672 11.9056C13.2425 11.9056 12.9481 11.9898 12.731 12.127C12.733 12.1646 12.7344 12.2029 12.7352 12.2417C12.7356 12.2588 12.734 12.2756 12.734 12.2925C12.7345 12.312 12.7383 12.3331 12.7386 12.3531C12.7447 12.6997 12.7955 13.0057 12.8678 13.193L12.5664 13.4744ZM14.7305 13.6484C14.7761 13.5628 14.8448 13.4891 14.9201 13.4387C14.9966 13.5429 15.0401 13.6864 15.0248 13.8237C15.0248 13.8237 15.0462 13.802 15.1144 13.7887C15.1826 13.7754 15.2302 13.794 15.2302 13.794C15.2302 13.794 15.1784 13.8861 15.1574 13.918C15.1368 13.9496 15.0984 14.0538 15.0428 14.1402C14.9868 14.2266 14.9205 14.2878 14.9205 14.2878C14.9171 14.2818 14.9119 14.2845 14.9054 14.2939C14.9277 14.2918 14.9401 14.2876 14.9348 14.2791C14.9348 14.2791 15.0277 14.2326 15.1277 14.2068C15.2037 14.1872 15.3378 14.1865 15.3776 14.1857C15.4181 14.1846 15.4987 14.1828 15.4987 14.1828C15.4987 14.1828 15.4923 14.2009 15.4692 14.2404C15.4413 14.288 15.4169 14.3178 15.4169 14.3178C15.5505 14.3482 15.6644 14.4349 15.7365 14.5353C15.6324 14.6065 15.4936 14.6498 15.3568 14.636C15.3568 14.636 15.369 14.6719 15.3774 14.7262C15.384 14.7709 15.3836 14.7893 15.3836 14.7893C15.3836 14.7893 15.3084 14.762 15.2714 14.7484C15.2338 14.7346 15.1083 14.6918 15.0438 14.649C14.96 14.5922 14.888 14.519 14.888 14.519C14.902 14.5079 14.8604 14.5261 14.807 14.5313C14.7997 14.5503 14.7924 14.5692 14.7851 14.5875L14.812 14.6486C14.7793 14.7074 14.7663 14.7732 14.7663 14.8439C14.7663 15.0796 14.975 15.2703 15.2327 15.2703C15.3948 15.2703 15.5371 15.1949 15.6207 15.0806L15.7187 14.9602L15.718 15.1079C15.718 15.2563 15.7829 15.3894 15.9328 15.4129C15.9328 15.4129 16.1048 15.4232 16.3328 15.2502C16.377 15.2167 16.4173 15.1843 16.4536 15.1539C16.4344 15.1497 16.4195 15.1495 16.4158 15.1623C16.3749 15.1703 16.3071 15.1803 16.2465 15.1841C16.1645 15.1896 16.027 15.1678 15.9859 15.1623C15.9442 15.1564 15.8615 15.1447 15.8615 15.1447C15.8615 15.1447 15.8717 15.1295 15.9037 15.097C15.9424 15.0586 15.9847 15.0237 15.9847 15.0237C15.8673 14.9791 15.7776 14.892 15.7306 14.7994C15.8406 14.7565 15.9818 14.7368 16.1029 14.7527C16.1029 14.7527 16.0989 14.722 16.1014 14.6719C16.104 14.63 16.1069 14.6131 16.1069 14.6131C16.1069 14.6131 16.1744 14.6594 16.2404 14.6902C16.3064 14.7213 16.4329 14.7894 16.4822 14.8515C16.51 14.8867 16.542 14.9806 16.5647 15.056C16.5665 15.0543 16.5683 15.0527 16.5701 15.051C16.5466 14.9286 16.5199 14.7364 16.559 14.638C16.6196 14.4869 16.7517 14.4606 16.7517 14.4606L16.7738 14.565C16.7895 14.5452 16.8084 14.5278 16.8297 14.513L16.5225 13.9324C16.6872 13.7891 16.7924 13.5792 16.7924 13.345C16.7924 13.2301 16.7672 13.1205 16.7216 13.0223C16.5515 12.637 15.9631 12.3518 15.2597 12.3518C15.1255 12.3518 14.9945 12.3622 14.8703 12.3819C14.9255 12.4836 14.9584 12.5928 14.9647 12.7058C14.9673 12.7363 14.9688 12.7672 14.9688 12.798C14.9688 13.0777 14.8431 13.3297 14.6442 13.5048L14.7305 13.6484ZM14.693 13.7378C14.6904 13.7463 14.688 13.7549 14.6858 13.7636C14.6858 13.7636 14.6836 13.759 14.6768 13.7509L14.693 13.7378ZM14.6379 14.2487C14.6348 14.2364 14.6307 14.2314 14.6252 14.2361C14.6252 14.2361 14.6246 14.235 14.6236 14.233C14.6208 14.2374 14.6265 14.2427 14.6379 14.2487ZM9.3802 16.2643C9.4104 16.25 9.26463 16.1507 9.19537 16.0243C9.1164 15.8803 9.11024 15.7081 9.11024 15.7081C9.97006 15.4544 11.167 15.2956 12.4991 15.2939C13.8317 15.2956 15.0382 15.4544 15.8981 15.7081C15.8981 15.7081 15.8589 15.8728 15.7776 16.0243C15.7151 16.1408 15.5999 16.251 15.6281 16.2643C14.8504 16.025 13.7249 15.8709 12.4939 15.8685C11.2628 15.8709 10.1579 16.025 9.3802 16.2643ZM12.2009 10.4034H11.9693V10.5867H12.2009V10.8378V11.114H11.9091C11.9056 11.1312 11.888 11.1438 11.888 11.1617C11.888 11.2079 11.8997 11.2523 11.9211 11.2923C11.9217 11.2934 11.9235 11.2937 11.9241 11.2948H12.7004C12.701 11.2937 12.7028 11.2934 12.7034 11.2923C12.7248 11.2523 12.7365 11.2079 12.7365 11.1617C12.7365 11.1438 12.7188 11.1312 12.7154 11.114H12.4326V10.8403V10.5867H12.6643V10.4034H12.4326V10.2227H12.2009L12.2009 10.4034Z"
    fill="#C8A200" />
</svg>