<svg width="40" height="40" viewBox="0 0 40 40" fill="none" xmlns="http://www.w3.org/2000/svg">
  <path
    d="M20 40C31.0457 40 40 31.0457 40 20C40 8.9543 31.0457 0 20 0C8.9543 0 0 8.9543 0 20C0 31.0457 8.9543 40 20 40Z"
    fill="#E94B35" />
  <path fill-rule="evenodd" clip-rule="evenodd"
    d="M29.9485 21.8878L28.4034 23.4729L28.0851 21.2824L26.1001 20.3027L28.0851 19.3231L28.4034 17.1325L29.9485 18.7176L32.1302 18.3434L31.1001 20.3027L32.1302 22.262L29.9485 21.8878ZM25.6374 24.8509C23.9305 27.9219 20.6533 30 16.8906 30C11.3678 30 6.89062 25.5228 6.89062 20C6.89062 14.4772 11.3678 10 16.8906 10C20.6533 10 23.9305 12.0781 25.6374 15.1491C24.2122 13.3651 22.0182 12.2222 19.5573 12.2222C15.2617 12.2222 11.7795 15.7045 11.7795 20C11.7795 24.2955 15.2617 27.7778 19.5573 27.7778C22.0182 27.7778 24.2122 26.6349 25.6374 24.8509C24.2122 26.6349 25.6374 24.8509 25.6374 24.8509Z"
    fill="white" />
</svg>