<svg width="234" height="50" viewBox="0 0 234 50" fill="none" xmlns="http://www.w3.org/2000/svg">
<path d="M21.277 29.4894C23.5856 29.4894 25.4571 27.6179 25.4571 25.3093C25.4571 23.0007 23.5856 21.1292 21.277 21.1292C18.9684 21.1292 17.0969 23.0007 17.0969 25.3093C17.0969 27.6179 18.9684 29.4894 21.277 29.4894Z" fill="white"/>
<path d="M35.535 19.8904C37.8436 19.8904 39.7151 18.0189 39.7151 15.7103C39.7151 13.4017 37.8436 11.5302 35.535 11.5302C33.2264 11.5302 31.3549 13.4017 31.3549 15.7103C31.3549 18.0189 33.2264 19.8904 35.535 19.8904Z" fill="white"/>
<path d="M21.277 12.4521C23.5856 12.4521 25.4571 10.5806 25.4571 8.272C25.4571 5.9634 23.5856 4.09191 21.277 4.09191C18.9684 4.09191 17.0969 5.9634 17.0969 8.272C17.0969 10.5806 18.9684 12.4521 21.277 12.4521Z" fill="white"/>
<path d="M4.54191 34.7163C6.85051 34.7163 8.72199 32.8448 8.72199 30.5362C8.72199 28.2276 6.85051 26.3561 4.54191 26.3561C2.23331 26.3561 0.361816 28.2276 0.361816 30.5362C0.361816 32.8448 2.23331 34.7163 4.54191 34.7163Z" fill="white"/>
<path d="M14.0521 45.3842C16.3607 45.3842 18.2322 43.5127 18.2322 41.2041C18.2322 38.8955 16.3607 37.024 14.0521 37.024C11.7435 37.024 9.87206 38.8955 9.87206 41.2041C9.87206 43.5127 11.7435 45.3842 14.0521 45.3842Z" fill="white"/>
<path d="M38.0342 34.7163C40.3428 34.7163 42.2143 32.8448 42.2143 30.5362C42.2143 28.2276 40.3428 26.3561 38.0342 26.3561C35.7256 26.3561 33.8541 28.2276 33.8541 30.5362C33.8541 32.8448 35.7256 34.7163 38.0342 34.7163Z" fill="white"/>
<path d="M28.5461 45.3842C30.8547 45.3842 32.7262 43.5127 32.7262 41.2041C32.7262 38.8955 30.8547 37.024 28.5461 37.024C26.2375 37.024 24.366 38.8955 24.366 41.2041C24.366 43.5127 26.2375 45.3842 28.5461 45.3842Z" fill="white"/>
<path d="M7.019 19.8904C9.3276 19.8904 11.1991 18.0189 11.1991 15.7103C11.1991 13.4017 9.3276 11.5302 7.019 11.5302C4.7104 11.5302 2.83891 13.4017 2.83891 15.7103C2.83891 18.0189 4.7104 19.8904 7.019 19.8904Z" fill="white"/>
<path d="M7.17379 15.4818L21.2844 25.3091L6.86416 15.9389L7.17379 15.4818Z" fill="white"/>
<path d="M4.45344 30.2705L21.2844 25.3091L4.623 30.7939L4.45344 30.2705Z" fill="white"/>
<path d="M13.8015 41.093L21.2844 25.3091L14.3102 41.3215L13.8015 41.093Z" fill="white"/>
<path d="M21.5572 8.27166L21.2844 25.3091L21.0042 8.27166H21.5572Z" fill="white"/>
<path d="M35.6898 15.9389L21.2844 25.3091L35.3802 15.4818L35.6898 15.9389Z" fill="white"/>
<path d="M37.9458 30.7939L21.2844 25.3091L38.1153 30.2705L37.9458 30.7939Z" fill="white"/>
<path d="M28.6272 41.3215L21.2844 25.3091L29.1285 41.0856L28.6272 41.3215Z" fill="white"/>
<path d="M61.1537 19.8166C61.3147 19.8012 61.4772 19.818 61.6317 19.8661C61.7861 19.9142 61.9294 19.9926 62.0532 20.0968C62.2502 20.3833 62.3342 20.7325 62.2891 21.0773C62.3243 21.4257 62.2298 21.7748 62.0237 22.0578C61.8993 22.1607 61.7558 22.2377 61.6014 22.2846C61.4469 22.3314 61.2848 22.347 61.1242 22.3306H54.9831C54.8238 22.3465 54.6629 22.3305 54.5097 22.2837C54.3566 22.2369 54.2143 22.1601 54.0911 22.0578C53.885 21.7748 53.7905 21.4257 53.8257 21.0773C53.7891 20.7288 53.8837 20.3792 54.0911 20.0968C54.2137 19.9932 54.3558 19.9151 54.5089 19.867C54.6621 19.8189 54.8233 19.8018 54.9831 19.8166H56.0226L62.1342 2.94884H58.684C58.523 2.96429 58.3605 2.94747 58.2061 2.89937C58.0517 2.85126 57.9084 2.77284 57.7846 2.66869C57.5772 2.38626 57.4826 2.03665 57.5192 1.68818C57.4761 1.33232 57.5711 0.973485 57.7846 0.685545C57.9084 0.581395 58.0517 0.502973 58.2061 0.45487C58.3605 0.406767 58.523 0.389949 58.684 0.405398H65.4592C65.8754 0.387437 66.2886 0.484357 66.6535 0.685545C66.9789 0.903832 67.2166 1.2303 67.3243 1.60708L73.8488 19.8166H74.9694C75.1304 19.8012 75.2929 19.818 75.4473 19.8661C75.6018 19.9142 75.7451 19.9926 75.8688 20.0968C76.0762 20.3792 76.1708 20.7288 76.1342 21.0773C76.1694 21.4257 76.0749 21.7748 75.8688 22.0578C75.7445 22.1607 75.6009 22.2377 75.4465 22.2846C75.2921 22.3314 75.1299 22.347 74.9694 22.3306H68.4302C68.2708 22.3465 68.1099 22.3305 67.9568 22.2837C67.8037 22.2369 67.6614 22.1601 67.5381 22.0578C67.332 21.7748 67.2375 21.4257 67.2727 21.0773C67.2361 20.7288 67.3308 20.3792 67.5381 20.0968C67.6608 19.9932 67.8028 19.9151 67.956 19.867C68.1091 19.8189 68.2703 19.8018 68.4302 19.8166H70.9294L69.4107 15.3933H60.4534L58.9199 19.8166H61.1537ZM61.3233 12.9088H68.5629L65.1274 2.94884H64.7735L61.3233 12.9088Z" fill="white"/>
<path d="M78.7809 2.94917C78.6198 2.96462 78.4574 2.9478 78.3029 2.89969C78.1485 2.85159 78.0052 2.77317 77.8814 2.66902C77.6741 2.38659 77.5794 2.03698 77.616 1.6885C77.5806 1.34242 77.6752 0.99553 77.8814 0.715363C78.0052 0.611212 78.1485 0.532791 78.3029 0.484688C78.4574 0.436585 78.6198 0.419766 78.7809 0.435216H84.7598C84.9208 0.419766 85.0833 0.436585 85.2377 0.484688C85.3922 0.532791 85.5354 0.611212 85.6592 0.715363C85.8654 0.99553 85.9601 1.34242 85.9246 1.6885C85.9612 2.03698 85.8666 2.38659 85.6592 2.66902C85.5354 2.77317 85.3922 2.85159 85.2377 2.89969C85.0833 2.9478 84.9208 2.96462 84.7598 2.94917H82.6955V14.7448C82.6754 15.5711 82.7772 16.3959 82.9978 17.1924C83.1682 17.8066 83.4843 18.3706 83.9193 18.8365C84.3491 19.275 84.885 19.595 85.4749 19.7654C86.9107 20.1388 88.4182 20.1388 89.854 19.7654C90.4411 19.5933 90.9741 19.2734 91.4022 18.8365C91.8399 18.3726 92.1564 17.8079 92.3238 17.1924C92.5471 16.3963 92.6515 15.5715 92.6334 14.7448V2.94917H90.5618C90.4019 2.96487 90.2405 2.94815 90.0872 2.90002C89.9339 2.85188 89.7919 2.77331 89.6697 2.66902C89.4564 2.38927 89.3587 2.03823 89.3969 1.6885C89.3591 1.3411 89.4568 0.992498 89.6697 0.715363C89.7919 0.611069 89.9339 0.532502 90.0872 0.484366C90.2405 0.436229 90.4019 0.419512 90.5618 0.435216H96.5481C96.708 0.419512 96.8694 0.436229 97.0227 0.484366C97.1759 0.532502 97.3179 0.611069 97.4401 0.715363C97.653 0.992498 97.7507 1.3411 97.7129 1.6885C97.7511 2.03823 97.6535 2.38927 97.4401 2.66902C97.3179 2.77331 97.1759 2.85188 97.0227 2.90002C96.8694 2.94815 96.708 2.96487 96.5481 2.94917H95.4054V15.0766C95.4281 16.2372 95.2459 17.3927 94.8672 18.49C94.5454 19.3908 94.0208 20.2055 93.3338 20.8712C92.6361 21.5174 91.8022 21.9987 90.8935 22.2793C88.779 22.8888 86.5352 22.8888 84.4207 22.2793C83.5172 21.9969 82.6884 21.5157 81.9952 20.8712C81.3036 20.2094 80.7781 19.3934 80.4617 18.49C80.0795 17.3935 79.8973 16.2374 79.9236 15.0766V2.94917H78.7809Z" fill="white"/>
<path d="M108.963 2.94884H104.031V8.6255C104.053 8.7982 104.037 8.97371 103.984 9.13941C103.93 9.30511 103.841 9.45691 103.721 9.5839C103.408 9.80301 103.026 9.9024 102.645 9.86405C102.262 9.90094 101.878 9.80175 101.561 9.5839C101.45 9.45973 101.365 9.31365 101.313 9.15498C101.261 8.99631 101.243 8.82854 101.259 8.66236V1.65869C101.224 1.3126 101.318 0.965712 101.524 0.685545C101.648 0.581395 101.791 0.502973 101.946 0.45487C102.1 0.406767 102.263 0.389949 102.424 0.405398H118.267C118.428 0.389949 118.59 0.406767 118.745 0.45487C118.899 0.502973 119.043 0.581395 119.166 0.685545C119.373 0.965712 119.467 1.3126 119.432 1.65869V8.6255C119.454 8.7976 119.438 8.97237 119.386 9.13781C119.333 9.30325 119.246 9.45543 119.129 9.5839C118.812 9.80175 118.429 9.90094 118.046 9.86405C117.665 9.9024 117.283 9.80301 116.969 9.5839C116.855 9.46112 116.769 9.31542 116.715 9.15651C116.662 8.99761 116.643 8.82915 116.66 8.66236V2.94884H111.728V19.8166H116.107C116.267 19.8018 116.428 19.8189 116.581 19.867C116.734 19.9151 116.876 19.9932 116.999 20.0968C117.21 20.3779 117.307 20.7278 117.272 21.0773C117.305 21.4267 117.208 21.7761 116.999 22.0578C116.876 22.1601 116.733 22.2369 116.58 22.2837C116.427 22.3305 116.266 22.3465 116.107 22.3306H104.599C104.439 22.3473 104.278 22.3318 104.125 22.2849C103.972 22.238 103.829 22.1608 103.707 22.0578C103.497 21.7761 103.4 21.4267 103.434 21.0773C103.399 20.7278 103.496 20.3779 103.707 20.0968C103.829 19.9925 103.971 19.9139 104.124 19.8658C104.277 19.8177 104.439 19.8009 104.599 19.8166H108.963V2.94884Z" fill="white"/>
<path d="M123.31 11.3755C123.299 9.79255 123.548 8.21857 124.047 6.71622C124.465 5.39981 125.136 4.17772 126.023 3.11854C126.862 2.13208 127.909 1.34399 129.089 0.811017C130.345 0.275865 131.695 0 133.059 0C134.424 0 135.774 0.275865 137.029 0.811017C138.21 1.34399 139.257 2.13208 140.096 3.11854C140.978 4.18127 141.648 5.4023 142.072 6.71622C142.555 8.2215 142.791 9.79484 142.772 11.3755C142.791 12.9586 142.555 14.5343 142.072 16.0422C141.651 17.353 140.98 18.5698 140.096 19.6251C139.259 20.6116 138.211 21.3976 137.029 21.9253C135.774 22.4604 134.424 22.7363 133.059 22.7363C131.695 22.7363 130.345 22.4604 129.089 21.9253C127.908 21.3976 126.86 20.6116 126.023 19.6251C125.133 18.5735 124.461 17.3556 124.047 16.0422C123.548 14.5373 123.299 12.9609 123.31 11.3755ZM126.258 11.3755C126.241 12.5928 126.408 13.8056 126.752 14.9732C127.026 15.9558 127.481 16.8785 128.094 17.6936C128.666 18.4252 129.401 19.0133 130.24 19.4113C131.117 19.8049 132.068 20.0083 133.03 20.0083C133.992 20.0083 134.943 19.8049 135.82 19.4113C136.656 19.011 137.387 18.4231 137.958 17.6936C138.584 16.8835 139.051 15.9632 139.337 14.9806C139.675 13.8119 139.839 12.5995 139.823 11.3829C139.839 10.1687 139.675 8.95887 139.337 7.79258C139.051 6.80766 138.584 5.88497 137.958 5.0722C137.388 4.33821 136.657 3.7454 135.82 3.33971C134.943 2.94614 133.992 2.74267 133.03 2.74267C132.068 2.74267 131.117 2.94614 130.24 3.33971C129.4 3.74331 128.665 4.33639 128.094 5.0722C127.471 5.88545 127.006 6.80814 126.723 7.79258C126.379 8.95532 126.213 10.1632 126.229 11.3755H126.258Z" fill="white"/>
<path d="M148.25 2.94874H146.827C146.502 2.97828 146.179 2.87752 145.928 2.66859C145.72 2.38616 145.626 2.03655 145.662 1.68808C145.627 1.34199 145.721 0.995101 145.928 0.714934C146.179 0.506009 146.502 0.405242 146.827 0.434787H150.963C151.169 0.414925 151.377 0.452641 151.563 0.543743C151.749 0.634846 151.906 0.775767 152.017 0.950847L160.775 16.5875V2.94874H158.608C158.448 2.9636 158.287 2.94648 158.134 2.89838C157.981 2.85029 157.839 2.77217 157.716 2.66859C157.509 2.38616 157.414 2.03655 157.451 1.68808C157.415 1.34199 157.51 0.995101 157.716 0.714934C157.839 0.611356 157.981 0.533239 158.134 0.48514C158.287 0.437041 158.448 0.419924 158.608 0.434787H164.594C164.755 0.414269 164.917 0.425867 165.073 0.468903C165.229 0.511939 165.374 0.585551 165.501 0.685445C165.707 0.965612 165.802 1.3125 165.767 1.65859C165.803 2.00706 165.709 2.35667 165.501 2.6391C165.377 2.74325 165.234 2.82167 165.08 2.86978C164.925 2.91788 164.763 2.9347 164.602 2.91925H163.547V21.6449C163.552 21.7925 163.525 21.9394 163.468 22.0756C163.411 22.2117 163.325 22.3339 163.216 22.4337C162.913 22.6603 162.538 22.7679 162.161 22.736C161.841 22.7477 161.525 22.6546 161.262 22.4706C160.994 22.2753 160.773 22.0236 160.613 21.7333L151.029 4.61488V19.8165H153.558C153.718 19.8008 153.879 19.8176 154.033 19.8657C154.186 19.9138 154.328 19.9924 154.45 20.0967C154.663 20.3764 154.761 20.7275 154.723 21.0772C154.76 21.4269 154.663 21.7776 154.45 22.0577C154.327 22.1607 154.185 22.2379 154.032 22.2848C153.879 22.3317 153.717 22.3472 153.558 22.3305H147.019C146.695 22.3621 146.371 22.264 146.119 22.0577C145.913 21.7747 145.819 21.4256 145.854 21.0772C145.817 20.7287 145.912 20.3791 146.119 20.0967C146.37 19.8878 146.694 19.787 147.019 19.8165H148.257L148.25 2.94874Z" fill="white"/>
<path d="M168.679 11.3757C168.66 9.79506 168.896 8.22172 169.379 6.71644C169.803 5.40252 170.473 4.18149 171.355 3.11876C172.194 2.1323 173.241 1.3442 174.422 0.811234C175.678 0.276301 177.03 0.000570381 178.395 0.000570381C179.761 0.000570381 181.112 0.276301 182.369 0.811234C183.538 1.34895 184.575 2.13665 185.406 3.11876C186.293 4.17934 186.966 5.40087 187.389 6.71644C187.872 8.22172 188.109 9.79506 188.09 11.3757C188.108 12.9588 187.872 14.5345 187.389 16.0424C186.969 17.3549 186.295 18.5722 185.406 19.6253C184.57 20.61 183.525 21.3958 182.347 21.9255C181.09 22.4604 179.739 22.7361 178.373 22.7361C177.008 22.7361 175.656 22.4604 174.4 21.9255C173.218 21.3979 172.17 20.6118 171.333 19.6253C170.449 18.57 169.778 17.3532 169.357 16.0424C168.882 14.5333 168.653 12.9576 168.679 11.3757ZM171.628 11.3757C171.612 12.5924 171.776 13.8047 172.114 14.9734C172.39 15.9565 172.848 16.8792 173.463 17.6938C174.034 18.4233 174.766 19.0112 175.601 19.4115C176.479 19.8051 177.43 20.0086 178.392 20.0086C179.353 20.0086 180.304 19.8051 181.182 19.4115C182.021 19.0135 182.756 18.4254 183.327 17.6938C183.95 16.8819 184.417 15.9622 184.706 14.9808C185.045 13.8121 185.208 12.5997 185.193 11.3831C185.208 10.1689 185.044 8.95908 184.706 7.79279C184.417 6.80914 183.95 5.88701 183.327 5.07242C182.756 4.3366 182.022 3.74353 181.182 3.33993C180.304 2.94636 179.353 2.74289 178.392 2.74289C177.43 2.74289 176.479 2.94636 175.601 3.33993C174.765 3.74562 174.033 4.33843 173.463 5.07242C172.838 5.88518 172.37 6.80788 172.085 7.79279C171.747 8.95672 171.583 10.164 171.598 11.3757H171.628Z" fill="white"/>
<path d="M192.911 2.949H192.041C191.882 2.96386 191.72 2.94674 191.567 2.89864C191.414 2.85054 191.272 2.77243 191.149 2.66885C190.942 2.38642 190.847 2.03681 190.884 1.68833C190.849 1.34225 190.943 0.995359 191.149 0.715192C191.27 0.606376 191.411 0.522884 191.564 0.469689C191.717 0.416494 191.88 0.394683 192.041 0.405556H195.941C196.524 0.405556 196.878 0.61198 197.01 1.01746L201.117 12.2676L205.194 1.01746C205.334 0.61198 205.695 0.405556 206.285 0.405556H210.185C210.345 0.389852 210.506 0.406569 210.659 0.454706C210.812 0.502842 210.954 0.581409 211.077 0.685703C211.29 0.962838 211.387 1.31144 211.349 1.65885C211.388 2.00857 211.29 2.35961 211.077 2.63936C210.954 2.74365 210.812 2.82222 210.659 2.87036C210.506 2.91849 210.345 2.93521 210.185 2.91951H209.263L209.735 19.8168H210.73C211.055 19.7873 211.379 19.888 211.63 20.0969C211.837 20.3794 211.932 20.729 211.895 21.0775C211.93 21.4258 211.836 21.7749 211.63 22.058C211.378 22.2643 211.054 22.3623 210.73 22.3307H204.913C204.753 22.3472 204.591 22.3316 204.436 22.2847C204.282 22.2379 204.138 22.1608 204.014 22.058C203.808 21.7749 203.713 21.4258 203.749 21.0775C203.712 20.729 203.807 20.3794 204.014 20.0969C204.138 19.9928 204.281 19.9144 204.436 19.8663C204.59 19.8182 204.752 19.8013 204.913 19.8168H206.963L206.557 4.68886L202.798 15.2239C202.704 15.5913 202.483 15.9134 202.174 16.1324C201.864 16.3513 201.487 16.4526 201.109 16.4182C200.738 16.436 200.371 16.3409 200.055 16.1454C199.751 15.9117 199.527 15.5898 199.414 15.2239L195.61 4.68886L195.219 19.8168H197.268C197.429 19.8013 197.592 19.8182 197.746 19.8663C197.901 19.9144 198.044 19.9928 198.168 20.0969C198.375 20.3794 198.47 20.729 198.433 21.0775C198.468 21.4258 198.374 21.7749 198.168 22.058C198.043 22.1608 197.9 22.2379 197.745 22.2847C197.591 22.3316 197.429 22.3472 197.268 22.3307H191.452C191.292 22.3475 191.131 22.3319 190.978 22.2851C190.825 22.2382 190.682 22.161 190.56 22.058C190.35 21.7763 190.253 21.4268 190.287 21.0775C190.252 20.728 190.349 20.378 190.56 20.0969C190.682 19.9927 190.824 19.9141 190.977 19.8659C191.13 19.8178 191.292 19.8011 191.452 19.8168H192.454L192.911 2.949Z" fill="white"/>
<path d="M222.371 13.2704L215.987 2.94917H214.689C214.529 2.96487 214.368 2.94815 214.214 2.90002C214.061 2.85188 213.919 2.77331 213.797 2.66902C213.584 2.38927 213.486 2.03823 213.524 1.6885C213.486 1.3411 213.584 0.992498 213.797 0.715363C213.919 0.611069 214.061 0.532502 214.214 0.484366C214.368 0.436229 214.529 0.419512 214.689 0.435216H220.86C221.185 0.40567 221.508 0.506438 221.759 0.715363C221.965 0.99553 222.06 1.34242 222.025 1.6885C222.061 2.03698 221.966 2.38659 221.759 2.66902C221.508 2.87794 221.185 2.97871 220.86 2.94917H219.142L223.742 10.4763L228.416 2.94917H227.215C226.889 2.97871 226.566 2.87794 226.315 2.66902C226.108 2.38659 226.013 2.03698 226.05 1.6885C226.014 1.34242 226.109 0.99553 226.315 0.715363C226.566 0.506438 226.889 0.40567 227.215 0.435216H232.832C232.992 0.420353 233.153 0.43747 233.306 0.485569C233.46 0.533667 233.602 0.611785 233.724 0.715363C233.931 0.99553 234.025 1.34242 233.99 1.6885C234.026 2.03698 233.932 2.38659 233.724 2.66902C233.602 2.7726 233.46 2.85071 233.306 2.89881C233.153 2.94691 232.992 2.96403 232.832 2.94917H231.572L225.143 13.2704V19.8465H229.323C229.483 19.8316 229.644 19.8487 229.797 19.8968C229.95 19.9449 230.092 20.023 230.215 20.1266C230.423 20.409 230.517 20.7586 230.481 21.1071C230.516 21.4555 230.421 21.8046 230.215 22.0876C230.092 22.1899 229.95 22.2667 229.796 22.3135C229.643 22.3603 229.482 22.3763 229.323 22.3604H218.198C218.039 22.3771 217.878 22.3616 217.725 22.3147C217.571 22.2679 217.429 22.1906 217.306 22.0876C217.094 21.8075 216.996 21.4568 217.033 21.1071C216.995 20.7574 217.093 20.4063 217.306 20.1266C217.428 20.0223 217.57 19.9437 217.724 19.8956C217.877 19.8475 218.038 19.8308 218.198 19.8465H222.371V13.2704Z" fill="white"/>
<path d="M71.2611 47.5589C70.1115 48.3681 68.8396 48.9879 67.4939 49.3946C66.1501 49.7988 64.754 50.0025 63.3507 49.9992C61.9927 50.0174 60.647 49.7407 59.4065 49.1882C58.2404 48.6493 57.21 47.8558 56.3912 46.8659C55.5314 45.8048 54.8832 44.5885 54.4818 43.283C54.0171 41.7717 53.7907 40.1973 53.8109 38.6163C53.7899 37.0337 54.0239 35.458 54.5039 33.9497C54.9173 32.638 55.5807 31.4188 56.4576 30.3594C57.2829 29.3771 58.3151 28.5891 59.4802 28.0518C60.6971 27.5102 62.0191 27.2458 63.3507 27.2778C64.4231 27.2533 65.4886 27.4569 66.4765 27.8749C67.33 28.2597 68.0859 28.8317 68.6882 29.5484V28.4352C68.6727 28.2691 68.6915 28.1015 68.7435 27.943C68.7955 27.7845 68.8796 27.6383 68.9905 27.5137C69.3237 27.3349 69.696 27.2414 70.0742 27.2414C70.4524 27.2414 70.8247 27.3349 71.1579 27.5137C71.2688 27.6383 71.3529 27.7845 71.4049 27.943C71.4569 28.1015 71.4757 28.2691 71.4602 28.4352V34.5321C71.4766 34.6983 71.4582 34.866 71.4062 35.0247C71.3541 35.1834 71.2696 35.3294 71.1579 35.4536C70.827 35.6396 70.4538 35.7373 70.0742 35.7373C69.6946 35.7373 69.3214 35.6396 68.9905 35.4536C68.8788 35.3294 68.7943 35.1834 68.7422 35.0247C68.6902 34.866 68.6718 34.6983 68.6882 34.5321C68.6892 33.9414 68.5869 33.3551 68.3859 32.7996C68.1856 32.2437 67.8631 31.7399 67.4423 31.3251C66.9787 30.8836 66.4291 30.5422 65.8278 30.3225C65.0864 30.0641 64.3051 29.9393 63.5202 29.9539C62.5674 29.9459 61.625 30.1525 60.763 30.5584C59.9183 30.9638 59.1789 31.5593 58.6029 32.2983C57.9728 33.113 57.5003 34.038 57.2095 35.026C56.8622 36.1906 56.6932 37.4011 56.7082 38.6163C56.695 39.8294 56.8539 41.0382 57.1801 42.2066C57.4542 43.1876 57.9065 44.1098 58.5144 44.927C59.0676 45.6534 59.7818 46.2414 60.6008 46.6448C61.4498 47.0498 62.3806 47.2541 63.3212 47.2419C64.5084 47.2477 65.6894 47.0712 66.823 46.7185C67.8895 46.3733 68.8875 45.8444 69.7719 45.1556C69.8834 45.0611 70.0124 44.9897 70.1516 44.9454C70.2908 44.9011 70.4374 44.8848 70.5829 44.8975C70.8778 44.8975 71.1653 45.1629 71.4307 45.6348C71.6631 45.9574 71.7752 46.3513 71.7477 46.748C71.6947 47.0704 71.5207 47.3604 71.2611 47.5589Z" fill="white"/>
<path d="M81.8404 47.0577C82.0015 47.0405 82.1644 47.0565 82.3191 47.1047C82.4738 47.1529 82.6169 47.2322 82.7398 47.3378C82.9135 47.634 83.005 47.9712 83.005 48.3146C83.005 48.658 82.9135 48.9952 82.7398 49.2915C82.616 49.3956 82.4727 49.474 82.3183 49.5221C82.1639 49.5702 82.0014 49.5871 81.8404 49.5716H75.6771C75.5161 49.5871 75.3536 49.5702 75.1992 49.5221C75.0448 49.474 74.9015 49.3956 74.7777 49.2915C74.6041 48.9952 74.5125 48.658 74.5125 48.3146C74.5125 47.9712 74.6041 47.634 74.7777 47.3378C74.9006 47.2322 75.0438 47.1529 75.1984 47.1047C75.3531 47.0565 75.516 47.0405 75.6771 47.0577H76.7093L82.8209 30.153H79.3707C79.2101 30.1695 79.048 30.1538 78.8935 30.107C78.7391 30.0602 78.5956 29.9831 78.4712 29.8802C78.2639 29.5978 78.1692 29.2482 78.2058 28.8997C78.1706 28.5513 78.2651 28.2022 78.4712 27.9192C78.5956 27.8163 78.7391 27.7393 78.8935 27.6924C79.048 27.6456 79.2101 27.63 79.3707 27.6464H86.1458C86.5614 27.6262 86.9745 27.7206 87.3401 27.9192C87.6674 28.1388 87.9054 28.4683 88.011 28.8481L94.5355 47.0577H95.6634C95.8234 47.0411 95.985 47.0574 96.1384 47.1056C96.2918 47.1537 96.4337 47.2328 96.5555 47.3378C96.7291 47.634 96.8207 47.9712 96.8207 48.3146C96.8207 48.658 96.7291 48.9952 96.5555 49.2915C96.4328 49.395 96.2908 49.4732 96.1376 49.5213C95.9845 49.5694 95.8233 49.5865 95.6634 49.5716H89.1242C88.9632 49.5871 88.8007 49.5702 88.6463 49.5221C88.4918 49.474 88.3485 49.3956 88.2248 49.2915C88.0511 48.9952 87.9596 48.658 87.9596 48.3146C87.9596 47.9712 88.0511 47.634 88.2248 47.3378C88.3476 47.2322 88.4908 47.1529 88.6455 47.1047C88.8002 47.0565 88.9631 47.0405 89.1242 47.0577H91.616L90.0973 42.6343H81.14L79.6066 47.0577H81.8404ZM82.0099 40.1498H89.2495L85.814 30.153H85.4675L82.0099 40.1498Z" fill="white"/>
<path d="M102.645 30.153H99.6518C99.4913 30.1695 99.3291 30.1538 99.1747 30.107C99.0203 30.0602 98.8767 29.9831 98.7524 29.8802C98.545 29.5978 98.4504 29.2482 98.487 28.8997C98.4518 28.5513 98.5463 28.2022 98.7524 27.9192C98.8767 27.8163 99.0203 27.7393 99.1747 27.6924C99.3291 27.6456 99.4913 27.63 99.6518 27.6464H109.752C110.878 27.6277 112 27.7997 113.069 28.1551C113.976 28.4561 114.81 28.9433 115.517 29.5853C116.182 30.1983 116.699 30.9546 117.028 31.797C117.726 33.63 117.726 35.6554 117.028 37.4884C116.703 38.3328 116.185 39.09 115.517 39.7001C114.806 40.3302 113.973 40.807 113.069 41.1008C111.999 41.4501 110.878 41.6195 109.752 41.6022H105.417V47.0871H109.84C110 47.0697 110.162 47.0856 110.316 47.1338C110.469 47.182 110.611 47.2615 110.732 47.3673C110.911 47.6619 111.005 47.9998 111.005 48.3441C111.005 48.6885 110.911 49.0263 110.732 49.321C110.61 49.4252 110.468 49.5038 110.315 49.5519C110.162 49.6001 110 49.6168 109.84 49.6011H99.6518C99.4908 49.6165 99.3283 49.5997 99.1739 49.5516C99.0194 49.5035 98.8761 49.4251 98.7524 49.321C98.5787 49.0247 98.4872 48.6875 98.4872 48.3441C98.4872 48.0007 98.5787 47.6635 98.7524 47.3673C98.8752 47.2617 99.0184 47.1824 99.1731 47.1342C99.3278 47.086 99.4907 47.07 99.6518 47.0871H102.645V30.153ZM109.368 39.0735C110.778 39.1761 112.175 38.7591 113.298 37.9013C113.748 37.4928 114.102 36.989 114.333 36.4265C114.564 35.8641 114.666 35.2572 114.632 34.6501C114.665 34.0365 114.563 33.4233 114.332 32.8537C114.102 32.2842 113.748 31.7724 113.298 31.3547C112.182 30.4827 110.781 30.057 109.368 30.1604H105.417V39.0735H109.368Z" fill="white"/>
<path d="M129.65 30.1526H124.953C124.794 30.1685 124.633 30.1525 124.48 30.1057C124.327 30.0589 124.185 29.9821 124.061 29.8798C123.854 29.5974 123.759 29.2478 123.796 28.8993C123.761 28.551 123.855 28.2019 124.061 27.9188C124.185 27.8165 124.327 27.7397 124.48 27.6929C124.633 27.6461 124.794 27.6302 124.953 27.646H137.184C137.508 27.6144 137.832 27.7125 138.084 27.9188C138.29 28.2019 138.384 28.551 138.349 28.8993C138.386 29.2478 138.291 29.5974 138.084 29.8798C137.832 30.0861 137.508 30.1842 137.184 30.1526H132.458V47.0573H137.486C137.647 47.0405 137.81 47.0568 137.965 47.1049C138.12 47.1531 138.263 47.2322 138.386 47.3374C138.559 47.6337 138.651 47.9709 138.651 48.3142C138.651 48.6576 138.559 48.9948 138.386 49.2911C138.135 49.5 137.811 49.6008 137.486 49.5712H124.548C124.388 49.5869 124.227 49.5702 124.073 49.5221C123.92 49.4739 123.778 49.3954 123.656 49.2911C123.478 48.9964 123.384 48.6586 123.384 48.3142C123.384 47.9699 123.478 47.6321 123.656 47.3374C123.777 47.2316 123.919 47.1521 124.073 47.1039C124.226 47.0557 124.388 47.0398 124.548 47.0573H129.65V30.1526Z" fill="white"/>
<path d="M152.334 30.153H147.402V35.8665C147.416 36.0349 147.393 36.2042 147.336 36.3631C147.279 36.522 147.188 36.6669 147.07 36.7881C146.756 37.0046 146.374 37.1013 145.994 37.0608C145.612 37.1005 145.228 37.0039 144.91 36.7881C144.799 36.6634 144.715 36.5173 144.663 36.3587C144.611 36.2002 144.593 36.0326 144.608 35.8665V28.8997C144.573 28.5513 144.667 28.2022 144.873 27.9192C144.998 27.8163 145.141 27.7393 145.296 27.6924C145.45 27.6456 145.612 27.63 145.773 27.6464H161.616C161.776 27.63 161.939 27.6456 162.093 27.6924C162.247 27.7393 162.391 27.8163 162.515 27.9192C162.721 28.2022 162.816 28.5513 162.781 28.8997V35.8665C162.796 36.0326 162.777 36.2002 162.725 36.3587C162.673 36.5173 162.589 36.6634 162.478 36.7881C162.16 37.0033 161.777 37.0999 161.395 37.0608C161.022 37.096 160.649 36.9995 160.34 36.7881C160.227 36.665 160.14 36.5193 160.087 36.3604C160.034 36.2016 160.014 36.0333 160.031 35.8665V30.153H155.099V47.0577H159.463C159.623 47.0411 159.785 47.0574 159.938 47.1056C160.092 47.1537 160.233 47.2328 160.355 47.3378C160.533 47.6325 160.628 47.9703 160.628 48.3146C160.628 48.659 160.533 48.9968 160.355 49.2915C160.233 49.395 160.091 49.4732 159.937 49.5213C159.784 49.5694 159.623 49.5865 159.463 49.5716H147.97C147.81 49.5873 147.648 49.5706 147.495 49.5225C147.342 49.4743 147.2 49.3958 147.078 49.2915C146.899 48.9968 146.805 48.659 146.805 48.3146C146.805 47.9703 146.899 47.6325 147.078 47.3378C147.199 47.232 147.341 47.1525 147.494 47.1043C147.648 47.0561 147.81 47.0402 147.97 47.0577H152.334V30.153Z" fill="white"/>
<path d="M172.579 47.0571C172.739 47.0406 172.9 47.0569 173.054 47.105C173.207 47.1532 173.349 47.2322 173.471 47.3373C173.644 47.6335 173.736 47.9707 173.736 48.3141C173.736 48.6575 173.644 48.9947 173.471 49.2909C173.348 49.3945 173.206 49.4726 173.053 49.5207C172.9 49.5688 172.738 49.5859 172.579 49.5711H166.408C166.247 49.5865 166.084 49.5697 165.93 49.5216C165.776 49.4735 165.632 49.3951 165.509 49.2909C165.335 48.9947 165.243 48.6575 165.243 48.3141C165.243 47.9707 165.335 47.6335 165.509 47.3373C165.631 47.2317 165.775 47.1523 165.929 47.1041C166.084 47.056 166.247 47.04 166.408 47.0571H167.44L173.552 30.1525H170.101C169.777 30.1841 169.454 30.086 169.202 29.8797C168.995 29.5973 168.9 29.2477 168.937 28.8992C168.901 28.5508 168.996 28.2017 169.202 27.9187C169.454 27.7124 169.777 27.6143 170.101 27.6459H176.877C177.292 27.6257 177.705 27.72 178.071 27.9187C178.398 28.1383 178.636 28.4678 178.742 28.8476L185.266 47.0571H186.394C186.554 47.0406 186.716 47.0569 186.869 47.105C187.023 47.1532 187.165 47.2322 187.286 47.3373C187.465 47.6319 187.559 47.9697 187.559 48.3141C187.559 48.6585 187.465 48.9963 187.286 49.2909C187.164 49.3945 187.022 49.4726 186.868 49.5207C186.715 49.5688 186.554 49.5859 186.394 49.5711H179.855C179.694 49.5865 179.532 49.5697 179.377 49.5216C179.223 49.4735 179.079 49.3951 178.956 49.2909C178.782 48.9947 178.69 48.6575 178.69 48.3141C178.69 47.9707 178.782 47.6335 178.956 47.3373C179.078 47.2317 179.222 47.1523 179.376 47.1041C179.531 47.056 179.694 47.04 179.855 47.0571H182.347L180.872 42.6338H171.871L170.337 47.0571H172.579ZM172.741 40.1493H179.98L176.56 30.1525H176.213L172.741 40.1493Z" fill="white"/>
<path d="M193.376 30.1525H190.383C190.059 30.1841 189.735 30.086 189.483 29.8797C189.276 29.5973 189.181 29.2477 189.218 28.8992C189.183 28.5508 189.277 28.2017 189.483 27.9187C189.735 27.7124 190.059 27.6143 190.383 27.6459H200.615C200.939 27.6143 201.263 27.7124 201.515 27.9187C201.721 28.2017 201.815 28.5508 201.78 28.8992C201.817 29.2477 201.722 29.5973 201.515 29.8797C201.263 30.086 200.939 30.1841 200.615 30.1525H196.148V47.0571H205.311V40.9824C205.295 40.8151 205.314 40.6463 205.366 40.4864C205.418 40.3266 205.502 40.1792 205.614 40.0535C205.932 39.8382 206.315 39.7416 206.697 39.7807C207.077 39.7402 207.459 39.8369 207.774 40.0535C207.888 40.1776 207.975 40.3246 208.028 40.4847C208.082 40.6448 208.1 40.8144 208.083 40.9824V48.3104C208.122 48.6601 208.024 49.0112 207.811 49.2909C207.689 49.3952 207.546 49.4738 207.393 49.5219C207.24 49.5701 207.079 49.5868 206.919 49.5711H190.405C190.08 49.6006 189.756 49.4999 189.505 49.2909C189.332 48.9947 189.24 48.6575 189.24 48.3141C189.24 47.9707 189.332 47.6335 189.505 47.3373C189.628 47.232 189.772 47.1529 189.926 47.1048C190.081 47.0566 190.244 47.0404 190.405 47.0571H193.398L193.376 30.1525Z" fill="white"/>
</svg>
