<svg width="210" height="80" viewBox="0 0 210 80" fill="none" xmlns="http://www.w3.org/2000/svg">
<path d="M16.4635 10.1154C20.3507 10.1154 23.6317 11.4996 26.3064 14.1971C28.9811 16.93 30.3362 20.4083 30.3362 24.5964C30.3362 28.7846 28.9811 32.2628 26.3064 34.9958C23.6317 37.7287 20.3507 39.0774 16.4635 39.0774C12.9329 39.0774 10.1156 37.7997 7.94019 35.2442V38.2611H0.665039V0H7.94019V13.9486C10.0799 11.3931 12.9329 10.1154 16.4635 10.1154ZM9.93729 30.3107C11.5064 31.695 13.3252 32.4048 15.4293 32.4048C17.5334 32.4048 19.3165 31.7304 20.8143 30.3462C22.3122 28.962 23.0611 27.0809 23.0611 24.5964C23.0611 22.1474 22.3122 20.2308 20.7787 18.8466C19.2809 17.4624 17.4621 16.788 15.358 16.788C13.2539 16.788 11.4351 17.4624 9.90162 18.8466C8.36814 20.1953 7.61923 22.1119 7.61923 24.5254C7.58356 27.0099 8.36814 28.9265 9.93729 30.3107Z" fill="white"/>
<path d="M43.3887 10.9315H36.0422V38.2608H43.3887V10.9315Z" fill="white"/>
<path d="M68.2454 30.3463L72.7746 35.1378C70.2425 37.7642 67.3182 39.1129 63.9303 39.1129C60.2214 39.1129 57.3327 38.0837 55.2643 36.0251C53.1959 33.9665 52.1617 31.1981 52.1617 27.6843V18.2787L54.0518 14.2326L52.1617 10.9672V3.62027H59.5081V27.6843C59.5081 30.7012 61.0773 32.1919 64.1799 32.1919C65.6777 32.1919 67.0329 31.5885 68.2454 30.3463Z" fill="white"/>
<path d="M86.7187 39.1482C81.9755 39.1482 78.124 37.4091 75.271 33.9663L80.1568 30.1331C82.6888 32.2271 85.0425 33.2919 87.2893 33.2919C88.6088 33.2919 89.643 33.0435 90.3562 32.5111C91.0695 31.9787 91.4261 31.3398 91.4261 30.559C91.4261 29.9556 91.1408 29.4587 90.5702 29.0328C89.9996 28.6069 89.429 28.2875 88.8584 28.1455C88.2878 27.968 87.3606 27.6841 86.1124 27.3291C84.7216 26.9032 83.5804 26.5838 82.7601 26.3354C81.9042 26.0869 80.9413 25.661 79.8358 25.0221C78.7303 24.4188 77.91 23.6024 77.4107 22.6086C76.8758 21.6148 76.6262 20.3726 76.6262 18.9174C76.6262 16.1845 77.5891 14.0194 79.5505 12.4222C81.5119 10.8251 83.937 10.0442 86.9326 10.0442C91.5687 10.0442 95.135 11.7124 97.7027 15.0842L92.8883 18.9884C91.2121 17.0008 89.2507 15.9715 87.0396 15.9715C85.8984 15.9715 85.0069 16.2199 84.3649 16.7523C83.723 17.2847 83.402 17.9236 83.402 18.6334C83.402 19.2368 83.6873 19.7337 84.2223 20.1951C84.7572 20.621 85.3278 20.9405 85.8984 21.0824C86.469 21.2244 87.3962 21.4729 88.6444 21.8278C89.75 22.1472 90.6059 22.3602 91.2121 22.5376C91.8184 22.7151 92.603 22.999 93.6372 23.425C94.6357 23.8509 95.4203 24.3478 95.9196 24.8447C96.4189 25.3771 96.8825 26.0514 97.3104 26.9387C97.7384 27.826 97.9167 28.8198 97.9167 29.9556C97.9167 32.6885 96.9181 34.9246 94.8854 36.6282C92.8169 38.2964 90.1066 39.1482 86.7187 39.1482Z" fill="white"/>
<path d="M123.843 19.9472C121.846 17.8886 119.528 16.8593 116.996 16.8593C114.892 16.8593 113.109 17.5692 111.647 19.0244C110.185 20.4441 109.436 22.3962 109.436 24.8097C109.436 27.0457 110.185 28.8558 111.718 30.2046C113.216 31.5888 115.07 32.2631 117.21 32.2631C119.849 32.2631 122.203 31.2693 124.2 29.3173L128.8 33.6119C125.626 37.2676 121.704 39.0777 116.996 39.0777C112.681 39.0777 109.15 37.729 106.369 34.9961C103.587 32.2986 102.196 28.8204 102.196 24.6322C102.196 20.4441 103.587 16.9658 106.404 14.1974C109.222 11.4289 112.788 10.0802 117.067 10.0802C121.704 10.0802 125.519 11.8549 128.515 15.4041L123.843 19.9472Z" fill="white"/>
<path d="M153.443 10.9319H160.718V38.2612H153.443V35.2444C151.303 37.7998 148.45 39.0776 144.92 39.0776C141.033 39.0776 137.752 37.7288 135.077 34.9959C132.402 32.263 131.047 28.8202 131.047 24.5966C131.047 20.4084 132.402 16.9301 135.077 14.1972C137.752 11.4643 141.033 10.1156 144.92 10.1156C148.45 10.1156 151.268 11.3933 153.443 13.9488V10.9319ZM140.569 30.3464C142.067 31.7306 143.85 32.4049 145.954 32.4049C148.058 32.4049 149.877 31.6951 151.446 30.3109C153.015 28.9267 153.764 27.0101 153.764 24.5966C153.764 22.1476 152.98 20.231 151.482 18.8467C149.948 17.498 148.129 16.7882 146.025 16.7882C143.921 16.7882 142.102 17.4625 140.605 18.8467C139.107 20.231 138.322 22.1121 138.322 24.5966C138.322 27.081 139.071 28.9622 140.569 30.3464Z" fill="white"/>
<path d="M175.661 0H168.314V38.2611H175.661V0Z" fill="white"/>
<path d="M209.362 23.5674C209.362 24.7387 209.255 25.8745 209.077 26.9747L188.535 27.0457C189.034 28.9268 189.997 30.4175 191.388 31.5888C192.779 32.76 194.526 33.3279 196.63 33.3279C199.055 33.3279 201.623 32.3341 204.334 30.382L208.256 34.6057C205.189 37.5516 201.231 39.0422 196.381 39.0422C191.923 39.0422 188.321 37.6935 185.539 34.9606C182.758 32.2276 181.367 28.7139 181.367 24.4548C181.367 20.2311 182.722 16.7528 185.468 14.0909C188.178 11.4289 191.673 10.0802 195.953 10.0802C200.018 10.0802 203.299 11.287 205.724 13.736C208.114 16.2205 209.362 19.4858 209.362 23.5674ZM195.917 15.8655C194.17 15.8655 192.636 16.3624 191.317 17.3207C189.997 18.3145 189.106 19.6278 188.642 21.3314H202.586C202.229 19.5923 201.445 18.2435 200.268 17.2852C199.02 16.3269 197.593 15.8655 195.917 15.8655Z" fill="white"/>
<path d="M68.709 10.9314H52.1973V18.2429H68.709V10.9314Z" fill="url(#paint0_linear)"/>
<path d="M102.16 63.9578C102.16 58.9178 105.976 55.2266 110.862 55.2266C114.678 55.2266 117.887 57.5336 118.957 61.1538H117.245C116.354 58.5274 113.893 56.7527 110.897 56.7527C106.903 56.7527 103.836 59.8051 103.836 63.9578C103.836 68.1104 106.903 71.1628 110.862 71.1628C113.893 71.1628 116.354 69.3526 117.245 66.7617H118.957C117.923 70.4174 114.642 72.689 110.862 72.689C105.976 72.689 102.16 68.9977 102.16 63.9578Z" fill="#EDEDED"/>
<path d="M138.786 55.546V72.3695H137.145V68.3588C135.826 70.9498 133.258 72.689 130.084 72.689C125.341 72.689 122.06 68.9977 122.06 63.9578C122.06 58.9178 125.377 55.2266 130.048 55.2266C133.258 55.2266 135.826 56.9657 137.145 59.5922V55.546H138.786ZM137.181 63.9578C137.181 59.8051 134.185 56.7527 130.298 56.7527C126.411 56.7527 123.701 59.7696 123.701 63.9578C123.701 68.1104 126.411 71.1273 130.298 71.1273C134.221 71.1273 137.181 68.1459 137.181 63.9578Z" fill="#EDEDED"/>
<path d="M160.718 63.9573C160.718 68.9972 157.437 72.6885 152.73 72.6885C149.52 72.6885 146.953 70.9493 145.633 68.3229V80H143.993V55.5455H145.633V59.5917C146.953 56.9652 149.52 55.2261 152.73 55.2261C157.402 55.1906 160.718 58.9173 160.718 63.9573ZM159.078 63.9573C159.078 59.8046 156.403 56.7523 152.48 56.7523C148.593 56.7523 145.597 59.7691 145.597 63.9573C145.597 68.1454 148.593 71.1268 152.48 71.1268C156.368 71.1268 159.078 68.1099 159.078 63.9573Z" fill="#EDEDED"/>
<path d="M166.602 55.5459H164.962V72.3694H166.602V55.5459Z" fill="#EDEDED"/>
<path d="M183.578 71.7306C182.722 72.1565 181.01 72.7243 179.263 72.7243C175.518 72.7243 173.343 70.2399 173.343 65.9807V57.0721H169.955V55.5459H173.343V51.3223H174.983V55.5459H183.257V57.0721H174.983V65.9098C174.983 69.2106 176.446 71.1627 179.548 71.1627C180.832 71.1627 182.116 70.8432 183.293 70.3463L183.578 71.7306Z" fill="#EDEDED"/>
<path d="M202.515 55.546V72.3695H200.874V68.3588C199.555 70.9498 196.987 72.689 193.813 72.689C189.07 72.689 185.789 68.9977 185.789 63.9578C185.789 58.9178 189.106 55.2266 193.777 55.2266C196.987 55.2266 199.555 56.9657 200.874 59.5922V55.546H202.515ZM200.946 63.9578C200.946 59.8051 197.95 56.7527 194.063 56.7527C190.176 56.7527 187.465 59.7696 187.465 63.9578C187.465 68.1104 190.176 71.1273 194.063 71.1273C197.95 71.1273 200.946 68.1459 200.946 63.9578Z" fill="#EDEDED"/>
<path d="M209.362 48.802H207.686V72.3336H209.362V48.802Z" fill="#EDEDED"/>
<path d="M68.6736 10.9314H61.3271V18.2429H68.6736V10.9314Z" fill="#EDEDED"/>
<defs>
<linearGradient id="paint0_linear" x1="52.2629" y1="14.6043" x2="66.6965" y2="14.6043" gradientUnits="userSpaceOnUse">
<stop stop-color="#FFFFFE"/>
<stop offset="1" stop-color="#EDEDED"/>
</linearGradient>
</defs>
</svg>
