<svg width="324" height="60" viewBox="0 0 324 60" fill="none" xmlns="http://www.w3.org/2000/svg">
<g clip-path="url(#clip0)">
<path d="M48.6201 7.77943C48.4405 7.1535 47.9915 6.52757 47.3631 6.08047C45.8368 5.00746 43.6821 5.27571 42.5149 6.79583C41.8865 7.69001 41.7069 8.85246 41.9762 9.83607C42.1558 10.5514 42.6046 11.1773 43.2332 11.6244C43.3229 11.7139 43.4128 11.8033 43.5025 11.8033C45.0288 12.9657 47.1835 12.608 48.3506 11.0879C48.7995 9.92549 48.9791 8.76304 48.6201 7.77943ZM33.1776 2.4143C32.7288 1.07303 31.4719 0 29.9456 0H29.8558H29.7661H29.6762C27.7908 0 26.2646 1.52011 26.2646 3.39791C26.2646 3.75559 26.3544 4.11326 26.4442 4.47094C26.8931 5.90164 28.1499 6.88524 29.6762 6.88524C29.7661 6.88524 29.9456 6.88524 30.0354 6.88524C31.9208 6.88524 33.5368 5.45454 33.5368 3.57676C33.3572 3.12966 33.2675 2.77199 33.1776 2.4143ZM17.4661 7.06409C17.3762 6.70641 17.1968 6.43816 17.0172 6.1699C15.9398 4.64977 13.785 4.20269 12.2588 5.27571C12.169 5.27571 12.169 5.36513 12.0792 5.36513C10.8223 6.25931 10.3734 7.77943 10.8223 9.12071C10.9121 9.47839 11.0916 9.74664 11.2712 10.1043C12.3486 11.6244 14.5033 11.9821 16.0295 10.9091C16.1194 10.8197 16.2091 10.7303 16.2989 10.7303C17.3762 10.0149 17.9149 8.49479 17.4661 7.06409ZM7.50038 20.0299C7.23104 19.0461 6.42301 18.152 5.34564 17.7943C3.55003 17.1684 1.57485 18.0626 0.946386 19.851C0.856605 20.0299 0.856605 20.1193 0.766825 20.298C0.497482 21.0134 0.497482 21.7287 0.766825 22.4441C1.03617 23.4277 1.8442 24.3219 2.92157 24.6796C4.71718 25.3056 6.69235 24.3219 7.32083 22.5336C7.32083 22.4441 7.41061 22.3547 7.41061 22.1759C7.67995 21.4606 7.67995 20.7451 7.50038 20.0299ZM6.9617 36.304C6.42301 34.5157 4.53761 33.532 2.742 33.9791C0.946386 34.5157 -0.130984 36.3934 0.407701 38.1819V38.2713C0.407701 38.3607 0.497482 38.4501 0.497482 38.5394C1.03617 40.3279 3.01134 41.4009 4.80696 40.775C6.60258 40.2384 7.67995 38.2713 7.05148 36.4829C7.05148 36.6617 7.05148 36.4829 6.9617 36.304C6.9617 36.3934 6.9617 36.3934 6.9617 36.304ZM16.4785 50.164C16.2989 49.538 15.8501 48.912 15.3114 48.465C15.2215 48.3756 15.1318 48.2861 15.0419 48.2861C13.5157 47.1237 11.361 47.392 10.1938 48.912C9.47557 49.8063 9.296 50.9687 9.65513 52.0417C9.83468 52.6677 10.2836 53.2936 10.8223 53.7407L10.9121 53.8301C11.0018 53.8301 11.0018 53.9196 11.0916 53.9196C12.6179 55.082 14.7726 54.7243 15.9398 53.2936C16.5682 52.31 16.7478 51.1476 16.4785 50.164ZM31.9208 55.529C31.4719 54.1877 30.2149 53.1147 28.6886 53.1147C28.5989 53.1147 28.4193 53.1147 28.3295 53.1147C26.4442 53.0253 24.8281 54.5454 24.7383 56.4233C24.7383 56.7809 24.7383 57.228 24.9179 57.5857C25.3668 58.927 26.5339 59.9106 28.0602 60C28.1499 60 28.3295 60 28.4193 60H28.5091C30.3945 60 32.0105 58.5693 32.0105 56.6916C32.1003 56.2444 32.0105 55.8867 31.9208 55.529ZM47.6323 50.8793C47.5426 50.5216 47.3631 50.2533 47.1835 49.9851C46.1062 48.465 43.9513 48.0179 42.4251 49.0909C42.3353 49.1803 42.2456 49.1803 42.1558 49.2697C40.8091 50.164 40.3602 51.684 40.7193 53.1147C40.8091 53.383 40.9886 53.7407 41.1682 54.009C42.2456 55.6184 44.3105 56.0656 45.9266 54.9926C46.0163 54.9031 46.1959 54.8137 46.2856 54.7243C47.5426 53.9196 48.0813 52.31 47.6323 50.8793Z" fill="white"/>
<path d="M42.0658 16.6315C41.976 16.3633 41.7964 16.1844 41.617 16.0055C40.9884 15.4691 39.9111 15.4691 39.3724 16.1844C38.9235 16.6315 38.8337 17.2575 39.103 17.794C39.1928 18.0623 39.3724 18.2411 39.552 18.42C39.6417 18.42 39.6417 18.5094 39.7315 18.5094C40.36 19.1353 41.4374 19.0458 41.976 18.42C42.1555 17.8834 42.2454 17.1681 42.0658 16.6315ZM35.063 12.876C34.8834 12.4289 34.5242 12.0712 33.9855 11.8924H33.8957C33.8957 11.8924 33.8957 11.8924 33.806 11.8924C32.9081 11.7135 32.1001 12.1606 31.8308 13.0548C31.741 13.4125 31.741 13.6807 31.9205 14.0384C32.1001 14.4855 32.4592 14.8431 32.998 15.022C33.0877 15.022 33.0877 15.022 33.1775 15.1114C34.0752 15.3797 34.8834 14.8431 35.1527 13.949C35.1527 13.5913 35.1527 13.2336 35.063 12.876ZM27.0724 12.6971C26.8031 11.9818 25.995 11.5347 25.2768 11.7135C25.187 11.7135 25.0972 11.7135 25.0074 11.8029C24.1097 11.9818 23.571 12.876 23.8402 13.6807C23.8402 13.7701 23.8402 13.8596 23.9301 13.8596C24.1994 14.575 25.0074 15.022 25.8155 14.8431C25.9052 14.8431 25.9052 14.8431 25.995 14.8431C26.8928 14.6644 27.4315 13.7701 27.252 12.9654C27.0724 12.876 27.0724 12.7865 27.0724 12.6971ZM19.89 16.1844C19.8001 16.0057 19.7104 15.9163 19.6205 15.7374C19.082 15.022 18.0045 14.9325 17.3761 15.4691C17.3761 15.4691 17.2862 15.4691 17.2862 15.5585C16.7475 16.0055 16.5681 16.721 16.8374 17.3468C16.9271 17.5257 17.017 17.6151 17.1067 17.794C17.6454 18.5094 18.7228 18.5988 19.3512 17.9728C19.441 17.9728 19.441 17.8834 19.5308 17.8834C19.9797 17.5257 20.1592 16.8104 19.89 16.1844ZM15.0418 22.5331C14.8622 22.1755 14.5928 21.8178 14.144 21.639C13.3359 21.2813 12.3483 21.639 11.9892 22.4438V22.5331C11.9892 22.5331 11.9892 22.6225 11.8994 22.6225C11.7199 22.9803 11.7199 23.4274 11.8994 23.7851C12.079 24.1427 12.3483 24.5004 12.7972 24.6792C13.6053 25.037 14.5928 24.6792 14.8622 23.7851C14.8622 23.6957 14.952 23.6957 14.952 23.6063C15.2214 23.338 15.2214 22.8908 15.0418 22.5331ZM13.6951 30.3127C13.4257 29.6867 12.7972 29.2395 12.079 29.329C11.1812 29.4184 10.5527 30.1338 10.5527 31.028C10.5527 31.2068 10.6425 31.3857 10.6425 31.4751C10.9118 32.101 11.5403 32.5481 12.2586 32.4587C13.1564 32.3693 13.7848 31.654 13.7848 30.7597C13.7848 30.6702 13.7848 30.6703 13.7848 30.5808C13.7848 30.6703 13.6951 30.4914 13.6951 30.3127ZM16.1191 38.0921C16.1191 38.0027 16.0294 37.9133 16.0294 37.8238C16.0294 37.7344 15.9395 37.7344 15.9395 37.645C15.4907 36.8403 14.5031 36.6614 13.7848 37.1084C13.0666 37.5555 12.7972 38.3603 13.0666 39.0757C13.0666 39.1651 13.1564 39.2545 13.1564 39.344C13.1564 39.344 13.1564 39.4334 13.2461 39.4334C13.6951 40.1487 14.6827 40.417 15.4907 39.9698C16.1191 39.7015 16.3885 38.8074 16.1191 38.0921ZM21.6855 43.8148C21.5958 43.4571 21.3264 43.189 21.0571 43.0101C20.9672 42.9207 20.9672 42.9207 20.8775 42.9207C20.1592 42.4735 19.1717 42.6524 18.633 43.4571C18.3637 43.9043 18.2738 44.4408 18.4534 44.8878C18.5432 45.1561 18.8125 45.4244 19.082 45.6927C19.082 45.6927 19.082 45.6927 19.1717 45.6927C19.1717 45.6927 19.2615 45.6927 19.2615 45.7821C19.9797 46.2291 20.9672 46.0503 21.506 45.2455C21.8651 44.709 21.8651 44.262 21.6855 43.8148ZM29.317 46.2291C29.1374 45.6927 28.5987 45.2455 27.9702 45.2455C27.8804 45.2455 27.8804 45.2455 27.7907 45.2455C26.8928 45.1561 26.0848 45.7821 25.995 46.6763C25.995 46.9445 25.995 47.2128 26.0848 47.3915C26.2644 47.9281 26.8031 48.3753 27.4315 48.3753H27.5212C28.4191 48.4647 29.1374 47.8387 29.2271 46.9445C29.4067 46.7657 29.4067 46.4974 29.317 46.2291ZM37.1278 45.0667C36.7687 44.262 35.871 43.8148 35.063 44.1725C34.9731 44.1725 34.9731 44.262 34.8834 44.262C34.0752 44.6197 33.6264 45.5138 33.9855 46.3185C34.3447 47.1234 35.2424 47.5704 36.0505 47.2128C37.1278 46.7657 37.487 45.8715 37.1278 45.0667Z" fill="white"/>
<path d="M36.9486 21.7289C36.8589 21.55 36.769 21.3712 36.5894 21.2817C36.1406 20.8347 35.4223 20.9242 34.9734 21.3712C34.704 21.7289 34.6143 22.176 34.7939 22.5336C34.8836 22.7125 34.9734 22.8913 35.153 22.9807C35.6019 23.4279 36.3202 23.3385 36.769 22.8913C37.0384 22.5336 37.1282 22.0866 36.9486 21.7289ZM32.5493 19.4935C32.4596 19.1357 32.1004 18.8675 31.7413 18.778C31.7413 18.778 31.7413 18.778 31.6516 18.778C31.023 18.5992 30.3946 19.0463 30.3049 19.6722C30.215 19.9405 30.3049 20.1193 30.3946 20.3876C30.4844 20.7453 30.8434 21.0135 31.2026 21.1029C31.8312 21.2817 32.4596 20.8347 32.5493 20.2087C32.6392 19.9405 32.6392 19.6722 32.5493 19.4935ZM27.6114 19.5829C27.4319 19.0463 26.8033 18.778 26.2647 18.8675C25.6362 19.0463 25.2772 19.6722 25.4566 20.2982C25.4566 20.3876 25.4566 20.3876 25.4566 20.3876C25.6362 20.9242 26.2647 21.1923 26.8033 21.1029C27.4319 20.9242 27.791 20.2982 27.6114 19.6722V19.5829ZM23.2122 21.9077C23.1223 21.8183 23.1223 21.6395 23.0326 21.55C22.5837 21.1029 21.8654 21.0135 21.4164 21.4606C21.0574 21.8183 20.9676 22.2653 21.1472 22.7125C21.237 22.8019 21.237 22.9807 21.3267 23.0702C21.7756 23.5173 22.4939 23.6066 22.9427 23.1596C23.3019 22.8019 23.3917 22.2653 23.2122 21.9077ZM20.4289 25.9316C20.3392 25.6633 20.0697 25.395 19.8004 25.3056C19.172 25.1267 18.5436 25.395 18.364 25.9316C18.2742 26.1997 18.2742 26.468 18.364 26.7363C18.4537 27.0046 18.7232 27.2729 18.9924 27.3623C19.6209 27.541 20.2493 27.2729 20.4289 26.6469C20.6084 26.468 20.6084 26.1997 20.4289 25.9316ZM19.8903 30.8496C19.7107 30.4025 19.172 30.0449 18.6333 30.1342C18.0049 30.2236 17.5559 30.7602 17.6457 31.386C17.6457 31.4755 17.6457 31.5649 17.7354 31.6543C17.915 32.1015 18.4537 32.4592 18.9924 32.3697C19.6209 32.2803 20.0697 31.7437 19.98 31.1179C19.98 31.0285 19.98 30.939 19.8903 30.8496ZM21.6859 35.4993C21.6859 35.4099 21.596 35.3204 21.596 35.2312C21.237 34.6946 20.5187 34.6052 19.98 34.9629C19.5312 35.2312 19.3516 35.857 19.5312 36.3042C19.5312 36.3936 19.6209 36.483 19.6209 36.5725C19.98 37.1089 20.6983 37.1983 21.237 36.8406C21.7756 36.5725 21.8654 35.9465 21.6859 35.4993ZM25.4566 38.7185C25.3669 38.4502 25.1873 38.2713 24.918 38.0925C24.3793 37.8243 23.661 38.003 23.3917 38.5396C23.2122 38.8079 23.2122 39.1656 23.3019 39.5232C23.3917 39.7915 23.5713 39.9703 23.8406 40.1492C24.3793 40.4174 25.0976 40.2386 25.3669 39.6126C25.5464 39.3443 25.5464 38.9867 25.4566 38.7185ZM30.215 39.8809C30.0354 39.4337 29.5866 39.1656 29.1377 39.1656C28.5092 39.1656 27.9704 39.702 27.9704 40.328C27.9704 40.5067 27.9704 40.5962 28.0603 40.775C28.2399 41.2222 28.599 41.4904 29.1377 41.4904C29.7662 41.4904 30.3049 40.9539 30.3049 40.328C30.3049 40.1492 30.3049 39.9703 30.215 39.8809ZM35.0632 38.629C35.0632 38.629 35.0632 38.5396 34.9734 38.5396C34.704 38.003 33.9859 37.7349 33.4472 38.0925C32.9084 38.3607 32.7289 38.9867 32.9084 39.5232C32.9084 39.5232 32.9084 39.6126 32.9983 39.6126C33.2676 40.1492 33.9859 40.4175 34.5245 40.0597C35.0632 39.7915 35.2427 39.1656 35.0632 38.629Z" fill="white"/>
<path d="M84.6829 18.5713C86.4033 18.5713 88.1237 18.9356 89.8442 19.5427C91.4416 20.1499 92.9163 21.1213 94.1452 22.3356L91.6875 25.2499C90.8272 24.2784 89.7212 23.5499 88.4923 22.9427C87.2635 22.457 86.0346 22.0927 84.8057 22.0927C82.348 22.0927 80.2589 22.9427 78.5385 24.5213C76.818 26.2213 75.9577 28.1641 75.9577 30.5927C75.9577 33.0213 76.818 34.9641 78.5385 36.6641C80.2589 38.3641 82.348 39.0927 84.8057 39.0927C87.3863 39.0927 89.7212 38.1213 91.6875 36.1784L94.1452 38.8499C92.7935 40.0641 91.3187 41.0356 89.7212 41.7641C88.0007 42.4927 86.2803 42.857 84.5599 42.857C80.8733 42.857 77.8012 41.6427 75.3433 39.3356C72.8856 37.0284 71.6567 33.9927 71.6567 30.5927C71.6567 27.1927 72.8856 24.2784 75.4662 21.9713C77.924 19.6641 80.9962 18.5713 84.6829 18.5713ZM116.634 37.3927H104.099L101.764 42.857H97.3403L108.277 18.6927H112.578L123.392 42.857H118.969L116.634 37.3927ZM115.036 33.7499L110.366 22.9427L105.697 33.7499H115.036ZM144.897 42.857L140.351 35.5713C140.105 35.5713 139.737 35.5713 139.245 35.5713H133.346V42.857H129.168V18.6927H139.245C142.44 18.6927 144.897 19.4213 146.619 20.8784C148.339 22.3356 149.199 24.3999 149.199 26.9499C149.199 28.8927 148.707 30.4713 147.847 31.807C146.987 33.1427 145.636 34.1141 144.037 34.7213L149.567 42.857H144.897ZM133.346 31.9284H139.245C143.3 31.9284 145.267 30.3499 145.267 27.0713C145.267 23.9141 143.3 22.3356 139.245 22.3356H133.346V31.9284ZM157.187 18.6927H167.386C171.073 18.6927 174.146 19.7856 176.603 22.0927C179.06 24.3999 180.29 27.3141 180.29 30.7141C180.29 34.2356 179.06 37.1499 176.603 39.3356C174.146 41.6427 171.073 42.7356 167.263 42.7356H157.187V18.6927ZM161.364 22.3356V39.2141H167.509C169.967 39.2141 171.933 38.4856 173.654 36.907C175.251 35.3284 176.111 33.2641 176.111 30.8356C176.111 28.407 175.251 26.3427 173.654 24.7641C171.933 23.1856 169.967 22.3356 167.509 22.3356H161.364Z" fill="white"/>
<path d="M215.313 18.8145H217.156L210.274 42.2502H208.677L201.549 21.8502L194.544 42.2502H192.947L185.697 18.8145H187.786L193.93 38.9716L200.689 18.8145H202.41L209.414 38.9716L215.313 18.8145Z" fill="white"/>
<path d="M219.983 42.2499H218.139L228.462 18.5713H229.936L240.259 42.2499H238.293L234.851 34.2356H223.423L219.983 42.2499ZM234.114 32.5356L229.199 21.1213L224.283 32.5356H234.114Z" fill="white"/>
<path d="M260.536 42.2502H246.157V18.8145H248.002V40.4287H260.536V42.2502Z" fill="white"/>
<path d="M280.566 42.2502H266.188V18.8145H268.031V40.4287H280.566V42.2502Z" fill="white"/>
<path d="M299.737 42.2502H286.341V18.8145H299.491V20.5145H288.186V29.5002H298.384V31.2002H288.186V40.4287H299.737V42.2502Z" fill="white"/>
<path d="M312.394 20.5145H303.668V18.8145H323.086V20.5145H314.36V42.2502H312.517V20.5145H312.394Z" fill="white"/>
</g>
<defs>
<clipPath id="clip0">
<rect width="322.857" height="60" fill="white" transform="translate(0.268555)"/>
</clipPath>
</defs>
</svg>
