<svg width="180" height="60" viewBox="0 0 180 60" fill="none" xmlns="http://www.w3.org/2000/svg">
<path d="M33.5632 10.4234C33.5632 10.567 33.5577 10.7092 33.5469 10.8499C33.491 11.583 33.7591 12.345 34.3899 12.7127L39.8328 15.8844C40.4637 16.2521 41.2518 16.105 41.852 15.6881C42.7259 15.081 43.7847 14.7257 44.9259 14.7257C47.9242 14.7257 50.3546 17.1789 50.3546 20.205C50.3546 23.2311 47.9242 25.6844 44.9259 25.6844C41.9277 25.6844 39.4972 23.2311 39.4972 20.205C39.4972 20.0622 39.5026 19.9204 39.5133 19.7804C39.569 19.0476 39.3009 18.2859 38.6703 17.9185L33.2251 14.7454C32.5944 14.3778 31.8069 14.5246 31.2067 14.9411C30.3333 15.5471 29.2754 15.9018 28.1354 15.9018C26.9954 15.9018 25.9375 15.5471 25.0642 14.9411C24.464 14.5246 23.6765 14.3778 23.0455 14.7454L17.6005 17.9184C16.9699 18.2859 16.7018 19.0474 16.7575 19.7802C16.7681 19.9204 16.7735 20.062 16.7735 20.2049C16.7735 22.3844 15.5126 24.2667 13.6869 25.1492C13.0292 25.4671 12.5081 26.0826 12.5081 26.8186V33.1568C12.5081 33.8927 13.0292 34.5083 13.6868 34.8261C15.5125 35.7087 16.7733 37.591 16.7733 39.7705C16.7733 39.9154 16.7678 40.0593 16.7568 40.2016C16.7002 40.9351 16.9681 41.698 17.5995 42.0661L23.0454 45.2395C23.6761 45.607 24.4638 45.4602 25.064 45.0438C25.9374 44.4376 26.9954 44.0828 28.1354 44.0828C29.2756 44.0828 30.3335 44.4376 31.2069 45.0436C31.807 45.4602 32.5947 45.607 33.2255 45.2393L38.6711 42.0661C39.3024 41.6982 39.5703 40.9353 39.5137 40.2016C39.5028 40.0594 39.4972 39.9158 39.4972 39.7707C39.4972 36.7446 41.9277 34.2914 44.9259 34.2914C47.9242 34.2914 50.3546 36.7446 50.3546 39.7707C50.3546 42.7969 47.9242 45.25 44.9259 45.25C43.787 45.25 42.7301 44.8962 41.8571 44.2913C41.2571 43.8754 40.4701 43.7292 39.8399 44.0965L34.3901 47.2722C33.7593 47.6399 33.4912 48.4019 33.547 49.1348C33.5579 49.2756 33.5634 49.4178 33.5634 49.5612C33.5634 52.5869 31.1332 55.0396 28.1354 55.0396C25.1377 55.0396 22.7077 52.5869 22.7077 49.5612C22.7077 49.4178 22.7131 49.2756 22.7238 49.135C22.7797 48.4021 22.5117 47.6401 21.8808 47.2724L16.4304 44.0963C15.8001 43.729 15.0133 43.8753 14.4132 44.2909C13.5404 44.8956 12.4836 45.2494 11.3449 45.2494C8.34688 45.2494 5.9165 42.7964 5.9165 39.7705C5.9165 37.591 7.17725 35.7089 9.00281 34.8263C9.66038 34.5083 10.1815 33.8929 10.1815 33.157V26.8184C10.1815 26.0824 9.66039 25.4671 9.00283 25.1491C7.17727 24.2665 5.9165 22.3842 5.9165 20.2049C5.9165 17.1788 8.34692 14.7257 11.345 14.7257C12.4861 14.7257 13.5449 15.081 14.4188 15.688C15.0191 16.1049 15.807 16.252 16.438 15.8843L21.8808 12.7126C22.5117 12.345 22.7797 11.5829 22.7238 10.8499C22.7131 10.7092 22.7077 10.5669 22.7077 10.4234C22.7077 7.39781 25.1377 4.94507 28.1354 4.94507C31.133 4.94507 33.5632 7.39781 33.5632 10.4234Z" fill="#F1F1F1"/>
<path opacity="0.4" d="M7.97918 29.9887C7.97918 32.2126 6.19298 34.0154 3.98959 34.0154C1.7862 34.0154 0 32.2126 0 29.9887C0 27.7647 1.7862 25.9619 3.98959 25.9619C6.19298 25.9619 7.97918 27.7647 7.97918 29.9887Z" fill="#FBFBFB"/>
<path opacity="0.4" d="M29.963 1.84499C29.963 2.86395 29.1446 3.68997 28.1351 3.68997C27.1256 3.68997 26.3071 2.86395 26.3071 1.84499C26.3071 0.826028 27.1256 0 28.1351 0C29.1446 0 29.963 0.826028 29.963 1.84499Z" fill="#FBFBFB"/>
<path opacity="0.4" d="M29.9635 58.1551C29.9635 59.1741 29.1451 60.0001 28.1356 60.0001C27.1261 60.0001 26.3076 59.1741 26.3076 58.1551C26.3076 57.1362 27.1261 56.3101 28.1356 56.3101C29.1451 56.3101 29.9635 57.1362 29.9635 58.1551Z" fill="#FBFBFB"/>
<path opacity="0.4" d="M19.5156 6.84196C20.6174 8.76794 19.9636 11.2307 18.0554 12.3426C16.1472 13.4546 13.7072 12.7947 12.6055 10.8687C11.5038 8.94277 12.1576 6.48001 14.0658 5.36804C15.974 4.25607 18.414 4.91598 19.5156 6.84196Z" fill="#FBFBFB"/>
<path opacity="0.4" d="M36.7544 6.84196C35.6527 8.76794 36.3065 11.2307 38.2147 12.3426C40.1229 13.4546 42.5628 12.7947 43.6646 10.8687C44.7663 8.94277 44.1125 6.48001 42.2043 5.36804C40.2961 4.25607 37.856 4.91598 36.7544 6.84196Z" fill="#FBFBFB"/>
<path opacity="0.4" d="M36.7691 53.1354C37.8708 55.0614 40.3108 55.7212 42.219 54.6093C44.1272 53.4972 44.781 51.0346 43.6792 49.1086C42.5775 47.1826 40.1375 46.5226 38.2293 47.6347C36.3212 48.7466 35.6673 51.2094 36.7691 53.1354Z" fill="#FBFBFB"/>
<path opacity="0.4" d="M19.5015 53.1354C18.3998 55.0614 15.9598 55.7212 14.0516 54.6093C12.1434 53.4972 11.4896 51.0346 12.5913 49.1086C13.693 47.1826 16.133 46.5226 18.0412 47.6347C19.9495 48.7466 20.6033 51.2094 19.5015 53.1354Z" fill="#FBFBFB"/>
<path opacity="0.4" d="M5.8175 15.919C5.8175 16.9379 4.99912 17.7639 3.98956 17.7639C2.98002 17.7639 2.16162 16.9379 2.16162 15.919C2.16162 14.9 2.98002 14.074 3.98956 14.074C4.99912 14.074 5.8175 14.9 5.8175 15.919Z" fill="#FBFBFB"/>
<path opacity="0.4" d="M5.8175 44.0618C5.8175 45.0809 4.99912 45.9068 3.98956 45.9068C2.98002 45.9068 2.16162 45.0809 2.16162 44.0618C2.16162 43.0429 2.98002 42.2168 3.98956 42.2168C4.99912 42.2168 5.8175 43.0429 5.8175 44.0618Z" fill="#FBFBFB"/>
<path d="M61.4287 32.8223C61.4287 30.5459 61.8796 28.5505 62.7819 26.8366C63.7106 25.0958 64.9843 23.7567 66.6028 22.8194C68.2215 21.8821 70.0788 21.4133 72.1749 21.4133C74.8284 21.4133 77.0175 22.0561 78.7421 23.3416C80.4933 24.6003 81.6742 26.4081 82.2845 28.7648H77.3889C76.9908 27.6668 76.3541 26.8098 75.4785 26.1938C74.6028 25.5779 73.5017 25.2698 72.1749 25.2698C70.3175 25.2698 68.8316 25.9394 67.7173 27.2785C66.6294 28.5908 66.0855 30.4387 66.0855 32.8223C66.0855 35.2058 66.6294 37.0672 67.7173 38.4063C68.8316 39.7452 70.3175 40.4148 72.1749 40.4148C74.8018 40.4148 76.5399 39.2498 77.3889 36.9198H82.2845C81.6476 39.1694 80.4536 40.9638 78.7023 42.3029C76.9511 43.6152 74.7753 44.2713 72.1749 44.2713C70.0788 44.2713 68.2215 43.8027 66.6028 42.8654C64.9843 41.9013 63.7106 40.5622 62.7819 38.848C61.8796 37.1073 61.4287 35.0988 61.4287 32.8223Z" fill="white"/>
<path d="M103.085 15.99V19.7259H91.344V27.9613H100.498V31.6974H91.344V43.9097H86.8066V15.99H103.085Z" fill="white"/>
<path d="M127.151 21.7751V43.9101H122.613V41.299C121.897 42.2095 120.955 42.9327 119.787 43.4682C118.646 43.977 117.426 44.2315 116.126 44.2315C114.401 44.2315 112.849 43.87 111.469 43.1468C110.116 42.4238 109.041 41.3524 108.245 39.933C107.476 38.5137 107.091 36.7997 107.091 34.791V21.7751H111.588V34.1082C111.588 36.0898 112.079 37.6165 113.061 38.6877C114.043 39.7322 115.383 40.2544 117.081 40.2544C118.779 40.2544 120.119 39.7322 121.101 38.6877C122.109 37.6165 122.613 36.0898 122.613 34.1082V21.7751H127.151Z" fill="white"/>
<path d="M144.202 21.4133C145.927 21.4133 147.466 21.7748 148.819 22.498C150.199 23.221 151.273 24.2924 152.043 25.7118C152.812 27.1311 153.197 28.8453 153.197 30.8538V43.9098H148.7V31.5368C148.7 29.555 148.208 28.0418 147.227 26.9973C146.245 25.9261 144.905 25.3904 143.207 25.3904C141.509 25.3904 140.156 25.9261 139.147 26.9973C138.165 28.0418 137.675 29.555 137.675 31.5368V43.9098H133.137V21.7748H137.675V24.3057C138.417 23.3952 139.359 22.6855 140.5 22.1766C141.668 21.6678 142.902 21.4133 144.202 21.4133Z" fill="white"/>
<path d="M157.472 32.742C157.472 30.5191 157.923 28.5506 158.826 26.8366C159.754 25.1227 161.001 23.7969 162.567 22.8596C164.159 21.8955 165.923 21.4134 167.86 21.4134C169.293 21.4134 170.7 21.7348 172.079 22.3775C173.486 22.9935 174.6 23.8237 175.423 24.8683V14.1824H180V43.9098H175.423V40.5755C174.68 41.6469 173.645 42.5306 172.318 43.227C171.018 43.9233 169.519 44.2713 167.82 44.2713C165.91 44.2713 164.159 43.7893 162.567 42.8252C161.001 41.8342 159.754 40.4685 158.826 38.7277C157.923 36.9602 157.472 34.9648 157.472 32.742ZM175.423 32.8224C175.423 31.2958 175.104 29.9701 174.467 28.8453C173.857 27.7205 173.048 26.8635 172.039 26.2743C171.031 25.685 169.943 25.3905 168.776 25.3905C167.608 25.3905 166.52 25.685 165.512 26.2743C164.504 26.8366 163.681 27.6802 163.044 28.805C162.434 29.9032 162.129 31.2155 162.129 32.742C162.129 34.2686 162.434 35.6075 163.044 36.7592C163.681 37.9108 164.504 38.7947 165.512 39.4106C166.547 39.9997 167.635 40.2943 168.776 40.2943C169.943 40.2943 171.031 39.9997 172.039 39.4106C173.048 38.8215 173.857 37.9644 174.467 36.8396C175.104 35.688 175.423 34.3488 175.423 32.8224Z" fill="white"/>
</svg>
