<svg width="364" height="61" viewBox="0 0 364 61" fill="none" xmlns="http://www.w3.org/2000/svg">
<g clip-path="url(#clip0)">
<path d="M44.8832 8.41516C53.1372 14.6264 54.8098 26.3332 48.625 34.5708C42.44 42.8084 30.7306 44.4383 22.4767 38.227C18.2066 35.0223 17.3483 28.9542 20.5619 24.6813C21.5193 23.4037 22.7409 22.4346 24.0834 21.7848C14.8721 25.9697 10.6241 36.7514 14.597 46.0902C18.6249 55.5724 29.5971 59.9665 39.1054 55.9247C43.4196 54.0857 47.3373 51.1231 50.3638 47.1034C59.5202 34.9011 57.0769 17.5889 44.8832 8.41516Z" fill="url(#paint0_linear)"/>
<path d="M44.8834 8.41552C41.1417 5.58521 36.6185 3.67998 31.6223 3.07428C29.9824 2.87604 28.3647 2.82097 26.7799 2.90907C29.9384 3.96632 33.2069 5.46406 35.7162 7.975C43.849 16.1135 43.1886 32.0382 33.9993 38.2935C32.0844 39.7032 29.6524 40.4079 27.1212 40.0997C25.5364 39.9014 24.0837 39.3397 22.8511 38.4917C31.083 44.3837 42.5283 42.6767 48.6252 34.5712C54.8211 26.3335 53.1374 14.6268 44.8834 8.41552Z" fill="url(#paint1_linear)"/>
<path d="M14.5966 46.0902C10.7118 36.9495 14.6957 26.41 23.5219 22.049C27.0105 19.9676 31.9408 20.0116 36.5629 22.1592C34.0647 16.1791 28.5292 11.6748 21.64 10.8379C11.4271 9.59341 2.12778 16.895 0.884197 27.1589C0.311929 31.8174 0.917214 36.6852 2.88714 41.3216C8.86294 55.363 25.0735 61.8935 39.1051 55.9136C29.6076 59.9663 18.6355 55.5612 14.5966 46.0902Z" fill="url(#paint2_linear)"/>
<path d="M176.606 14.7106H142.394V18.4806H176.606V14.7106Z" fill="#949494"/>
<path d="M146.913 42.5195V32.1518H169.707V28.3817H149.139C145.41 28.3817 142.394 31.3997 142.394 35.1317V46.2895H176.861V42.5195H146.913Z" fill="#949494"/>
<path d="M362.873 14.7106H328.662V18.4806H362.873V14.7106Z" fill="white"/>
<path d="M333.181 42.5195V32.1518H355.976V28.3817H335.407C331.679 28.3817 328.662 31.3997 328.662 35.1317V46.2895H363.13V42.5195H333.181Z" fill="white"/>
<path d="M230.139 14.7106H195.461V18.4806H230.139V14.7106Z" fill="white"/>
<path d="M222.785 28.3817H202.217C198.487 28.3817 195.472 31.3997 195.472 35.1317V46.2895H199.991V32.1518H222.785V28.3817Z" fill="white"/>
<path d="M252.02 14.7106H247.501V46.2895H252.02V14.7106Z" fill="white"/>
<path d="M308.36 22.5552V22.5361C308.36 18.2139 304.707 14.72 299.674 14.72H273.368V18.4901H298.551C302.023 18.4901 303.841 20.4988 303.841 23.2312V23.4311C303.841 26.6014 301.511 28.3817 298.304 28.3817H283.13H277.897H275.5H273.378V46.2893H277.897V32.1517H283.13H295.698H297.19C300.606 32.1517 303.374 34.3128 303.374 38.34V46.2893H307.893V39.1206C307.893 34.1319 305.678 31.352 300.33 31.352L300.302 29.6384C305.001 29.6384 308.36 26.8108 308.36 22.5552Z" fill="white"/>
<path d="M109.154 14.7106H101.467H85.8833V46.2895H101.467H109.154C117.859 46.2895 123.205 39.2255 123.205 30.5048C123.205 21.7841 117.859 14.7106 109.154 14.7106ZM108.355 42.5195H101.467H90.4022V18.4806H101.467H108.355C115.633 18.4806 118.772 23.8596 118.772 30.4953C118.772 37.131 115.338 42.5195 108.355 42.5195Z" fill="#949494"/>
</g>
<defs>
<linearGradient id="paint0_linear" x1="53.2172" y1="28.1905" x2="6.10329" y2="39.7919" gradientUnits="userSpaceOnUse">
<stop stop-color="white"/>
<stop offset="0.502869" stop-color="white"/>
<stop offset="1" stop-color="#080E42"/>
</linearGradient>
<linearGradient id="paint1_linear" x1="17.0441" y1="32.114" x2="48.6668" y2="12.8539" gradientUnits="userSpaceOnUse">
<stop stop-color="white"/>
<stop offset="1" stop-color="#080E42"/>
</linearGradient>
<linearGradient id="paint2_linear" x1="41.6319" y1="59.3803" x2="5.86817" y2="14.7072" gradientUnits="userSpaceOnUse">
<stop stop-color="white"/>
<stop offset="0.645833" stop-color="white"/>
<stop offset="1" stop-color="#080E42"/>
</linearGradient>
<clipPath id="clip0">
<rect width="362.903" height="60" fill="white" transform="translate(0.678223 0.5)"/>
</clipPath>
</defs>
</svg>
