<svg width="228" height="46" viewBox="0 0 228 46" fill="none" xmlns="http://www.w3.org/2000/svg">
<path fill-rule="evenodd" clip-rule="evenodd" d="M97.312 18.7372C102.9 18.7372 107.091 22.2443 107.091 27.8557V29.96H92.4226C93.1211 32.7658 95.2166 34.1686 98.7089 34.1686C101.503 34.1686 103.598 33.4672 105.694 31.3629V36.9743L98.7089 38.3772C91.7242 38.3772 87.5333 34.1686 87.5333 28.5572C87.5333 22.9457 91.7242 18.7372 97.312 18.7372ZM125.251 13.8272V18.7372H130.839V23.6472H125.251V30.6615C125.251 32.7658 126.648 34.1686 128.045 34.1686L130.839 32.7658V37.6758L127.347 38.3772C122.457 38.3772 120.362 36.2729 120.362 31.3629V23.6472H116.869V18.7372H120.362L121.06 13.8272H125.251ZM142.015 18.7372C144.808 18.7372 146.904 19.4386 147.602 21.5429H148.301V18.7372H152.492V38.3772H148.301V35.5715C146.904 37.6758 144.808 38.3772 142.015 38.3772C136.427 38.3772 132.236 34.1686 132.236 28.5572C132.236 22.9457 136.427 18.7372 142.015 18.7372ZM190.209 18.7372V29.96C190.209 32.0643 191.606 34.1686 193.702 34.1686C196.496 34.1686 197.893 32.0643 197.893 29.2586V18.7372H202.782V38.3772H198.591V35.5715C197.194 37.6758 195.099 38.3772 192.305 38.3772C187.416 38.3772 184.622 35.5715 184.622 30.6615V18.7372H190.209ZM211.862 9.61858V20.8415H212.561C213.259 19.4386 215.355 18.7372 217.45 18.7372C223.038 18.7372 227.229 22.9457 227.229 28.5572C227.229 34.1686 223.038 38.3772 217.45 38.3772C214.656 38.3772 212.561 37.6758 211.862 35.5715H211.164V38.3772H206.973V9.61858H211.862ZM114.774 9.61858V38.3772H109.885V9.61858H114.774ZM162.969 11.0214V21.5429H174.843V11.0214H181.129V38.3772H174.843V27.1543H162.969V38.3772H156.683V11.0214H162.969ZM71.4683 11.0214C80.5485 11.0214 85.4379 15.9314 85.4379 24.3486C85.4379 33.4672 80.5485 38.3772 71.4683 38.3772H60.2927V11.0214H71.4683ZM142.713 23.6472C139.919 23.6472 137.824 25.7515 137.824 28.5572C137.824 31.3629 139.919 34.1686 142.713 34.1686C145.507 34.1686 147.602 31.3629 147.602 28.5572C147.602 25.7515 145.507 23.6472 142.713 23.6472ZM216.752 23.6472C213.958 23.6472 211.862 25.7515 211.862 28.5572C211.862 31.3629 213.958 34.1686 216.752 34.1686C219.546 34.1686 221.641 31.3629 221.641 28.5572C221.641 25.7515 219.546 23.6472 216.752 23.6472ZM70.7699 16.6329H66.579V32.7658H70.7699C76.3577 32.7658 79.8501 29.96 79.8501 24.3486C79.8501 19.4386 76.3577 16.6329 70.7699 16.6329ZM97.312 22.9457C95.2166 22.9457 93.1211 24.3486 92.4226 26.4529H102.201C101.503 24.3486 100.106 22.9457 97.312 22.9457ZM37.2429 41.1829V31.3629L40.7353 26.4529V25.05L37.2429 18.7372V4.70858L49.1171 25.7515L37.2429 41.1829ZM26.7658 41.1829V5.41001L35.1475 18.7372V19.4386L37.2429 22.2443L39.3384 25.7515L26.7658 41.1829ZM24.6703 41.1829L16.2886 30.6615L12.7962 25.7515L14.8917 22.2443L16.2886 19.4386L24.6703 5.41001V41.1829ZM14.8917 41.1829L2.31907 25.7515L14.8917 5.41001V18.7372L10.7008 25.05V26.4529L14.8917 31.3629V41.1829ZM51.2125 25.05L36.5445 1.20143L35.846 0.5L35.1475 1.90286V15.23L26.7658 1.20143L26.0673 0.5L24.6703 1.20143L16.2886 15.9314V1.90286L15.5901 0.5L14.8917 1.20143L0.223633 25.05V26.4529L15.5901 44.6901C15.5901 46.0929 16.2886 45.3915 16.2886 44.6901V33.4672L22.5749 41.1829L25.3688 43.9886L26.0673 45.3915L26.7658 43.9886L35.1475 33.4672V44.6901H36.5445L51.2125 26.4529V25.05Z" fill="white"/>
</svg>
