<svg width="231" height="69" viewBox="0 0 231 69" fill="none" xmlns="http://www.w3.org/2000/svg">
<g clip-path="url(#clip0_3025:21)">
<path d="M54.9637 13.7151C54.6819 13.4323 54.541 13.1496 54.541 12.7961C54.541 12.4426 54.6819 12.1598 54.9637 11.877C55.5272 11.3821 56.3726 11.3821 56.9361 11.877C57.2179 12.1598 57.3588 12.4426 57.3588 12.7961C57.3588 13.1496 57.2179 13.4323 56.9361 13.7151C56.6543 13.9272 56.3021 14.0686 55.9499 14.0686C55.5977 14.1393 55.2455 13.9979 54.9637 13.7151Z" fill="white"/>
<path d="M51.5119 17.3914C51.3006 17.1086 51.1597 16.8258 51.1597 16.4723C51.1597 16.1189 51.3006 15.8361 51.5119 15.5533C52.005 15.0584 52.8503 15.0584 53.3434 15.5533C53.5548 15.8361 53.6956 16.1189 53.6956 16.4723C53.6956 16.8258 53.5548 17.1086 53.3434 17.3914C53.0617 17.6035 52.7799 17.7449 52.4277 17.7449C52.0754 17.7449 51.7937 17.6035 51.5119 17.3914Z" fill="white"/>
<path d="M47.7785 20.9969C47.5672 20.7848 47.4263 20.4313 47.4263 20.0778C47.4263 19.7243 47.5672 19.4415 47.7785 19.1588C48.2716 18.6639 49.1169 18.6639 49.61 19.1588C49.8214 19.3708 49.9623 19.7243 49.9623 20.0778C49.9623 20.4313 49.8214 20.7141 49.61 20.9969C49.3283 21.2797 49.0465 21.3504 48.6943 21.3504C48.342 21.3504 47.9898 21.209 47.7785 20.9969Z" fill="white"/>
<path d="M44.1858 24.6025C43.9041 24.3904 43.7632 24.0369 43.7632 23.6834C43.7632 23.3299 43.9041 23.0471 44.1858 22.7643C44.7494 22.2695 45.5947 22.2695 46.1583 22.7643C46.4401 22.9764 46.5809 23.3299 46.5809 23.6834C46.5809 24.0369 46.4401 24.3904 46.1583 24.6025C45.8765 24.8852 45.5243 24.9559 45.1721 24.9559C44.8198 24.9559 44.4676 24.8852 44.1858 24.6025Z" fill="white"/>
<path d="M40.7341 28.2081C40.4523 27.996 40.3818 27.6425 40.3818 27.289C40.3818 26.9355 40.5227 26.6527 40.7341 26.3699C41.2272 25.8751 42.0725 25.8751 42.5656 26.3699C42.8474 26.582 42.9178 26.9355 42.9178 27.289C42.9178 27.6425 42.7769 27.996 42.5656 28.2081C42.3543 28.4908 42.0021 28.5615 41.6498 28.5615C41.2976 28.6322 40.9454 28.4908 40.7341 28.2081Z" fill="white"/>
<path d="M36.5779 30.8945C36.5779 30.541 36.7188 30.2582 36.9301 29.9754C37.4232 29.4805 38.2685 29.4805 38.7616 29.9754C39.0434 30.2582 39.1139 30.541 39.1139 30.8945C39.1139 31.2479 38.973 31.5307 38.7616 31.8135C38.5503 32.0256 38.1981 32.167 37.8459 32.167C37.4937 32.167 37.2119 32.0256 36.9301 31.8135C36.7188 31.6014 36.5779 31.2479 36.5779 30.8945Z" fill="white"/>
<path d="M29.8857 38.8832C29.6743 38.6711 29.5334 38.3176 29.5334 37.9642C29.5334 37.6107 29.6743 37.3279 29.8857 37.0451C30.3788 36.5502 31.2241 36.5502 31.7172 37.0451C31.999 37.3279 32.0694 37.6107 32.0694 37.9642C32.0694 38.3176 31.9285 38.6004 31.7172 38.8832C31.5059 39.166 31.1537 39.2367 30.8014 39.2367C30.4492 39.3074 30.1674 39.166 29.8857 38.8832Z" fill="white"/>
<path d="M26.1522 42.4887C25.8704 42.2766 25.7295 41.9231 25.7295 41.5696C25.7295 41.2161 25.8704 40.9334 26.1522 40.6506C26.7157 40.1557 27.561 40.1557 28.1246 40.6506C28.4064 40.9334 28.5473 41.2161 28.5473 41.5696C28.5473 41.9231 28.4064 42.2059 28.1246 42.4887C27.8428 42.7715 27.4906 42.8422 27.1384 42.8422C26.7862 42.9129 26.4339 42.7715 26.1522 42.4887Z" fill="white"/>
<path d="M22.7004 46.165C22.489 45.9529 22.3481 45.5994 22.3481 45.2459C22.3481 44.8924 22.489 44.5389 22.7004 44.3268C23.1935 43.832 24.0388 43.832 24.5319 44.3268C24.7432 44.5389 24.8841 44.8924 24.8841 45.2459C24.8841 45.5994 24.7432 45.8822 24.5319 46.165C24.2501 46.4477 23.9684 46.5184 23.6161 46.5184C23.2639 46.5184 22.9821 46.3771 22.7004 46.165Z" fill="white"/>
<path d="M19.1076 49.7706C18.8258 49.5585 18.7554 49.205 18.7554 48.8515C18.7554 48.498 18.8963 48.2152 19.1076 47.9324C19.6007 47.4376 20.446 47.4376 20.9391 47.9324C21.1505 48.2152 21.2914 48.498 21.2914 48.8515C21.2914 49.205 21.1505 49.5585 20.9391 49.7706C20.6574 50.0533 20.3756 50.124 20.0234 50.124C19.6711 50.124 19.3189 50.0533 19.1076 49.7706Z" fill="white"/>
<path d="M15.3741 53.376C15.0923 53.1639 14.9514 52.8104 14.9514 52.457C14.9514 52.1035 15.0923 51.8207 15.3741 51.5379C15.9376 51.043 16.783 51.043 17.2761 51.5379C17.5578 51.8207 17.6987 52.1035 17.6987 52.457C17.6987 52.8104 17.5578 53.1639 17.2761 53.376C16.9943 53.5881 16.6421 53.7295 16.2899 53.7295C15.9376 53.7295 15.5854 53.6588 15.3741 53.376Z" fill="white"/>
<path d="M11.852 56.9816C11.5702 56.6988 11.4998 56.416 11.4998 56.0626C11.4998 55.7091 11.6406 55.4263 11.852 55.1435C12.3451 54.6486 13.1904 54.6486 13.6835 55.1435C13.9653 55.4263 14.0357 55.7091 14.0357 56.0626C14.0357 56.416 13.8949 56.6988 13.6835 56.9816C13.4722 57.1937 13.12 57.3351 12.7678 57.3351C12.486 57.4058 12.1338 57.2644 11.852 56.9816Z" fill="white"/>
<path d="M13.6835 13.7151C13.8949 13.4323 14.0357 13.1496 14.0357 12.7961C14.0357 12.4426 13.8949 12.1598 13.6835 11.877C13.1904 11.3821 12.3451 11.3821 11.852 11.877C11.5702 12.1598 11.4998 12.4426 11.4998 12.7961C11.4998 13.1496 11.6406 13.4323 11.852 13.7151C12.0633 13.9272 12.4155 14.0686 12.7678 14.0686C13.12 14.1393 13.4722 13.9979 13.6835 13.7151Z" fill="white"/>
<path d="M17.2762 17.3914C17.558 17.1086 17.6989 16.8258 17.6989 16.4723C17.6989 16.1189 17.558 15.8361 17.2762 15.5533C16.7126 15.0584 15.8673 15.0584 15.3038 15.5533C15.022 15.8361 14.8811 16.1189 14.8811 16.4723C14.8811 16.8258 15.022 17.1086 15.3038 17.3914C15.5855 17.6035 15.9378 17.7449 16.29 17.7449C16.6422 17.7449 16.9944 17.6035 17.2762 17.3914Z" fill="white"/>
<path d="M20.9391 20.9969C21.1505 20.7848 21.2914 20.4313 21.2914 20.0778C21.2914 19.7243 21.1505 19.4415 20.9391 19.1588C20.446 18.6639 19.6007 18.6639 19.1076 19.1588C18.8963 19.3708 18.7554 19.7243 18.7554 20.0778C18.7554 20.4313 18.8963 20.7141 19.1076 20.9969C19.3894 21.2797 19.6711 21.3504 20.0234 21.3504C20.3051 21.3504 20.6574 21.209 20.9391 20.9969Z" fill="white"/>
<path d="M24.5319 24.6025C24.7432 24.3904 24.8841 24.0369 24.8841 23.6834C24.8841 23.3299 24.7432 23.0471 24.5319 22.7643C24.0388 22.2695 23.1935 22.2695 22.7004 22.7643C22.489 22.9764 22.3481 23.3299 22.3481 23.6834C22.3481 24.0369 22.489 24.3904 22.7004 24.6025C22.9821 24.8852 23.2639 24.9559 23.6161 24.9559C23.8979 24.9559 24.2501 24.8852 24.5319 24.6025Z" fill="white"/>
<path d="M28.0541 28.2081C28.3359 27.996 28.4768 27.6425 28.4768 27.289C28.4768 26.9355 28.3359 26.6527 28.0541 26.3699C27.561 25.8751 26.6453 25.8751 26.1522 26.3699C25.8704 26.582 25.7295 26.9355 25.7295 27.289C25.7295 27.6425 25.8704 27.996 26.1522 28.2081C26.4339 28.4908 26.7862 28.5615 27.1384 28.5615C27.4906 28.6322 27.8428 28.4908 28.0541 28.2081Z" fill="white"/>
<path d="M32.0694 30.8945C32.0694 30.541 31.9285 30.2582 31.7172 29.9754C31.2241 29.4805 30.3788 29.4805 29.8857 29.9754C29.6039 30.2582 29.5334 30.541 29.5334 30.8945C29.5334 31.2479 29.6743 31.5307 29.8857 31.8135C30.097 32.0256 30.4492 32.167 30.8014 32.167C31.1537 32.167 31.4354 32.0256 31.7172 31.8135C31.999 31.6014 32.0694 31.2479 32.0694 30.8945Z" fill="white"/>
<path d="M35.3097 35.4898C35.5915 35.207 35.662 34.9242 35.662 34.5707C35.662 34.2173 35.5211 33.9345 35.3097 33.6517C34.8166 33.1568 33.9713 33.1568 33.4782 33.6517C33.1964 33.9345 33.126 34.2173 33.126 34.5707C33.126 34.9242 33.2669 35.207 33.4782 35.4898C33.6895 35.7019 34.0417 35.8433 34.394 35.8433C34.7462 35.8433 35.0984 35.7019 35.3097 35.4898Z" fill="white"/>
<path d="M38.9025 38.8832C39.1843 38.6711 39.3252 38.3176 39.3252 37.9642C39.3252 37.6107 39.1843 37.3279 38.9025 37.0451C38.339 36.5502 37.4937 36.5502 37.0005 37.0451C36.7188 37.3279 36.5779 37.6107 36.5779 37.9642C36.5779 38.3176 36.7188 38.6004 37.0005 38.8832C37.2823 39.166 37.6345 39.2367 37.9868 39.2367C38.2685 39.3074 38.6208 39.166 38.9025 38.8832Z" fill="white"/>
<path d="M42.5656 42.4887C42.7769 42.2766 42.9178 41.9231 42.9178 41.5696C42.9178 41.2161 42.7769 40.9334 42.5656 40.6506C42.0725 40.1557 41.2272 40.1557 40.7341 40.6506C40.5227 40.9334 40.3818 41.2161 40.3818 41.5696C40.3818 41.9231 40.5227 42.2059 40.7341 42.4887C41.0158 42.7715 41.2976 42.8422 41.6498 42.8422C41.9316 42.9129 42.2838 42.7715 42.5656 42.4887Z" fill="white"/>
<path d="M46.1581 46.165C46.3695 45.9529 46.5103 45.5994 46.5103 45.2459C46.5103 44.8924 46.3695 44.5389 46.1581 44.3268C45.665 43.832 44.8197 43.832 44.3266 44.3268C44.1153 44.5389 43.9744 44.8924 43.9744 45.2459C43.9744 45.5994 44.1153 45.8822 44.3266 46.165C44.6084 46.4477 44.8901 46.5184 45.2424 46.5184C45.5946 46.5184 45.8764 46.3771 46.1581 46.165Z" fill="white"/>
<path d="M49.5395 49.7706C49.8213 49.5585 49.8917 49.205 49.8917 48.8515C49.8917 48.498 49.7508 48.2152 49.5395 47.9324C49.0464 47.4376 48.201 47.4376 47.7079 47.9324C47.4966 48.2152 47.3557 48.498 47.3557 48.8515C47.3557 49.205 47.4966 49.5585 47.7079 49.7706C47.9897 50.0533 48.2715 50.124 48.6237 50.124C48.9759 50.124 49.3282 50.0533 49.5395 49.7706Z" fill="white"/>
<path d="M53.3434 53.376C53.6252 53.1639 53.6956 52.8104 53.6956 52.457C53.6956 52.1035 53.5548 51.8207 53.3434 51.5379C52.8503 51.043 52.005 51.043 51.5119 51.5379C51.2301 51.8207 51.1597 52.1035 51.1597 52.457C51.1597 52.8104 51.3006 53.1639 51.5119 53.376C51.7232 53.5881 52.0754 53.7295 52.4277 53.7295C52.7799 53.7295 53.1321 53.6588 53.3434 53.376Z" fill="white"/>
<path d="M56.9362 56.9816C57.218 56.6988 57.3589 56.416 57.3589 56.0626C57.3589 55.7091 57.218 55.4263 56.9362 55.1435C56.3727 54.6486 55.5273 54.6486 55.0342 55.1435C54.7525 55.4263 54.6116 55.7091 54.6116 56.0626C54.6116 56.416 54.7525 56.6988 55.0342 56.9816C55.316 57.1937 55.6682 57.3351 56.0205 57.3351C56.3022 57.4058 56.6545 57.2644 56.9362 56.9816Z" fill="white"/>
<path d="M22.2072 14.7049C25.8703 12.3012 29.8856 11.1701 34.3236 11.0994C38.6911 11.0994 42.7065 12.3012 46.44 14.7049L54.1888 6.92828C48.1306 2.33299 41.5793 0 34.3236 0C27.0679 0 20.4461 2.33299 14.5288 6.92828L22.2072 14.7049Z" fill="white"/>
<path d="M14.4584 46.5892C11.9928 42.8423 10.7953 38.8125 10.7953 34.5C10.7953 30.1168 11.9928 26.0871 14.4584 22.4109L6.77997 14.705C2.27155 20.6435 0.017334 27.2183 0.017334 34.5707C0.017334 41.7818 2.27155 48.4273 6.85041 54.4365L14.4584 46.5892Z" fill="white"/>
<path d="M46.4401 54.295C42.777 56.7694 38.7617 58.042 34.3942 58.1127C29.9562 58.1127 25.8704 56.9108 22.2073 54.3657L14.4585 62.0717C20.4462 66.7377 27.068 69.0706 34.3942 68.9999C41.6499 68.9292 48.2012 66.5963 54.1185 62.0717L46.4401 54.295Z" fill="white"/>
<path d="M53.9775 22.3401C56.4431 26.0871 57.7111 30.1875 57.6406 34.6414C57.5702 38.9539 56.3726 42.9129 53.9775 46.5184L61.7264 54.2244C66.3053 48.2858 68.6299 41.711 68.6299 34.5C68.7004 27.1475 66.3757 20.502 61.7264 14.4928L53.9775 22.3401Z" fill="white"/>
<path d="M62.0785 56.6987C65.0371 56.6987 67.5027 59.1024 67.5027 62.1424C67.5027 65.1116 65.1076 67.586 62.0785 67.586C59.1198 67.586 56.6543 65.1823 56.6543 62.1424C56.6543 59.1024 59.0494 56.6987 62.0785 56.6987Z" fill="white"/>
<path d="M6.70946 56.6987C9.66812 56.6987 12.0632 59.1024 12.0632 62.1424C12.0632 65.1116 9.66812 67.586 6.70946 67.586C3.75081 67.586 1.35571 65.1823 1.35571 62.1424C1.35571 59.1024 3.75081 56.6987 6.70946 56.6987Z" fill="white"/>
<path d="M62.1492 1.2019C65.1078 1.2019 67.5029 3.60559 67.5029 6.64555C67.5029 9.68551 65.1078 12.0892 62.1492 12.0892C59.1905 12.0892 56.7954 9.68551 56.7954 6.64555C56.7954 3.60559 59.1905 1.2019 62.1492 1.2019Z" fill="white"/>
<path d="M6.63904 1.2019C9.59769 1.2019 12.0632 3.60559 12.0632 6.57485C12.0632 9.54412 9.66814 11.9478 6.63904 11.9478C3.68039 11.9478 1.21484 9.54412 1.21484 6.57485C1.21484 3.60559 3.60994 1.2019 6.63904 1.2019Z" fill="white"/>
<path d="M108.712 44.751L106.036 42.3473C104.415 44.2561 101.175 45.3872 98.4276 45.3872C93.8488 45.3872 90.1857 42.6301 89.763 38.1762H110.051C110.967 28.6321 105.402 24.1075 98.0754 24.1075C90.8901 24.1075 85.6772 29.2684 85.6772 36.5502C85.6772 44.1854 90.8197 49.0635 98.2867 49.0635C102.091 48.9928 106.247 47.5788 108.712 44.751ZM106.388 34.7827H89.8334C90.5379 30.1875 94.1305 27.6424 98.2867 27.6424C102.936 27.6424 106.106 30.1168 106.388 34.6413V34.7827ZM119.913 14.5635H115.968V48.5686H119.913V14.5635ZM131.114 24.6024H127.451V48.5686H131.395V35.2069C131.395 30.8237 134.565 28.0665 138.44 27.9959C140.06 27.9959 141.328 28.42 142.596 29.3391L144.357 25.9456C142.878 24.8145 140.905 24.1075 138.792 24.1782C136.045 24.1782 133.086 25.0266 131.466 28.1372L131.114 24.6024ZM146.611 36.6209C146.611 43.9026 151.824 48.9928 159.01 48.9928C166.195 48.9928 171.408 43.9026 171.408 36.6209C171.408 29.1977 166.265 24.0368 159.01 24.0368C151.895 24.0368 146.611 29.1977 146.611 36.6209ZM167.463 36.6209C167.392 41.6403 163.87 45.2459 158.939 45.2459C154.078 45.2459 150.556 41.6403 150.556 36.6209C150.556 31.2479 154.149 27.7131 159.01 27.7131C163.8 27.7131 167.463 31.3186 167.463 36.6209ZM177.114 24.5317V48.5686H181.059V35.7018C181.059 31.3893 184.088 27.9252 188.385 27.8545C192.964 27.8545 195.641 30.753 195.641 35.3483V48.5686H199.585V35.3483C199.585 28.2786 195.147 24.2489 189.089 24.2489C185.919 24.2489 182.961 25.5922 180.918 28.42L180.706 24.6024L177.114 24.5317ZM229.947 14.5635H226.002V28.9149C224.311 25.6629 220.437 24.1075 217.056 24.1075C210.293 24.1075 205.01 28.4907 205.01 36.5502C205.01 44.4682 210.293 48.9928 217.126 48.9928C220.648 48.9928 224.17 47.4375 226.072 44.1147L226.284 48.4979H230.017L229.947 14.5635ZM217.408 27.8545C222.127 27.8545 225.861 31.3893 225.861 36.4795C225.861 41.711 222.127 45.2459 217.408 45.2459C212.758 45.2459 209.025 42.0645 209.025 36.5502C209.025 30.9651 212.688 27.9252 217.267 27.8545H217.408Z" fill="white"/>
</g>
<defs>
<clipPath id="clip0_3025:21">
<rect width="230" height="69" fill="white" transform="translate(0.017334)"/>
</clipPath>
</defs>
</svg>
