<svg width="270" height="26" viewBox="0 0 270 26" fill="none" xmlns="http://www.w3.org/2000/svg">
<path d="M3.52077 14.9569V24.6868H1.37695V1.26489H14.9707V3.27106H3.52077V14.9569Z" fill="white"/>
<path d="M3.76435 24.9373H1.1333V1.01392H15.2143V3.52161H3.76435V24.9373ZM1.62053 24.4358H3.27712V3.02007H14.6783V1.51546H1.62053V24.4358Z" fill="white"/>
<path d="M17.3576 24.6877H15.165L24.7634 0.714111H24.9097L34.508 24.6877H32.2669L30.7077 20.6252H18.9654L17.3576 24.6877ZM24.8609 5.6292L19.745 18.6191H29.9281L24.8609 5.6292Z" fill="white"/>
<path d="M34.8981 24.9363H32.1209L30.5617 20.8738H19.1605L17.5527 24.9363H14.8242L24.6176 0.461182H25.1048L34.8981 24.9363ZM32.4619 24.4348H34.1672L24.8612 1.16334L15.5551 24.4348H17.2116L18.8194 20.3723H30.9028L32.4619 24.4348ZM30.2694 18.8677H19.4042L24.8612 4.97504L30.2694 18.8677ZM20.135 18.3661H29.5873L24.9098 6.3292L20.135 18.3661Z" fill="white"/>
<path d="M17.1144 24.6877H14.9219L24.4716 0.714111H24.6177L34.2162 24.6877H32.0237L30.4645 20.6252H18.7222L17.1144 24.6877ZM24.6177 5.6292L19.5018 18.6191H29.6849L24.6177 5.6292Z" fill="white"/>
<path d="M34.6549 24.9363H31.8777L30.3186 20.8738H18.8687L17.2607 24.9363H14.5322L24.3256 0.461182H24.8128L34.6549 24.9363ZM32.17 24.4348H33.8754L24.5692 1.16334L15.3118 24.4348H16.9198L18.5276 20.3723H30.6109L32.17 24.4348ZM30.0263 18.8677H19.1123L24.618 4.97504L30.0263 18.8677ZM19.8431 18.3661H29.2954L24.618 6.3292L19.8431 18.3661Z" fill="white"/>
<path d="M38.2603 1.26489H45.6662C49.9538 1.26489 52.049 3.82275 52.049 7.03259C52.049 9.28952 50.977 10.8443 49.1256 11.6969C52.0002 12.4994 53.8516 14.7062 53.8516 17.8658C53.8516 21.6775 51.4642 24.6868 46.5432 24.6868H38.2603V1.26489ZM45.9098 10.9446C48.7845 10.9446 49.905 9.33968 49.905 7.03259C49.905 4.87597 48.6871 3.2209 45.5687 3.2209H40.4042V10.9446H45.9098ZM46.3483 22.6806C50.1488 22.6806 51.6591 20.5742 51.6591 17.8158C51.6591 14.9569 49.9538 12.8505 46.2509 12.8505H40.4042V22.6806H46.3483Z" fill="white"/>
<path d="M46.5431 24.9373H38.0166V1.01392H45.6662C50.5385 1.01392 52.2925 4.12346 52.2925 7.03239C52.2925 9.0887 51.4155 10.6936 49.8076 11.6466C52.5362 12.5995 54.0952 14.9065 54.0952 17.8657C54.0952 21.2761 52.1463 24.9373 46.5431 24.9373ZM38.5038 24.4358H46.5431C50.9282 24.4358 53.608 21.9281 53.608 17.8657C53.608 14.9567 51.9027 12.7499 49.0768 11.9475L48.3947 11.7469L49.0768 11.4459C50.8796 10.5933 51.8541 9.03855 51.8541 6.98223C51.8541 3.57176 49.5153 1.4653 45.7149 1.4653H38.5038V24.4358ZM46.3483 22.9311H40.1605V12.5995H46.2509C49.7589 12.5995 51.9027 14.5555 51.9027 17.8155C51.9027 21.0755 49.9051 22.9311 46.3483 22.9311ZM40.6478 22.4296H46.2995C49.564 22.4296 51.3668 20.7746 51.3668 17.8155C51.3668 14.8063 49.5153 13.101 46.2509 13.101H40.6478V22.4296ZM45.9098 11.1952H40.1605V3.02007H45.5201C48.4434 3.02007 50.1 4.47453 50.1 7.08254C50.1488 9.7407 48.6383 11.1952 45.9098 11.1952ZM40.6478 10.6936H45.9098C48.3947 10.6936 49.6615 9.48993 49.6615 7.08254C49.6615 4.82561 48.1998 3.57176 45.5687 3.57176H40.6964V10.6936H40.6478Z" fill="white"/>
<path d="M38.2603 1.26489H45.6662C49.9538 1.26489 52.049 3.82275 52.049 7.03259C52.049 9.28952 50.977 10.8443 49.1256 11.6969C52.0002 12.4994 53.8516 14.7062 53.8516 17.8658C53.8516 21.6775 51.4642 24.6868 46.5432 24.6868H38.2603V1.26489ZM45.9098 10.9446C48.7845 10.9446 49.905 9.33968 49.905 7.03259C49.905 4.87597 48.6871 3.2209 45.5687 3.2209H40.4042V10.9446H45.9098ZM46.3483 22.6806C50.1488 22.6806 51.6591 20.5742 51.6591 17.8158C51.6591 14.9569 49.9538 12.8505 46.2509 12.8505H40.4042V22.6806H46.3483Z" fill="white"/>
<path d="M46.5431 24.9373H38.0166V1.01392H45.6662C50.5385 1.01392 52.2925 4.12346 52.2925 7.03239C52.2925 9.0887 51.4155 10.6936 49.8076 11.6466C52.5362 12.5995 54.0952 14.9065 54.0952 17.8657C54.0952 21.2761 52.1463 24.9373 46.5431 24.9373ZM38.5038 24.4358H46.5431C50.9282 24.4358 53.608 21.9281 53.608 17.8657C53.608 14.9567 51.9027 12.7499 49.0768 11.9475L48.3947 11.7469L49.0768 11.4459C50.8796 10.5933 51.8541 9.03855 51.8541 6.98223C51.8541 3.57176 49.5153 1.4653 45.7149 1.4653H38.5038V24.4358ZM46.3483 22.9311H40.1605V12.5995H46.2509C49.7589 12.5995 51.9027 14.5555 51.9027 17.8155C51.9027 21.0755 49.9051 22.9311 46.3483 22.9311ZM40.6478 22.4296H46.2995C49.564 22.4296 51.3668 20.7746 51.3668 17.8155C51.3668 14.8063 49.5153 13.101 46.2509 13.101H40.6478V22.4296ZM45.9098 11.1952H40.1605V3.02007H45.5201C48.4434 3.02007 50.1 4.47453 50.1 7.08254C50.1488 9.7407 48.6383 11.1952 45.9098 11.1952ZM40.6478 10.6936H45.9098C48.3947 10.6936 49.6615 9.48993 49.6615 7.08254C49.6615 4.82561 48.1998 3.57176 45.5687 3.57176H40.6964V10.6936H40.6478Z" fill="white"/>
<path d="M72.9507 24.6868H70.3197L65.7885 18.7185C65.2038 18.8188 64.5704 18.8689 63.937 18.8689H61.1598V24.737H58.9673V1.26489H63.937C70.1249 1.26489 73.3406 5.02643 73.3406 10.092C73.3406 13.8535 71.5378 16.9129 68.0297 18.1668L72.9507 24.6868ZM63.7421 16.8627C68.9068 16.8627 71.0018 14.004 71.0018 10.092C71.0018 6.17998 68.9068 3.27106 63.7421 3.27106H61.1111V16.8627H63.7421Z" fill="white"/>
<path d="M73.438 24.9373H70.1735L65.6423 18.969C65.1063 19.0694 64.5703 19.0694 63.8882 19.0694H61.3546V24.9373H58.6748V1.01392H63.8882C69.8324 1.01392 73.5354 4.47453 73.5354 10.0918C73.5354 14.0038 71.6352 16.9628 68.3708 18.3171L73.438 24.9373ZM70.4171 24.4358H72.4148L67.5425 18.0663L67.8836 17.9659C71.1479 16.7622 73.0481 13.9034 73.0481 10.0918C73.0481 4.82561 69.5401 1.51546 63.8882 1.51546H59.162V24.4358H60.8187V18.5678H63.8395C64.5703 18.5678 65.1551 18.5176 65.691 18.4173H65.8372L70.4171 24.4358ZM63.7421 17.1134H60.8673V3.02007H63.7421C68.5657 3.02007 71.2454 5.52777 71.2454 10.0918C71.2941 14.6057 68.6144 17.1134 63.7421 17.1134ZM61.3546 16.6118H63.7421C69.5401 16.6118 70.7582 13.0509 70.7582 10.0918C70.7582 5.87885 68.2733 3.52161 63.7421 3.52161H61.3546V16.6118Z" fill="white"/>
<path d="M72.9507 24.6868H70.3197L65.7885 18.7185C65.2038 18.8188 64.5704 18.8689 63.937 18.8689H61.1598V24.737H58.9673V1.26489H63.937C70.1249 1.26489 73.3406 5.02643 73.3406 10.092C73.3406 13.8535 71.5378 16.9129 68.0297 18.1668L72.9507 24.6868ZM63.7421 16.8627C68.9068 16.8627 71.0018 14.004 71.0018 10.092C71.0018 6.17998 68.9068 3.27106 63.7421 3.27106H61.1111V16.8627H63.7421Z" fill="white"/>
<path d="M73.438 24.9373H70.1735L65.6423 18.969C65.1063 19.0694 64.5703 19.0694 63.8882 19.0694H61.3546V24.9373H58.6748V1.01392H63.8882C69.8324 1.01392 73.5354 4.47453 73.5354 10.0918C73.5354 14.0038 71.6352 16.9628 68.3708 18.3171L73.438 24.9373ZM70.4171 24.4358H72.4148L67.5425 18.0663L67.8836 17.9659C71.1479 16.7622 73.0481 13.9034 73.0481 10.0918C73.0481 4.82561 69.5401 1.51546 63.8882 1.51546H59.162V24.4358H60.8187V18.5678H63.8395C64.5703 18.5678 65.1551 18.5176 65.691 18.4173H65.8372L70.4171 24.4358ZM63.7421 17.1134H60.8673V3.02007H63.7421C68.5657 3.02007 71.2454 5.52777 71.2454 10.0918C71.2941 14.6057 68.6144 17.1134 63.7421 17.1134ZM61.3546 16.6118H63.7421C69.5401 16.6118 70.7582 13.0509 70.7582 10.0918C70.7582 5.87885 68.2733 3.52161 63.7421 3.52161H61.3546V16.6118Z" fill="white"/>
<path d="M80.6984 1.26489H78.5059V24.6868H80.6984V1.26489Z" fill="white"/>
<path d="M80.9903 24.9373H78.3105V1.01392H80.9903V24.9373ZM78.749 24.4358H80.4543V1.51546H78.749V24.4358Z" fill="white"/>
<path d="M80.6984 1.26489H78.5059V24.6868H80.6984V1.26489Z" fill="white"/>
<path d="M80.9903 24.9373H78.3105V1.01392H80.9903V24.9373ZM78.749 24.4358H80.4543V1.51546H78.749V24.4358Z" fill="white"/>
<path d="M85.3755 12.9509C85.3755 5.97951 90.4427 0.964111 96.8742 0.964111C100.723 0.964111 103.744 2.56903 105.79 5.3275L104.134 6.58135C102.429 4.32442 100.041 3.02042 96.8254 3.02042C91.5632 3.02042 87.6168 7.28351 87.6168 12.9509C87.6168 18.7186 91.612 22.8814 96.9715 22.8814C100.236 22.8814 102.916 21.477 104.718 18.9693L106.424 20.2232C104.183 23.2324 101.015 24.8876 96.9228 24.8876C90.4427 24.9378 85.3755 19.9224 85.3755 12.9509Z" fill="white"/>
<path d="M96.971 25.1892C93.7065 25.1892 90.6858 23.9354 88.4932 21.6784C86.3007 19.4215 85.1313 16.312 85.1313 12.9517C85.1313 5.98027 90.1985 0.714111 96.8735 0.714111C100.674 0.714111 103.841 2.26888 105.985 5.17781L106.131 5.37843L104.036 6.9332L103.89 6.73258C102.136 4.4255 99.7483 3.27196 96.7761 3.27196C91.6602 3.27196 87.8111 7.43474 87.8111 12.9517C87.8111 18.569 91.6602 22.6313 96.9223 22.6313C100.041 22.6313 102.623 21.3274 104.474 18.8197L104.621 18.619L106.716 20.1738L106.569 20.3744C104.328 23.5844 101.064 25.1892 96.971 25.1892ZM96.8735 1.21565C90.4909 1.21565 85.6186 6.2812 85.6186 12.9517C85.6186 16.2117 86.7392 19.1707 88.8342 21.3274C90.9294 23.484 93.804 24.6877 96.971 24.6877C100.82 24.6877 103.89 23.2332 106.131 20.3244L104.815 19.3713C102.915 21.879 100.236 23.1831 97.0198 23.1831C91.4653 23.1831 87.4213 18.8698 87.4213 13.0018C87.4213 7.18397 91.4654 2.82057 96.8735 2.82057C99.9431 2.82057 102.379 3.97412 104.231 6.33135L105.498 5.37843C103.403 2.61996 100.43 1.21565 96.8735 1.21565Z" fill="white"/>
<path d="M85.3755 12.9509C85.3755 5.97951 90.4427 0.964111 96.8742 0.964111C100.723 0.964111 103.744 2.56903 105.79 5.3275L104.134 6.58135C102.429 4.32442 100.041 3.02042 96.8254 3.02042C91.5632 3.02042 87.6168 7.28351 87.6168 12.9509C87.6168 18.7186 91.612 22.8814 96.9715 22.8814C100.236 22.8814 102.916 21.477 104.718 18.9693L106.424 20.2232C104.183 23.2324 101.015 24.8876 96.9228 24.8876C90.4427 24.9378 85.3755 19.9224 85.3755 12.9509Z" fill="white"/>
<path d="M96.971 25.1892C93.7065 25.1892 90.6858 23.9354 88.4932 21.6784C86.3007 19.4215 85.1313 16.312 85.1313 12.9517C85.1313 5.98027 90.1985 0.714111 96.8735 0.714111C100.674 0.714111 103.841 2.26888 105.985 5.17781L106.131 5.37843L104.036 6.9332L103.89 6.73258C102.136 4.4255 99.7483 3.27196 96.7761 3.27196C91.6602 3.27196 87.8111 7.43474 87.8111 12.9517C87.8111 18.569 91.6602 22.6313 96.9223 22.6313C100.041 22.6313 102.623 21.3274 104.474 18.8197L104.621 18.619L106.716 20.1738L106.569 20.3744C104.328 23.5844 101.064 25.1892 96.971 25.1892ZM96.8735 1.21565C90.4909 1.21565 85.6186 6.2812 85.6186 12.9517C85.6186 16.2117 86.7392 19.1707 88.8342 21.3274C90.9294 23.484 93.804 24.6877 96.971 24.6877C100.82 24.6877 103.89 23.2332 106.131 20.3244L104.815 19.3713C102.915 21.879 100.236 23.1831 97.0198 23.1831C91.4653 23.1831 87.4213 18.8698 87.4213 13.0018C87.4213 7.18397 91.4654 2.82057 96.8735 2.82057C99.9431 2.82057 102.379 3.97412 104.231 6.33135L105.498 5.37843C103.403 2.61996 100.43 1.21565 96.8735 1.21565Z" fill="white"/>
<path d="M14.9219 1.26489H12.9243V6.38059H14.9219V1.26489Z" fill="white"/>
<path d="M15.2142 6.63116H12.6807V1.01392H15.2142V6.63116ZM13.1679 6.12962H14.6784V1.51546H13.1679V6.12962Z" fill="white"/>
<path d="M3.42285 12.9514H9.75684V14.9074H3.42285" fill="white"/>
<path d="M10.001 15.2061H3.42334V14.6546H9.51373V13.2H3.42334V12.6985H10.001V15.2061Z" fill="white"/>
<path d="M14.9218 1.01196H12.4369H0.84082V24.9354H3.52059V15.2055H9.70841V12.6978H3.52059V3.51967H12.4369V6.6292H14.9218V1.01196Z" fill="white"/>
<path d="M156.462 3.32031V24.9868H155.488V0.411377H155.635L171.957 22.6797V1.01322H172.932V25.5887H172.785L156.462 3.32031Z" fill="white"/>
<path d="M184.625 2.01505H177.17V1.01196H193.2V2.01505H185.745V24.9855H184.673V2.01505H184.625Z" fill="white"/>
<path d="M197.244 17.0613V1.01196H198.316V16.9609C198.316 21.6754 201.044 24.2834 204.893 24.2834C208.742 24.2834 211.52 21.7255 211.52 16.9609V1.01196H212.592V17.1114C212.592 22.4277 209.23 25.2865 204.844 25.2865C200.459 25.2865 197.244 22.4277 197.244 17.0613Z" fill="white"/>
<path d="M232.179 24.9855H230.813L225.6 18.6161C224.967 18.6661 224.285 18.7665 223.603 18.7665H220.339V24.9855H219.267V1.01196H223.651C229.888 1.01196 232.958 4.97412 232.958 9.88921C232.958 13.8514 230.912 17.2117 226.819 18.3653L232.179 24.9855ZM223.457 17.7634C229.401 17.7634 231.838 14.2526 231.838 9.88921C231.838 5.52581 229.352 2.01505 223.457 2.01505H220.29V17.7634H223.457Z" fill="white"/>
<path d="M239.487 16.6099V23.9825H252.3V24.9855H238.415V1.01196H251.862V2.01505H239.535V15.6569L239.487 16.6099ZM239.487 14.2024H248.451V15.2055H239.487" fill="white"/>
<path d="M137.46 16.6099V23.9825H150.275V24.9855H136.388V1.01196H149.836V2.01505H137.509V15.6569L137.46 16.6099ZM137.46 14.2024H146.425V15.2055H137.46" fill="white"/>
<path d="M256.199 20.0729C257.514 22.6808 259.95 24.2858 262.923 24.2858C266.674 24.2858 268.769 22.2796 268.769 19.3206C268.769 16.4116 267.258 14.8568 263.849 13.1516L261.704 12.0984C258.44 10.4433 256.637 9.13928 256.637 6.07988C256.637 2.87003 259.122 0.813721 262.241 0.813721C265.066 0.813721 266.917 1.86695 268.331 4.17403L267.502 4.67557C266.285 2.71957 264.677 1.76664 262.241 1.76664C259.561 1.76664 257.71 3.62234 257.71 6.07988C257.71 8.68789 259.122 9.64082 262.192 11.1956L264.287 12.2488C268.184 14.2048 269.841 16.1106 269.841 19.3206C269.841 22.8814 267.258 25.3391 262.923 25.3391C259.268 25.3391 256.685 23.4331 255.273 20.6747L256.199 20.0729Z" fill="white"/>
<path d="M131.077 1.01196H130.59H125.864V2.01505H130.201L122.161 23.0296L114.073 2.01505H118.41V1.01196H113.684H113.196H112.563L122.015 25.5874H122.161L131.662 1.01196H131.077Z" fill="white"/>
</svg>
