<svg width="333" height="40" viewBox="0 0 333 40" fill="none" xmlns="http://www.w3.org/2000/svg">
<g clip-path="url(#clip0)">
<path fill-rule="evenodd" clip-rule="evenodd" d="M65.1765 5.28564C65.7461 5.28564 65.8885 5.57136 65.8885 5.99993V17.5714H87.535V5.99993C87.535 5.4285 87.8198 5.28564 88.2471 5.28564H91.9498C92.5194 5.28564 92.8042 5.57136 92.8042 5.99993V33.9999C92.8042 34.5714 92.5194 34.7142 91.9498 34.7142H88.2471C87.6774 34.7142 87.535 34.4285 87.535 33.9999V22.1428H65.8885V33.9999C65.8885 34.5714 65.6037 34.7142 65.1765 34.7142H61.4738C60.9041 34.7142 60.7617 34.4285 60.7617 33.9999V5.99993C60.7617 5.4285 61.0465 5.28564 61.4738 5.28564H65.1765Z" fill="white"/>
<path fill-rule="evenodd" clip-rule="evenodd" d="M109.324 24.4285H126.128L118.296 10.5714C118.153 10.2856 118.011 10.2856 117.726 10.2856H117.441C117.299 10.2856 117.156 10.2856 116.872 10.5714L109.324 24.4285ZM118.58 5.28564C120.432 5.28564 121.429 5.85707 122.568 7.99993L137.236 33.9999C137.521 34.5714 137.379 34.8571 136.809 34.8571H132.537C132.11 34.8571 131.967 34.7142 131.682 34.4285L128.407 28.4285H107.045L103.912 34.2856C103.77 34.5714 103.485 34.7142 103.058 34.7142H98.6429C98.0732 34.7142 97.9308 34.4285 98.2157 33.8571L112.884 7.99993C114.023 5.85707 115.163 5.28564 116.587 5.28564H118.58Z" fill="white"/>
<path fill-rule="evenodd" clip-rule="evenodd" d="M145.496 5.28564C146.066 5.28564 146.208 5.57136 146.208 5.99993V23.1428C146.208 28.2856 147.775 29.8571 152.759 29.8571H169.848C170.418 29.8571 170.703 30.1428 170.703 30.5714V33.9999C170.703 34.5714 170.418 34.7142 169.848 34.7142H152.617C144.214 34.7142 140.939 31.7142 140.939 23.5714V5.99993C140.939 5.4285 141.224 5.28564 141.651 5.28564H145.496Z" fill="white"/>
<path fill-rule="evenodd" clip-rule="evenodd" d="M181.526 21.7142V29.5714C181.526 29.9999 181.669 30.1428 182.096 30.1428H200.609C203.315 30.1428 204.455 29.1428 204.455 26.8571V24.9999C204.455 22.8571 203.458 21.7142 199.755 21.7142H181.526ZM181.526 17.8571H199.755C203.458 17.8571 204.312 16.7142 204.312 14.7142V13.1428C204.312 10.9999 203.173 9.99993 200.467 9.99993H182.096C181.811 9.99993 181.526 10.1428 181.526 10.5714V17.8571ZM201.464 5.28564C207.16 5.28564 209.297 7.57136 209.297 12.1428V14.1428C209.297 16.5714 208.3 18.4285 206.306 19.5714C208.442 20.7142 209.439 22.5714 209.439 25.1428V27.7142C209.439 32.1428 207.445 34.8571 201.891 34.8571H177.396C176.542 34.8571 176.115 34.4285 176.115 33.5714V6.57136C176.115 5.71422 176.542 5.28564 177.396 5.28564H201.464Z" fill="white"/>
<path fill-rule="evenodd" clip-rule="evenodd" d="M220.547 23.2856C220.547 28.4285 222.114 29.9999 227.098 29.9999H239.488C244.472 29.9999 246.039 28.4285 246.039 23.2856V16.8571C246.039 11.7142 244.472 10.1428 239.488 10.1428H227.098C222.114 10.1428 220.547 11.7142 220.547 16.8571V23.2856ZM239.773 5.28564C248.175 5.28564 251.45 8.28565 251.45 16.4285V23.7142C251.45 31.8571 248.317 34.8571 239.773 34.8571H226.956C218.553 34.8571 215.278 31.8571 215.278 23.7142V16.4285C215.278 8.28565 218.411 5.28564 226.956 5.28564H239.773Z" fill="white"/>
<path fill-rule="evenodd" clip-rule="evenodd" d="M262.843 20.8571H280.217C283.635 20.8571 284.917 19.2856 284.917 16.2856V14.4285C284.917 11.4285 283.635 9.85707 280.217 9.85707H263.412C263.128 9.85707 262.843 9.99993 262.843 10.4285V20.8571ZM281.214 5.28564C287.622 5.28564 290.186 8.28564 290.186 13.8571V16.1428C290.186 20.9999 288.192 23.8571 283.635 24.5714L291.183 33.8571C291.467 34.1428 291.325 34.7142 290.755 34.7142H286.341C285.771 34.7142 285.486 34.5714 285.344 34.2856L278.223 25.1428H262.985V33.9999C262.985 34.5714 262.7 34.7142 262.273 34.7142H258.57C258.001 34.7142 257.858 34.4285 257.858 33.9999V6.57136C257.858 5.71422 258.286 5.28564 259.14 5.28564H281.214Z" fill="white"/>
<path fill-rule="evenodd" clip-rule="evenodd" d="M303.43 5.28564C305.709 5.28564 306.136 5.71422 307.56 7.28564L325.789 29.4285C325.931 29.5714 326.074 29.7142 326.359 29.7142H326.786C327.071 29.7142 327.213 29.5714 327.213 29.2856V5.99993C327.213 5.4285 327.355 5.28564 327.925 5.28564H331.485C332.055 5.28564 332.197 5.57136 332.197 5.99993V30.9999C332.197 33.8571 331.201 34.7142 328.922 34.7142H325.931C323.795 34.7142 323.225 34.2856 321.801 32.7142L303.715 10.5714C303.573 10.4285 303.43 10.2856 303.146 10.2856H302.718C302.433 10.2856 302.433 10.4285 302.433 10.7142V33.9999C302.433 34.5714 302.149 34.7142 301.579 34.7142H298.019C297.449 34.7142 297.307 34.4285 297.307 33.9999V8.99993C297.307 6.14279 298.304 5.28564 300.44 5.28564H303.43Z" fill="white"/>
<path fill-rule="evenodd" clip-rule="evenodd" d="M7.21465 40H1.23338C0.663734 40 0.2365 39.4286 0.521323 38.8571L19.7468 0.285714C20.0317 0.142857 20.1741 0 20.4589 0H26.4402C27.0098 0 27.437 0.571429 27.1522 1.14286L7.92671 39.7143C7.7843 39.8571 7.49947 40 7.21465 40Z" fill="#B0B0B0"/>
<path fill-rule="evenodd" clip-rule="evenodd" d="M25.7284 40H19.6047C19.1775 40 18.7503 39.4286 19.0351 39L38.2606 0.285714C38.403 0.142857 38.5454 0 38.8303 0H44.9539C45.3812 0 45.8084 0.571429 45.5236 1L26.1557 39.7143C26.1557 40 25.8708 40 25.7284 40Z" fill="#B0B0B0"/>
</g>
<defs>
<clipPath id="clip0">
<rect width="331.818" height="40" fill="white" transform="translate(0.521484)"/>
</clipPath>
</defs>
</svg>
