<svg width="256" height="80" viewBox="0 0 256 80" fill="none" xmlns="http://www.w3.org/2000/svg">
<path d="M164.809 37.1426V32.7997H166.522V31.1997H161.04V32.7997H162.753V37.1426H164.809Z" fill="white"/>
<path d="M208.211 35.6569H208.782L209.81 37.1426H211.98L210.724 35.314C211.067 35.0854 211.409 34.8569 211.524 34.514C211.752 34.1711 211.866 33.8283 211.866 33.3711C211.866 32.914 211.752 32.5711 211.524 32.2283C211.295 31.8854 210.953 31.6569 210.61 31.4283C210.153 31.1997 209.696 31.1997 209.239 31.1997H206.384V37.1426H208.325L208.211 35.6569ZM208.211 32.6854H208.897C209.125 32.6854 209.353 32.7997 209.468 32.914C209.582 33.0283 209.696 33.2569 209.696 33.3711C209.696 33.4854 209.582 33.714 209.468 33.8283C209.353 33.9426 209.125 34.0568 208.897 34.0568H208.211V32.6854Z" fill="white"/>
<path d="M183.198 31.1997V34.3997C183.198 35.314 183.426 35.9997 183.997 36.4568C184.454 36.914 185.254 37.1426 186.167 37.1426C187.081 37.1426 187.766 36.914 188.338 36.4568C188.794 35.9997 189.137 35.314 189.137 34.3997V31.1997H186.967V34.3997C186.967 34.8569 186.853 35.1997 186.739 35.314C186.624 35.4283 186.396 35.6569 186.053 35.6569C185.711 35.6569 185.482 35.5426 185.368 35.314C185.254 35.0854 185.139 34.8569 185.139 34.3997V31.1997H183.198Z" fill="white"/>
<path d="M177.943 24.1142V11.3142H167.664C166.636 11.3142 165.722 11.6571 165.037 12.4571C164.351 13.1428 163.895 14.0571 163.895 15.0856V24.2285H166.864V15.0856C166.864 14.8571 166.978 14.7428 167.093 14.5142C167.207 14.2856 167.435 14.2856 167.664 14.2856H174.974V24.2285L177.943 24.1142Z" fill="white"/>
<path d="M205.127 20.9142C204.899 21.1428 204.785 21.1428 204.556 21.1428H195.076V24.1142H204.899C205.927 24.1142 206.726 23.7714 207.526 22.9714C208.211 22.2856 208.554 21.3714 208.554 20.3428V16.3428H197.817V15.0856C197.817 14.8571 197.932 14.7428 198.16 14.5142C198.389 14.2856 198.503 14.2856 198.731 14.2856H208.554V11.3142H198.731C197.703 11.3142 196.904 11.6571 196.104 12.4571C195.419 13.1428 195.076 14.0571 195.076 15.0856V19.0856H205.47V20.4571C205.47 20.5714 205.356 20.7999 205.127 20.9142Z" fill="white"/>
<path d="M255.498 16.3428V11.3142H244.99C243.962 11.3142 243.048 11.6571 242.363 12.4571C241.678 13.2571 241.221 14.0571 241.221 15.0856V24.2285H244.19V20.2285H250.358L252.528 24.2285H255.498L253.328 19.9999C253.785 19.7714 254.242 19.5428 254.584 19.1999C255.155 18.2856 255.498 17.4856 255.498 16.3428ZM252.528 16.3428C252.528 16.5714 252.414 16.7999 252.3 16.9142C252.186 17.0285 251.957 17.1428 251.729 17.1428H244.076V14.9714C244.076 14.7428 244.19 14.6285 244.305 14.3999C244.419 14.2856 244.647 14.1714 244.876 14.1714H252.528V16.3428Z" fill="white"/>
<path d="M218.72 24.1142V14.2856H224.088V11.3142H210.268V14.2856H215.864V24.1142H218.72Z" fill="white"/>
<path d="M253.67 35.6568C253.556 35.6568 253.328 35.7711 253.099 35.7711C252.757 35.7711 252.414 35.7711 252.071 35.6568C251.729 35.5426 251.386 35.4283 251.157 35.314L250.472 36.7997C250.815 37.0283 251.157 37.1426 251.614 37.2568C252.071 37.3711 252.528 37.3711 253.099 37.3711C253.67 37.3711 254.241 37.2568 254.584 37.1426C255.041 36.914 255.269 36.6854 255.498 36.4568C255.726 36.114 255.84 35.7711 255.84 35.4283C255.84 34.9711 255.726 34.6283 255.498 34.3997C255.269 34.1711 255.041 33.9426 254.698 33.8283C254.356 33.714 254.013 33.5997 253.556 33.4854C253.213 33.3711 252.985 33.3711 252.757 33.2569C252.642 33.1426 252.528 33.1426 252.528 33.0283C252.528 32.7997 252.757 32.6854 253.328 32.6854C253.899 32.6854 254.356 32.7997 254.927 33.1426L255.498 31.6569C255.155 31.5426 254.812 31.314 254.47 31.314C254.127 31.1997 253.67 31.1997 253.328 31.1997C252.757 31.1997 252.185 31.314 251.843 31.4283C251.386 31.6569 251.157 31.8854 250.929 32.114C250.701 32.4569 250.586 32.7997 250.586 33.1426C250.586 33.5997 250.701 33.9426 250.929 34.1711C251.157 34.3997 251.386 34.6283 251.729 34.7426C252.071 34.8568 252.414 34.9711 252.871 35.0854C253.213 35.1997 253.442 35.1997 253.67 35.314C253.784 35.4283 253.899 35.4283 253.899 35.5426C253.899 35.5426 253.784 35.5426 253.67 35.6568Z" fill="white"/>
<path d="M239.507 24.1142V11.3142H229.571C228.543 11.3142 227.743 11.6571 226.943 12.4571C226.258 13.1428 225.916 14.0571 225.916 15.0856V24.1142H228.885V20.9142H236.652V24.1142H239.507ZM228.771 17.9428V14.9714C228.771 14.7428 228.885 14.6285 228.999 14.5142C229.114 14.3999 229.342 14.2856 229.571 14.2856H236.538V18.0571C236.538 17.9428 228.771 17.9428 228.771 17.9428Z" fill="white"/>
<path d="M233.682 32.6854V31.1997H228.885V37.1426H233.796V35.6569H230.826V34.8569H233.339V33.3711H230.826V32.6854H233.682Z" fill="white"/>
<path d="M193.249 17.7142H190.279V21.2571H182.626V15.0856C182.626 14.8571 182.741 14.6285 182.855 14.5142C182.969 14.2856 183.197 14.2856 183.426 14.2856H192.678V11.3142H183.426C182.398 11.3142 181.484 11.6571 180.799 12.4571C180.114 13.1428 179.657 14.0571 179.657 15.0856V24.1142H193.249V17.7142Z" fill="white"/>
<path d="M124.604 22.9714C125.289 22.2856 125.632 21.3714 125.632 20.3428V11.3142H115.238C114.21 11.3142 113.411 11.6571 112.611 12.4571C111.926 13.1428 111.583 14.0571 111.583 15.0856V20.3428C111.583 21.3714 111.926 22.2856 112.611 22.9714C113.411 23.7714 114.21 24.1142 115.238 24.1142H121.863C123.005 24.1142 123.919 23.7714 124.604 22.9714ZM116.266 21.1428H115.352C115.124 21.1428 114.895 21.0285 114.781 20.9142C114.667 20.7999 114.553 20.5714 114.553 20.4571V14.8571C114.553 14.6285 114.667 14.5142 114.781 14.3999C114.895 14.2856 115.124 14.1714 115.352 14.1714H116.266H122.776V20.4571C122.776 20.6856 122.662 20.7999 122.548 20.9142C122.434 21.0285 122.205 21.1428 121.977 21.1428H121.063H116.266Z" fill="white"/>
<path d="M162.296 11.3142H159.326V24.1142H162.296V11.3142Z" fill="white"/>
<path d="M121.177 32.6854V31.1997H116.38V37.1426H121.177V35.6569H118.322V34.8569H120.72V33.3711H118.322V32.6854H121.177Z" fill="white"/>
<path d="M95.0212 31.1997H92.8511L95.3639 37.1426H97.3056L99.8184 31.1997H97.8767L96.3918 34.6283L95.0212 31.1997Z" fill="white"/>
<path d="M109.87 24.1142V11.3142H96.7345C95.7066 11.3142 94.7928 11.6571 94.1075 12.4571C93.4222 13.1428 92.9653 14.0571 92.9653 15.0856V24.2285H95.935V15.0856C95.935 14.8571 96.0492 14.7428 96.1634 14.5142C96.2777 14.2856 96.5061 14.2856 96.7345 14.2856H99.9327V24.2285H102.902V14.2856H106.9V24.2285L109.87 24.1142Z" fill="white"/>
<path d="M140.252 34.3997L142.536 37.1426H144.135V31.1997H142.193V33.9426L140.023 31.1997H138.31V37.1426H140.252V34.3997Z" fill="white"/>
<path d="M157.499 24.1142V11.3142H147.219C146.191 11.3142 145.277 11.6571 144.592 12.4571C143.907 13.1428 143.45 14.0571 143.45 15.0856V24.2285H146.419V15.0856C146.419 14.8571 146.534 14.7428 146.648 14.5142C146.762 14.3999 146.99 14.2856 147.219 14.2856H154.529V24.2285L157.499 24.1142Z" fill="white"/>
<path d="M141.736 16.3428V11.3142H131.228C130.2 11.3142 129.286 11.6571 128.601 12.4571C127.916 13.2571 127.459 14.0571 127.459 15.0856V24.2285H130.429V20.2285H136.596L138.767 24.2285H141.736L139.566 19.9999C140.023 19.7714 140.48 19.5428 140.823 19.1999C141.394 18.2856 141.736 17.4856 141.736 16.3428ZM138.881 16.3428C138.881 16.5714 138.767 16.7999 138.652 16.9142C138.538 17.0285 138.31 17.1428 138.081 17.1428H130.429V14.9714C130.429 14.7428 130.543 14.6285 130.657 14.3999C130.771 14.2856 131 14.1714 131.228 14.1714H138.881V16.3428Z" fill="white"/>
<path d="M52.4177 31.4286L0.791016 80L49.3338 28.3429C51.8466 25.6 51.9608 21.4857 49.5622 18.6286L33.5717 0L52.4177 16.2286C55.1589 18.5143 59.1566 18.5143 61.8978 16.2286L80.7439 0L64.5248 18.8571C62.2405 21.6 62.2405 25.6 64.5248 28.3429L80.7439 47.2L62.1263 31.2C59.2708 28.8 55.1589 28.9143 52.4177 31.4286Z" fill="white"/>
</svg>
