<svg version="1.2" xmlns="http://www.w3.org/2000/svg" viewBox="0 0 170 55" width="170" height="55"><defs><clipPath clipPathUnits="userSpaceOnUse" id="cp1"><path d="m0.26 5.07h169.74v44.72h-169.74z" /></clipPath></defs><style>.s0{fill:#ffffff}</style><g clip-path="url(#cp1)"><path class="s0" d="m85.2 14.4v26.1c0 0.2-0.1 0.4-0.4 0.4h-2.7c-1.2 0-2.4-0.6-3.1-1.7l-12.3-19l0.4 9.5v10.9c0 0.1-0.2 0.3-0.4 0.3h-3.6c-0.2 0-0.4-0.1-0.4-0.3v-26.2c0-0.2 0.1-0.4 0.4-0.4h2.7c1.2 0 2.4 0.7 3.1 1.7l12.3 19l-0.4-9.5v-10.8c0-0.2 0.2-0.4 0.4-0.4h3.6q0.4 0 0.4 0.4z" /><path class="s0" d="m121.9 40.8h-3.8c-0.3 0-0.5-0.2-0.4-0.4l10.1-26c0.1-0.2 0.3-0.4 0.5-0.4h4.7c0.3 0 0.5 0.2 0.5 0.4l10.1 26c0.1 0.2-0.1 0.4-0.4 0.4h-3.7c-0.2 0-0.3-0.1-0.4-0.2l-8.1-21.4c-0.1-0.3-0.6-0.3-0.7 0l-8 21.4c-0.1 0.1-0.3 0.2-0.4 0.2z" /><path class="s0" d="m169.8 40.8h-2.8c-1.2 0-2.3-0.4-3-1.4l-6.5-8.5h-4.1v9.6c0 0.2-0.2 0.3-0.4 0.3h-3.6c-0.2 0-0.4-0.1-0.4-0.3v-13c0-0.3 0.3-0.5 0.6-0.5h10c3.6 0 5.2-1.8 5.2-4.4c0-2.7-1.7-4.5-5.2-4.5h-7.1c-2 0-3.6-1.6-3.6-3.5c0-0.3 0.3-0.6 0.6-0.6h10.5c5.8 0 9.1 3.4 9.1 8.5c0 4.4-2.5 7.3-6.7 8.1l7.5 9.7c0.2 0.2 0.1 0.5-0.1 0.5z" /><path class="s0" d="m110.9 14.4v3.3c0 0.3-0.2 0.4-0.4 0.4h-13.5c-1.9 0-3.6-1.6-3.6-3.6c0-0.3 0.2-0.5 0.5-0.5h16.6c0.2 0 0.4 0.2 0.4 0.4zm0 22.6v3.4c0 0.3-0.2 0.4-0.4 0.4h-16.5c-0.3 0-0.6-0.2-0.6-0.5v-14.7c0-0.3 0.3-0.6 0.6-0.6h15.6c0.2 0 0.4 0.2 0.4 0.4v3.4c0 0.3-0.2 0.4-0.4 0.4h-11.5c-0.2 0-0.4 0.2-0.4 0.4v6.7c0 0.3 0.2 0.4 0.4 0.4h12.4c0.2 0 0.4 0.2 0.4 0.3z" /><path class="s0" d="m40.2 5.1c2.6 0 4.7 2.1 4.8 4.7v35.2c0 2.7-2.2 4.8-4.8 4.8h-1c-1.4 0-2.7-0.6-3.6-1.7l-27.8-33.3c-0.2-0.2-0.6-0.1-0.6 0.3v24.9c0 0.4 0.3 0.5 0.6 0.3l9.1-7.9c0.9-0.8 2.2 0.3 1.5 1.2l-9.3 13.9c-0.9 1.4-2.4 2.3-4.1 2.3c-2.6 0-4.7-2.1-4.7-4.8v-35.2c0-2.6 2.1-4.7 4.7-4.7h1c1.4 0 2.7 0.6 3.6 1.7l27.8 33.3c0.2 0.2 0.6 0.1 0.6-0.3v-25c0-0.3-0.3-0.5-0.6-0.3l-9.1 8c-0.9 0.8-2.2-0.3-1.5-1.3l9.3-13.8c0.9-1.5 2.4-2.3 4.1-2.3z" /></g></svg>