<svg width="281" height="85" viewBox="0 0 281 85" fill="none" xmlns="http://www.w3.org/2000/svg">
<path d="M60.2263 20.43C60.2263 20.73 60.4963 21 60.7963 21H64.3963C64.6963 21 64.9663 20.73 64.9663 20.43V4.41H69.2563C69.5863 4.41 69.8263 4.14 69.8263 3.84V0.569998C69.8263 0.269999 69.5863 -1.43051e-06 69.2563 -1.43051e-06H55.9363C55.6063 -1.43051e-06 55.3663 0.269999 55.3663 0.569998V3.84C55.3663 4.14 55.6063 4.41 55.9363 4.41H60.2263V20.43ZM68.9985 17.34C68.9985 19.71 70.7685 21.3 73.1385 21.3C75.0285 21.3 76.0785 20.43 76.7685 19.8L77.1885 20.61C77.3385 20.94 77.5485 21 77.7285 21H79.0485C79.3485 21 79.6185 20.73 79.6185 20.43V13.8C79.6185 10.26 78.2685 8.7 74.5485 8.7C72.9285 8.7 70.8285 9.06 70.5585 9.15C70.2885 9.24 70.0185 9.45 70.1085 9.96L70.3785 11.85C70.4385 12.3 70.6485 12.63 71.0985 12.48C71.8785 12.24 73.2885 12.03 74.0985 12.03C75.5385 12.03 75.7185 12.63 75.7185 13.8C75.7185 13.8 74.7585 13.32 73.4085 13.32C70.6785 13.32 68.9985 15.03 68.9985 17.34ZM72.8985 17.04C72.8985 16.35 73.4685 15.78 74.1885 15.78C74.9085 15.78 75.4785 16.35 75.5085 17.04C75.5085 17.76 74.9085 18.36 74.1885 18.36C73.4685 18.36 72.8985 17.76 72.8985 17.04ZM84.8598 5.37C86.1798 5.37 87.2598 4.32 87.2598 3C87.2598 1.68 86.1798 0.6 84.8598 0.6C83.5398 0.6 82.4898 1.68 82.4898 3C82.4898 4.32 83.5398 5.37 84.8598 5.37ZM82.6698 20.43C82.6698 20.73 82.9398 21 83.2398 21H86.5398C86.8398 21 87.1098 20.73 87.1098 20.43V9.57C87.1098 9.24 86.8398 9 86.5398 9H83.2398C82.9398 9 82.6698 9.24 82.6698 9.57V20.43ZM93.4056 19.77L88.9356 29.19C88.7256 29.61 88.9956 30 89.4456 30H92.8056C93.0456 30 93.2256 29.82 93.3156 29.64L102.496 9.78C102.706 9.39 102.436 9 101.986 9H98.5956C98.3556 9 98.1456 9.15 98.0856 9.33L95.7156 14.91H95.6556L93.3456 9.33C93.2556 9.15 93.0756 9 92.8356 9H89.4156C88.9656 9 88.7256 9.39 88.9056 9.78L93.4056 19.77ZM103.481 17.34C103.481 19.71 105.251 21.3 107.621 21.3C109.511 21.3 110.561 20.43 111.251 19.8L111.671 20.61C111.821 20.94 112.031 21 112.211 21H113.531C113.831 21 114.101 20.73 114.101 20.43V13.8C114.101 10.26 112.751 8.7 109.031 8.7C107.411 8.7 105.311 9.06 105.041 9.15C104.771 9.24 104.501 9.45 104.591 9.96L104.861 11.85C104.921 12.3 105.131 12.63 105.581 12.48C106.361 12.24 107.771 12.03 108.581 12.03C110.021 12.03 110.201 12.63 110.201 13.8C110.201 13.8 109.241 13.32 107.891 13.32C105.161 13.32 103.481 15.03 103.481 17.34ZM107.381 17.04C107.381 16.35 107.951 15.78 108.671 15.78C109.391 15.78 109.961 16.35 109.991 17.04C109.991 17.76 109.391 18.36 108.671 18.36C107.951 18.36 107.381 17.76 107.381 17.04ZM117.152 20.43C117.152 20.73 117.422 21 117.722 21H120.872C121.292 21 121.412 20.7 121.412 20.43V14.67C121.412 13.44 122.492 12.57 123.692 12.57C125.042 12.57 125.732 13.62 125.732 14.82V20.43C125.732 20.73 125.972 21 126.302 21H129.512C129.812 21 130.082 20.73 130.082 20.43V14.97C130.082 11.55 128.102 8.7 124.382 8.7C122.192 8.7 120.812 9.84 120.152 10.56L119.672 9.36C119.582 9.15 119.312 9 119.132 9H117.722C117.422 9 117.152 9.24 117.152 9.57V20.43ZM131.712 19.92C131.712 22.29 133.632 23.13 134.022 23.25V23.34C133.692 23.52 132.192 24.42 132.192 26.22C132.192 28.11 133.812 30.3 138.462 30.3C143.202 30.3 145.212 27.96 145.212 25.08C145.212 22.41 142.872 20.7 140.052 20.7H136.452C136.002 20.7 135.492 20.46 135.492 19.89C135.492 19.41 135.852 19.08 136.482 19.08H138.642C141.822 19.08 143.832 16.74 143.832 14.55C143.832 12.57 142.692 11.64 142.692 11.64L144.432 11.01C144.612 10.92 144.762 10.71 144.762 10.5V9.27C144.762 8.94 144.522 8.7 144.192 8.7H138.522C135.612 8.7 133.242 11.1 133.242 13.89C133.242 15.72 134.112 16.62 134.112 16.62C134.112 16.62 131.712 17.55 131.712 19.92ZM137.052 14.16C137.052 13.26 137.742 12.6 138.642 12.6C139.572 12.6 140.232 13.26 140.232 14.16C140.232 15.06 139.572 15.72 138.642 15.72C137.742 15.72 137.052 15.06 137.052 14.16ZM136.302 25.38C136.302 24.51 137.382 24.12 138.462 24.12C140.082 24.12 140.622 24.75 140.622 25.38C140.622 26.19 139.962 26.79 138.462 26.79C137.022 26.79 136.302 26.22 136.302 25.38ZM152.638 20.43C152.638 20.73 152.908 21 153.208 21H166.228C166.558 21 166.798 20.73 166.798 20.43V17.16C166.798 16.86 166.558 16.59 166.228 16.59H159.688V16.53L167.398 0.959999V0.569998C167.398 0.269999 167.128 -1.43051e-06 166.828 -1.43051e-06H154.078C153.778 -1.43051e-06 153.508 0.269999 153.508 0.569998V3.84C153.508 4.14 153.778 4.41 154.078 4.41H160.618V4.47L152.638 19.89V20.43ZM169.301 20.43C169.301 20.73 169.571 21 169.871 21H173.111C173.621 21 173.771 20.82 173.771 20.43V14.94C173.771 13.11 174.821 12.57 175.781 12.57C177.101 12.57 177.971 13.62 177.971 14.94V20.43C177.971 20.73 178.211 21 178.541 21H181.721C182.021 21 182.291 20.73 182.291 20.43V15C182.291 11.67 180.341 8.7 176.561 8.7C175.661 8.7 174.671 8.94 173.771 9.39V0.569998C173.771 0.269999 173.501 -1.43051e-06 173.201 -1.43051e-06H169.871C169.571 -1.43051e-06 169.301 0.269999 169.301 0.569998V20.43ZM184.399 17.34C184.399 19.71 186.169 21.3 188.539 21.3C190.429 21.3 191.479 20.43 192.169 19.8L192.589 20.61C192.739 20.94 192.949 21 193.129 21H194.449C194.749 21 195.019 20.73 195.019 20.43V13.8C195.019 10.26 193.669 8.7 189.949 8.7C188.329 8.7 186.229 9.06 185.959 9.15C185.689 9.24 185.419 9.45 185.509 9.96L185.779 11.85C185.839 12.3 186.049 12.63 186.499 12.48C187.279 12.24 188.689 12.03 189.499 12.03C190.939 12.03 191.119 12.63 191.119 13.8C191.119 13.8 190.159 13.32 188.809 13.32C186.079 13.32 184.399 15.03 184.399 17.34ZM188.299 17.04C188.299 16.35 188.869 15.78 189.589 15.78C190.309 15.78 190.879 16.35 190.909 17.04C190.909 17.76 190.309 18.36 189.589 18.36C188.869 18.36 188.299 17.76 188.299 17.04ZM198.07 20.43C198.07 20.73 198.34 21 198.64 21H201.79C202.21 21 202.33 20.7 202.33 20.43V14.67C202.33 13.44 203.41 12.57 204.61 12.57C205.96 12.57 206.65 13.62 206.65 14.82V20.43C206.65 20.73 206.89 21 207.22 21H210.43C210.73 21 211 20.73 211 20.43V14.97C211 11.55 209.02 8.7 205.3 8.7C203.11 8.7 201.73 9.84 201.07 10.56L200.59 9.36C200.5 9.15 200.23 9 200.05 9H198.64C198.34 9 198.07 9.24 198.07 9.57V20.43ZM212.63 19.92C212.63 22.29 214.55 23.13 214.94 23.25V23.34C214.61 23.52 213.11 24.42 213.11 26.22C213.11 28.11 214.73 30.3 219.38 30.3C224.12 30.3 226.13 27.96 226.13 25.08C226.13 22.41 223.79 20.7 220.97 20.7H217.37C216.92 20.7 216.41 20.46 216.41 19.89C216.41 19.41 216.77 19.08 217.4 19.08H219.56C222.74 19.08 224.75 16.74 224.75 14.55C224.75 12.57 223.61 11.64 223.61 11.64L225.35 11.01C225.53 10.92 225.68 10.71 225.68 10.5V9.27C225.68 8.94 225.44 8.7 225.11 8.7H219.44C216.53 8.7 214.16 11.1 214.16 13.89C214.16 15.72 215.03 16.62 215.03 16.62C215.03 16.62 212.63 17.55 212.63 19.92ZM217.97 14.16C217.97 13.26 218.66 12.6 219.56 12.6C220.49 12.6 221.15 13.26 221.15 14.16C221.15 15.06 220.49 15.72 219.56 15.72C218.66 15.72 217.97 15.06 217.97 14.16ZM217.22 25.38C217.22 24.51 218.3 24.12 219.38 24.12C221 24.12 221.54 24.75 221.54 25.38C221.54 26.19 220.88 26.79 219.38 26.79C217.94 26.79 217.22 26.22 217.22 25.38ZM0.960547 51.675C0.960547 51.85 1.11055 52 1.28555 52H1.73555C1.98555 52 2.13555 51.85 2.13555 51.675L2.16055 44.225H10.0855C10.4605 44.225 10.4105 43.775 10.4105 43.5C10.4105 43.325 10.2605 43.175 10.0855 43.175H2.16055V35.575H11.3105C11.4855 35.575 11.6355 35.425 11.6355 35.25V34.825C11.6355 34.65 11.4855 34.5 11.3105 34.5H1.28555C1.11055 34.5 0.960547 34.65 0.960547 34.825V51.675ZM13.7916 46.975C13.7916 49.9 15.9916 52.25 18.8166 52.25C21.6166 52.25 23.8416 49.9 23.8416 46.975C23.8416 44.125 21.6166 41.75 18.8166 41.75C15.9916 41.75 13.7916 44.125 13.7916 46.975ZM14.8666 46.975C14.8666 44.675 16.5916 42.8 18.8166 42.8C21.0166 42.8 22.7416 44.675 22.7416 46.975C22.7416 49.35 21.0166 51.225 18.8166 51.225C16.5916 51.225 14.8666 49.35 14.8666 46.975ZM26.7451 47.7C26.7451 50.525 27.9451 52.25 30.7451 52.25C32.7201 52.25 33.9201 51.075 34.1951 50.725L34.2951 51.7C34.3201 51.85 34.3951 52 34.5951 52H34.8951C35.0701 52 35.2201 51.85 35.2201 51.675V42.325C35.2201 42.15 35.0701 42 34.8951 42H34.4451C34.2451 42 34.1201 42.125 34.1201 42.325V49.45C34.0451 49.575 32.8951 51.2 30.8201 51.2C28.9201 51.2 27.8451 50.025 27.8451 47.7V42.325C27.8451 42.15 27.6951 42 27.5201 42H27.0701C26.8951 42 26.7451 42.15 26.7451 42.325V47.7ZM39.0289 51.675C39.0289 51.85 39.1289 52 39.3039 52H39.7789C40.0039 52 40.1039 51.875 40.1039 51.675V44.55C40.2039 44.425 41.6289 42.825 43.6789 42.825C45.5789 42.825 46.6539 44.025 46.6539 46.325V51.675C46.6539 51.85 46.8039 52 46.9789 52H47.4289C47.6039 52 47.7539 51.85 47.7539 51.675V46.325C47.7539 43.525 46.5289 41.75 43.7289 41.75C41.7289 41.75 40.3539 42.975 40.0289 43.325L39.9289 42.25C39.9039 42.1 39.8039 42 39.6289 42H39.3789C39.1789 42 39.0289 42.15 39.0289 42.325V51.675ZM50.6818 47C50.6818 49.925 52.7068 52.25 55.3068 52.25C57.2318 52.25 58.4568 51.125 58.7568 50.8L58.8318 51.675C58.8568 51.9 58.9818 52 59.1818 52H59.4318C59.6068 52 59.7568 51.85 59.7568 51.675V34.825C59.7568 34.65 59.6068 34.5 59.4568 34.5H59.0068C58.8068 34.5 58.6818 34.65 58.6818 34.825V42.75C58.6818 42.75 57.5068 41.75 55.6068 41.75C52.7568 41.75 50.6818 44.05 50.6818 47ZM51.7818 47C51.7818 44.625 53.4068 42.825 55.7068 42.825C57.5318 42.825 58.6818 43.875 58.6818 43.875V49.475C58.6318 49.575 57.5568 51.25 55.3818 51.25C53.2818 51.25 51.7818 49.325 51.7818 47ZM62.84 46.975C62.84 49.9 64.715 52.25 67.765 52.25C69.315 52.25 70.89 51.575 71.39 51.075C71.54 50.925 71.565 50.775 71.49 50.675L71.24 50.325C71.115 50.15 71.015 50.175 70.79 50.325C70.19 50.725 69.165 51.25 67.84 51.25C65.59 51.25 64.04 49.45 63.94 47.3H71.915C72.29 47.3 72.29 46.725 72.29 46.325C72.29 43.675 70.39 41.75 67.765 41.75C64.715 41.75 62.84 44.125 62.84 46.975ZM63.965 46.4C64.09 44.35 65.565 42.75 67.765 42.75C70.015 42.75 71.19 44.45 71.19 46.4H63.965ZM75.235 51.675C75.235 51.85 75.335 52 75.51 52H76.01C76.235 52 76.335 51.875 76.335 51.675V44.55C76.41 44.4 77.36 42.825 79.31 42.825C79.985 42.825 80.485 43.075 80.61 43.125C80.785 43.2 80.935 43.175 81.01 43L81.21 42.5C81.285 42.3 81.16 42.125 80.935 42.05C80.735 41.975 80.185 41.75 79.385 41.75C77.51 41.75 76.51 42.95 76.26 43.3L76.16 42.275C76.135 42.1 76.01 42 75.86 42H75.56C75.385 42 75.235 42.15 75.235 42.325V51.675ZM88.0104 46.975C88.0104 49.9 90.2104 52.25 93.0354 52.25C95.8354 52.25 98.0604 49.9 98.0604 46.975C98.0604 44.125 95.8354 41.75 93.0354 41.75C90.2104 41.75 88.0104 44.125 88.0104 46.975ZM89.0854 46.975C89.0854 44.675 90.8104 42.8 93.0354 42.8C95.2354 42.8 96.9604 44.675 96.9604 46.975C96.9604 49.35 95.2354 51.225 93.0354 51.225C90.8104 51.225 89.0854 49.35 89.0854 46.975ZM101.739 51.675C101.739 51.85 101.889 52 102.064 52H102.514C102.689 52 102.839 51.85 102.839 51.675V42.975H106.539C106.764 42.975 106.864 42.85 106.864 42.675V42.3C106.864 42.125 106.739 42 106.539 42H102.839V38.575C102.839 36.275 103.939 35.25 105.514 35.25C106.439 35.25 107.314 35.75 107.689 36.1C107.839 36.25 108.014 36.225 108.114 36.075L108.364 35.725C108.439 35.625 108.439 35.475 108.314 35.325C107.939 34.85 106.789 34.25 105.514 34.25C103.339 34.25 101.739 35.625 101.739 38.575V42H100.239C100.064 42 99.9139 42.15 99.9139 42.325V42.65C99.9139 42.8 100.014 42.975 100.239 42.975H101.739V51.675ZM115.121 51.675C115.121 51.85 115.271 52 115.446 52H115.896C116.146 52 116.296 51.85 116.296 51.675V45.25H120.896C121.221 45.25 121.496 45.25 121.821 45.225L125.446 51.775C125.521 51.925 125.621 52 125.796 52H126.571C126.821 52 126.871 51.75 126.746 51.55L123.096 45.075C125.471 44.4 127.221 42.375 127.221 39.85C127.221 36.8 124.696 34.5 121.646 34.5H115.446C115.246 34.5 115.121 34.65 115.121 34.825V51.675ZM116.321 44.2V35.65H121.571C123.996 35.65 126.021 37.475 126.021 39.85C126.021 42.325 123.996 44.2 121.596 44.2H116.321ZM129.905 46.975C129.905 49.9 131.78 52.25 134.83 52.25C136.38 52.25 137.955 51.575 138.455 51.075C138.605 50.925 138.63 50.775 138.555 50.675L138.305 50.325C138.18 50.15 138.08 50.175 137.855 50.325C137.255 50.725 136.23 51.25 134.905 51.25C132.655 51.25 131.105 49.45 131.005 47.3H138.98C139.355 47.3 139.355 46.725 139.355 46.325C139.355 43.675 137.455 41.75 134.83 41.75C131.78 41.75 129.905 44.125 129.905 46.975ZM131.03 46.4C131.155 44.35 132.63 42.75 134.83 42.75C137.08 42.75 138.255 44.45 138.255 46.4H131.03ZM142.3 51.675C142.3 51.85 142.4 52 142.575 52H143.05C143.275 52 143.375 51.875 143.375 51.675V44.55C143.475 44.425 144.9 42.825 146.95 42.825C148.85 42.825 149.925 44.025 149.925 46.325V51.675C149.925 51.85 150.075 52 150.25 52H150.7C150.875 52 151.025 51.85 151.025 51.675V46.325C151.025 43.525 149.8 41.75 147 41.75C145 41.75 143.625 42.975 143.3 43.325L143.2 42.25C143.175 42.1 143.075 42 142.9 42H142.65C142.45 42 142.3 42.15 142.3 42.325V51.675ZM160.848 51.675C160.848 51.85 160.998 52 161.173 52H161.623C161.873 52 162.023 51.85 162.023 51.675V45.775H166.573C169.648 45.775 172.198 43.225 172.198 40.1C172.198 37.025 169.648 34.5 166.548 34.5H161.173C160.998 34.5 160.848 34.65 160.848 34.825V51.675ZM162.023 44.625V35.675H166.473C168.948 35.675 171.023 37.625 171.023 40.075C171.023 42.6 168.948 44.625 166.498 44.625H162.023ZM174.454 51.675C174.454 51.85 174.554 52 174.729 52H175.229C175.454 52 175.554 51.875 175.554 51.675V44.55C175.629 44.4 176.579 42.825 178.529 42.825C179.204 42.825 179.704 43.075 179.829 43.125C180.004 43.2 180.154 43.175 180.229 43L180.429 42.5C180.504 42.3 180.379 42.125 180.154 42.05C179.954 41.975 179.404 41.75 178.604 41.75C176.729 41.75 175.729 42.95 175.479 43.3L175.379 42.275C175.354 42.1 175.229 42 175.079 42H174.779C174.604 42 174.454 42.15 174.454 42.325V51.675ZM181.736 46.975C181.736 49.9 183.936 52.25 186.761 52.25C189.561 52.25 191.786 49.9 191.786 46.975C191.786 44.125 189.561 41.75 186.761 41.75C183.936 41.75 181.736 44.125 181.736 46.975ZM182.811 46.975C182.811 44.675 184.536 42.8 186.761 42.8C188.961 42.8 190.686 44.675 190.686 46.975C190.686 49.35 188.961 51.225 186.761 51.225C184.536 51.225 182.811 49.35 182.811 46.975ZM195.264 49.425C195.264 51.025 195.439 52.25 197.514 52.25C198.939 52.25 200.039 51.625 200.414 51.325C200.564 51.225 200.589 51.075 200.489 50.9L200.314 50.6C200.239 50.475 200.139 50.375 199.914 50.5C199.589 50.7 198.514 51.175 197.639 51.175C196.464 51.175 196.339 50.525 196.339 49.35V42.975H199.814C200.014 42.975 200.139 42.85 200.139 42.65V42.325C200.139 42.15 200.014 42 199.814 42H196.339V39.25C196.339 39.075 196.189 38.925 196.014 38.925L195.589 38.95C195.414 38.95 195.264 39.075 195.264 39.275V42H194.089C193.914 42 193.789 42.075 193.789 42.25V42.65C193.789 42.85 193.839 42.975 194.089 42.975H195.264V49.425ZM202.317 46.975C202.317 49.9 204.517 52.25 207.342 52.25C210.142 52.25 212.367 49.9 212.367 46.975C212.367 44.125 210.142 41.75 207.342 41.75C204.517 41.75 202.317 44.125 202.317 46.975ZM203.392 46.975C203.392 44.675 205.117 42.8 207.342 42.8C209.542 42.8 211.267 44.675 211.267 46.975C211.267 49.35 209.542 51.225 207.342 51.225C205.117 51.225 203.392 49.35 203.392 46.975ZM214.671 47C214.671 50.025 217.096 52.25 219.921 52.25C221.996 52.25 223.471 50.925 223.846 50.325C223.946 50.175 223.896 50.05 223.771 49.925L223.496 49.675C223.346 49.525 223.196 49.525 223.021 49.725C222.746 50.025 221.771 51.2 219.896 51.2C217.671 51.2 215.796 49.4 215.796 46.975C215.796 44.6 217.646 42.825 219.921 42.825C221.496 42.825 222.546 43.7 222.796 43.975C222.946 44.125 223.146 44.2 223.321 44.025L223.571 43.775C223.721 43.65 223.746 43.475 223.621 43.325C223.171 42.75 221.871 41.75 219.921 41.75C217.096 41.75 214.671 44 214.671 47ZM226.145 46.975C226.145 49.9 228.345 52.25 231.17 52.25C233.97 52.25 236.195 49.9 236.195 46.975C236.195 44.125 233.97 41.75 231.17 41.75C228.345 41.75 226.145 44.125 226.145 46.975ZM227.22 46.975C227.22 44.675 228.945 42.8 231.17 42.8C233.37 42.8 235.095 44.675 235.095 46.975C235.095 49.35 233.37 51.225 231.17 51.225C228.945 51.225 227.22 49.35 227.22 46.975ZM239.249 51.675C239.249 51.85 239.349 52 239.524 52H240.024C240.249 52 240.349 51.875 240.349 51.675V34.825C240.349 34.65 240.199 34.5 240.024 34.5H239.574C239.399 34.5 239.249 34.65 239.249 34.825V51.675ZM248.776 48.925C248.776 50.975 250.201 52.25 252.051 52.25C253.651 52.25 254.876 51.425 255.526 50.825L255.626 51.725C255.676 51.9 255.751 52 255.926 52H256.226C256.401 52 256.551 51.85 256.551 51.675V46.125C256.551 43.575 256.426 41.75 253.376 41.75C251.301 41.75 250.026 42.45 249.951 42.5C249.826 42.55 249.726 42.65 249.801 42.875L249.926 43.175C249.976 43.35 250.101 43.45 250.301 43.375C250.526 43.3 251.651 42.7 253.301 42.7C255.276 42.7 255.501 43.8 255.501 46C255.226 45.9 254.126 45.55 252.976 45.55C250.351 45.55 248.776 47 248.776 48.925ZM249.801 48.9C249.801 47.425 251.076 46.45 252.976 46.45C254.176 46.45 255.176 46.825 255.501 46.975V49.725C255.026 50.35 253.701 51.275 252.176 51.275C250.801 51.275 249.801 50.35 249.801 48.9ZM260.245 51.675C260.245 51.85 260.345 52 260.52 52H260.995C261.22 52 261.32 51.875 261.32 51.675V44.55C261.42 44.425 262.845 42.825 264.895 42.825C266.795 42.825 267.87 44.025 267.87 46.325V51.675C267.87 51.85 268.02 52 268.195 52H268.645C268.82 52 268.97 51.85 268.97 51.675V46.325C268.97 43.525 267.745 41.75 264.945 41.75C262.945 41.75 261.57 42.975 261.245 43.325L261.145 42.25C261.12 42.1 261.02 42 260.845 42H260.595C260.395 42 260.245 42.15 260.245 42.325V51.675ZM271.898 47C271.898 49.925 273.923 52.25 276.523 52.25C278.448 52.25 279.673 51.125 279.973 50.8L280.048 51.675C280.073 51.9 280.198 52 280.398 52H280.648C280.823 52 280.973 51.85 280.973 51.675V34.825C280.973 34.65 280.823 34.5 280.673 34.5H280.223C280.023 34.5 279.898 34.65 279.898 34.825V42.75C279.898 42.75 278.723 41.75 276.823 41.75C273.973 41.75 271.898 44.05 271.898 47ZM272.998 47C272.998 44.625 274.623 42.825 276.923 42.825C278.748 42.825 279.898 43.875 279.898 43.875V49.475C279.848 49.575 278.773 51.25 276.598 51.25C274.498 51.25 272.998 49.325 272.998 47ZM81.0997 76.675C81.0997 76.875 81.2247 77 81.4247 77H81.9247C82.1247 77 82.2997 76.925 82.2997 76.675V68.45L90.8497 76.75C91.0497 76.95 91.1747 77 91.3997 77H92.1997C92.5247 77 92.5747 76.7 92.4247 76.575L83.4497 68L92.1497 59.925C92.2997 59.775 92.2747 59.5 91.9997 59.5H91.2997C91.0747 59.5 90.9997 59.5 90.7997 59.675L82.2997 67.6V59.875C82.2997 59.65 82.1497 59.5 81.9247 59.5H81.4747C81.2497 59.5 81.0997 59.65 81.0997 59.875V76.675ZM93.4919 71.975C93.4919 74.9 95.3669 77.25 98.4169 77.25C99.9669 77.25 101.542 76.575 102.042 76.075C102.192 75.925 102.217 75.775 102.142 75.675L101.892 75.325C101.767 75.15 101.667 75.175 101.442 75.325C100.842 75.725 99.8169 76.25 98.4919 76.25C96.2419 76.25 94.6919 74.45 94.5919 72.3H102.567C102.942 72.3 102.942 71.725 102.942 71.325C102.942 68.675 101.042 66.75 98.4169 66.75C95.3669 66.75 93.4919 69.125 93.4919 71.975ZM94.6169 71.4C94.7419 69.35 96.2169 67.75 98.4169 67.75C100.667 67.75 101.842 69.45 101.842 71.4H94.6169ZM105.162 71.975C105.162 74.9 107.037 77.25 110.087 77.25C111.637 77.25 113.212 76.575 113.712 76.075C113.862 75.925 113.887 75.775 113.812 75.675L113.562 75.325C113.437 75.15 113.337 75.175 113.112 75.325C112.512 75.725 111.487 76.25 110.162 76.25C107.912 76.25 106.362 74.45 106.262 72.3H114.237C114.612 72.3 114.612 71.725 114.612 71.325C114.612 68.675 112.712 66.75 110.087 66.75C107.037 66.75 105.162 69.125 105.162 71.975ZM106.287 71.4C106.412 69.35 107.887 67.75 110.087 67.75C112.337 67.75 113.512 69.45 113.512 71.4H106.287ZM118.632 76.225C118.907 76.475 119.957 77.25 121.607 77.25C124.557 77.25 126.657 74.95 126.657 72C126.657 69.075 124.607 66.75 121.832 66.75C120.007 66.75 118.857 67.7 118.557 67.95L118.482 67.25C118.457 67.075 118.357 67 118.182 67H117.907C117.732 67 117.557 67.125 117.557 67.325V84.175C117.557 84.35 117.707 84.5 117.882 84.5H118.307C118.482 84.5 118.632 84.35 118.632 84.175V76.225ZM118.657 75.025V69.175C118.732 69.05 119.807 67.775 121.757 67.775C124.032 67.775 125.557 69.65 125.557 71.975C125.557 74.35 123.907 76.2 121.482 76.2C119.782 76.2 118.707 75.125 118.657 75.025ZM129.014 71.975C129.014 74.9 130.889 77.25 133.939 77.25C135.489 77.25 137.064 76.575 137.564 76.075C137.714 75.925 137.739 75.775 137.664 75.675L137.414 75.325C137.289 75.15 137.189 75.175 136.964 75.325C136.364 75.725 135.339 76.25 134.014 76.25C131.764 76.25 130.214 74.45 130.114 72.3H138.089C138.464 72.3 138.464 71.725 138.464 71.325C138.464 68.675 136.564 66.75 133.939 66.75C130.889 66.75 129.014 69.125 129.014 71.975ZM130.139 71.4C130.264 69.35 131.739 67.75 133.939 67.75C136.189 67.75 137.364 69.45 137.364 71.4H130.139ZM141.409 76.675C141.409 76.85 141.509 77 141.684 77H142.184C142.409 77 142.509 76.875 142.509 76.675V69.55C142.584 69.4 143.534 67.825 145.484 67.825C146.159 67.825 146.659 68.075 146.784 68.125C146.959 68.2 147.109 68.175 147.184 68L147.384 67.5C147.459 67.3 147.334 67.125 147.109 67.05C146.909 66.975 146.359 66.75 145.559 66.75C143.684 66.75 142.684 67.95 142.434 68.3L142.334 67.275C142.309 67.1 142.184 67 142.034 67H141.734C141.559 67 141.409 67.15 141.409 67.325V76.675ZM149.947 76.675C149.947 76.85 150.097 77 150.247 77H155.547C160.397 77 164.347 73.1 164.347 68.225C164.347 63.425 160.397 59.5 155.547 59.5H150.247C150.097 59.5 149.947 59.65 149.947 59.825V76.675ZM151.122 75.925V60.575H155.347C159.722 60.575 163.097 63.9 163.097 68.225C163.097 72.6 159.722 75.925 155.347 75.925H151.122ZM165.982 77H166.682C166.857 77 166.982 76.875 167.032 76.775L169.032 72.175H178.582L180.607 76.775C180.657 76.875 180.782 77 180.957 77H181.607C181.882 77 181.882 76.85 181.832 76.7L174.207 59.3C174.132 59.15 174.007 59.125 173.882 59.125H173.807C173.682 59.125 173.557 59.2 173.507 59.3L165.807 76.7C165.732 76.9 165.807 77 165.982 77ZM169.482 71.2L173.832 61.125H173.882L178.157 71.2H169.482ZM183.317 68.275C183.317 73.3 187.317 77.25 192.317 77.25C197.342 77.25 201.342 73.3 201.342 68.275C201.342 63.275 197.342 59.25 192.317 59.25C187.317 59.25 183.317 63.275 183.317 68.275ZM184.417 68.275C184.417 63.9 187.942 60.35 192.317 60.35C196.692 60.35 200.242 63.9 200.242 68.275C200.242 72.65 196.692 76.15 192.317 76.15C187.942 76.15 184.417 72.65 184.417 68.275Z" fill="white"/>
</svg>
