<svg width="375" height="62" viewBox="0 0 375 62" fill="none" xmlns="http://www.w3.org/2000/svg">
<path d="M45.6786 8.17902C54.2077 14.5973 55.9361 26.6943 49.5451 35.2065C43.154 43.7187 31.0542 45.4029 22.5252 38.9846C18.1128 35.673 17.2258 29.4027 20.5466 24.9873C21.5359 23.6672 22.7982 22.6657 24.1855 21.9943C14.6672 26.3187 10.2776 37.4598 14.3829 47.1099C18.545 56.9082 29.8829 61.4487 39.7082 57.2722C44.1662 55.3719 48.2145 52.3106 51.3419 48.1569C60.8035 35.5479 58.2787 17.6586 45.6786 8.17902Z" fill="url(#paint0_linear)"/>
<path d="M45.6787 8.17941C41.8123 5.25475 37.1383 3.28601 31.9756 2.66012C30.2811 2.45527 28.6094 2.39836 26.9718 2.48941C30.2356 3.58189 33.613 5.12956 36.2059 7.7242C44.6098 16.134 43.9275 32.5895 34.4318 39.0533C32.4531 40.51 29.94 41.2382 27.3244 40.9197C25.6868 40.7148 24.1857 40.1344 22.912 39.2581C31.4183 45.3465 43.2451 43.5826 49.5453 35.2069C55.9477 26.6946 54.2079 14.5977 45.6787 8.17941Z" fill="url(#paint1_linear)"/>
<path d="M14.3824 47.1099C10.368 37.6645 14.4847 26.7737 23.6051 22.2673C27.21 20.1166 32.3046 20.1621 37.0808 22.3812C34.4994 16.2018 28.7793 11.5474 21.6605 10.6825C11.1072 9.39656 1.49788 16.9415 0.21284 27.5476C-0.378504 32.3614 0.246957 37.3914 2.28254 42.1824C8.45754 56.6918 25.2085 63.44 39.7078 57.2608C29.8937 61.4485 18.5558 56.8966 14.3824 47.1099Z" fill="url(#paint2_linear)"/>
<path d="M181.792 14.6842H146.44V18.5799H181.792V14.6842Z" fill="black"/>
<path d="M151.109 43.42V32.7068H174.664V28.811H153.41C149.556 28.811 146.44 31.9296 146.44 35.786V47.3158H182.056V43.42H151.109Z" fill="black"/>
<path d="M374.268 14.6842H338.917V18.5799H374.268V14.6842Z" fill="#FD203C"/>
<path d="M343.587 43.42V32.7068H367.141V28.811H345.887C342.034 28.811 338.917 31.9296 338.917 35.786V47.3158H374.534V43.42H343.587Z" fill="#FD203C"/>
<path d="M237.109 14.6842H201.276V18.5799H237.109V14.6842Z" fill="#FD203C"/>
<path d="M229.51 28.811H208.257C204.403 28.811 201.287 31.9296 201.287 35.786V47.3158H205.957V32.7068H229.51V28.811Z" fill="#FD203C"/>
<path d="M259.72 14.6842H255.051V47.3158H259.72V14.6842Z" fill="#FD203C"/>
<path d="M317.938 22.7904V22.7706C317.938 18.3044 314.163 14.694 308.962 14.694H281.78V18.5897H307.802C311.39 18.5897 313.268 20.6654 313.268 23.4889V23.6954C313.268 26.9715 310.86 28.8111 307.547 28.8111H291.867H286.459H283.982H281.79V47.3156H286.459V32.7068H291.867H304.854H306.396C309.926 32.7068 312.786 34.9399 312.786 39.1013V47.3156H317.455V39.9079C317.455 34.753 315.166 31.8804 309.641 31.8804L309.611 30.1096C314.467 30.1096 317.938 27.1878 317.938 22.7904Z" fill="#FD203C"/>
<path d="M112.091 14.6842H104.148H88.045V47.3158H104.148H112.091C121.086 47.3158 126.611 40.0163 126.611 31.0049C126.611 21.9935 121.086 14.6842 112.091 14.6842ZM111.265 43.4201H104.148H92.7146V18.5799H104.148H111.265C118.786 18.5799 122.03 24.1382 122.03 30.9951C122.03 37.852 118.481 43.4201 111.265 43.4201Z" fill="black"/>
<defs>
<linearGradient id="paint0_linear" x1="54.2904" y1="28.6135" x2="5.60602" y2="40.6016" gradientUnits="userSpaceOnUse">
<stop stop-color="#FE273B"/>
<stop offset="0.502869" stop-color="#AD1A28"/>
<stop offset="1" stop-color="#420D12"/>
</linearGradient>
<linearGradient id="paint1_linear" x1="16.9115" y1="32.6678" x2="49.5882" y2="12.7657" gradientUnits="userSpaceOnUse">
<stop stop-color="#FE273B"/>
<stop offset="1" stop-color="#520E15"/>
</linearGradient>
<linearGradient id="paint2_linear" x1="42.3187" y1="60.843" x2="5.36294" y2="14.6808" gradientUnits="userSpaceOnUse">
<stop stop-color="#FE273B"/>
<stop offset="0.645833" stop-color="#FE273B"/>
<stop offset="1" stop-color="#540F15"/>
</linearGradient>
</defs>
</svg>
