<svg width="26" height="25" viewBox="0 0 26 25" fill="none" xmlns="http://www.w3.org/2000/svg">
<path d="M12.5312 0C5.62917 0 0.03125 5.73837 0.03125 12.816C0.03125 18.4785 3.6125 23.2824 8.58021 24.9773C9.20417 25.0959 9.40625 24.6986 9.40625 24.3611V21.9752C5.92917 22.7505 5.20521 20.4629 5.20521 20.4629C4.63646 18.9816 3.81667 18.5875 3.81667 18.5875C2.68229 17.7918 3.90312 17.8089 3.90312 17.8089C5.15833 17.8986 5.81875 19.13 5.81875 19.13C6.93333 21.0887 8.74271 20.5227 9.45625 20.1948C9.56771 19.3671 9.89167 18.8011 10.25 18.4817C7.47396 18.156 4.55521 17.057 4.55521 12.1474C4.55521 10.7473 5.04375 9.60453 5.84271 8.70741C5.71354 8.3838 5.28542 7.07977 5.96458 5.31544C5.96458 5.31544 7.01458 4.97154 9.40312 6.62908C10.4 6.34499 11.4688 6.20295 12.5312 6.19761C13.5938 6.20295 14.6635 6.34499 15.6625 6.62908C18.049 4.97154 19.0969 5.31544 19.0969 5.31544C19.7771 7.08084 19.349 8.38487 19.2198 8.70741C20.0219 9.60453 20.5062 10.7484 20.5062 12.1474C20.5062 17.0698 17.5823 18.1539 14.799 18.4711C15.2469 18.8684 15.6562 19.648 15.6562 20.8442V24.3611C15.6562 24.7018 15.8562 25.1023 16.4906 24.9763C21.4542 23.2792 25.0312 18.4764 25.0312 12.816C25.0312 5.73837 19.4344 0 12.5312 0Z" fill="#F5FCFE"/>
</svg>
