<svg width="27" height="20" viewBox="0 0 27 20" fill="none" xmlns="http://www.w3.org/2000/svg">
<path d="M26.035 3.55875C25.7884 2.19755 24.6133 1.20627 23.2497 0.896794C21.2091 0.464015 17.4326 0.154541 13.3466 0.154541C9.26295 0.154541 5.42597 0.464015 3.38296 0.896794C2.02176 1.20627 0.844304 2.13469 0.597692 3.55875C0.348663 5.10612 0.102051 7.27244 0.102051 10.0577C0.102051 12.843 0.348663 15.0093 0.658137 16.5566C0.907166 17.9178 2.0822 18.9091 3.4434 19.2186C5.60972 19.6514 9.3234 19.9609 13.4094 19.9609C17.4954 19.9609 21.2091 19.6514 23.3754 19.2186C24.7366 18.9091 25.9117 17.9807 26.1607 16.5566C26.4073 15.0093 26.7168 12.7801 26.7796 10.0577C26.6539 7.27244 26.3444 5.10612 26.035 3.55875ZM10.0052 14.3903V5.72507L17.5559 10.0577L10.0052 14.3903Z" fill="#F5FCFE"/>
</svg>
