<svg width="57" height="54" viewBox="0 0 57 54" fill="none" xmlns="http://www.w3.org/2000/svg">
<path opacity="0.8" fill-rule="evenodd" clip-rule="evenodd" d="M11.1315 43.0608C15.6968 47.4245 21.8887 49.876 28.345 49.876C34.8013 49.876 40.9931 47.4245 45.5584 43.0608C50.1237 38.6971 52.6884 32.7786 52.6884 26.6074C52.6884 20.4362 50.1237 14.5178 45.5584 10.1541C40.9931 5.79037 34.8013 3.33887 28.345 3.33887C21.8887 3.33887 15.6968 5.79037 11.1315 10.1541C6.56626 14.5178 4.00151 20.4362 4.00151 26.6074C4.00151 32.7786 6.56626 38.6971 11.1315 43.0608ZM48.0175 7.80359C53.2349 12.7907 56.1661 19.5546 56.1661 26.6074C56.1661 33.6602 53.2349 40.4242 48.0175 45.4113C42.8 50.3983 35.7236 53.2001 28.345 53.2001C20.9664 53.2001 13.89 50.3983 8.67248 45.4113C3.45502 40.4242 0.523875 33.6602 0.523875 26.6074C0.523875 19.5546 3.45502 12.7907 8.67248 7.80359C13.89 2.8165 20.9664 0.0147872 28.345 0.0147875C35.7236 0.0147849 42.8 2.8165 48.0175 7.80359ZM16.0497 24.9433C15.5879 24.9433 15.1451 25.1186 14.8186 25.4307C14.4921 25.7428 14.3087 26.1661 14.3087 26.6074C14.3087 27.0488 14.4921 27.4721 14.8186 27.7841C15.1451 28.0962 15.5879 28.2716 16.0497 28.2716L36.1967 28.2692L29.3901 34.7753C29.064 35.087 28.8808 35.5098 28.8808 35.9506C28.8808 36.3914 29.064 36.8141 29.3901 37.1258C29.7162 37.4375 30.1584 37.6126 30.6196 37.6126C31.0808 37.6126 31.523 37.4375 31.8491 37.1258L41.6239 27.7827C41.95 27.471 42.1332 27.0482 42.1332 26.6074C42.1332 26.1666 41.95 25.7439 41.6239 25.4322L31.8491 16.089C31.523 15.7773 31.0808 15.6022 30.6196 15.6022C30.1584 15.6022 29.7162 15.7773 29.3901 16.089C29.064 16.4007 28.8808 16.8235 28.8808 17.2643C28.8808 17.7051 29.064 18.1278 29.3901 18.4395L36.1967 24.9456L16.0497 24.9433Z" fill="#FBFFFF"/>
</svg>
