<svg width="15" height="16" viewBox="0 0 15 16" fill="none" xmlns="http://www.w3.org/2000/svg">
  <path
    d="M5.32879 5.5894C5.44337 5.29532 5.60308 5.0412 5.80824 4.8259C6.0141 4.60956 6.26235 4.44188 6.55298 4.32174C6.84323 4.2002 7.16789 4.14014 7.5272 4.14014C7.9907 4.14014 8.37746 4.20365 8.68788 4.33144C8.99792 4.45886 9.24757 4.61754 9.43716 4.80643C9.62636 4.99601 9.76213 5.20015 9.84371 5.4182C9.92497 5.63728 9.96595 5.8418 9.96595 6.03068C9.96595 6.34353 9.92497 6.6018 9.84371 6.80421C9.76213 7.00662 9.66076 7.17955 9.53993 7.32324C9.41877 7.46699 9.28542 7.58955 9.13822 7.6906C8.99173 7.79196 8.85283 7.89301 8.72229 7.99438C8.59175 8.09543 8.47576 8.21103 8.37472 8.34157C8.27335 8.47179 8.20945 8.63526 8.18379 8.83078V9.20299H6.86168V8.76203C6.88115 8.48149 6.93528 8.24677 7.02311 8.05757C7.11133 7.86837 7.21404 7.70655 7.33143 7.57257C7.44913 7.43922 7.5731 7.32292 7.70396 7.225C7.83418 7.12676 7.95463 7.02884 8.06608 6.93194C8.17651 6.83332 8.26677 6.72608 8.33552 6.60837C8.40389 6.49136 8.43485 6.34346 8.42821 6.16741C8.42821 5.86708 8.35493 5.64526 8.20773 5.50182C8.06123 5.35775 7.85709 5.2862 7.59563 5.2862C7.41958 5.2862 7.26791 5.32022 7.14044 5.38865C7.01296 5.45708 6.90885 5.54906 6.82695 5.66326C6.74537 5.77784 6.68492 5.91182 6.64605 6.06464C6.60679 6.2188 6.58739 6.38266 6.58739 6.55973H5.14795C5.15414 6.20635 5.21421 5.8838 5.32879 5.5894ZM8.26192 9.79077V11.2982H6.72418V9.79077H8.26192Z"
    fill="#FBFFFF" />
  <rect x="0.75" y="1.25" width="13.5" height="13.5" rx="6.75" stroke="#FBFFFF" stroke-width="1.5" />
</svg>