<svg width="26" height="21" viewBox="0 0 26 21" fill="none" xmlns="http://www.w3.org/2000/svg">
<path fill-rule="evenodd" clip-rule="evenodd" d="M3.04507 4.58166C3.07656 4.272 2.95795 3.96654 2.72701 3.75869L0.375677 0.924495V0.501465H7.67951L13.3248 12.8827L18.2878 0.501465H25.2505V0.924495L23.2393 2.8528C23.0661 2.98506 22.98 3.20235 23.0157 3.41754V17.5864C22.98 17.8006 23.0661 18.0179 23.2393 18.1501L25.2033 20.0784V20.5015H15.3235V20.0784L17.3588 18.1029C17.5583 17.9034 17.5583 17.8447 17.5583 17.5392V6.08694L11.9014 20.4553H11.1372L4.55035 6.08694V15.7169C4.49576 16.1211 4.63013 16.5294 4.9146 16.8212L7.5609 20.0312V20.4553H0.0576172V20.0312L2.70392 16.8212C2.98734 16.5283 3.1133 16.1179 3.04507 15.7169V4.58166Z" fill="#F5FCFE"/>
</svg>
