<svg width="30" height="31" viewBox="0 0 30 31" fill="none" xmlns="http://www.w3.org/2000/svg">
<path d="M22.5751 0.230698C22.5555 0.217515 22.5352 0.206147 22.5152 0.194252C22.4971 0.183529 22.4794 0.172162 22.4607 0.162084C22.4401 0.151068 22.4189 0.141692 22.398 0.13179C22.3787 0.122708 22.3597 0.113039 22.3399 0.104778C22.3194 0.0963398 22.2984 0.0894842 22.2775 0.0820426C22.2564 0.0744252 22.2356 0.0663391 22.214 0.0597764C22.1929 0.0535068 22.1715 0.0487605 22.1502 0.0433112C22.1284 0.0378618 22.1068 0.031768 22.0846 0.0273147C22.0598 0.0223341 22.0348 0.0194044 22.0098 0.0159473C21.9907 0.0131933 21.972 0.0095604 21.9527 0.00756816C21.8631 -0.00122111 21.7728 -0.00122111 21.6832 0.00756815C21.6639 0.00956038 21.6452 0.0131347 21.6261 0.0159473C21.6011 0.0194044 21.5761 0.0223341 21.5513 0.0273147C21.529 0.0317679 21.5075 0.0378618 21.4857 0.0433112C21.4644 0.0487605 21.443 0.0533895 21.4219 0.0597764C21.4003 0.066339 21.3795 0.0744252 21.3584 0.0820425C21.3376 0.0894841 21.3166 0.0963398 21.296 0.104777C21.2762 0.113039 21.2571 0.122708 21.2379 0.13179C21.2169 0.141692 21.1957 0.151068 21.1752 0.162083C21.1565 0.172103 21.1389 0.183471 21.1207 0.194252C21.1006 0.206264 21.0804 0.217632 21.0608 0.230698C21.0406 0.244175 21.0214 0.259234 21.002 0.274059C20.986 0.286071 20.9695 0.297145 20.9538 0.309978C20.919 0.338631 20.8854 0.36869 20.8536 0.400624L14.0353 7.21869C13.769 7.48495 13.6359 7.834 13.6359 8.18299C13.6359 8.53199 13.769 8.88104 14.0353 9.14718C14.5678 9.67975 15.4313 9.67975 15.9638 9.14718L20.4542 4.6568L20.4542 28.638C20.4542 29.3912 21.0648 30.0017 21.8179 30.0017C22.571 30.0017 23.1816 29.3912 23.1816 28.638L23.1816 4.6568L27.6721 9.14718C28.2045 9.67975 29.068 9.67975 29.6006 9.14718C30.1331 8.61472 30.1331 7.75121 29.6006 7.2187L22.7824 0.400624C22.7506 0.36869 22.717 0.338513 22.6821 0.309978C22.6665 0.297087 22.65 0.285954 22.634 0.274059C22.6146 0.259351 22.5953 0.244234 22.5751 0.230698Z" fill="#FBFFFF"/>
<path d="M8.37438 29.9856C8.3994 29.9822 8.42436 29.9793 8.4492 29.9743C8.47147 29.9698 8.49303 29.9637 8.51483 29.9583C8.5361 29.9528 8.55749 29.9482 8.57858 29.9418C8.60014 29.9353 8.62094 29.9272 8.64204 29.9195C8.66284 29.9121 8.68388 29.9053 8.70438 29.8968C8.72419 29.8886 8.74323 29.8789 8.76245 29.8698C8.78343 29.8599 8.80464 29.8505 8.82521 29.8395C8.84384 29.8295 8.86148 29.8181 8.87964 29.8073C8.89974 29.7953 8.92001 29.784 8.93953 29.7709C8.9598 29.7574 8.97896 29.7424 8.99842 29.7275C9.01441 29.7155 9.03088 29.7044 9.04652 29.6916C9.08133 29.663 9.11496 29.6328 9.14678 29.6009L15.965 22.7828C16.4975 22.2504 16.4975 21.3869 15.965 20.8544C15.4325 20.3218 14.569 20.3218 14.0365 20.8544L9.54628 25.3449L9.54628 1.36368C9.54622 0.610561 8.93566 -3.2472e-07 8.1826 -3.57638e-07C7.42947 -3.90558e-07 6.81891 0.610561 6.81891 1.36368L6.81891 25.3449L2.32841 20.8544C1.79596 20.3218 0.932447 20.3218 0.399934 20.8544C0.133678 21.1207 0.000550285 21.4697 0.00055027 21.8187C0.000550255 22.1677 0.133618 22.5168 0.399993 22.7829L7.21806 29.601C7.24988 29.6329 7.28345 29.6631 7.31832 29.6916C7.33396 29.7045 7.35043 29.7156 7.36642 29.7276C7.38588 29.7423 7.40504 29.7574 7.42531 29.771C7.44488 29.7841 7.46522 29.7955 7.4852 29.8074C7.5033 29.8181 7.521 29.8295 7.53963 29.8396C7.56026 29.8506 7.58135 29.86 7.60239 29.8699C7.62166 29.8789 7.64065 29.8886 7.66045 29.8969C7.68102 29.9053 7.702 29.9122 7.72292 29.9196C7.74401 29.9272 7.76481 29.9353 7.78637 29.9419C7.80747 29.9481 7.82886 29.9529 7.85013 29.9583C7.87192 29.9638 7.8936 29.9699 7.91575 29.9743C7.9406 29.9793 7.96556 29.9822 7.99058 29.9857C8.00968 29.9885 8.02837 29.9921 8.04765 29.9941C8.1373 30.0029 8.22754 30.0029 8.31719 29.9941C8.33664 29.992 8.35539 29.9883 8.37438 29.9856Z" fill="#FBFFFF"/>
</svg>
