<svg width="15" height="15" viewBox="0 0 15 15" fill="none"
  xmlns="http://www.w3.org/2000/svg">
  <path d="M0.115831 3.71224C0.109239 3.72202 0.103556 3.73216 0.0976087 3.74218C0.0922476 3.75123 0.0865642 3.76008 0.0815253 3.76939C0.0760177 3.77971 0.0713304 3.79031 0.0663794 3.80077C0.0618386 3.81041 0.0570048 3.8199 0.0528741 3.8298C0.0486555 3.84008 0.0452278 3.85057 0.0415073 3.86103C0.0376988 3.87158 0.033656 3.88198 0.0303749 3.89276C0.0272402 3.9033 0.0248673 3.914 0.0221428 3.92463C0.0194183 3.93553 0.0163715 3.94637 0.014145 3.95744C0.0116549 3.96986 0.0101901 3.98234 0.00846164 3.99485C0.00708473 4.0044 0.0052684 4.01375 0.00427234 4.02339C-0.00012203 4.06821 -0.00012203 4.11333 0.00427234 4.15815C0.0052684 4.16779 0.00705544 4.17716 0.00846164 4.18668C0.0101901 4.19919 0.0116549 4.21167 0.014145 4.22409C0.0163715 4.23523 0.0194183 4.24601 0.0221428 4.25691C0.0248673 4.26754 0.0271816 4.27823 0.0303749 4.28878C0.033656 4.29956 0.0376988 4.30996 0.0415073 4.32051C0.0452278 4.33091 0.0486555 4.34142 0.0528741 4.35174C0.0570048 4.36164 0.0618386 4.37116 0.0663794 4.38077C0.0713304 4.39126 0.0760177 4.40186 0.0815253 4.41214C0.0865349 4.42146 0.0922183 4.43028 0.0976087 4.43936C0.103614 4.44941 0.109298 4.45954 0.115831 4.4693C0.122569 4.47944 0.130098 4.48902 0.13751 4.49874C0.143515 4.50674 0.149052 4.51497 0.155468 4.52279C0.169794 4.54019 0.184822 4.55701 0.200788 4.57292L3.60962 7.98184C3.74274 8.11501 3.91725 8.18155 4.09174 8.18155C4.26622 8.18155 4.44074 8.11501 4.5738 7.98184C4.84007 7.71562 4.84007 7.28389 4.5738 7.01765L2.32875 4.7726H14.3186C14.6952 4.7726 15.0004 4.46734 15.0004 4.0908C15.0004 3.71426 14.6952 3.409 14.3186 3.409H2.32875L4.5738 1.16389C4.84007 0.897674 4.84007 0.465942 4.5738 0.199702C4.30759 -0.0665674 3.87586 -0.0665674 3.60962 0.199702L0.200788 3.60859C0.184822 3.6245 0.169735 3.64128 0.155468 3.65871C0.149023 3.66654 0.143457 3.67477 0.13751 3.68277C0.130156 3.69249 0.122598 3.7021 0.115831 3.71224Z" fill="white"/>
  <path d="M14.9919 10.8126C14.9902 10.8001 14.9887 10.7876 14.9862 10.7752C14.984 10.7641 14.981 10.7533 14.9782 10.7424C14.9755 10.7318 14.9732 10.7211 14.97 10.7105C14.9667 10.6998 14.9627 10.6894 14.9589 10.6788C14.9551 10.6684 14.9517 10.6579 14.9475 10.6476C14.9434 10.6377 14.9385 10.6282 14.934 10.6186C14.929 10.6081 14.9244 10.5975 14.9188 10.5872C14.9138 10.5779 14.9082 10.5691 14.9028 10.56C14.8968 10.55 14.8911 10.5398 14.8845 10.5301C14.8778 10.5199 14.8703 10.5104 14.8629 10.5006C14.8569 10.4926 14.8513 10.4844 14.8449 10.4766C14.8306 10.4592 14.8155 10.4424 14.7996 10.4265L11.3907 7.01757C11.1245 6.7513 10.6928 6.7513 10.4265 7.01757C10.1603 7.28378 10.1603 7.71552 10.4265 7.98176L12.6717 10.2267H0.681801C0.305262 10.2268 0 10.532 0 10.9085C0 11.2851 0.305262 11.5903 0.681801 11.5903H12.6717L10.4266 13.8354C10.1603 14.1016 10.1603 14.5334 10.4266 14.7996C10.5597 14.9327 10.7342 14.9993 10.9087 14.9993C11.0832 14.9993 11.2577 14.9328 11.3908 14.7996L14.7996 11.3908C14.8156 11.3749 14.8306 11.3581 14.8449 11.3406C14.8514 11.3328 14.8569 11.3246 14.8629 11.3166C14.8702 11.3069 14.8778 11.2973 14.8846 11.2871C14.8912 11.2774 14.8968 11.2672 14.9028 11.2572C14.9082 11.2481 14.9138 11.2393 14.9189 11.23C14.9244 11.2197 14.9291 11.2091 14.934 11.1986C14.9386 11.189 14.9434 11.1795 14.9475 11.1696C14.9517 11.1593 14.9552 11.1488 14.9589 11.1383C14.9627 11.1278 14.9667 11.1174 14.97 11.1066C14.9732 11.0961 14.9755 11.0854 14.9783 11.0747C14.981 11.0638 14.984 11.053 14.9863 11.0419C14.9887 11.0295 14.9902 11.017 14.9919 11.0045C14.9933 10.995 14.9951 10.9856 14.9961 10.976C15.0005 10.9312 15.0005 10.8861 14.9961 10.8412C14.9951 10.8315 14.9933 10.8221 14.9919 10.8126Z" fill="white"/>
</svg>
