<svg xmlns="http://www.w3.org/2000/svg" width="0" height="0">
  <defs>
    <symbol id="youtube" viewBox="0 0 27 20">
      <title>Youtube</title>
      <path
        d="M26.035 3.55875C25.7884 2.19755 24.6133 1.20627 23.2497 0.896794C21.2091 0.464015 17.4326 0.154541 13.3466 0.154541C9.26295 0.154541 5.42597 0.464015 3.38296 0.896794C2.02176 1.20627 0.844304 2.13469 0.597692 3.55875C0.348663 5.10612 0.102051 7.27244 0.102051 10.0577C0.102051 12.843 0.348663 15.0093 0.658137 16.5566C0.907166 17.9178 2.0822 18.9091 3.4434 19.2186C5.60972 19.6514 9.3234 19.9609 13.4094 19.9609C17.4954 19.9609 21.2091 19.6514 23.3754 19.2186C24.7366 18.9091 25.9117 17.9807 26.1607 16.5566C26.4073 15.0093 26.7168 12.7801 26.7796 10.0577C26.6539 7.27244 26.3444 5.10612 26.035 3.55875ZM10.0052 14.3903V5.72507L17.5559 10.0577L10.0052 14.3903Z" />
    </symbol>

    <symbol id="twitter" viewBox="0 0 25 21">
      <title>Twitter</title>
      <path
        d="M25 2.74941C24.0703 3.15723 23.0797 3.42754 22.0469 3.55879C23.1094 2.92441 23.9203 1.92754 24.3016 0.725976C23.3109 1.3166 22.2172 1.73379 21.0516 1.9666C20.1109 0.965039 18.7703 0.344727 17.3078 0.344727C14.4703 0.344727 12.1859 2.64785 12.1859 5.47129C12.1859 5.87754 12.2203 6.26816 12.3047 6.64004C8.04375 6.43223 4.27344 4.39004 1.74062 1.2791C1.29844 2.04629 1.03906 2.92441 1.03906 3.86973C1.03906 5.64473 1.95312 7.21816 3.31562 8.1291C2.49219 8.11348 1.68437 7.87441 1 7.49785C1 7.51348 1 7.53379 1 7.5541C1 10.0447 2.77656 12.1135 5.10625 12.59C4.68906 12.7041 4.23438 12.7588 3.7625 12.7588C3.43438 12.7588 3.10312 12.74 2.79219 12.6713C3.45625 14.701 5.34063 16.1932 7.58125 16.2416C5.8375 17.6057 3.62344 18.4275 1.22656 18.4275C0.80625 18.4275 0.403125 18.4088 0 18.3572C2.27031 19.8213 4.96094 20.6572 7.8625 20.6572C17.2937 20.6572 22.45 12.8447 22.45 6.07285C22.45 5.84629 22.4422 5.62754 22.4312 5.41035C23.4484 4.68848 24.3031 3.78691 25 2.74941Z" />
    </symbol>

    <symbol id="telegram" viewBox="0 0 26 22">
      <title>Telegram</title>
      <path
        d="M9.86755 14.0754L9.454 19.892C10.0457 19.892 10.3019 19.6379 10.6092 19.3326L13.3832 16.6816L19.1311 20.891C20.1853 21.4785 20.928 21.1691 21.2123 19.9212L24.9853 2.24202L24.9863 2.24098C25.3207 0.682649 24.4228 0.073274 23.3957 0.455566L1.21859 8.94619C-0.294956 9.53369 -0.27204 10.3774 0.961294 10.7597L6.63109 12.5233L19.8009 4.28265C20.4207 3.87223 20.9842 4.09932 20.5207 4.50973L9.86755 14.0754Z" />
    </symbol>

    <symbol id="medium" viewBox="0 0 26 21">
      <title>Medium</title>
      <path fill-rule="evenodd" clip-rule="evenodd"
        d="M3.04483 4.42492C3.07632 4.11526 2.9577 3.8098 2.72677 3.60196L0.375433 0.767757V0.344727H7.67927L13.3246 12.726L18.2876 0.344727H25.2503V0.767757L23.239 2.69606C23.0658 2.82832 22.9797 3.04561 23.0154 3.2608V17.4297C22.9797 17.6438 23.0658 17.8611 23.239 17.9934L25.203 19.9217V20.3447H15.3232V19.9217L17.3586 17.9462C17.558 17.7467 17.558 17.6879 17.558 17.3825V5.9302L11.9012 20.2985H11.137L4.5501 5.9302V15.5602C4.49552 15.9643 4.62988 16.3727 4.91435 16.6645L7.56065 19.8745V20.2985H0.057373V19.8745L2.70368 16.6645C2.9871 16.3716 3.11306 15.9612 3.04483 15.5602V4.42492Z" />
    </symbol>

    <symbol id="linkedin" viewBox="0 0 21 21">
      <title>Linkedin</title>
      <path
        d="M20.6453 20.3446V20.3438H20.6503V13.0088C20.6503 9.42042 19.8778 6.65625 15.6828 6.65625C13.6662 6.65625 12.3128 7.76292 11.7603 8.81209H11.702V6.99125H7.72449V20.3438H11.8662V13.7321C11.8662 11.9913 12.1962 10.3079 14.352 10.3079C16.4762 10.3079 16.5078 12.2946 16.5078 13.8438V20.3446H20.6453Z" />
      <path d="M0.980225 6.99219H5.12689V20.3447H0.980225V6.99219Z" />
      <path
        d="M3.05194 0.344727C1.7261 0.344727 0.650269 1.42056 0.650269 2.74639C0.650269 4.07223 1.7261 5.17056 3.05194 5.17056C4.37777 5.17056 5.4536 4.07223 5.4536 2.74639C5.45277 1.42056 4.37694 0.344727 3.05194 0.344727V0.344727Z" />
    </symbol>

    <symbol id="discord" viewBox="0 0 28 21">
      <title>Discord</title>
      <path
        d="M23.3081 2.56263C20.9667 0.678492 17.2628 0.359108 17.1043 0.347619C16.8584 0.32694 16.624 0.464804 16.5229 0.692279C16.5138 0.706065 16.4333 0.892181 16.3437 1.18169C17.8924 1.44363 19.7949 1.96981 21.5159 3.03826C21.7916 3.20829 21.8766 3.57133 21.7066 3.84706C21.594 4.02858 21.4033 4.12738 21.2057 4.12738C21.1 4.12738 20.992 4.09751 20.8955 4.03777C17.936 2.20188 14.2413 2.10998 13.529 2.10998C12.8167 2.10998 9.11967 2.20188 6.1625 4.03777C5.88677 4.2101 5.52373 4.12508 5.3537 3.84935C5.18137 3.57133 5.26639 3.21059 5.54211 3.03826C7.26311 1.97211 9.16563 1.44364 10.7143 1.18399C10.6247 0.892181 10.5443 0.708363 10.5374 0.692279C10.434 0.464804 10.2019 0.322345 9.95375 0.347619C9.79521 0.359108 6.09127 0.678492 3.71772 2.5879C2.47925 3.73447 0 10.4346 0 16.2272C0 16.3306 0.0275727 16.4294 0.078123 16.519C1.78763 19.5244 6.45431 20.3103 7.51816 20.3447C7.52275 20.3447 7.52965 20.3447 7.53654 20.3447C7.72495 20.3447 7.90188 20.2551 8.01217 20.1035L9.08751 18.6237C6.18548 17.8747 4.70344 16.6017 4.61843 16.5259C4.37487 16.3122 4.35189 15.94 4.56788 15.6964C4.78157 15.4529 5.1538 15.4299 5.39736 15.6436C5.43182 15.6757 8.16152 17.9919 13.529 17.9919C18.9057 17.9919 21.6354 15.6666 21.663 15.6436C21.9065 15.4322 22.2765 15.4529 22.4924 15.6987C22.7061 15.9423 22.6831 16.3122 22.4396 16.5259C22.3546 16.6017 20.8725 17.8747 17.9705 18.6237L19.0458 20.1035C19.1561 20.2551 19.3331 20.3447 19.5215 20.3447C19.5284 20.3447 19.5353 20.3447 19.5399 20.3447C20.6037 20.3103 25.2704 19.5244 26.9799 16.519C27.0304 16.4294 27.058 16.3306 27.058 16.2272C27.058 10.4346 24.5788 3.73447 23.3081 2.56263ZM9.70559 13.8743C8.56822 13.8743 7.64683 12.822 7.64683 11.5215C7.64683 10.2209 8.56822 9.16859 9.70559 9.16859C10.843 9.16859 11.7644 10.2209 11.7644 11.5215C11.7644 12.822 10.843 13.8743 9.70559 13.8743ZM17.3524 13.8743C16.215 13.8743 15.2937 12.822 15.2937 11.5215C15.2937 10.2209 16.215 9.16859 17.3524 9.16859C18.4898 9.16859 19.4112 10.2209 19.4112 11.5215C19.4112 12.822 18.4898 13.8743 17.3524 13.8743Z" />
    </symbol>
  </defs>
</svg>