<svg width="395" height="78" viewBox="0 0 395 78" fill="none" xmlns="http://www.w3.org/2000/svg">
<path fill-rule="evenodd" clip-rule="evenodd" d="M168.906 31.5714C178.627 31.5714 185.918 37.6429 185.918 47.3571V51H160.4C161.615 55.8571 165.261 58.2857 171.336 58.2857C176.197 58.2857 179.842 57.0714 183.488 53.4286V63.1429L171.336 65.5714C159.185 65.5714 151.894 58.2857 151.894 48.5714C151.894 38.8571 159.185 31.5714 168.906 31.5714ZM217.512 23.0714V31.5714H227.233V40.0714H217.512V52.2143C217.512 55.8571 219.942 58.2857 222.373 58.2857L227.233 55.8571V64.3571L221.158 65.5714C212.652 65.5714 209.006 61.9286 209.006 53.4286V40.0714H202.93V31.5714H209.006L210.221 23.0714H217.512ZM246.676 31.5714C251.536 31.5714 255.182 32.7857 256.397 36.4286H257.612V31.5714H264.903V65.5714H257.612V60.7143C255.182 64.3571 251.536 65.5714 246.676 65.5714C236.955 65.5714 229.664 58.2857 229.664 48.5714C229.664 38.8571 236.955 31.5714 246.676 31.5714ZM330.521 31.5714V51C330.521 54.6429 332.952 58.2857 336.597 58.2857C341.458 58.2857 343.888 54.6429 343.888 49.7857V31.5714H352.394V65.5714H345.103V60.7143C342.673 64.3571 339.027 65.5714 334.167 65.5714C325.661 65.5714 320.8 60.7143 320.8 52.2143V31.5714H330.521ZM368.191 15.7857V35.2143H369.406C370.621 32.7857 374.267 31.5714 377.912 31.5714C387.633 31.5714 394.924 38.8571 394.924 48.5714C394.924 58.2857 387.633 65.5714 377.912 65.5714C373.052 65.5714 369.406 64.3571 368.191 60.7143H366.976V65.5714H359.685V15.7857H368.191ZM199.285 15.7857V65.5714H190.779V15.7857H199.285ZM283.13 18.2143V36.4286H303.788V18.2143H314.724V65.5714H303.788V46.1429H283.13V65.5714H272.194V18.2143H283.13ZM123.945 18.2143C139.742 18.2143 148.248 26.7143 148.248 41.2857C148.248 57.0714 139.742 65.5714 123.945 65.5714H104.503V18.2143H123.945ZM247.891 40.0714C243.03 40.0714 239.385 43.7143 239.385 48.5714C239.385 53.4286 243.03 58.2857 247.891 58.2857C252.752 58.2857 256.397 53.4286 256.397 48.5714C256.397 43.7143 252.752 40.0714 247.891 40.0714ZM376.697 40.0714C371.836 40.0714 368.191 43.7143 368.191 48.5714C368.191 53.4286 371.836 58.2857 376.697 58.2857C381.558 58.2857 385.203 53.4286 385.203 48.5714C385.203 43.7143 381.558 40.0714 376.697 40.0714ZM122.73 27.9286H115.439V55.8571H122.73C132.452 55.8571 138.527 51 138.527 41.2857C138.527 32.7857 132.452 27.9286 122.73 27.9286ZM168.906 38.8571C165.261 38.8571 161.615 41.2857 160.4 44.9286H177.412C176.197 41.2857 173.767 38.8571 168.906 38.8571ZM64.403 70.4286V53.4286L70.4788 44.9286V42.5L64.403 31.5714V7.28571L85.0606 43.7143L64.403 70.4286ZM46.1758 70.4286V8.5L60.7576 31.5714V32.7857L64.403 37.6429L68.0485 43.7143L46.1758 70.4286ZM42.5303 70.4286L27.9485 52.2143L21.8727 43.7143L25.5182 37.6429L27.9485 32.7857L42.5303 8.5V70.4286ZM25.5182 70.4286L3.64545 43.7143L25.5182 8.5V31.5714L18.2273 42.5V44.9286L25.5182 53.4286V70.4286ZM88.7061 42.5L63.1879 1.21429L61.9727 0L60.7576 2.42857V25.5L46.1758 1.21429L44.9606 0L42.5303 1.21429L27.9485 26.7143V2.42857L26.7333 0L25.5182 1.21429L0 42.5V44.9286L26.7333 76.5C26.7333 78.9286 27.9485 77.7143 27.9485 76.5V57.0714L38.8848 70.4286L43.7455 75.2857L44.9606 77.7143L46.1758 75.2857L60.7576 57.0714V76.5H63.1879L88.7061 44.9286V42.5Z" fill="black"/>
</svg>
