<svg width="40" height="40" viewBox="0 0 40 40" fill="none" xmlns="http://www.w3.org/2000/svg">
  <path
    d="M19.9934 39.9743C31.016 39.9743 39.9516 31.0415 39.9516 20.0223C39.9516 9.00313 31.016 0.0703125 19.9934 0.0703125C8.97076 0.0703125 0.0351562 9.00313 0.0351562 20.0223C0.0351562 31.0415 8.97076 39.9743 19.9934 39.9743Z"
    fill="#E94B35" />
  <path fill-rule="evenodd" clip-rule="evenodd"
    d="M13.3417 15.3975L9.2316 17.4746L10.0166 13.0753L6.69141 9.95971L11.2867 9.31786L13.3417 5.31527L15.3968 9.31786L19.992 9.95971L16.6669 13.0753L17.4518 17.4746L13.3417 15.3975ZM20.1582 6.15805L19.2928 6.59538L19.458 5.66909L18.7579 5.01308L19.7255 4.87793L20.1582 4.03516L20.5909 4.87793L21.5584 5.01308L20.8583 5.66909L21.0236 6.59538L20.1582 6.15805ZM23.8536 9.12814L22.9881 9.56548L23.1534 8.63918L22.4533 7.98317L23.4209 7.84803L23.8536 7.00525L24.2863 7.84803L25.2538 7.98318L24.5537 8.63918L24.719 9.56548L23.8536 9.12814ZM24.2831 13.59L23.4177 14.0274L23.5829 13.1011L22.8828 12.445L23.8504 12.3099L24.2831 11.4671L24.7158 12.3099L25.6833 12.445L24.9832 13.1011L25.1485 14.0274L24.2831 13.59ZM20.8364 17.4704L19.971 17.9078L20.1363 16.9815L19.4361 16.3255L20.4037 16.1903L20.8364 15.3476L21.2691 16.1903L22.2367 16.3255L21.5366 16.9815L21.7018 17.9078L20.8364 17.4704Z"
    fill="#F2C500" />
</svg>