<svg width="40" height="40" viewBox="0 0 40 40" fill="none" xmlns="http://www.w3.org/2000/svg">
  <path
    d="M20 40C31.0457 40 40 31.0457 40 20C40 8.9543 31.0457 0 20 0C8.9543 0 0 8.9543 0 20C0 31.0457 8.9543 40 20 40Z"
    fill="white" />
  <path fill-rule="evenodd" clip-rule="evenodd"
    d="M34.9085 33.3333C31.2464 37.425 25.9245 40 20.0011 40C14.0778 40 8.75589 37.425 5.09375 33.3333H34.9085ZM34.9085 6.66667C31.2464 2.575 25.9245 0 20.0011 0C14.0778 0 8.75589 2.575 5.09375 6.66667H34.9085Z"
    fill="#E94B35" />
  <path fill-rule="evenodd" clip-rule="evenodd"
    d="M34.9074 6.66537C38.0743 10.2037 40 14.8763 40 19.9987C40 25.1211 38.0743 29.7937 34.9074 33.332H5.09262C1.92569 29.7937 0 25.1211 0 19.9987C0 14.8763 1.92569 10.2037 5.09262 6.66537H34.9074Z"
    fill="white" />
  <path fill-rule="evenodd" clip-rule="evenodd"
    d="M38.862 26.6654C39.599 24.5802 40 22.3363 40 19.9987C40 17.6611 39.599 15.4172 38.862 13.332H1.13804C0.401028 15.4172 0 17.6611 0 19.9987C0 22.3363 0.401028 24.5802 1.13804 26.6654H38.862Z"
    fill="#346DA6" />
</svg>