<svg width="25" height="25" viewBox="0 0 25 25" fill="none" xmlns="http://www.w3.org/2000/svg">
<g clip-path="url(#clip0)">
<path d="M11.5357 16.9562C11.7266 16.7652 11.7266 16.4562 11.5357 16.2653C11.3446 16.075 11.035 16.075 10.8437 16.2653C10.653 16.4562 10.653 16.7652 10.8437 16.9562C11.035 17.1465 11.3446 17.1465 11.5357 16.9562Z" fill="white"/>
<path d="M9.21973 5.36957C9.21973 8.33035 11.6332 10.7393 14.5998 10.7393C17.5664 10.7393 19.9799 8.33035 19.9799 5.36957C19.9799 2.40879 17.5664 0 14.5998 0C11.6332 0 9.21973 2.40879 9.21973 5.36957ZM19.0018 5.36957C19.0018 7.79209 17.0271 9.76296 14.5998 9.76296C12.1725 9.76296 10.1978 7.79209 10.1978 5.36957C10.1978 2.94724 12.1725 0.976372 14.5998 0.976372C17.0271 0.976372 19.0018 2.94724 19.0018 5.36957Z" fill="white"/>
<path d="M5.65804 24.8557C5.84762 25.0464 6.15626 25.0485 6.34833 24.8597L8.71959 22.5281C9.12245 22.126 9.24495 21.5308 9.06779 21.0133L9.57786 20.5223C9.85248 20.2576 10.2141 20.1117 10.5963 20.1117H17.0983C18.2519 20.1117 19.3421 19.6696 20.1687 18.8668C20.2027 18.8338 19.9105 19.1773 24.6045 13.5781C25.3007 12.756 25.1966 11.5216 24.3721 10.826C23.5528 10.1368 22.3255 10.2358 21.6274 11.0438L18.7413 14.0044C18.3769 13.5567 17.8211 13.2777 17.2207 13.2777H11.7666C10.9905 12.9536 10.167 12.7896 9.31738 12.7896C6.96216 12.7896 4.90565 13.8752 3.802 15.9108C3.33704 15.8228 2.84665 15.9632 2.49387 16.3153L0.167124 18.6444C-0.0228371 18.8345 -0.0232193 19.1422 0.16636 19.3329L5.65804 24.8557ZM9.31719 13.7658C10.0663 13.7658 10.7906 13.9162 11.4704 14.213C11.5323 14.2401 11.599 14.254 11.6665 14.254H17.2207C17.751 14.254 18.1989 14.6857 18.1989 15.2302C18.1989 15.7687 17.7602 16.2066 17.2207 16.2066H13.2301C12.9601 16.2066 12.7411 16.4252 12.7411 16.6947C12.7411 16.9644 12.9601 17.1828 13.2301 17.1828H17.2207C18.2995 17.1828 19.177 16.3069 19.177 15.2302C19.177 15.1444 19.1709 15.0593 19.1598 14.975C21.9517 12.1107 22.3454 11.7083 22.3622 11.6883C22.7108 11.2776 23.3296 11.2255 23.7413 11.5719C24.1533 11.9196 24.2055 12.5368 23.8559 12.9498L19.469 18.1839C18.8285 18.7977 17.9874 19.1355 17.0983 19.1355H10.5963C9.95912 19.1355 9.35599 19.3787 8.89847 19.8199L8.48281 20.2202L4.65109 16.3962C5.54663 14.7194 7.22704 13.7658 9.31719 13.7658ZM3.18606 17.0052C3.34735 16.8442 3.59503 16.8152 3.79168 16.9365C3.87634 16.988 3.63325 16.7672 8.02798 21.1472C8.22348 21.3423 8.21297 21.6532 8.03065 21.8352L6.00911 23.8228L1.20331 18.9898L3.18606 17.0052Z" fill="white"/>
<path d="M14.0125 2.44092V3.01293C13.4432 3.21435 13.0342 3.75699 13.0342 4.39347C13.0342 5.20085 13.6924 5.85793 14.5015 5.85793C14.7712 5.85793 14.9906 6.0769 14.9906 6.34603C14.9906 6.61515 14.7712 6.83412 14.5015 6.83412C14.2926 6.83412 14.0669 6.70308 13.8665 6.46485C13.6926 6.25848 13.3841 6.23197 13.1773 6.40534C12.9706 6.57891 12.9438 6.88676 13.1177 7.09313C13.3791 7.40346 13.6866 7.61975 14.0125 7.72885V8.29858C14.0125 8.56828 14.2315 8.78667 14.5015 8.78667C14.7716 8.78667 14.9906 8.56828 14.9906 8.29858V7.72656C15.5599 7.52496 15.9689 6.98232 15.9689 6.34603C15.9689 5.53845 15.3107 4.88156 14.5015 4.88156C14.2319 4.88156 14.0125 4.6626 14.0125 4.39347C14.0125 4.12434 14.2319 3.90519 14.5015 3.90519C14.6749 3.90519 14.8578 3.9935 15.0305 4.16039C15.2247 4.34789 15.5343 4.34274 15.7221 4.14914C15.91 3.95535 15.9048 3.64636 15.7109 3.45887C15.4626 3.21912 15.2142 3.0835 14.9906 3.0095V2.44092C14.9906 2.17122 14.7716 1.95264 14.5015 1.95264C14.2315 1.95264 14.0125 2.17122 14.0125 2.44092Z" fill="white"/>
</g>
<defs>
<clipPath id="clip0">
<rect width="25" height="25" fill="white"/>
</clipPath>
</defs>
</svg>
