<svg width="20" height="19" viewBox="0 0 20 19" fill="none" xmlns="http://www.w3.org/2000/svg">
  <path
    d="M5.63337 4.03301L4.13337 2.54134L2.95837 3.71634L4.45004 5.20801L5.63337 4.03301ZM3.33337 8.74967H0.833374V10.4163H3.33337V8.74967ZM10.8334 0.458008H9.16671V2.91634H10.8334V0.458008ZM17.0417 3.71634L15.8667 2.54134L14.375 4.03301L15.55 5.20801L17.0417 3.71634ZM14.3667 15.133L15.8584 16.633L17.0334 15.458L15.5334 13.9663L14.3667 15.133ZM16.6667 8.74967V10.4163H19.1667V8.74967H16.6667ZM10 4.58301C7.24171 4.58301 5.00004 6.82467 5.00004 9.58301C5.00004 12.3413 7.24171 14.583 10 14.583C12.7584 14.583 15 12.3413 15 9.58301C15 6.82467 12.7584 4.58301 10 4.58301ZM9.16671 18.708H10.8334V16.2497H9.16671V18.708ZM2.95837 15.4497L4.13337 16.6247L5.62504 15.1247L4.45004 13.9497L2.95837 15.4497Z"
    fill="white" />
</svg>