<svg width="25" height="25" viewBox="0 0 25 25" fill="none" xmlns="http://www.w3.org/2000/svg">
<path d="M12.3218 12.0426C13.9762 12.0426 15.4086 11.4492 16.5794 10.2785C17.7497 9.10795 18.3433 7.67573 18.3433 6.02111C18.3433 4.36706 17.7499 2.93464 16.5792 1.76372C15.4085 0.593375 13.976 0 12.3218 0C10.6672 0 9.23494 0.593375 8.0644 1.76391C6.89386 2.93445 6.30029 4.36687 6.30029 6.02111C6.30029 7.67573 6.89386 9.10814 8.0644 10.2787C9.23532 11.449 10.6677 12.0426 12.3218 12.0426ZM9.10047 2.79979C9.99864 1.90162 11.0523 1.46503 12.3218 1.46503C13.5911 1.46503 14.6449 1.90162 15.5433 2.79979C16.4415 3.69815 16.8783 4.75196 16.8783 6.02111C16.8783 7.29064 16.4415 8.34425 15.5433 9.24261C14.6449 10.141 13.5911 10.5776 12.3218 10.5776C11.0526 10.5776 9.99902 10.1408 9.10047 9.24261C8.20211 8.34444 7.76533 7.29064 7.76533 6.02111C7.76533 4.75196 8.20211 3.69815 9.10047 2.79979Z" fill="white"/>
<path d="M22.8579 19.2239C22.8241 18.7368 22.7558 18.2054 22.6553 17.6443C22.5538 17.0789 22.4232 16.5445 22.2668 16.056C22.105 15.5512 21.8855 15.0526 21.6137 14.5748C21.332 14.0789 21.0009 13.6471 20.6293 13.2917C20.2408 12.92 19.7651 12.6211 19.215 12.4031C18.6668 12.1862 18.0593 12.0764 17.4095 12.0764C17.1543 12.0764 16.9075 12.1811 16.4309 12.4914C16.1375 12.6827 15.7944 12.904 15.4114 13.1487C15.0839 13.3573 14.6402 13.5528 14.0923 13.7298C13.5576 13.9028 13.0148 13.9906 12.4788 13.9906C11.9432 13.9906 11.4004 13.9028 10.8654 13.7298C10.318 13.553 9.87415 13.3575 9.54723 13.1489C9.16786 12.9064 8.82454 12.6852 8.5268 12.4912C8.05054 12.1809 7.80373 12.0762 7.54852 12.0762C6.8985 12.0762 6.2912 12.1862 5.74322 12.4033C5.19352 12.6209 4.71764 12.9198 4.32873 13.2919C3.95718 13.6474 3.62606 14.0791 3.34454 14.5748C3.07312 15.0526 2.85339 15.551 2.69165 16.0562C2.53544 16.5447 2.40479 17.0789 2.30331 17.6443C2.20261 18.2047 2.13451 18.7362 2.10075 19.2245C2.06757 19.7019 2.05078 20.1988 2.05078 20.7008C2.05078 22.0058 2.46563 23.0623 3.28369 23.8414C4.09164 24.6103 5.16052 25.0002 6.46076 25.0002H18.4984C19.7983 25.0002 20.8672 24.6103 21.6753 23.8414C22.4936 23.0629 22.9084 22.006 22.9084 20.7006C22.9082 20.1969 22.8912 19.7 22.8579 19.2239ZM20.6652 22.78C20.1313 23.2881 19.4225 23.5351 18.4982 23.5351H6.46076C5.53627 23.5351 4.8275 23.2881 4.29382 22.7802C3.77026 22.2818 3.51582 21.6015 3.51582 20.7008C3.51582 20.2324 3.53127 19.7698 3.56216 19.3258C3.5923 18.8902 3.65391 18.4116 3.74527 17.9031C3.83549 17.4009 3.95031 16.9296 4.08688 16.5029C4.21791 16.0938 4.39663 15.6887 4.61826 15.2984C4.82979 14.9265 5.07317 14.6074 5.34172 14.3503C5.59292 14.1098 5.90954 13.9129 6.28262 13.7653C6.62766 13.6288 7.01542 13.554 7.43637 13.5427C7.48768 13.57 7.57904 13.6221 7.72705 13.7186C8.02822 13.9149 8.37536 14.1388 8.75912 14.3839C9.1917 14.6597 9.74903 14.9088 10.4149 15.1237C11.0956 15.3438 11.7899 15.4556 12.479 15.4556C13.1681 15.4556 13.8626 15.3438 14.543 15.1239C15.2094 14.9086 15.7665 14.6597 16.1997 14.3835C16.5924 14.1325 16.9298 13.915 17.231 13.7186C17.379 13.6223 17.4704 13.57 17.5217 13.5427C17.9428 13.554 18.3306 13.6288 18.6758 13.7653C19.0487 13.9129 19.3653 14.11 19.6165 14.3503C19.8851 14.6072 20.1284 14.9263 20.34 15.2986C20.5618 15.6887 20.7407 16.094 20.8715 16.5027C21.0083 16.93 21.1233 17.4011 21.2133 17.9029C21.3045 18.4124 21.3663 18.8911 21.3964 19.326V19.3264C21.4275 19.7687 21.4432 20.231 21.4434 20.7008C21.4432 21.6016 21.1887 22.2818 20.6652 22.78Z" fill="white"/>
</svg>
