<svg width="28" height="21" viewBox="0 0 28 21" fill="none" xmlns="http://www.w3.org/2000/svg">
<path d="M23.3081 2.71937C20.9667 0.83523 17.2628 0.515847 17.1043 0.504358C16.8584 0.483678 16.624 0.621542 16.5229 0.849017C16.5138 0.862803 16.4333 1.04892 16.3437 1.33843C17.8924 1.60037 19.7949 2.12655 21.5159 3.19499C21.7916 3.36503 21.8766 3.72807 21.7066 4.00379C21.594 4.18531 21.4033 4.28412 21.2057 4.28412C21.1 4.28412 20.992 4.25425 20.8955 4.19451C17.936 2.35862 14.2413 2.26671 13.529 2.26671C12.8167 2.26671 9.11967 2.35862 6.1625 4.19451C5.88677 4.36683 5.52373 4.28182 5.3537 4.00609C5.18137 3.72807 5.26639 3.36732 5.54211 3.19499C7.26311 2.12885 9.16563 1.60037 10.7143 1.34073C10.6247 1.04892 10.5443 0.865101 10.5374 0.849017C10.434 0.621542 10.2019 0.479083 9.95375 0.504358C9.79521 0.515847 6.09127 0.83523 3.71772 2.74464C2.47925 3.89121 0 10.5914 0 16.3839C0 16.4873 0.0275727 16.5861 0.078123 16.6758C1.78763 19.6812 6.45431 20.467 7.51816 20.5015C7.52275 20.5015 7.52965 20.5015 7.53654 20.5015C7.72495 20.5015 7.90188 20.4119 8.01217 20.2602L9.08751 18.7805C6.18548 18.0314 4.70344 16.7585 4.61843 16.6826C4.37487 16.469 4.35189 16.0967 4.56788 15.8532C4.78157 15.6096 5.1538 15.5866 5.39736 15.8003C5.43182 15.8325 8.16152 18.1486 13.529 18.1486C18.9057 18.1486 21.6354 15.8233 21.663 15.8003C21.9065 15.5889 22.2765 15.6096 22.4924 15.8555C22.7061 16.099 22.6831 16.469 22.4396 16.6826C22.3546 16.7585 20.8725 18.0314 17.9705 18.7805L19.0458 20.2602C19.1561 20.4119 19.3331 20.5015 19.5215 20.5015C19.5284 20.5015 19.5353 20.5015 19.5399 20.5015C20.6037 20.467 25.2704 19.6812 26.9799 16.6758C27.0304 16.5861 27.058 16.4873 27.058 16.3839C27.058 10.5914 24.5788 3.89121 23.3081 2.71937ZM9.70559 14.0311C8.56822 14.0311 7.64683 12.9787 7.64683 11.6782C7.64683 10.3777 8.56822 9.32533 9.70559 9.32533C10.843 9.32533 11.7644 10.3777 11.7644 11.6782C11.7644 12.9787 10.843 14.0311 9.70559 14.0311ZM17.3524 14.0311C16.215 14.0311 15.2937 12.9787 15.2937 11.6782C15.2937 10.3777 16.215 9.32533 17.3524 9.32533C18.4898 9.32533 19.4112 10.3777 19.4112 11.6782C19.4112 12.9787 18.4898 14.0311 17.3524 14.0311Z" fill="#F5FCFE"/>
</svg>
