<svg width="22" height="23" viewBox="0 0 22 23" fill="none"
  xmlns="http://www.w3.org/2000/svg">
  <path d="M5.76 4.84L3.96 3.05L2.55 4.46L4.34 6.25L5.76 4.84ZM3 10.5H0V12.5H3V10.5ZM12 0.55H10V3.5H12V0.55V0.55ZM19.45 4.46L18.04 3.05L16.25 4.84L17.66 6.25L19.45 4.46ZM16.24 18.16L18.03 19.96L19.44 18.55L17.64 16.76L16.24 18.16ZM19 10.5V12.5H22V10.5H19ZM11 5.5C7.69 5.5 5 8.19 5 11.5C5 14.81 7.69 17.5 11 17.5C14.31 17.5 17 14.81 17 11.5C17 8.19 14.31 5.5 11 5.5ZM10 22.45H12V19.5H10V22.45ZM2.55 18.54L3.96 19.95L5.75 18.15L4.34 16.74L2.55 18.54Z" fill="#FBFFFF"/>
</svg>
