<svg width="18" height="19" viewBox="0 0 18 19" fill="none" xmlns="http://www.w3.org/2000/svg">
<path d="M16.2669 10.1924V7.74105C16.2669 6.93608 15.612 6.28117 14.807 6.28117H8.9909C9.0568 6.03617 9.09105 5.78157 9.09105 5.52158C9.09105 5.27469 9.05992 5.035 9.00184 4.80592C9.53629 5.42843 10.3281 5.82395 11.211 5.82395C12.8167 5.82395 14.123 4.51766 14.123 2.91197C14.123 1.30629 12.8167 0 11.211 0C9.60528 0 8.29899 1.30629 8.29899 2.91197C8.29899 3.15886 8.33013 3.39859 8.3882 3.62763C7.85375 3.00512 7.06195 2.60961 6.17905 2.60961C4.5734 2.60961 3.26711 3.91593 3.26711 5.52158C3.26711 5.78153 3.30136 6.0361 3.36727 6.28117H1.45985C0.654869 6.28117 0 6.93604 0 7.74105V17.5402C0 18.3451 0.654869 19 1.45985 19H14.807C15.612 19 16.2669 18.3451 16.2669 17.5402V15.0888C16.9376 15.0104 17.4599 14.439 17.4599 13.7477V11.5336C17.4599 10.8421 16.9376 10.2707 16.2669 10.1924ZM11.211 1.22791C12.1396 1.22791 12.895 1.98338 12.895 2.91197C12.895 3.84056 12.1396 4.59603 11.211 4.59603C10.2824 4.59603 9.5269 3.84056 9.5269 2.91197C9.5269 1.98338 10.2824 1.22791 11.211 1.22791ZM6.17908 3.83748C7.10767 3.83748 7.86314 4.59295 7.86314 5.52154C7.86314 5.78932 7.80143 6.04745 7.68283 6.28113H4.67534C4.55677 6.04742 4.49502 5.78932 4.49502 5.52154C4.49506 4.59299 5.25049 3.83748 6.17908 3.83748ZM15.039 17.5401C15.039 17.668 14.9349 17.7721 14.807 17.7721H1.45981C1.33189 17.7721 1.22787 17.668 1.22787 17.5401V7.74102C1.22787 7.6131 1.33193 7.50901 1.45981 7.50901C1.72451 7.50901 14.4881 7.50901 14.807 7.50901C14.9349 7.50901 15.039 7.61306 15.039 7.74102V10.1829C14.657 10.1829 11.0894 10.1829 10.7064 10.1829C9.98569 10.1829 9.39936 10.7692 9.39936 11.4899C9.39936 12.003 9.39936 13.6016 9.39936 13.7913C9.39936 14.512 9.98569 15.0983 10.7064 15.0983C11.0893 15.0983 14.657 15.0983 15.039 15.0983V17.5401ZM16.232 13.7476C16.232 13.8153 16.177 13.8703 16.1093 13.8703C15.9154 13.8703 11.0185 13.8703 10.7501 13.8703C10.6824 13.8703 10.6273 13.8153 10.6273 13.7476V11.5336C10.6273 11.4659 10.6824 11.4108 10.7501 11.4108C11.0245 11.4108 15.919 11.4108 16.1093 11.4108C16.1769 11.4108 16.232 11.4659 16.232 11.5336V13.7476Z" fill="#FBFFFF"/>
<path d="M11.8525 13.454C12.3017 13.454 12.6659 13.0898 12.6659 12.6406C12.6659 12.1913 12.3017 11.8271 11.8525 11.8271C11.4033 11.8271 11.0391 12.1913 11.0391 12.6406C11.0391 13.0898 11.4033 13.454 11.8525 13.454Z" fill="#FBFFFF"/>
</svg>
