<svg width="174" height="50" viewBox="0 0 174 50" fill="none" xmlns="http://www.w3.org/2000/svg">
<path d="M26.9936 49.8969C26.0855 49.9237 25.2018 49.597 24.5234 48.9838C23.845 48.3707 23.4233 47.5176 23.3448 46.5992L22.9342 43.3334C19.0235 42.2024 16.7356 39.2659 16.1412 34.6032L12.6214 7.08734C11.8664 6.96405 11.1022 6.90829 10.3375 6.92068C9.20574 6.91127 8.07803 7.05948 6.98595 7.36115V49.0913H0.0794678V15.5477C0.0794678 10.9961 2.09353 7.78179 5.76187 6.44448V4.28179C5.76187 1.78179 7.2597 0.103213 9.48496 0.103213C11.7102 0.103213 13.1064 1.50797 13.4662 4.07147L13.7399 6.07544C17.7563 7.21433 20.1028 10.4881 20.7989 15.8016L24.0527 42.3255C25.9967 42.7064 27.9946 42.7064 29.9385 42.3255L33.1923 15.8056C33.8728 10.4881 36.2466 7.21433 40.2513 6.06352L40.5251 4.05957C40.8848 1.50797 42.3005 0.0913086 44.5062 0.0913086C46.7119 0.0913086 48.2293 1.76989 48.2293 4.26989V6.43258C51.8977 7.76989 53.9117 10.9842 53.9117 15.5357V49.0794H46.9974V7.35718C45.9054 7.05551 44.7776 6.9073 43.6458 6.91671C42.8812 6.90432 42.117 6.96008 41.3619 7.08337L37.8422 34.6032C37.2595 39.1826 34.9169 42.1905 31.0492 43.3334L30.662 46.6032C30.6016 47.5319 30.1823 48.3988 29.4954 49.0156C28.8086 49.6324 27.9095 49.9491 26.9936 49.8969ZM24.213 43.6509L24.569 46.4644C24.6062 47.0813 24.8818 47.6584 25.3357 48.0707C25.7894 48.483 26.3852 48.6971 26.9936 48.6667C27.2964 48.6888 27.6003 48.6489 27.8876 48.5496C28.1749 48.4503 28.4396 48.2935 28.6661 48.0885C28.8925 47.8835 29.0761 47.6345 29.206 47.3562C29.3359 47.0778 29.4095 46.776 29.4222 46.4682L29.7782 43.6509C27.9354 43.9577 26.0558 43.9577 24.213 43.6509ZM48.2293 47.8612H52.6798V15.5477C52.6798 11.6905 51.1467 9.02782 48.2293 7.78575V47.8612ZM1.29964 47.8612H5.76187V7.78575C2.84833 9.02782 1.33093 11.6905 1.33093 15.5477L1.29964 47.8612ZM13.9159 7.42861L17.3652 34.4405C17.8581 38.3492 19.6766 40.877 22.7661 41.9802L19.5787 15.9564C18.9921 11.3691 17.1345 8.5675 13.9159 7.42861ZM40.0753 7.42861C36.8567 8.5675 34.9913 11.3691 34.4124 15.9603L31.2251 41.9644C34.3186 40.8612 36.1333 38.3334 36.6259 34.4246L40.0753 7.42861ZM6.99377 6.04766C8.09079 5.77698 9.21637 5.64371 10.3453 5.65083C11.0513 5.64327 11.757 5.6857 12.4572 5.77782L12.246 4.21829C11.9761 2.30559 11.0454 1.33734 9.48496 1.33734C7.92455 1.33734 6.99377 2.46036 6.99377 4.26591V6.04766ZM43.6458 5.65083C44.7748 5.64371 45.9004 5.77698 46.9974 6.04766V4.28179C46.9974 2.47623 46.0432 1.35321 44.5062 1.35321C42.9693 1.35321 42.015 2.32147 41.7452 4.23416L41.534 5.79369C42.2342 5.70157 42.9398 5.65914 43.6458 5.66671V5.65083Z" fill="#2D2D2D"/>
<path d="M72.9759 49.0912H66.1906V0.908691H72.9759V49.0912ZM67.4225 47.8412H71.7439V2.1587H67.4225V47.8412Z" fill="#2D2D2D"/>
<path d="M116.996 49.8969C114.051 49.8969 113.378 47.1708 113.159 46.2739L112.651 43.9882C108.243 43.1946 105.553 40.3097 104.438 35.1945L98.0518 7.05169C97.3214 6.95887 96.5861 6.9138 95.85 6.91676C94.6277 6.89666 93.4094 7.0639 92.2364 7.4128V49.0794H85.3221V15.3493C85.3221 10.9842 87.2775 7.94851 91.0045 6.52788V4.28184C91.0045 1.78184 92.4985 0.103271 94.7238 0.103271C96.6439 0.103271 98.0557 1.34137 98.5016 3.4128L99.0687 5.95248C103.37 6.74613 105.952 9.54772 107.152 14.7422L113.664 42.889C114.397 42.9816 115.135 43.0268 115.873 43.0239C117.091 43.0334 118.304 42.8827 119.483 42.5755V0.908829H126.397V35.7144C126.397 39.2858 124.336 42.0875 120.715 43.4644V45.635C120.715 48.27 119.291 49.8969 116.996 49.8969ZM113.961 44.1866L114.352 45.9843C114.817 47.8732 115.584 48.6469 116.992 48.6469C118.556 48.6469 119.479 47.5557 119.479 45.6509V43.8572C118.295 44.1321 117.084 44.2652 115.869 44.2541C115.232 44.2555 114.595 44.2239 113.961 44.1589V44.1787V44.1866ZM86.554 47.8414H91.0045V7.86915C88.0479 9.16677 86.554 11.6787 86.554 15.3454V47.8414ZM99.3697 7.28581L105.627 34.9168C106.597 39.3414 108.756 41.8215 112.338 42.6509L105.956 15.02C104.915 10.5318 102.87 8.10724 99.3697 7.28581ZM120.715 2.15883V42.135C123.593 40.8969 125.165 38.6469 125.165 35.7302V2.15883H120.715ZM92.2364 6.09534C93.4164 5.78663 94.6314 5.6372 95.85 5.6509C96.4873 5.64937 97.1244 5.68116 97.7585 5.74613V5.72629L97.297 3.66677C97.1093 2.79374 96.5149 1.3374 94.7238 1.3374C92.9325 1.3374 92.2364 2.8493 92.2364 4.26597V6.09534Z" fill="#2D2D2D"/>
<path d="M173.875 49.0912H166.64L163.074 34.742H143.018L139.518 49.0912H132.283L141.614 14.242C142.694 10.2618 145.161 7.53959 148.767 6.34912L149.413 3.61102C149.803 2.10308 150.585 0.11499 153.053 0.11499C155.522 0.11499 156.307 2.09912 156.69 3.59912L157.328 6.34912C160.925 7.53959 163.394 10.2737 164.477 14.2499L173.875 49.0912ZM167.598 47.8412H172.26L163.289 14.5713C162.401 11.3055 160.476 8.98801 157.692 7.8253L163.237 30.0514H142.94L148.415 7.80547C145.627 8.99594 143.702 11.3015 142.816 14.5514L133.906 47.8412H138.568L142.068 33.492H164.019L167.598 47.8412ZM144.524 28.7935H161.646L156.311 7.3253C154.174 6.77369 151.934 6.77369 149.796 7.3253L144.524 28.7935ZM150.136 5.92054V5.96816C152.062 5.56736 154.049 5.56736 155.975 5.96816V5.91658L155.497 3.88086C155.033 2.05943 154.348 1.34515 153.057 1.34515C151.766 1.34515 151.083 2.05944 150.613 3.89277L150.136 5.91658V5.92054Z" fill="#2D2D2D"/>
</svg>
