<svg width="21" height="21" viewBox="0 0 21 21" fill="none" xmlns="http://www.w3.org/2000/svg">
<g clip-path="url(#clip0)">
<path d="M20.6454 20.5013V20.5005H20.6504V13.1655C20.6504 9.57716 19.8779 6.81299 15.6829 6.81299C13.6663 6.81299 12.3129 7.91966 11.7604 8.96883H11.7021V7.14799H7.72461V20.5005H11.8663V13.8888C11.8663 12.148 12.1963 10.4647 14.3521 10.4647C16.4763 10.4647 16.5079 12.4513 16.5079 14.0005V20.5013H20.6454Z" fill="#F5FCFE"/>
<path d="M0.980469 7.14893H5.12714V20.5014H0.980469V7.14893Z" fill="#F5FCFE"/>
<path d="M3.05206 0.501465C1.72622 0.501465 0.650391 1.5773 0.650391 2.90313C0.650391 4.22897 1.72622 5.3273 3.05206 5.3273C4.37789 5.3273 5.45372 4.22897 5.45372 2.90313C5.45289 1.5773 4.37706 0.501465 3.05206 0.501465V0.501465Z" fill="#F5FCFE"/>
</g>
<defs>
<clipPath id="clip0">
<rect width="20" height="20" fill="white" transform="translate(0.650391 0.501465)"/>
</clipPath>
</defs>
</svg>
