<svg width="27" height="23" viewBox="0 0 27 23" fill="none" xmlns="http://www.w3.org/2000/svg">
<path d="M26.6505 11.2584C26.6505 9.65347 25.3393 8.34887 23.7278 8.34887C22.9413 8.34887 22.2285 8.66347 21.7038 9.16947C19.7128 7.85936 17.0189 7.02557 14.0357 6.91887L15.667 1.78296L20.0846 2.81806L20.078 2.88187C20.078 4.19416 21.1505 5.26117 22.4694 5.26117C23.7872 5.26117 24.8586 4.19416 24.8586 2.88187C24.8586 1.56956 23.7861 0.501465 22.4694 0.501465C21.4574 0.501465 20.595 1.13286 20.2463 2.01836L15.4844 0.901865C15.2765 0.851265 15.0653 0.971165 15.0004 1.17576L13.181 6.90347C10.0592 6.94087 7.23109 7.78127 5.15099 9.13097C4.62959 8.64917 3.93769 8.34777 3.17209 8.34777C1.56059 8.34777 0.250488 9.65347 0.250488 11.2584C0.250488 12.3254 0.836788 13.2505 1.69919 13.7565C1.64199 14.0667 1.60459 14.3802 1.60459 14.6992C1.60459 19.0013 6.89339 22.5015 13.3955 22.5015C19.8976 22.5015 25.1875 19.0013 25.1875 14.6992C25.1875 14.3978 25.1556 14.1008 25.105 13.8082C26.0202 13.3165 26.6505 12.365 26.6505 11.2584ZM7.70409 13.256C7.70409 12.3012 8.48509 11.5235 9.44429 11.5235C10.4035 11.5235 11.1834 12.3012 11.1834 13.256C11.1834 14.2108 10.4035 14.9874 9.44429 14.9874C8.48509 14.9874 7.70409 14.2108 7.70409 13.256ZM17.6712 18.3919C16.7945 19.2642 15.4184 19.6888 13.4648 19.6888L13.4505 19.6855L13.4362 19.6888C11.4815 19.6888 10.1054 19.2642 9.22979 18.3919C9.07029 18.2335 9.07029 17.975 9.22979 17.8166C9.38929 17.6571 9.64889 17.6571 9.80839 17.8166C10.5234 18.5283 11.7103 18.8737 13.4362 18.8737L13.4505 18.877L13.4648 18.8737C15.1907 18.8737 16.3776 18.5272 17.0926 17.8155C17.2521 17.656 17.5117 17.6571 17.6712 17.8155C17.8307 17.975 17.8307 18.2324 17.6712 18.3919ZM17.4633 14.9874C16.5041 14.9874 15.7242 14.2108 15.7242 13.256C15.7242 12.3012 16.5041 11.5235 17.4633 11.5235C18.4225 11.5235 19.2024 12.3012 19.2024 13.256C19.2024 14.2108 18.4225 14.9874 17.4633 14.9874Z" fill="#F5FCFE"/>
</svg>
