<svg width="25" height="21" viewBox="0 0 25 21" fill="none" xmlns="http://www.w3.org/2000/svg">
<path d="M25 2.90566C24.0703 3.31348 23.0797 3.58379 22.0469 3.71504C23.1094 3.08066 23.9203 2.08379 24.3016 0.882226C23.3109 1.47285 22.2172 1.89004 21.0516 2.12285C20.1109 1.12129 18.7703 0.500977 17.3078 0.500977C14.4703 0.500977 12.1859 2.8041 12.1859 5.62754C12.1859 6.03379 12.2203 6.42441 12.3047 6.79629C8.04375 6.58848 4.27344 4.54629 1.74062 1.43535C1.29844 2.20254 1.03906 3.08066 1.03906 4.02598C1.03906 5.80098 1.95312 7.37441 3.31562 8.28535C2.49219 8.26973 1.68437 8.03066 1 7.6541C1 7.66973 1 7.69004 1 7.71035C1 10.201 2.77656 12.2697 5.10625 12.7463C4.68906 12.8604 4.23438 12.915 3.7625 12.915C3.43438 12.915 3.10312 12.8963 2.79219 12.8275C3.45625 14.8572 5.34063 16.3494 7.58125 16.3979C5.8375 17.7619 3.62344 18.5838 1.22656 18.5838C0.80625 18.5838 0.403125 18.565 0 18.5135C2.27031 19.9775 4.96094 20.8135 7.8625 20.8135C17.2937 20.8135 22.45 13.001 22.45 6.2291C22.45 6.00254 22.4422 5.78379 22.4312 5.5666C23.4484 4.84473 24.3031 3.94316 25 2.90566Z" fill="#F5FCFE"/>
</svg>
