<svg width="129" height="90" viewBox="0 0 129 90" fill="none" xmlns="http://www.w3.org/2000/svg">
<path d="M92.4077 66.4811H128.665L67.4811 0V55.4009H61.1864V0L0.00244141 66.4811H36.5114V55.1493H26.4401L49.6044 31.9802V66.4796H79.3166V31.9802L102.226 55.1493H92.4077V66.4811Z" fill="#EDEDED"/>
<path d="M6.41218 86.6768L5.04871 83.1434C5.00835 83.0379 4.96589 82.9156 4.92131 82.7766C4.87673 82.6376 4.83426 82.489 4.7939 82.331C4.72483 82.6092 4.63774 82.8825 4.53316 83.1494L3.16969 86.6768H6.41218ZM8.86017 89.9012H7.95014C7.85868 89.9054 7.76864 89.8774 7.69572 89.822C7.63072 89.7691 7.58055 89.7003 7.55012 89.6222L6.73821 87.5249H2.84366L2.03175 89.6222C2.00476 89.6988 1.95644 89.766 1.89247 89.8161C1.82047 89.8737 1.73025 89.9038 1.63806 89.9008H0.728027L4.2004 81.2159H5.3874L8.86017 89.9012ZM15.6593 82.574C15.6295 82.6271 15.5891 82.6736 15.5406 82.7105C15.4952 82.7418 15.441 82.7577 15.3859 82.756C15.2963 82.7478 15.2115 82.7118 15.1434 82.6531C15.0505 82.5845 14.9343 82.5088 14.7948 82.426C14.635 82.3339 14.4666 82.2578 14.2919 82.1988C14.0619 82.125 13.8212 82.0903 13.5797 82.096C13.344 82.0917 13.1093 82.1276 12.8857 82.202C12.7008 82.264 12.5299 82.3617 12.3828 82.4897C12.2501 82.6074 12.1455 82.7535 12.0769 82.9171C12.0074 83.0851 11.9725 83.2655 11.9741 83.4473C11.9658 83.6626 12.0287 83.8745 12.1529 84.0504C12.2809 84.2177 12.4418 84.357 12.6257 84.4596C12.8375 84.5798 13.0609 84.6783 13.2924 84.7536C13.5409 84.8365 13.7955 84.9223 14.0561 85.0112C14.3167 85.1001 14.5712 85.2001 14.8197 85.3112C15.0614 85.418 15.2861 85.5598 15.4864 85.7322C15.6852 85.9056 15.8461 86.118 15.9592 86.3563C16.0867 86.6423 16.1478 86.9535 16.1381 87.2664C16.1405 87.6316 16.0748 87.9939 15.9442 88.3349C15.8193 88.662 15.6261 88.9588 15.3776 89.2055C15.1159 89.4604 14.8043 89.6584 14.4624 89.7872C14.0682 89.9344 13.6499 90.0063 13.2291 89.9993C12.7003 90.0068 12.1758 89.9025 11.69 89.6934C11.2444 89.4999 10.8424 89.2185 10.5081 88.8659L10.8476 88.3084C10.88 88.2641 10.9202 88.2261 10.9663 88.1964C11.0122 88.1662 11.0661 88.1504 11.121 88.1509C11.1854 88.1549 11.2474 88.177 11.2998 88.2146C11.3666 88.2571 11.4423 88.3106 11.527 88.3753C11.6116 88.4399 11.7086 88.5106 11.8178 88.5874C11.9355 88.669 12.0602 88.74 12.1905 88.7995C12.343 88.8687 12.5021 88.9225 12.6653 88.9601C12.8621 89.0047 13.0634 89.026 13.2651 89.0238C13.5183 89.0279 13.7704 88.989 14.0106 88.9087C14.2154 88.8396 14.4039 88.7293 14.5645 88.5846C14.7159 88.4454 14.8349 88.2746 14.9131 88.0844C14.9961 87.8784 15.0373 87.6579 15.0342 87.4358C15.0439 87.2072 14.9813 86.9814 14.8553 86.7904C14.7308 86.618 14.5706 86.4744 14.3857 86.3693C14.1748 86.2489 13.9512 86.1524 13.719 86.0817C13.4684 86.0025 13.2138 85.9217 12.9553 85.8391C12.6961 85.7561 12.4412 85.6601 12.1917 85.5514C11.9481 85.4467 11.723 85.3035 11.525 85.1272C11.3249 84.945 11.165 84.7232 11.0553 84.4758C10.9274 84.17 10.8664 83.8404 10.8765 83.5091C10.8763 83.2032 10.9371 82.9004 11.0553 82.6183C11.1749 82.3307 11.3523 82.0708 11.5764 81.8546C11.8193 81.623 12.1056 81.4417 12.4188 81.3211C12.785 81.182 13.1745 81.1142 13.5662 81.1213C14.018 81.1155 14.4669 81.1936 14.8901 81.3516C15.2817 81.5011 15.6392 81.7279 15.9414 82.0184L15.6593 82.574ZM25.1003 88.1074C25.1326 88.1075 25.1645 88.1147 25.1938 88.1284C25.2231 88.142 25.2491 88.1619 25.2701 88.1865L25.7365 88.6895C25.381 89.1016 24.9394 89.4305 24.4427 89.653C23.8613 89.8979 23.2343 90.0157 22.6037 89.9985C22.022 90.0064 21.4448 89.8961 20.907 89.6744C20.4124 89.4681 19.968 89.1577 19.6041 88.7642C19.2342 88.3572 18.9498 87.88 18.7677 87.361C18.5643 86.7829 18.4639 86.1737 18.4709 85.5609C18.4638 84.9471 18.5685 84.3371 18.7799 83.7608C18.9721 83.2381 19.2682 82.7598 19.6504 82.3548C20.0289 81.9604 20.4862 81.6503 20.9925 81.4446C21.5411 81.2232 22.1281 81.1131 22.7196 81.1205C23.2793 81.1096 23.8355 81.2105 24.3557 81.4173C24.8172 81.6081 25.2402 81.8812 25.604 82.2234L25.2162 82.7627C25.1927 82.8026 25.1607 82.8367 25.1225 82.8629C25.0761 82.8914 25.0222 82.9052 24.9678 82.9024C24.8687 82.8915 24.7755 82.85 24.7011 82.7837C24.5692 82.6876 24.4317 82.5996 24.2892 82.5202C24.0872 82.4097 23.8739 82.3213 23.653 82.2566C23.3474 82.1709 23.0309 82.1309 22.7137 82.1379C22.2921 82.1328 21.8739 82.2122 21.4835 82.3714C21.1174 82.523 20.7893 82.7538 20.5229 83.0473C20.2433 83.3609 20.0299 83.7278 19.8957 84.126C19.74 84.5886 19.6642 85.0744 19.6714 85.5625C19.6634 86.0552 19.7424 86.5455 19.9048 87.0108C20.0441 87.4077 20.2603 87.7732 20.541 88.0864C20.805 88.3761 21.1291 88.6046 21.4907 88.7559C21.8661 88.9114 22.2689 88.9897 22.6753 88.9862C22.9094 88.9879 23.1433 88.9727 23.3752 88.9407C23.5715 88.9134 23.7645 88.8656 23.9509 88.7983C24.1233 88.7354 24.2881 88.6531 24.4419 88.5529C24.6019 88.4468 24.7529 88.3277 24.8934 88.1968C24.949 88.1422 25.0229 88.1104 25.1007 88.1074H25.1003ZM33.6689 88.9439L33.6629 89.9016H28.3119V81.2163H33.6629V82.1739H29.4879V85.0587H32.8692V85.9796H29.4879V88.9435L33.6689 88.9439ZM43.5578 81.2163V89.9012H42.9698C42.8892 89.9038 42.8092 89.8871 42.7364 89.8525C42.6639 89.8115 42.6009 89.7557 42.5516 89.6887L37.5266 83.143C37.5348 83.2441 37.5409 83.343 37.5448 83.4398C37.5488 83.5366 37.5508 83.6275 37.5508 83.7125V89.9012H36.522V81.2163H37.1282C37.1728 81.2157 37.2174 81.2187 37.2615 81.2254C37.2952 81.2306 37.3279 81.2409 37.3585 81.2558C37.3894 81.2719 37.4179 81.2923 37.4431 81.3164C37.4759 81.3475 37.5063 81.381 37.5341 81.4165L42.5591 87.9558C42.5509 87.8503 42.5438 87.7483 42.5378 87.6499C42.5317 87.5515 42.5287 87.4576 42.5287 87.3681V81.2163H43.5578ZM51.4316 82.574C51.4017 82.6271 51.3613 82.6736 51.3129 82.7105C51.2674 82.7418 51.2132 82.7577 51.1581 82.756C51.0686 82.7478 50.9838 82.7118 50.9156 82.6531C50.8228 82.5845 50.7066 82.5088 50.567 82.426C50.4073 82.3339 50.2388 82.2578 50.0641 82.1988C49.8341 82.125 49.5934 82.0903 49.3519 82.096C49.1163 82.0917 48.8816 82.1276 48.6579 82.202C48.473 82.264 48.3022 82.3617 48.155 82.4897C48.0223 82.6074 47.9178 82.7535 47.8492 82.9171C47.7797 83.0851 47.7447 83.2655 47.7463 83.4473C47.7381 83.6626 47.8009 83.8745 47.9252 84.0504C48.0531 84.2177 48.2141 84.357 48.398 84.4596C48.6098 84.5798 48.8331 84.6783 49.0647 84.7536C49.3132 84.8365 49.5677 84.9223 49.8283 85.0112C50.0889 85.1001 50.3435 85.2001 50.5919 85.3112C50.8337 85.418 51.0583 85.5598 51.2586 85.7322C51.4574 85.9056 51.6184 86.118 51.7315 86.3563C51.8589 86.6423 51.92 86.9535 51.9103 87.2664C51.9128 87.6316 51.847 87.9939 51.7164 88.3349C51.5915 88.662 51.3984 88.9588 51.1498 89.2055C50.8881 89.4604 50.5765 89.6584 50.2347 89.7872C49.8404 89.9344 49.4221 90.0063 49.0014 89.9993C48.4725 90.0068 47.948 89.9025 47.4622 89.6934C47.0166 89.4999 46.6147 89.2185 46.2804 88.8659L46.6198 88.3084C46.6522 88.2641 46.6924 88.2261 46.7385 88.1964C46.7845 88.1662 46.8383 88.1504 46.8933 88.1509C46.9577 88.1549 47.0196 88.177 47.0721 88.2146C47.1388 88.2571 47.2145 88.3106 47.2992 88.3753C47.3839 88.4399 47.4808 88.5106 47.59 88.5874C47.7077 88.669 47.8324 88.74 47.9627 88.7995C48.1153 88.8687 48.2743 88.9225 48.4375 88.9601C48.6343 89.0047 48.8356 89.026 49.0374 89.0238C49.2905 89.0276 49.5424 88.9884 49.7824 88.9079C49.9873 88.8388 50.1758 88.7285 50.3363 88.5838C50.4878 88.4446 50.6067 88.2739 50.6849 88.0836C50.768 87.8776 50.8092 87.6571 50.806 87.435C50.8157 87.2064 50.7531 86.9806 50.6272 86.7896C50.5026 86.6172 50.3425 86.4736 50.1575 86.3686C49.9467 86.2481 49.723 86.1516 49.4908 86.0809C49.2402 86.0017 48.9857 85.9209 48.7272 85.8383C48.468 85.7553 48.2131 85.6593 47.9635 85.5506C47.72 85.4459 47.4948 85.3027 47.2968 85.1264C47.0972 84.9444 46.9375 84.7228 46.828 84.4758C46.7 84.17 46.639 83.8404 46.6491 83.5091C46.6489 83.2032 46.7097 82.9004 46.828 82.6183C46.9476 82.3307 47.1249 82.0708 47.3491 81.8546C47.592 81.623 47.8782 81.4417 48.1914 81.3211C48.5577 81.182 48.9472 81.1142 49.3389 81.1213C49.7906 81.1155 50.2395 81.1936 50.6628 81.3516C51.0544 81.5011 51.4119 81.7279 51.7141 82.0184L51.4316 82.574ZM55.9513 89.9012H54.7757V81.2163H55.9513V89.9012ZM66.4408 81.2163L62.9019 89.9012H61.8475L58.3086 81.2163H59.248C59.3394 81.212 59.4294 81.24 59.5024 81.2954C59.5674 81.3483 59.6175 81.4172 59.648 81.4952L62.096 87.6226C62.1487 87.76 62.2003 87.9095 62.2507 88.0709C62.301 88.2324 62.3465 88.402 62.3872 88.5798C62.4275 88.402 62.47 88.2324 62.5146 88.0709C62.5592 87.9095 62.6077 87.76 62.6602 87.6226L65.1022 81.4952C65.1315 81.4199 65.1807 81.3539 65.2447 81.3045C65.3172 81.2453 65.4086 81.2141 65.5023 81.2167L66.4408 81.2163ZM74.1547 88.9435L74.1488 89.9012H68.7982V81.2163H74.1488V82.1739H69.9737V85.0587H73.3551V85.9796H69.9737V88.9435H74.1547ZM85.5289 86.6768L84.1655 83.1434C84.1251 83.0379 84.0826 82.9156 84.0381 82.7766C83.9935 82.6376 83.951 82.489 83.9107 82.331C83.8416 82.6092 83.7545 82.8825 83.6499 83.1494L82.2864 86.6768H85.5289ZM87.9773 89.9012H87.0673C86.9758 89.9054 86.8858 89.8774 86.8129 89.822C86.7479 89.7691 86.6977 89.7003 86.6673 89.6222L85.8546 87.5252H81.96L81.1461 89.6226C81.1191 89.6992 81.0708 89.7664 81.0069 89.8165C80.9349 89.8741 80.8446 89.9042 80.7524 89.9012H79.8424L83.3148 81.2163H84.5018L87.9773 89.9012ZM94.7765 82.574C94.7466 82.6271 94.7062 82.6736 94.6578 82.7105C94.6124 82.7418 94.5582 82.7577 94.5031 82.756C94.4135 82.7478 94.3287 82.7118 94.2605 82.6531C94.1677 82.5845 94.0515 82.5088 93.9119 82.426C93.7522 82.3339 93.5837 82.2578 93.409 82.1988C93.179 82.125 92.9383 82.0903 92.6968 82.096C92.4612 82.0917 92.2265 82.1276 92.0028 82.202C91.818 82.264 91.6471 82.3617 91.5 82.4897C91.3672 82.6074 91.2627 82.7535 91.1941 82.9171C91.1246 83.0851 91.0896 83.2655 91.0912 83.4473C91.083 83.6626 91.1458 83.8745 91.2701 84.0504C91.398 84.2177 91.559 84.357 91.7429 84.4596C91.9547 84.5798 92.178 84.6783 92.4096 84.7536C92.6581 84.8365 92.9126 84.9223 93.1732 85.0112C93.4338 85.1001 93.6884 85.2001 93.9369 85.3112C94.1786 85.418 94.4033 85.5598 94.6036 85.7322C94.8024 85.9056 94.9633 86.118 95.0764 86.3563C95.2038 86.6423 95.265 86.9535 95.2552 87.2664C95.2577 87.6316 95.1919 87.9939 95.0613 88.3349C94.9364 88.662 94.7433 88.9588 94.4948 89.2055C94.233 89.4604 93.9215 89.6584 93.5796 89.7872C93.1853 89.9344 92.767 90.0063 92.3463 89.9993C91.8174 90.0068 91.293 89.9025 90.8071 89.6934C90.3615 89.4999 89.9596 89.2185 89.6253 88.8659L89.9648 88.3084C89.9971 88.2641 90.0373 88.2261 90.0835 88.1964C90.1294 88.1662 90.1832 88.1504 90.2382 88.1509C90.3026 88.1549 90.3646 88.177 90.417 88.2146C90.4837 88.2571 90.5594 88.3106 90.6441 88.3753C90.7288 88.4399 90.8257 88.5106 90.9349 88.5874C91.0526 88.669 91.1773 88.74 91.3077 88.7995C91.4602 88.8687 91.6192 88.9225 91.7825 88.9601C91.9792 89.0047 92.1805 89.026 92.3823 89.0238C92.6357 89.0277 92.8879 88.9885 93.1281 88.9079C93.333 88.8388 93.5215 88.7285 93.682 88.5838C93.8335 88.4446 93.9525 88.2739 94.0306 88.0836C94.1137 87.8776 94.1549 87.6571 94.1517 87.435C94.1614 87.2064 94.0988 86.9806 93.9729 86.7896C93.8483 86.6172 93.6882 86.4736 93.5032 86.3686C93.2924 86.2481 93.0688 86.1516 92.8365 86.0809C92.5859 86.0017 92.3314 85.9209 92.0729 85.8383C91.8137 85.7553 91.5588 85.6593 91.3092 85.5506C91.0655 85.4457 90.8402 85.3022 90.6421 85.1256C90.4428 84.9437 90.2834 84.7225 90.1741 84.4758C90.0461 84.17 89.9851 83.8404 89.9952 83.5091C89.995 83.2032 90.0558 82.9004 90.1741 82.6183C90.2937 82.3307 90.471 82.0708 90.6952 81.8546C90.938 81.623 91.2243 81.4417 91.5375 81.3211C91.9038 81.182 92.2933 81.1142 92.685 81.1213C93.1367 81.1155 93.5856 81.1936 94.0089 81.3516C94.4005 81.5011 94.758 81.7279 95.0602 82.0184L94.7765 82.574ZM102.563 82.574C102.533 82.6271 102.493 82.6736 102.444 82.7105C102.399 82.7418 102.345 82.7577 102.29 82.756C102.2 82.7478 102.115 82.7118 102.047 82.6531C101.954 82.5845 101.838 82.5088 101.699 82.426C101.539 82.3339 101.37 82.2578 101.196 82.1988C100.966 82.125 100.725 82.0903 100.484 82.096C100.248 82.0917 100.013 82.1276 99.7896 82.202C99.6047 82.264 99.4338 82.3617 99.2867 82.4897C99.1539 82.6074 99.0494 82.7535 98.9808 82.9171C98.9113 83.0851 98.8763 83.2655 98.8779 83.4473C98.8697 83.6626 98.9325 83.8745 99.0568 84.0504C99.1848 84.2177 99.3457 84.357 99.5296 84.4596C99.7414 84.5798 99.9648 84.6783 100.196 84.7536C100.445 84.8365 100.699 84.9223 100.96 85.0112C101.221 85.1001 101.475 85.2001 101.724 85.3112C101.965 85.418 102.19 85.5598 102.39 85.7322C102.589 85.9056 102.75 86.118 102.863 86.3563C102.991 86.6423 103.052 86.9535 103.042 87.2664C103.044 87.6316 102.979 87.9939 102.848 88.3349C102.723 88.662 102.53 88.9588 102.281 89.2055C102.019 89.4601 101.707 89.6578 101.365 89.786C100.97 89.9332 100.552 90.0051 100.131 89.9981C99.6026 90.0056 99.0781 89.9013 98.5923 89.6922C98.1467 89.4987 97.7447 89.2173 97.4104 88.8648L97.7499 88.3072C97.7822 88.2629 97.8225 88.2249 97.8686 88.1952C97.9145 88.165 97.9684 88.1492 98.0233 88.1497C98.0877 88.1537 98.1497 88.1758 98.2021 88.2134C98.2689 88.2559 98.3446 88.3094 98.4293 88.3741C98.5139 88.4387 98.6109 88.5094 98.7201 88.5862C98.8377 88.6678 98.9625 88.7388 99.0928 88.7983C99.2453 88.8675 99.4044 88.9213 99.5676 88.9589C99.7644 89.0035 99.9657 89.0248 100.167 89.0227C100.421 89.0271 100.674 88.9883 100.915 88.9079C101.12 88.8388 101.309 88.7285 101.469 88.5838C101.621 88.4446 101.74 88.2739 101.818 88.0836C101.901 87.8776 101.942 87.6571 101.939 87.435C101.949 87.2064 101.886 86.9806 101.76 86.7896C101.635 86.6172 101.475 86.4736 101.29 86.3686C101.079 86.2481 100.856 86.1516 100.624 86.0809C100.373 86.0017 100.118 85.9209 99.86 85.8383C99.6008 85.7553 99.3459 85.6593 99.0964 85.5506C98.8528 85.4459 98.6277 85.3027 98.4297 85.1264C98.2304 84.9443 98.0712 84.7227 97.962 84.4758C97.834 84.17 97.773 83.8404 97.7831 83.5091C97.7826 83.2024 97.8434 82.8987 97.962 82.6159C98.0816 82.3284 98.2589 82.0684 98.4831 81.8522C98.726 81.6206 99.0122 81.4393 99.3254 81.3188C99.6917 81.1796 100.081 81.1118 100.473 81.1189C100.925 81.1131 101.374 81.1912 101.797 81.3492C102.188 81.4987 102.546 81.7255 102.848 82.016L102.563 82.574ZM111.265 88.9435L111.259 89.9012H105.908V81.2163H111.259V82.1739H107.084V85.0587H110.465V85.9796H107.084V88.9435H111.265ZM119.991 82.204H117.18V89.9012H116.01V82.204H113.192V81.2147H119.992L119.991 82.204ZM126.893 82.5736C126.863 82.6267 126.823 82.6732 126.774 82.7101C126.729 82.7414 126.675 82.7573 126.62 82.7556C126.53 82.7474 126.445 82.7114 126.377 82.6527C126.284 82.5841 126.168 82.5084 126.029 82.4256C125.869 82.3335 125.7 82.2574 125.526 82.1984C125.296 82.1246 125.055 82.0899 124.814 82.0956C124.578 82.0913 124.343 82.1272 124.12 82.2016C123.935 82.2636 123.764 82.3613 123.617 82.4893C123.484 82.607 123.379 82.7531 123.311 82.9167C123.241 83.0847 123.206 83.2651 123.208 83.4469C123.2 83.6622 123.263 83.8741 123.387 84.05C123.515 84.2173 123.676 84.3566 123.86 84.4592C124.071 84.5794 124.295 84.6779 124.526 84.7532C124.775 84.8361 125.029 84.9219 125.29 85.0108C125.551 85.0997 125.805 85.1997 126.054 85.3108C126.295 85.4176 126.52 85.5594 126.72 85.7318C126.919 85.9052 127.08 86.1176 127.193 86.3559C127.32 86.6419 127.382 86.9531 127.372 87.266C127.374 87.6312 127.309 87.9935 127.178 88.3345C127.053 88.6616 126.86 88.9584 126.611 89.2051C126.35 89.4595 126.039 89.6572 125.698 89.786C125.304 89.9332 124.886 90.0051 124.465 89.9981C123.936 90.0056 123.412 89.9013 122.926 89.6922C122.479 89.499 122.077 89.2175 121.742 88.8648L122.081 88.3072C122.113 88.2629 122.154 88.2249 122.2 88.1952C122.246 88.165 122.3 88.1492 122.354 88.1497C122.419 88.1537 122.481 88.1758 122.533 88.2134C122.6 88.2559 122.676 88.3094 122.76 88.3741C122.845 88.4387 122.942 88.5094 123.051 88.5862C123.169 88.6678 123.294 88.7388 123.424 88.7983C123.576 88.8675 123.736 88.9213 123.899 88.9589C124.096 89.0035 124.297 89.0248 124.499 89.0227C124.752 89.0267 125.004 88.9878 125.244 88.9075C125.449 88.8384 125.637 88.7281 125.798 88.5834C125.949 88.4442 126.068 88.2735 126.147 88.0832C126.23 87.8772 126.271 87.6567 126.268 87.4346C126.277 87.206 126.215 86.9802 126.089 86.7892C125.964 86.6168 125.804 86.4732 125.619 86.3682C125.408 86.2477 125.185 86.1513 124.952 86.0805C124.702 86.0013 124.447 85.9205 124.189 85.8379C123.93 85.7549 123.675 85.6589 123.425 85.5502C123.182 85.4455 122.956 85.3023 122.758 85.126C122.558 84.9438 122.398 84.722 122.289 84.4746C122.161 84.1689 122.1 83.8392 122.11 83.5079C122.11 83.202 122.171 82.8992 122.289 82.6171C122.408 82.3295 122.586 82.0696 122.81 81.8534C123.053 81.6218 123.339 81.4405 123.652 81.3199C124.018 81.1808 124.408 81.113 124.8 81.1201C125.251 81.1143 125.7 81.1924 126.124 81.3504C126.515 81.4999 126.873 81.7267 127.175 82.0172L126.893 82.5736Z" fill="white"/>
</svg>
