<svg width="444" height="65" viewBox="0 0 444 65" fill="none" xmlns="http://www.w3.org/2000/svg">
<path d="M159.903 24.43C159.903 24.73 160.143 25 160.443 25H167.763C173.553 25 178.293 20.29 178.293 14.47C178.293 8.71 173.553 4 167.763 4H160.443C160.143 4 159.903 4.27 159.903 4.57V24.43ZM164.583 20.56V8.41H167.463C170.853 8.41 173.313 11.08 173.313 14.47C173.313 17.89 170.853 20.56 167.463 20.56H164.583ZM179.519 21.34C179.519 23.71 181.289 25.3 183.659 25.3C185.549 25.3 186.599 24.43 187.289 23.8L187.709 24.61C187.859 24.94 188.069 25 188.249 25H189.569C189.869 25 190.139 24.73 190.139 24.43V17.8C190.139 14.26 188.789 12.7 185.069 12.7C183.449 12.7 181.349 13.06 181.079 13.15C180.809 13.24 180.539 13.45 180.629 13.96L180.899 15.85C180.959 16.3 181.169 16.63 181.619 16.48C182.399 16.24 183.809 16.03 184.619 16.03C186.059 16.03 186.239 16.63 186.239 17.8C186.239 17.8 185.279 17.32 183.929 17.32C181.199 17.32 179.519 19.03 179.519 21.34ZM183.419 21.04C183.419 20.35 183.989 19.78 184.709 19.78C185.429 19.78 185.999 20.35 186.029 21.04C186.029 21.76 185.429 22.36 184.709 22.36C183.989 22.36 183.419 21.76 183.419 21.04ZM197.243 25C197.333 25.15 197.573 25.3 197.753 25.3H197.903C198.083 25.3 198.323 25.15 198.413 25L204.113 13.81C204.323 13.42 204.053 13 203.603 13H200.573C200.153 13 199.943 12.97 199.763 13.33L197.873 17.41C197.843 17.41 197.813 17.41 197.783 17.41L196.013 13.33C195.923 13.15 195.683 13 195.473 13H192.113C191.663 13 191.393 13.42 191.603 13.81L197.243 25ZM208.066 9.37C209.386 9.37 210.466 8.32 210.466 7C210.466 5.68 209.386 4.6 208.066 4.6C206.746 4.6 205.696 5.68 205.696 7C205.696 8.32 206.746 9.37 208.066 9.37ZM205.876 24.43C205.876 24.73 206.146 25 206.446 25H209.746C210.046 25 210.316 24.73 210.316 24.43V13.57C210.316 13.24 210.046 13 209.746 13H206.446C206.146 13 205.876 13.24 205.876 13.57V24.43ZM212.682 19C212.682 22.45 215.232 25.3 218.622 25.3C221.262 25.3 222.642 23.41 222.642 23.41L223.002 24.4C223.122 24.73 223.332 25 223.632 25H225.042C225.342 25 225.612 24.73 225.612 24.43V4.57C225.612 4.27 225.342 4 225.042 4H221.712C221.412 4 221.142 4.27 221.142 4.57V13.27C220.782 13.06 219.672 12.7 218.652 12.7C215.442 12.7 212.682 14.77 212.682 19ZM216.792 18.97C216.792 17.62 217.842 16.57 219.222 16.57C220.602 16.57 221.622 17.62 221.622 18.97C221.622 20.35 220.602 21.43 219.222 21.43C217.842 21.43 216.792 20.35 216.792 18.97ZM236.426 24.43C236.426 24.73 236.666 25 236.996 25H240.536C240.836 25 241.106 24.73 241.106 24.43V17.38H244.256C247.916 17.38 250.946 14.35 250.946 10.63C250.946 7 247.916 4 244.226 4H236.996C236.666 4 236.426 4.27 236.426 4.57V24.43ZM241.106 13V8.41H243.956C245.246 8.41 246.326 9.37 246.326 10.63C246.326 11.98 245.246 13 243.956 13H241.106ZM251.148 18.97C251.148 22.42 253.968 25.3 257.388 25.3C260.808 25.3 263.628 22.42 263.628 18.97C263.628 15.58 260.808 12.7 257.388 12.7C253.968 12.7 251.148 15.58 251.148 18.97ZM255.018 18.97C255.018 17.65 256.068 16.57 257.388 16.57C258.708 16.57 259.758 17.65 259.758 18.97C259.758 20.32 258.708 21.43 257.388 21.43C256.068 21.43 255.018 20.32 255.018 18.97ZM265.515 24.31C266.115 24.79 267.615 25.3 269.595 25.3C272.985 25.3 274.665 23.59 274.665 21.49C274.665 19.09 272.985 18.13 270.555 17.29C269.535 16.93 269.205 16.63 269.205 16.33C269.205 16 269.475 15.91 269.865 15.91C271.035 15.91 272.415 16.6 272.415 16.6C272.655 16.69 272.955 16.6 273.045 16.42L274.155 14.38C274.335 14.08 274.125 13.81 273.855 13.63C273.195 13.21 271.755 12.7 269.865 12.7C266.625 12.7 265.185 14.32 265.185 16.33C265.185 18.19 266.205 19.54 268.545 20.35C270.075 20.89 270.255 21.31 270.255 21.61C270.255 21.97 269.985 22.15 269.685 22.15C268.395 22.15 266.985 21.37 266.985 21.37C266.745 21.25 266.445 21.43 266.355 21.61L265.305 23.68C265.155 23.95 265.305 24.13 265.515 24.31ZM277.548 21.13C277.548 23.86 278.868 25.3 281.148 25.3C282.648 25.3 284.778 24.64 284.778 24.64C285.078 24.55 285.228 24.22 285.168 23.95L284.508 21.46C284.418 21.13 284.148 21.01 283.848 21.07C283.548 21.13 283.098 21.28 282.678 21.28C282.318 21.28 281.868 21.22 281.868 20.56V16.81H284.088C284.418 16.81 284.658 16.54 284.658 16.24V13.57C284.658 13.24 284.418 13 284.088 13H281.868V9.67C281.868 9.37 281.628 9.1 281.328 9.1H278.118C277.818 9.1 277.548 9.37 277.548 9.67V13H276.768C276.468 13 276.228 13.24 276.228 13.57V16.24C276.228 16.54 276.468 16.81 276.768 16.81H277.548V21.13ZM1.31713 54.34C1.25713 54.73 1.52713 55 1.88713 55H5.42713C5.72713 55 5.96713 54.76 5.99713 54.52L7.31713 45.25H7.37713L12.4471 54.97C12.5371 55.15 12.7771 55.3 12.9571 55.3H13.4971C13.6471 55.3 13.9171 55.15 14.0071 54.97L19.0471 45.25H19.1071L20.4571 54.52C20.4871 54.76 20.7571 55 21.0271 55H24.5671C24.9271 55 25.1971 54.73 25.1371 54.34L21.7471 34.18C21.7171 33.91 21.4471 33.7 21.2071 33.7H20.7271C20.5771 33.7 20.3071 33.82 20.2171 34L13.2571 46.96H13.1971L6.23713 34C6.14713 33.82 5.87713 33.7 5.72713 33.7H5.24713C5.00713 33.7 4.73713 33.91 4.70713 34.18L1.31713 54.34ZM26.8535 51.34C26.8535 53.71 28.6235 55.3 30.9935 55.3C32.8835 55.3 33.9335 54.43 34.6235 53.8L35.0435 54.61C35.1935 54.94 35.4035 55 35.5835 55H36.9035C37.2035 55 37.4735 54.73 37.4735 54.43V47.8C37.4735 44.26 36.1235 42.7 32.4035 42.7C30.7835 42.7 28.6835 43.06 28.4135 43.15C28.1435 43.24 27.8735 43.45 27.9635 43.96L28.2335 45.85C28.2935 46.3 28.5035 46.63 28.9535 46.48C29.7335 46.24 31.1435 46.03 31.9535 46.03C33.3935 46.03 33.5735 46.63 33.5735 47.8C33.5735 47.8 32.6135 47.32 31.2635 47.32C28.5335 47.32 26.8535 49.03 26.8535 51.34ZM30.7535 51.04C30.7535 50.35 31.3235 49.78 32.0435 49.78C32.7635 49.78 33.3335 50.35 33.3635 51.04C33.3635 51.76 32.7635 52.36 32.0435 52.36C31.3235 52.36 30.7535 51.76 30.7535 51.04ZM40.5248 54.43C40.5248 54.73 40.7948 55 41.0948 55H44.2448C44.6648 55 44.7848 54.7 44.7848 54.43V48.67C44.7848 47.44 45.8648 46.57 47.0648 46.57C48.4148 46.57 49.1048 47.62 49.1048 48.82V54.43C49.1048 54.73 49.3448 55 49.6748 55H52.8848C53.1848 55 53.4548 54.73 53.4548 54.43V48.97C53.4548 45.55 51.4748 42.7 47.7548 42.7C45.5648 42.7 44.1848 43.84 43.5248 44.56L43.0448 43.36C42.9548 43.15 42.6848 43 42.5048 43H41.0948C40.7948 43 40.5248 43.24 40.5248 43.57V54.43ZM55.5644 51.34C55.5644 53.71 57.3344 55.3 59.7044 55.3C61.5944 55.3 62.6444 54.43 63.3344 53.8L63.7544 54.61C63.9044 54.94 64.1144 55 64.2944 55H65.6144C65.9144 55 66.1844 54.73 66.1844 54.43V47.8C66.1844 44.26 64.8344 42.7 61.1144 42.7C59.4944 42.7 57.3944 43.06 57.1244 43.15C56.8544 43.24 56.5844 43.45 56.6744 43.96L56.9444 45.85C57.0044 46.3 57.2144 46.63 57.6644 46.48C58.4444 46.24 59.8544 46.03 60.6644 46.03C62.1044 46.03 62.2844 46.63 62.2844 47.8C62.2844 47.8 61.3244 47.32 59.9744 47.32C57.2444 47.32 55.5644 49.03 55.5644 51.34ZM59.4644 51.04C59.4644 50.35 60.0344 49.78 60.7544 49.78C61.4744 49.78 62.0444 50.35 62.0744 51.04C62.0744 51.76 61.4744 52.36 60.7544 52.36C60.0344 52.36 59.4644 51.76 59.4644 51.04ZM67.9457 53.92C67.9457 56.29 69.8657 57.13 70.2557 57.25V57.34C69.9257 57.52 68.4257 58.42 68.4257 60.22C68.4257 62.11 70.0457 64.3 74.6957 64.3C79.4357 64.3 81.4457 61.96 81.4457 59.08C81.4457 56.41 79.1057 54.7 76.2857 54.7H72.6857C72.2357 54.7 71.7257 54.46 71.7257 53.89C71.7257 53.41 72.0857 53.08 72.7157 53.08H74.8757C78.0557 53.08 80.0657 50.74 80.0657 48.55C80.0657 46.57 78.9257 45.64 78.9257 45.64L80.6657 45.01C80.8457 44.92 80.9957 44.71 80.9957 44.5V43.27C80.9957 42.94 80.7557 42.7 80.4257 42.7H74.7557C71.8457 42.7 69.4757 45.1 69.4757 47.89C69.4757 49.72 70.3457 50.62 70.3457 50.62C70.3457 50.62 67.9457 51.55 67.9457 53.92ZM73.2857 48.16C73.2857 47.26 73.9757 46.6 74.8757 46.6C75.8057 46.6 76.4657 47.26 76.4657 48.16C76.4657 49.06 75.8057 49.72 74.8757 49.72C73.9757 49.72 73.2857 49.06 73.2857 48.16ZM72.5357 59.38C72.5357 58.51 73.6157 58.12 74.6957 58.12C76.3157 58.12 76.8557 58.75 76.8557 59.38C76.8557 60.19 76.1957 60.79 74.6957 60.79C73.2557 60.79 72.5357 60.22 72.5357 59.38ZM85.371 39.37C86.691 39.37 87.771 38.32 87.771 37C87.771 35.68 86.691 34.6 85.371 34.6C84.051 34.6 83.001 35.68 83.001 37C83.001 38.32 84.051 39.37 85.371 39.37ZM83.181 54.43C83.181 54.73 83.451 55 83.751 55H87.051C87.351 55 87.621 54.73 87.621 54.43V43.57C87.621 43.24 87.351 43 87.051 43H83.751C83.451 43 83.181 43.24 83.181 43.57V54.43ZM90.8568 54.43C90.8568 54.73 91.1268 55 91.4268 55H94.5768C94.9968 55 95.1168 54.7 95.1168 54.43V48.67C95.1168 47.44 96.1968 46.57 97.3968 46.57C98.7468 46.57 99.4368 47.62 99.4368 48.82V54.43C99.4368 54.73 99.6768 55 100.007 55H103.217C103.517 55 103.787 54.73 103.787 54.43V48.97C103.787 45.55 101.807 42.7 98.0868 42.7C95.8968 42.7 94.5168 43.84 93.8568 44.56L93.3768 43.36C93.2868 43.15 93.0168 43 92.8368 43H91.4268C91.1268 43 90.8568 43.24 90.8568 43.57V54.43ZM105.416 53.92C105.416 56.29 107.336 57.13 107.726 57.25V57.34C107.396 57.52 105.896 58.42 105.896 60.22C105.896 62.11 107.516 64.3 112.166 64.3C116.906 64.3 118.916 61.96 118.916 59.08C118.916 56.41 116.576 54.7 113.756 54.7H110.156C109.706 54.7 109.196 54.46 109.196 53.89C109.196 53.41 109.556 53.08 110.186 53.08H112.346C115.526 53.08 117.536 50.74 117.536 48.55C117.536 46.57 116.396 45.64 116.396 45.64L118.136 45.01C118.316 44.92 118.466 44.71 118.466 44.5V43.27C118.466 42.94 118.226 42.7 117.896 42.7H112.226C109.316 42.7 106.946 45.1 106.946 47.89C106.946 49.72 107.816 50.62 107.816 50.62C107.816 50.62 105.416 51.55 105.416 53.92ZM110.756 48.16C110.756 47.26 111.446 46.6 112.346 46.6C113.276 46.6 113.936 47.26 113.936 48.16C113.936 49.06 113.276 49.72 112.346 49.72C111.446 49.72 110.756 49.06 110.756 48.16ZM110.006 59.38C110.006 58.51 111.086 58.12 112.166 58.12C113.786 58.12 114.326 58.75 114.326 59.38C114.326 60.19 113.666 60.79 112.166 60.79C110.726 60.79 110.006 60.22 110.006 59.38ZM128.233 54.43C128.233 54.73 128.473 55 128.773 55H136.093C141.883 55 146.623 50.29 146.623 44.47C146.623 38.71 141.883 34 136.093 34H128.773C128.473 34 128.233 34.27 128.233 34.57V54.43ZM132.913 50.56V38.41H135.793C139.183 38.41 141.643 41.08 141.643 44.47C141.643 47.89 139.183 50.56 135.793 50.56H132.913ZM150.996 39.37C152.316 39.37 153.396 38.32 153.396 37C153.396 35.68 152.316 34.6 150.996 34.6C149.676 34.6 148.626 35.68 148.626 37C148.626 38.32 149.676 39.37 150.996 39.37ZM148.806 54.43C148.806 54.73 149.076 55 149.376 55H152.676C152.976 55 153.246 54.73 153.246 54.43V43.57C153.246 43.24 152.976 43 152.676 43H149.376C149.076 43 148.806 43.24 148.806 43.57V54.43ZM156.482 54.43C156.482 54.73 156.752 55 157.052 55H160.112C160.592 55 160.772 54.79 160.772 54.43V48.22C160.772 47.2 161.462 46.51 162.362 46.51C162.632 46.51 162.932 46.6 163.082 46.66C163.412 46.78 163.622 46.6 163.742 46.39L165.212 43.99C165.632 43.3 164.462 42.7 162.812 42.7C161.252 42.7 160.142 43.81 159.542 44.68L159.002 43.36C158.912 43.18 158.792 43 158.462 43H157.052C156.752 43 156.482 43.24 156.482 43.57V54.43ZM165.806 49C165.806 52.45 168.506 55.3 172.076 55.3C173.966 55.3 175.466 54.64 176.516 53.59C176.786 53.32 176.726 52.96 176.546 52.72L175.046 50.92C174.866 50.71 174.566 50.71 174.296 50.92C173.816 51.28 172.946 51.64 172.196 51.64C170.636 51.64 169.976 50.47 169.886 49.66H177.086C177.356 49.66 177.626 49.45 177.656 49.15C177.686 48.94 177.716 48.55 177.716 48.34C177.716 45.04 175.076 42.7 172.016 42.7C168.476 42.7 165.806 45.61 165.806 49ZM170.276 47.32C170.396 46.54 171.086 45.91 171.896 45.91C172.676 45.91 173.426 46.54 173.486 47.32H170.276ZM178.96 49C178.96 52.6 181.99 55.3 185.41 55.3C187.57 55.3 189.13 54.46 190.24 52.78C190.45 52.48 190.3 52.18 190.03 51.94L188.23 50.38C188.05 50.23 187.78 50.29 187.57 50.5C187.09 50.98 186.58 51.43 185.53 51.43C184.21 51.43 183.19 50.35 183.19 49C183.19 47.68 184.27 46.57 185.59 46.57C186.28 46.57 186.91 46.9 187.33 47.35C187.48 47.5 187.84 47.56 187.99 47.41L189.79 45.7C190.06 45.46 190.15 45.13 189.94 44.86C188.8 43.48 187.33 42.7 185.44 42.7C182.02 42.7 178.96 45.46 178.96 49ZM192.968 51.13C192.968 53.86 194.288 55.3 196.568 55.3C198.068 55.3 200.198 54.64 200.198 54.64C200.498 54.55 200.648 54.22 200.588 53.95L199.928 51.46C199.838 51.13 199.568 51.01 199.268 51.07C198.968 51.13 198.518 51.28 198.098 51.28C197.738 51.28 197.288 51.22 197.288 50.56V46.81H199.508C199.838 46.81 200.078 46.54 200.078 46.24V43.57C200.078 43.24 199.838 43 199.508 43H197.288V39.67C197.288 39.37 197.048 39.1 196.748 39.1H193.538C193.238 39.1 192.968 39.37 192.968 39.67V43H192.188C191.888 43 191.648 43.24 191.648 43.57V46.24C191.648 46.54 191.888 46.81 192.188 46.81H192.968V51.13ZM201.87 48.97C201.87 52.42 204.69 55.3 208.11 55.3C211.53 55.3 214.35 52.42 214.35 48.97C214.35 45.58 211.53 42.7 208.11 42.7C204.69 42.7 201.87 45.58 201.87 48.97ZM205.74 48.97C205.74 47.65 206.79 46.57 208.11 46.57C209.43 46.57 210.48 47.65 210.48 48.97C210.48 50.32 209.43 51.43 208.11 51.43C206.79 51.43 205.74 50.32 205.74 48.97ZM216.658 54.43C216.658 54.73 216.928 55 217.228 55H220.288C220.768 55 220.948 54.79 220.948 54.43V48.22C220.948 47.2 221.638 46.51 222.538 46.51C222.808 46.51 223.108 46.6 223.258 46.66C223.588 46.78 223.798 46.6 223.918 46.39L225.388 43.99C225.808 43.3 224.638 42.7 222.988 42.7C221.428 42.7 220.318 43.81 219.718 44.68L219.178 43.36C219.088 43.18 218.968 43 218.638 43H217.228C216.928 43 216.658 43.24 216.658 43.57V54.43ZM232.69 48.97C232.69 52.42 235.51 55.3 238.93 55.3C242.35 55.3 245.17 52.42 245.17 48.97C245.17 45.58 242.35 42.7 238.93 42.7C235.51 42.7 232.69 45.58 232.69 48.97ZM236.56 48.97C236.56 47.65 237.61 46.57 238.93 46.57C240.25 46.57 241.3 47.65 241.3 48.97C241.3 50.32 240.25 51.43 238.93 51.43C237.61 51.43 236.56 50.32 236.56 48.97ZM248.108 54.43C248.108 54.73 248.378 55 248.678 55H252.128C252.428 55 252.698 54.73 252.698 54.43V46.81H255.458C255.788 46.81 256.028 46.54 256.028 46.24V43.57C256.028 43.24 255.788 43 255.458 43H252.698V40.24C252.698 38.77 253.208 37.75 254.468 37.75C255.068 37.75 255.638 38.02 256.028 38.23C256.268 38.35 256.628 38.23 256.718 38.02L257.978 35.53C258.098 35.32 258.038 34.99 257.858 34.84C257.348 34.36 255.758 33.7 254.198 33.7C250.718 33.7 248.108 36.04 248.108 40.24V43H247.478C247.148 43 246.908 43.24 246.908 43.57V46.24C246.908 46.54 247.148 46.81 247.478 46.81H248.108V54.43ZM264.222 44.53C264.222 50.53 269.052 55.3 275.052 55.3C277.722 55.3 280.302 54.37 282.342 52.39C282.552 52.18 282.582 51.79 282.372 51.58L280.032 49.09C279.852 48.88 279.462 48.88 279.252 49.06C278.172 49.99 276.642 50.5 275.232 50.5C271.842 50.5 269.322 47.74 269.322 44.41C269.322 41.05 271.812 38.23 275.202 38.23C276.672 38.23 278.142 38.77 279.252 39.76C279.462 39.97 279.792 39.97 280.002 39.76L282.342 37.33C282.582 37.09 282.582 36.73 282.312 36.49C280.272 34.63 278.052 33.7 275.052 33.7C269.052 33.7 264.222 38.53 264.222 44.53ZM284.597 54.43C284.597 54.73 284.867 55 285.167 55H288.407C288.917 55 289.067 54.82 289.067 54.43V48.94C289.067 47.11 290.117 46.57 291.077 46.57C292.397 46.57 293.267 47.62 293.267 48.94V54.43C293.267 54.73 293.507 55 293.837 55H297.017C297.317 55 297.587 54.73 297.587 54.43V49C297.587 45.67 295.637 42.7 291.857 42.7C290.957 42.7 289.967 42.94 289.067 43.39V34.57C289.067 34.27 288.797 34 288.497 34H285.167C284.867 34 284.597 34.27 284.597 34.57V54.43ZM299.695 51.34C299.695 53.71 301.465 55.3 303.835 55.3C305.725 55.3 306.775 54.43 307.465 53.8L307.885 54.61C308.035 54.94 308.245 55 308.425 55H309.745C310.045 55 310.315 54.73 310.315 54.43V47.8C310.315 44.26 308.965 42.7 305.245 42.7C303.625 42.7 301.525 43.06 301.255 43.15C300.985 43.24 300.715 43.45 300.805 43.96L301.075 45.85C301.135 46.3 301.345 46.63 301.795 46.48C302.575 46.24 303.985 46.03 304.795 46.03C306.235 46.03 306.415 46.63 306.415 47.8C306.415 47.8 305.455 47.32 304.105 47.32C301.375 47.32 299.695 49.03 299.695 51.34ZM303.595 51.04C303.595 50.35 304.165 49.78 304.885 49.78C305.605 49.78 306.175 50.35 306.205 51.04C306.205 51.76 305.605 52.36 304.885 52.36C304.165 52.36 303.595 51.76 303.595 51.04ZM315.557 39.37C316.877 39.37 317.957 38.32 317.957 37C317.957 35.68 316.877 34.6 315.557 34.6C314.237 34.6 313.187 35.68 313.187 37C313.187 38.32 314.237 39.37 315.557 39.37ZM313.367 54.43C313.367 54.73 313.637 55 313.937 55H317.237C317.537 55 317.807 54.73 317.807 54.43V43.57C317.807 43.24 317.537 43 317.237 43H313.937C313.637 43 313.367 43.24 313.367 43.57V54.43ZM321.042 54.43C321.042 54.73 321.312 55 321.612 55H324.762C325.182 55 325.302 54.7 325.302 54.43V48.67C325.302 47.44 326.382 46.57 327.582 46.57C328.932 46.57 329.622 47.62 329.622 48.82V54.43C329.622 54.73 329.862 55 330.192 55H333.402C333.702 55 333.972 54.73 333.972 54.43V48.97C333.972 45.55 331.992 42.7 328.272 42.7C326.082 42.7 324.702 43.84 324.042 44.56L323.562 43.36C323.472 43.15 323.202 43 323.022 43H321.612C321.312 43 321.042 43.24 321.042 43.57V54.43ZM336.892 54.43C336.892 54.73 337.162 55 337.462 55H340.762C341.062 55 341.332 54.73 341.332 54.43V34.57C341.332 34.27 341.062 34 340.762 34H337.462C337.162 34 336.892 34.27 336.892 34.57V54.43ZM346.758 39.37C348.078 39.37 349.158 38.32 349.158 37C349.158 35.68 348.078 34.6 346.758 34.6C345.438 34.6 344.388 35.68 344.388 37C344.388 38.32 345.438 39.37 346.758 39.37ZM344.568 54.43C344.568 54.73 344.838 55 345.138 55H348.438C348.738 55 349.008 54.73 349.008 54.43V43.57C349.008 43.24 348.738 43 348.438 43H345.138C344.838 43 344.568 43.24 344.568 43.57V54.43ZM352.244 54.43C352.244 54.73 352.514 55 352.814 55H355.964C356.384 55 356.504 54.7 356.504 54.43V48.67C356.504 47.44 357.584 46.57 358.784 46.57C360.134 46.57 360.824 47.62 360.824 48.82V54.43C360.824 54.73 361.064 55 361.394 55H364.604C364.904 55 365.174 54.73 365.174 54.43V48.97C365.174 45.55 363.194 42.7 359.474 42.7C357.284 42.7 355.904 43.84 355.244 44.56L354.764 43.36C354.674 43.15 354.404 43 354.224 43H352.814C352.514 43 352.244 43.24 352.244 43.57V54.43ZM368.093 54.43C368.093 54.73 368.363 55 368.663 55H371.993C372.293 55 372.563 54.73 372.563 54.43V49.54L376.643 54.76C376.733 54.88 376.973 55 377.093 55H381.143C381.653 55 381.923 54.49 381.593 54.1L376.793 48.52L380.753 43.93C381.083 43.51 380.813 43 380.303 43H376.943C376.583 43 376.373 43.18 376.193 43.36L372.563 47.56V34.57C372.563 34.27 372.293 34 371.993 34H368.663C368.363 34 368.093 34.27 368.093 34.57V54.43ZM390.997 54.43C390.997 54.73 391.237 55 391.567 55H402.847C403.177 55 403.417 54.73 403.417 54.43V51.16C403.417 50.86 403.177 50.59 402.847 50.59H395.707V34.57C395.707 34.27 395.437 34 395.137 34H391.567C391.237 34 390.997 34.27 390.997 34.57V54.43ZM404.549 51.34C404.549 53.71 406.319 55.3 408.689 55.3C410.579 55.3 411.629 54.43 412.319 53.8L412.739 54.61C412.889 54.94 413.099 55 413.279 55H414.599C414.899 55 415.169 54.73 415.169 54.43V47.8C415.169 44.26 413.819 42.7 410.099 42.7C408.479 42.7 406.379 43.06 406.109 43.15C405.839 43.24 405.569 43.45 405.659 43.96L405.929 45.85C405.989 46.3 406.199 46.63 406.649 46.48C407.429 46.24 408.839 46.03 409.649 46.03C411.089 46.03 411.269 46.63 411.269 47.8C411.269 47.8 410.309 47.32 408.959 47.32C406.229 47.32 404.549 49.03 404.549 51.34ZM408.449 51.04C408.449 50.35 409.019 49.78 409.739 49.78C410.459 49.78 411.029 50.35 411.059 51.04C411.059 51.76 410.459 52.36 409.739 52.36C409.019 52.36 408.449 51.76 408.449 51.04ZM418.22 54.43C418.22 54.73 418.49 55 418.79 55H420.2C420.5 55 420.71 54.73 420.83 54.4L421.19 53.41C421.19 53.41 422.57 55.3 425.21 55.3C428.6 55.3 431.15 52.45 431.15 49C431.15 44.77 428.39 42.7 425.18 42.7C424.16 42.7 423.05 43.06 422.69 43.27V34.57C422.69 34.27 422.42 34 422.12 34H418.79C418.49 34 418.22 34.27 418.22 34.57V54.43ZM422.21 48.97C422.21 47.62 423.23 46.57 424.61 46.57C425.99 46.57 427.04 47.62 427.04 48.97C427.04 50.35 425.99 51.43 424.61 51.43C423.23 51.43 422.21 50.35 422.21 48.97ZM433.093 54.31C433.693 54.79 435.193 55.3 437.173 55.3C440.563 55.3 442.243 53.59 442.243 51.49C442.243 49.09 440.563 48.13 438.133 47.29C437.113 46.93 436.783 46.63 436.783 46.33C436.783 46 437.053 45.91 437.443 45.91C438.613 45.91 439.993 46.6 439.993 46.6C440.233 46.69 440.533 46.6 440.623 46.42L441.733 44.38C441.913 44.08 441.703 43.81 441.433 43.63C440.773 43.21 439.333 42.7 437.443 42.7C434.203 42.7 432.763 44.32 432.763 46.33C432.763 48.19 433.783 49.54 436.123 50.35C437.653 50.89 437.833 51.31 437.833 51.61C437.833 51.97 437.563 52.15 437.263 52.15C435.973 52.15 434.563 51.37 434.563 51.37C434.323 51.25 434.023 51.43 433.933 51.61L432.883 53.68C432.733 53.95 432.883 54.13 433.093 54.31Z" fill="white"/>
</svg>
