<svg width="191" height="92" viewBox="0 0 191 92" fill="none" xmlns="http://www.w3.org/2000/svg">
<path d="M33.8862 24.43C33.8862 24.73 34.1262 25 34.4262 25H41.7462C47.5362 25 52.2762 20.29 52.2762 14.47C52.2762 8.71 47.5362 4 41.7462 4H34.4262C34.1262 4 33.8862 4.27 33.8862 4.57V24.43ZM38.5662 20.56V8.41H41.4462C44.8362 8.41 47.2962 11.08 47.2962 14.47C47.2962 17.89 44.8362 20.56 41.4462 20.56H38.5662ZM53.5029 21.34C53.5029 23.71 55.2729 25.3 57.6429 25.3C59.5329 25.3 60.5829 24.43 61.2729 23.8L61.6929 24.61C61.8429 24.94 62.0529 25 62.2329 25H63.5529C63.8529 25 64.1229 24.73 64.1229 24.43V17.8C64.1229 14.26 62.7729 12.7 59.0529 12.7C57.4329 12.7 55.3329 13.06 55.0629 13.15C54.7929 13.24 54.5229 13.45 54.6129 13.96L54.8829 15.85C54.9429 16.3 55.1529 16.63 55.6029 16.48C56.3829 16.24 57.7929 16.03 58.6029 16.03C60.0429 16.03 60.2229 16.63 60.2229 17.8C60.2229 17.8 59.2629 17.32 57.9129 17.32C55.1829 17.32 53.5029 19.03 53.5029 21.34ZM57.4029 21.04C57.4029 20.35 57.9729 19.78 58.6929 19.78C59.4129 19.78 59.9829 20.35 60.0129 21.04C60.0129 21.76 59.4129 22.36 58.6929 22.36C57.9729 22.36 57.4029 21.76 57.4029 21.04ZM71.2263 25C71.3163 25.15 71.5563 25.3 71.7363 25.3H71.8863C72.0663 25.3 72.3063 25.15 72.3963 25L78.0963 13.81C78.3063 13.42 78.0363 13 77.5863 13H74.5563C74.1363 13 73.9263 12.97 73.7463 13.33L71.8563 17.41C71.8263 17.41 71.7963 17.41 71.7663 17.41L69.9963 13.33C69.9063 13.15 69.6663 13 69.4563 13H66.0963C65.6463 13 65.3763 13.42 65.5863 13.81L71.2263 25ZM82.0497 9.37C83.3697 9.37 84.4497 8.32 84.4497 7C84.4497 5.68 83.3697 4.6 82.0497 4.6C80.7297 4.6 79.6797 5.68 79.6797 7C79.6797 8.32 80.7297 9.37 82.0497 9.37ZM79.8597 24.43C79.8597 24.73 80.1297 25 80.4297 25H83.7297C84.0297 25 84.2997 24.73 84.2997 24.43V13.57C84.2997 13.24 84.0297 13 83.7297 13H80.4297C80.1297 13 79.8597 13.24 79.8597 13.57V24.43ZM86.6655 19C86.6655 22.45 89.2155 25.3 92.6055 25.3C95.2455 25.3 96.6255 23.41 96.6255 23.41L96.9855 24.4C97.1055 24.73 97.3155 25 97.6155 25H99.0255C99.3255 25 99.5955 24.73 99.5955 24.43V4.57C99.5955 4.27 99.3255 4 99.0255 4H95.6955C95.3955 4 95.1255 4.27 95.1255 4.57V13.27C94.7655 13.06 93.6555 12.7 92.6355 12.7C89.4255 12.7 86.6655 14.77 86.6655 19ZM90.7755 18.97C90.7755 17.62 91.8255 16.57 93.2055 16.57C94.5855 16.57 95.6055 17.62 95.6055 18.97C95.6055 20.35 94.5855 21.43 93.2055 21.43C91.8255 21.43 90.7755 20.35 90.7755 18.97ZM110.41 24.43C110.41 24.73 110.65 25 110.98 25H114.52C114.82 25 115.09 24.73 115.09 24.43V17.38H118.24C121.9 17.38 124.93 14.35 124.93 10.63C124.93 7 121.9 4 118.21 4H110.98C110.65 4 110.41 4.27 110.41 4.57V24.43ZM115.09 13V8.41H117.94C119.23 8.41 120.31 9.37 120.31 10.63C120.31 11.98 119.23 13 117.94 13H115.09ZM125.131 18.97C125.131 22.42 127.951 25.3 131.371 25.3C134.791 25.3 137.611 22.42 137.611 18.97C137.611 15.58 134.791 12.7 131.371 12.7C127.951 12.7 125.131 15.58 125.131 18.97ZM129.001 18.97C129.001 17.65 130.051 16.57 131.371 16.57C132.691 16.57 133.741 17.65 133.741 18.97C133.741 20.32 132.691 21.43 131.371 21.43C130.051 21.43 129.001 20.32 129.001 18.97ZM139.498 24.31C140.098 24.79 141.598 25.3 143.578 25.3C146.968 25.3 148.648 23.59 148.648 21.49C148.648 19.09 146.968 18.13 144.538 17.29C143.518 16.93 143.188 16.63 143.188 16.33C143.188 16 143.458 15.91 143.848 15.91C145.018 15.91 146.398 16.6 146.398 16.6C146.638 16.69 146.938 16.6 147.028 16.42L148.138 14.38C148.318 14.08 148.108 13.81 147.838 13.63C147.178 13.21 145.738 12.7 143.848 12.7C140.608 12.7 139.168 14.32 139.168 16.33C139.168 18.19 140.188 19.54 142.528 20.35C144.058 20.89 144.238 21.31 144.238 21.61C144.238 21.97 143.968 22.15 143.668 22.15C142.378 22.15 140.968 21.37 140.968 21.37C140.728 21.25 140.428 21.43 140.338 21.61L139.288 23.68C139.138 23.95 139.288 24.13 139.498 24.31ZM151.531 21.13C151.531 23.86 152.851 25.3 155.131 25.3C156.631 25.3 158.761 24.64 158.761 24.64C159.061 24.55 159.211 24.22 159.151 23.95L158.491 21.46C158.401 21.13 158.131 21.01 157.831 21.07C157.531 21.13 157.081 21.28 156.661 21.28C156.301 21.28 155.851 21.22 155.851 20.56V16.81H158.071C158.401 16.81 158.641 16.54 158.641 16.24V13.57C158.641 13.24 158.401 13 158.071 13H155.851V9.67C155.851 9.37 155.611 9.1 155.311 9.1H152.101C151.801 9.1 151.531 9.37 151.531 9.67V13H150.751C150.451 13 150.211 13.24 150.211 13.57V16.24C150.211 16.54 150.451 16.81 150.751 16.81H151.531V21.13ZM2.146 55.675C2.096 55.925 2.196 56 2.421 56H3.021C3.171 56 3.296 55.875 3.321 55.725L6.146 41.075C6.171 41.075 6.196 41.075 6.196 41.075L11.246 56.05C11.296 56.225 11.446 56.25 11.571 56.25H11.671C11.821 56.25 11.971 56.2 12.021 56.05L17.071 41.075C17.071 41.075 17.096 41.075 17.121 41.075L19.946 55.725C19.971 55.875 20.096 56 20.246 56H20.846C21.071 56 21.171 55.925 21.121 55.675L17.571 38.425C17.546 38.325 17.446 38.25 17.346 38.25H17.071C16.946 38.25 16.871 38.3 16.821 38.425L11.646 53.775C11.621 53.775 11.621 53.775 11.596 53.775L6.446 38.425C6.396 38.3 6.321 38.25 6.196 38.25H5.921C5.821 38.25 5.721 38.325 5.696 38.425L2.146 55.675ZM23.3827 52.925C23.3827 54.975 24.8077 56.25 26.6577 56.25C28.2577 56.25 29.4827 55.425 30.1327 54.825L30.2327 55.725C30.2827 55.9 30.3577 56 30.5327 56H30.8327C31.0077 56 31.1577 55.85 31.1577 55.675V50.125C31.1577 47.575 31.0327 45.75 27.9827 45.75C25.9077 45.75 24.6327 46.45 24.5577 46.5C24.4327 46.55 24.3327 46.65 24.4077 46.875L24.5327 47.175C24.5827 47.35 24.7077 47.45 24.9077 47.375C25.1327 47.3 26.2577 46.7 27.9077 46.7C29.8827 46.7 30.1077 47.8 30.1077 50C29.8327 49.9 28.7327 49.55 27.5827 49.55C24.9577 49.55 23.3827 51 23.3827 52.925ZM24.4077 52.9C24.4077 51.425 25.6827 50.45 27.5827 50.45C28.7827 50.45 29.7827 50.825 30.1077 50.975V53.725C29.6327 54.35 28.3077 55.275 26.7827 55.275C25.4077 55.275 24.4077 54.35 24.4077 52.9ZM34.8517 55.675C34.8517 55.85 34.9517 56 35.1267 56H35.6017C35.8267 56 35.9267 55.875 35.9267 55.675V48.55C36.0267 48.425 37.4517 46.825 39.5017 46.825C41.4017 46.825 42.4767 48.025 42.4767 50.325V55.675C42.4767 55.85 42.6267 56 42.8017 56H43.2517C43.4267 56 43.5767 55.85 43.5767 55.675V50.325C43.5767 47.525 42.3517 45.75 39.5517 45.75C37.5517 45.75 36.1767 46.975 35.8517 47.325L35.7517 46.25C35.7267 46.1 35.6267 46 35.4517 46H35.2017C35.0017 46 34.8517 46.15 34.8517 46.325V55.675ZM46.4296 52.925C46.4296 54.975 47.8546 56.25 49.7046 56.25C51.3046 56.25 52.5296 55.425 53.1796 54.825L53.2796 55.725C53.3296 55.9 53.4046 56 53.5796 56H53.8796C54.0546 56 54.2046 55.85 54.2046 55.675V50.125C54.2046 47.575 54.0796 45.75 51.0296 45.75C48.9546 45.75 47.6796 46.45 47.6046 46.5C47.4796 46.55 47.3796 46.65 47.4546 46.875L47.5796 47.175C47.6296 47.35 47.7546 47.45 47.9546 47.375C48.1796 47.3 49.3046 46.7 50.9546 46.7C52.9296 46.7 53.1546 47.8 53.1546 50C52.8796 49.9 51.7796 49.55 50.6296 49.55C48.0046 49.55 46.4296 51 46.4296 52.925ZM47.4546 52.9C47.4546 51.425 48.7296 50.45 50.6296 50.45C51.8296 50.45 52.8296 50.825 53.1546 50.975V53.725C52.6796 54.35 51.3546 55.275 49.8296 55.275C48.4546 55.275 47.4546 54.35 47.4546 52.9ZM56.8735 55.15C56.8735 56.65 58.3235 57.325 58.8235 57.425C58.2985 57.75 57.2485 58.575 57.2485 60.05C57.2485 61.75 58.7235 63.75 62.1235 63.75C65.1735 63.75 67.2235 61.8 67.2235 59.675C67.2235 57.45 65.6735 56.475 63.5235 56.475H59.8985C58.9235 56.475 57.9235 56.2 57.9235 55.025C57.9235 53.85 58.9985 53.3 59.1985 53.225C59.5235 53.575 60.4235 54.125 61.9235 54.125C64.4735 54.125 66.0735 52.2 66.0735 49.975C66.0735 47.9 64.9985 47.025 64.5235 46.775L66.3235 46.65C66.4735 46.625 66.5485 46.475 66.5485 46.35V46.075C66.5485 45.9 66.4235 45.75 66.2235 45.75C62.7485 45.75 62.7485 45.75 62.1235 45.75C59.4235 45.75 57.7485 47.575 57.7485 49.975C57.7485 51.175 58.2485 52.125 58.5235 52.475C58.2485 52.625 56.8735 53.475 56.8735 55.15ZM61.9485 53.15C59.8485 53.15 58.7735 51.7 58.7735 49.95C58.7735 48.15 60.0235 46.75 61.9485 46.75C63.5985 46.75 65.0235 47.85 65.0235 49.95C65.0235 51.725 63.8235 53.15 61.9485 53.15ZM58.3485 59.925C58.3485 58.225 60.1235 57.525 60.3735 57.5H63.5235C65.3735 57.5 66.0735 58.55 66.0735 59.7C66.0735 61.4 64.3485 62.725 62.0985 62.725C59.6735 62.725 58.3485 61.3 58.3485 59.925ZM69.9964 41.1C70.4714 41.1 70.8464 40.725 70.8464 40.275C70.8464 39.8 70.4714 39.4 69.9964 39.4C69.5214 39.4 69.1464 39.8 69.1464 40.275C69.1464 40.725 69.5214 41.1 69.9964 41.1ZM69.4464 55.675C69.4464 55.85 69.5464 56 69.7214 56H70.2214C70.4464 56 70.5464 55.875 70.5464 55.675V46.325C70.5464 46.15 70.3964 46 70.2214 46H69.7714C69.5964 46 69.4464 46.15 69.4464 46.325V55.675ZM74.3536 55.675C74.3536 55.85 74.4536 56 74.6286 56H75.1036C75.3286 56 75.4286 55.875 75.4286 55.675V48.55C75.5286 48.425 76.9536 46.825 79.0036 46.825C80.9036 46.825 81.9786 48.025 81.9786 50.325V55.675C81.9786 55.85 82.1286 56 82.3036 56H82.7536C82.9286 56 83.0786 55.85 83.0786 55.675V50.325C83.0786 47.525 81.8536 45.75 79.0536 45.75C77.0536 45.75 75.6786 46.975 75.3536 47.325L75.2536 46.25C75.2286 46.1 75.1286 46 74.9536 46H74.7036C74.5036 46 74.3536 46.15 74.3536 46.325V55.675ZM85.7065 55.15C85.7065 56.65 87.1565 57.325 87.6565 57.425C87.1315 57.75 86.0815 58.575 86.0815 60.05C86.0815 61.75 87.5565 63.75 90.9565 63.75C94.0065 63.75 96.0565 61.8 96.0565 59.675C96.0565 57.45 94.5065 56.475 92.3565 56.475H88.7315C87.7565 56.475 86.7565 56.2 86.7565 55.025C86.7565 53.85 87.8315 53.3 88.0315 53.225C88.3565 53.575 89.2565 54.125 90.7565 54.125C93.3065 54.125 94.9065 52.2 94.9065 49.975C94.9065 47.9 93.8315 47.025 93.3565 46.775L95.1565 46.65C95.3065 46.625 95.3815 46.475 95.3815 46.35V46.075C95.3815 45.9 95.2565 45.75 95.0565 45.75C91.5815 45.75 91.5815 45.75 90.9565 45.75C88.2565 45.75 86.5815 47.575 86.5815 49.975C86.5815 51.175 87.0815 52.125 87.3565 52.475C87.0815 52.625 85.7065 53.475 85.7065 55.15ZM90.7815 53.15C88.6815 53.15 87.6065 51.7 87.6065 49.95C87.6065 48.15 88.8565 46.75 90.7815 46.75C92.4315 46.75 93.8565 47.85 93.8565 49.95C93.8565 51.725 92.6565 53.15 90.7815 53.15ZM87.1815 59.925C87.1815 58.225 88.9565 57.525 89.2065 57.5H92.3565C94.2065 57.5 94.9065 58.55 94.9065 59.7C94.9065 61.4 93.1815 62.725 90.9315 62.725C88.5065 62.725 87.1815 61.3 87.1815 59.925ZM104.449 55.675C104.449 55.85 104.599 56 104.749 56H110.049C114.899 56 118.849 52.1 118.849 47.225C118.849 42.425 114.899 38.5 110.049 38.5H104.749C104.599 38.5 104.449 38.65 104.449 38.825V55.675ZM105.624 54.925V39.575H109.849C114.224 39.575 117.599 42.9 117.599 47.225C117.599 51.6 114.224 54.925 109.849 54.925H105.624ZM122.413 41.1C122.888 41.1 123.263 40.725 123.263 40.275C123.263 39.8 122.888 39.4 122.413 39.4C121.938 39.4 121.563 39.8 121.563 40.275C121.563 40.725 121.938 41.1 122.413 41.1ZM121.863 55.675C121.863 55.85 121.963 56 122.138 56H122.638C122.863 56 122.963 55.875 122.963 55.675V46.325C122.963 46.15 122.813 46 122.638 46H122.188C122.013 46 121.863 46.15 121.863 46.325V55.675ZM126.771 55.675C126.771 55.85 126.871 56 127.046 56H127.546C127.771 56 127.871 55.875 127.871 55.675V48.55C127.946 48.4 128.896 46.825 130.846 46.825C131.521 46.825 132.021 47.075 132.146 47.125C132.321 47.2 132.471 47.175 132.546 47L132.746 46.5C132.821 46.3 132.696 46.125 132.471 46.05C132.271 45.975 131.721 45.75 130.921 45.75C129.046 45.75 128.046 46.95 127.796 47.3L127.696 46.275C127.671 46.1 127.546 46 127.396 46H127.096C126.921 46 126.771 46.15 126.771 46.325V55.675ZM134.078 50.975C134.078 53.9 135.953 56.25 139.003 56.25C140.553 56.25 142.128 55.575 142.628 55.075C142.778 54.925 142.803 54.775 142.728 54.675L142.478 54.325C142.353 54.15 142.253 54.175 142.028 54.325C141.428 54.725 140.403 55.25 139.078 55.25C136.828 55.25 135.278 53.45 135.178 51.3H143.153C143.528 51.3 143.528 50.725 143.528 50.325C143.528 47.675 141.628 45.75 139.003 45.75C135.953 45.75 134.078 48.125 134.078 50.975ZM135.203 50.4C135.328 48.35 136.803 46.75 139.003 46.75C141.253 46.75 142.428 48.45 142.428 50.4H135.203ZM145.723 51C145.723 54.025 148.148 56.25 150.973 56.25C153.048 56.25 154.523 54.925 154.898 54.325C154.998 54.175 154.948 54.05 154.823 53.925L154.548 53.675C154.398 53.525 154.248 53.525 154.073 53.725C153.798 54.025 152.823 55.2 150.948 55.2C148.723 55.2 146.848 53.4 146.848 50.975C146.848 48.6 148.698 46.825 150.973 46.825C152.548 46.825 153.598 47.7 153.848 47.975C153.998 48.125 154.198 48.2 154.373 48.025L154.623 47.775C154.773 47.65 154.798 47.475 154.673 47.325C154.223 46.75 152.923 45.75 150.973 45.75C148.148 45.75 145.723 48 145.723 51ZM158.372 53.425C158.372 55.025 158.547 56.25 160.622 56.25C162.047 56.25 163.147 55.625 163.522 55.325C163.672 55.225 163.697 55.075 163.597 54.9L163.422 54.6C163.347 54.475 163.247 54.375 163.022 54.5C162.697 54.7 161.622 55.175 160.747 55.175C159.572 55.175 159.447 54.525 159.447 53.35V46.975H162.922C163.122 46.975 163.247 46.85 163.247 46.65V46.325C163.247 46.15 163.122 46 162.922 46H159.447V43.25C159.447 43.075 159.297 42.925 159.122 42.925L158.697 42.95C158.522 42.95 158.372 43.075 158.372 43.275V46H157.197C157.022 46 156.897 46.075 156.897 46.25V46.65C156.897 46.85 156.947 46.975 157.197 46.975H158.372V53.425ZM165.425 50.975C165.425 53.9 167.625 56.25 170.45 56.25C173.25 56.25 175.475 53.9 175.475 50.975C175.475 48.125 173.25 45.75 170.45 45.75C167.625 45.75 165.425 48.125 165.425 50.975ZM166.5 50.975C166.5 48.675 168.225 46.8 170.45 46.8C172.65 46.8 174.375 48.675 174.375 50.975C174.375 53.35 172.65 55.225 170.45 55.225C168.225 55.225 166.5 53.35 166.5 50.975ZM178.528 55.675C178.528 55.85 178.628 56 178.803 56H179.303C179.528 56 179.628 55.875 179.628 55.675V48.55C179.703 48.4 180.653 46.825 182.603 46.825C183.278 46.825 183.778 47.075 183.903 47.125C184.078 47.2 184.228 47.175 184.303 47L184.503 46.5C184.578 46.3 184.453 46.125 184.228 46.05C184.028 45.975 183.478 45.75 182.678 45.75C180.803 45.75 179.803 46.95 179.553 47.3L179.453 46.275C179.428 46.1 179.303 46 179.153 46H178.853C178.678 46 178.528 46.15 178.528 46.325V55.675ZM13.4718 81.975C13.4718 84.9 15.6718 87.25 18.4968 87.25C21.2968 87.25 23.5218 84.9 23.5218 81.975C23.5218 79.125 21.2968 76.75 18.4968 76.75C15.6718 76.75 13.4718 79.125 13.4718 81.975ZM14.5468 81.975C14.5468 79.675 16.2718 77.8 18.4968 77.8C20.6968 77.8 22.4218 79.675 22.4218 81.975C22.4218 84.35 20.6968 86.225 18.4968 86.225C16.2718 86.225 14.5468 84.35 14.5468 81.975ZM27.2003 86.675C27.2003 86.85 27.3503 87 27.5253 87H27.9753C28.1503 87 28.3003 86.85 28.3003 86.675V77.975H32.0003C32.2253 77.975 32.3253 77.85 32.3253 77.675V77.3C32.3253 77.125 32.2003 77 32.0003 77H28.3003V73.575C28.3003 71.275 29.4003 70.25 30.9753 70.25C31.9003 70.25 32.7753 70.75 33.1503 71.1C33.3003 71.25 33.4753 71.225 33.5753 71.075L33.8253 70.725C33.9003 70.625 33.9003 70.475 33.7753 70.325C33.4003 69.85 32.2503 69.25 30.9753 69.25C28.8003 69.25 27.2003 70.625 27.2003 73.575V77H25.7003C25.5253 77 25.3753 77.15 25.3753 77.325V77.65C25.3753 77.8 25.4753 77.975 25.7003 77.975H27.2003V86.675ZM39.3321 78.275C39.3321 83.3 43.3821 87.25 48.3821 87.25C50.6071 87.25 52.7821 86.475 54.4821 84.825C54.6071 84.7 54.6071 84.5 54.4821 84.4L54.0571 83.975C53.9571 83.9 53.8071 83.9 53.6571 84.025C52.1571 85.275 50.5321 86.125 48.3821 86.125C44.0071 86.125 40.5821 82.575 40.5821 78.275C40.5821 73.95 44.0071 70.375 48.3821 70.375C50.4321 70.375 52.2321 71.15 53.6571 72.425C53.8071 72.575 53.9321 72.6 54.0821 72.45L54.4821 72.025C54.6071 71.9 54.5821 71.7 54.4571 71.575C52.8321 70.1 50.9321 69.25 48.3821 69.25C43.3821 69.25 39.3321 73.275 39.3321 78.275ZM57.6788 86.675C57.6788 86.85 57.7788 87 57.9538 87H58.4288C58.6538 87 58.7538 86.875 58.7538 86.675V79.575C58.8538 79.45 60.2538 77.825 62.3288 77.825C64.2288 77.825 65.3038 79.025 65.3038 81.325V86.675C65.3038 86.85 65.4538 87 65.6288 87H66.0788C66.2538 87 66.4038 86.85 66.4038 86.675V81.325C66.4038 78.35 64.9788 76.75 62.3788 76.75C60.4038 76.75 59.0788 78.025 58.7538 78.35V69.825C58.7538 69.65 58.6038 69.5 58.4288 69.5H58.0288C57.8288 69.5 57.6788 69.65 57.6788 69.825V86.675ZM69.2567 83.925C69.2567 85.975 70.6817 87.25 72.5317 87.25C74.1317 87.25 75.3567 86.425 76.0067 85.825L76.1067 86.725C76.1567 86.9 76.2317 87 76.4067 87H76.7067C76.8817 87 77.0317 86.85 77.0317 86.675V81.125C77.0317 78.575 76.9067 76.75 73.8567 76.75C71.7817 76.75 70.5067 77.45 70.4317 77.5C70.3067 77.55 70.2067 77.65 70.2817 77.875L70.4067 78.175C70.4567 78.35 70.5817 78.45 70.7817 78.375C71.0067 78.3 72.1317 77.7 73.7817 77.7C75.7567 77.7 75.9817 78.8 75.9817 81C75.7067 80.9 74.6067 80.55 73.4567 80.55C70.8317 80.55 69.2567 82 69.2567 83.925ZM70.2817 83.9C70.2817 82.425 71.5567 81.45 73.4567 81.45C74.6567 81.45 75.6567 81.825 75.9817 81.975V84.725C75.5067 85.35 74.1817 86.275 72.6567 86.275C71.2817 86.275 70.2817 85.35 70.2817 83.9ZM81.2757 72.1C81.7507 72.1 82.1257 71.725 82.1257 71.275C82.1257 70.8 81.7507 70.4 81.2757 70.4C80.8007 70.4 80.4257 70.8 80.4257 71.275C80.4257 71.725 80.8007 72.1 81.2757 72.1ZM80.7257 86.675C80.7257 86.85 80.8257 87 81.0007 87H81.5007C81.7257 87 81.8257 86.875 81.8257 86.675V77.325C81.8257 77.15 81.6757 77 81.5007 77H81.0507C80.8757 77 80.7257 77.15 80.7257 77.325V86.675ZM85.6329 86.675C85.6329 86.85 85.7329 87 85.9079 87H86.3829C86.6079 87 86.7079 86.875 86.7079 86.675V79.55C86.8079 79.425 88.2329 77.825 90.2829 77.825C92.1829 77.825 93.2579 79.025 93.2579 81.325V86.675C93.2579 86.85 93.4079 87 93.5829 87H94.0329C94.2079 87 94.3579 86.85 94.3579 86.675V81.325C94.3579 78.525 93.1329 76.75 90.3329 76.75C88.3329 76.75 86.9579 77.975 86.6329 78.325L86.5329 77.25C86.5079 77.1 86.4079 77 86.2329 77H85.9829C85.7829 77 85.6329 77.15 85.6329 77.325V86.675ZM98.0108 86.675C98.0108 86.85 98.1108 87 98.2858 87H98.7858C99.0108 87 99.1108 86.875 99.1108 86.675V69.825C99.1108 69.65 98.9608 69.5 98.7858 69.5H98.3358C98.1608 69.5 98.0108 69.65 98.0108 69.825V86.675ZM103.468 72.1C103.943 72.1 104.318 71.725 104.318 71.275C104.318 70.8 103.943 70.4 103.468 70.4C102.993 70.4 102.618 70.8 102.618 71.275C102.618 71.725 102.993 72.1 103.468 72.1ZM102.918 86.675C102.918 86.85 103.018 87 103.193 87H103.693C103.918 87 104.018 86.875 104.018 86.675V77.325C104.018 77.15 103.868 77 103.693 77H103.243C103.068 77 102.918 77.15 102.918 77.325V86.675ZM107.825 86.675C107.825 86.85 107.925 87 108.1 87H108.575C108.8 87 108.9 86.875 108.9 86.675V79.55C109 79.425 110.425 77.825 112.475 77.825C114.375 77.825 115.45 79.025 115.45 81.325V86.675C115.45 86.85 115.6 87 115.775 87H116.225C116.4 87 116.55 86.85 116.55 86.675V81.325C116.55 78.525 115.325 76.75 112.525 76.75C110.525 76.75 109.15 77.975 108.825 78.325L108.725 77.25C108.7 77.1 108.6 77 108.425 77H108.175C107.975 77 107.825 77.15 107.825 77.325V86.675ZM120.203 86.675C120.203 86.85 120.303 87 120.478 87H120.953C121.178 87 121.278 86.875 121.278 86.675V81.825L127.053 86.8C127.278 86.975 127.403 87 127.553 87H128.328C128.528 87 128.653 86.75 128.453 86.575L122.428 81.4L127.803 77.45C128.003 77.325 127.978 77 127.728 77H127.003C126.878 77 126.728 77.05 126.603 77.15L121.278 81.025V69.825C121.278 69.65 121.128 69.5 120.953 69.5H120.528C120.353 69.5 120.203 69.65 120.203 69.825V86.675ZM137.067 86.675C137.067 86.85 137.217 87 137.392 87H146.217C146.392 87 146.542 86.9 146.542 86.725V86.275C146.542 86.1 146.517 85.95 146.217 85.95H138.242V69.825C138.242 69.65 138.092 69.5 137.942 69.5H137.392C137.217 69.5 137.067 69.65 137.067 69.825V86.675ZM147.748 83.925C147.748 85.975 149.173 87.25 151.023 87.25C152.623 87.25 153.848 86.425 154.498 85.825L154.598 86.725C154.648 86.9 154.723 87 154.898 87H155.198C155.373 87 155.523 86.85 155.523 86.675V81.125C155.523 78.575 155.398 76.75 152.348 76.75C150.273 76.75 148.998 77.45 148.923 77.5C148.798 77.55 148.698 77.65 148.773 77.875L148.898 78.175C148.948 78.35 149.073 78.45 149.273 78.375C149.498 78.3 150.623 77.7 152.273 77.7C154.248 77.7 154.473 78.8 154.473 81C154.198 80.9 153.098 80.55 151.948 80.55C149.323 80.55 147.748 82 147.748 83.925ZM148.773 83.9C148.773 82.425 150.048 81.45 151.948 81.45C153.148 81.45 154.148 81.825 154.473 81.975V84.725C153.998 85.35 152.673 86.275 151.148 86.275C149.773 86.275 148.773 85.35 148.773 83.9ZM159.217 86.675C159.217 86.85 159.367 87 159.542 87H159.792C159.992 87 160.117 86.9 160.142 86.675L160.217 85.775C160.517 86.125 161.767 87.25 163.692 87.25C166.267 87.25 168.292 84.9 168.292 81.975C168.292 79.025 166.217 76.75 163.392 76.75C161.492 76.75 160.292 77.75 160.292 77.75V69.825C160.292 69.65 160.142 69.5 159.967 69.5H159.542C159.367 69.5 159.217 69.65 159.217 69.825V86.675ZM160.317 84.475V78.875C160.317 78.875 161.467 77.825 163.267 77.825C165.567 77.825 167.217 79.625 167.217 82C167.217 84.325 165.692 86.25 163.592 86.25C161.442 86.25 160.367 84.575 160.317 84.475ZM170.9 86.125C171.45 86.55 172.475 87.25 174.175 87.25C176.175 87.25 177.725 85.975 177.725 84.475C177.725 82.65 176.075 82.025 174.2 81.325C172.725 80.8 171.825 80.325 171.825 79.325C171.825 78.65 172.4 77.725 173.975 77.725C175.05 77.725 176.05 78.275 176.275 78.425C176.45 78.525 176.65 78.475 176.75 78.3L176.9 78.025C177 77.85 176.95 77.65 176.8 77.55C176.3 77.225 175.3 76.75 173.975 76.75C171.675 76.75 170.7 78.25 170.7 79.35C170.7 80.9 172 81.675 173.775 82.3C175.45 82.925 176.575 83.4 176.575 84.55C176.575 85.525 175.6 86.325 174.175 86.325C172.775 86.325 171.75 85.55 171.5 85.35C171.325 85.2 171.125 85.25 171.05 85.375L170.8 85.775C170.725 85.9 170.8 86.05 170.9 86.125Z" fill="white"/>
</svg>
