<svg width="153" height="53" viewBox="0 0 153 53" fill="none" xmlns="http://www.w3.org/2000/svg">
<path d="M12.3574 19.5142C12.8674 20.1442 14.3074 21.7042 16.9174 21.7042C20.4274 21.7042 23.3674 19.3042 23.3674 15.1342V0.974234C23.3674 0.674235 23.1274 0.404234 22.7974 0.404234H19.1374C18.8074 0.404234 18.5674 0.674235 18.5674 0.974234V15.1042C18.5674 16.6042 17.6374 17.3842 16.7974 17.3842C15.9874 17.3842 15.6274 17.1142 15.2674 16.7542C15.0274 16.5142 14.6974 16.5442 14.4574 16.7542L12.4174 18.7642C12.2374 18.9742 12.2074 19.2742 12.3574 19.5142ZM26.52 15.4042C26.52 18.8242 28.23 21.7042 31.8 21.7042C34.11 21.7042 35.07 20.6242 35.85 19.8742L36.3 20.9842C36.39 21.1942 36.6 21.4042 36.87 21.4042H38.28C38.58 21.4042 38.85 21.1342 38.85 20.8342V9.97424C38.85 9.64424 38.58 9.40424 38.28 9.40424H35.22C34.92 9.40424 34.59 9.49424 34.59 9.97424V15.7042C34.59 16.7242 33.96 17.8342 32.79 17.8342C31.56 17.8342 30.87 16.7542 30.87 15.5242V9.97424C30.87 9.64424 30.6 9.40424 30.3 9.40424H27.09C26.79 9.40424 26.52 9.64424 26.52 9.97424V15.4042ZM41.6629 20.7142C42.2629 21.1942 43.7629 21.7042 45.7429 21.7042C49.1329 21.7042 50.8129 19.9942 50.8129 17.8942C50.8129 15.4942 49.1329 14.5342 46.7029 13.6942C45.6829 13.3342 45.3529 13.0342 45.3529 12.7342C45.3529 12.4042 45.6229 12.3142 46.0129 12.3142C47.1829 12.3142 48.5629 13.0042 48.5629 13.0042C48.8029 13.0942 49.1029 13.0042 49.1929 12.8242L50.3029 10.7842C50.4829 10.4842 50.2729 10.2142 50.0029 10.0342C49.3429 9.61424 47.9029 9.10424 46.0129 9.10424C42.7729 9.10424 41.3329 10.7242 41.3329 12.7342C41.3329 14.5942 42.3529 15.9442 44.6929 16.7542C46.2229 17.2942 46.4029 17.7142 46.4029 18.0142C46.4029 18.3742 46.1329 18.5542 45.8329 18.5542C44.5429 18.5542 43.1329 17.7742 43.1329 17.7742C42.8929 17.6542 42.5929 17.8342 42.5029 18.0142L41.4529 20.0842C41.3029 20.3542 41.4529 20.5342 41.6629 20.7142ZM53.6957 17.5342C53.6957 20.2642 55.0157 21.7042 57.2957 21.7042C58.7957 21.7042 60.9257 21.0442 60.9257 21.0442C61.2257 20.9542 61.3757 20.6242 61.3157 20.3542L60.6557 17.8642C60.5657 17.5342 60.2957 17.4142 59.9957 17.4742C59.6957 17.5342 59.2457 17.6842 58.8257 17.6842C58.4657 17.6842 58.0157 17.6242 58.0157 16.9642V13.2142H60.2357C60.5657 13.2142 60.8057 12.9442 60.8057 12.6442V9.97424C60.8057 9.64424 60.5657 9.40424 60.2357 9.40424H58.0157V6.07423C58.0157 5.77424 57.7757 5.50423 57.4757 5.50423H54.2657C53.9657 5.50423 53.6957 5.77424 53.6957 6.07423V9.40424H52.9157C52.6157 9.40424 52.3757 9.64424 52.3757 9.97424V12.6442C52.3757 12.9442 52.6157 13.2142 52.9157 13.2142H53.6957V17.5342ZM65.7182 5.77424C67.0382 5.77424 68.1182 4.72423 68.1182 3.40424C68.1182 2.08423 67.0382 1.00424 65.7182 1.00424C64.3982 1.00424 63.3482 2.08423 63.3482 3.40424C63.3482 4.72423 64.3982 5.77424 65.7182 5.77424ZM63.5282 20.8342C63.5282 21.1342 63.7982 21.4042 64.0982 21.4042H67.3982C67.6982 21.4042 67.9682 21.1342 67.9682 20.8342V9.97424C67.9682 9.64424 67.6982 9.40424 67.3982 9.40424H64.0982C63.7982 9.40424 63.5282 9.64424 63.5282 9.97424V20.8342ZM71.204 20.8342C71.204 21.1342 71.474 21.4042 71.774 21.4042H74.924C75.344 21.4042 75.464 21.1042 75.464 20.8342V15.0742C75.464 13.8442 76.544 12.9742 77.744 12.9742C79.094 12.9742 79.784 14.0242 79.784 15.2242V20.8342C79.784 21.1342 80.024 21.4042 80.354 21.4042H83.564C83.864 21.4042 84.134 21.1342 84.134 20.8342V15.3742C84.134 11.9542 82.154 9.10424 78.434 9.10424C76.244 9.10424 74.864 10.2442 74.204 10.9642L73.724 9.76424C73.634 9.55424 73.364 9.40424 73.184 9.40424H71.774C71.474 9.40424 71.204 9.64424 71.204 9.97424V20.8342ZM93.5847 19.3942C94.2747 20.0842 96.4347 21.7042 100.335 21.7042C104.745 21.7042 107.415 18.5842 107.415 15.4942C107.415 11.4142 103.695 9.58424 101.355 8.65424C98.9847 7.69424 98.0847 6.85424 98.0847 5.74424C98.0847 4.93424 98.8947 4.21424 99.9747 4.21424C101.805 4.21424 103.995 5.86424 104.265 6.01424C104.535 6.22423 105.075 5.95423 105.285 5.62424L106.815 3.31423C106.935 3.10424 106.995 2.56424 106.635 2.35423C105.735 1.69424 103.335 0.104235 100.215 0.104235C95.5947 0.104235 93.2847 3.10424 93.2847 6.07423C93.2847 9.67423 96.5247 11.6842 99.1047 12.7042C101.145 13.5142 102.195 14.4742 102.195 15.7342C102.195 16.7842 101.325 17.5342 100.125 17.5342C98.1447 17.5342 95.9847 15.9442 95.8647 15.8842C95.6547 15.7342 95.0847 15.6742 94.8447 16.0642L93.4347 18.5542C93.1947 18.9742 93.2847 19.0942 93.5847 19.3942ZM109.43 15.4042C109.43 18.8242 111.14 21.7042 114.71 21.7042C117.02 21.7042 117.98 20.6242 118.76 19.8742L119.21 20.9842C119.3 21.1942 119.51 21.4042 119.78 21.4042H121.19C121.49 21.4042 121.76 21.1342 121.76 20.8342V9.97424C121.76 9.64424 121.49 9.40424 121.19 9.40424H118.13C117.83 9.40424 117.5 9.49424 117.5 9.97424V15.7042C117.5 16.7242 116.87 17.8342 115.7 17.8342C114.47 17.8342 113.78 16.7542 113.78 15.5242V9.97424C113.78 9.64424 113.51 9.40424 113.21 9.40424H110C109.7 9.40424 109.43 9.64424 109.43 9.97424V15.4042ZM124.993 20.8342C124.993 21.1342 125.263 21.4042 125.563 21.4042H128.713C129.133 21.4042 129.253 21.1042 129.253 20.8342V15.0742C129.253 13.8442 130.333 12.9742 131.533 12.9742C132.883 12.9742 133.573 14.0242 133.573 15.2242V20.8342C133.573 21.1342 133.813 21.4042 134.143 21.4042H137.353C137.653 21.4042 137.923 21.1342 137.923 20.8342V15.3742C137.923 11.9542 135.943 9.10424 132.223 9.10424C130.033 9.10424 128.653 10.2442 127.993 10.9642L127.513 9.76424C127.423 9.55424 127.153 9.40424 126.973 9.40424H125.563C125.263 9.40424 124.993 9.64424 124.993 9.97424V20.8342ZM0.0611787 52.0792C0.0611787 52.2542 0.211179 52.4042 0.386179 52.4042H0.836179C1.08618 52.4042 1.23618 52.2542 1.23618 52.0792L1.26118 44.6292H9.18618C9.56118 44.6292 9.51118 44.1792 9.51118 43.9042C9.51118 43.7292 9.36118 43.5792 9.18618 43.5792H1.26118V35.9792H10.4112C10.5862 35.9792 10.7362 35.8292 10.7362 35.6542V35.2292C10.7362 35.0542 10.5862 34.9042 10.4112 34.9042H0.386179C0.211179 34.9042 0.0611787 35.0542 0.0611787 35.2292V52.0792ZM12.8922 47.3792C12.8922 50.3042 15.0922 52.6542 17.9172 52.6542C20.7172 52.6542 22.9422 50.3042 22.9422 47.3792C22.9422 44.5292 20.7172 42.1542 17.9172 42.1542C15.0922 42.1542 12.8922 44.5292 12.8922 47.3792ZM13.9672 47.3792C13.9672 45.0792 15.6922 43.2042 17.9172 43.2042C20.1172 43.2042 21.8422 45.0792 21.8422 47.3792C21.8422 49.7542 20.1172 51.6292 17.9172 51.6292C15.6922 51.6292 13.9672 49.7542 13.9672 47.3792ZM25.8457 48.1042C25.8457 50.9292 27.0457 52.6542 29.8457 52.6542C31.8207 52.6542 33.0207 51.4792 33.2957 51.1292L33.3957 52.1042C33.4207 52.2542 33.4957 52.4042 33.6957 52.4042H33.9957C34.1707 52.4042 34.3207 52.2542 34.3207 52.0792V42.7292C34.3207 42.5542 34.1707 42.4042 33.9957 42.4042H33.5457C33.3457 42.4042 33.2207 42.5292 33.2207 42.7292V49.8542C33.1457 49.9792 31.9957 51.6042 29.9207 51.6042C28.0207 51.6042 26.9457 50.4292 26.9457 48.1042V42.7292C26.9457 42.5542 26.7957 42.4042 26.6207 42.4042H26.1707C25.9957 42.4042 25.8457 42.5542 25.8457 42.7292V48.1042ZM38.1295 52.0792C38.1295 52.2542 38.2295 52.4042 38.4045 52.4042H38.8795C39.1045 52.4042 39.2045 52.2792 39.2045 52.0792V44.9542C39.3045 44.8292 40.7295 43.2292 42.7795 43.2292C44.6795 43.2292 45.7545 44.4292 45.7545 46.7292V52.0792C45.7545 52.2542 45.9045 52.4042 46.0795 52.4042H46.5295C46.7045 52.4042 46.8545 52.2542 46.8545 52.0792V46.7292C46.8545 43.9292 45.6295 42.1542 42.8295 42.1542C40.8295 42.1542 39.4545 43.3792 39.1295 43.7292L39.0295 42.6542C39.0045 42.5042 38.9045 42.4042 38.7295 42.4042H38.4795C38.2795 42.4042 38.1295 42.5542 38.1295 42.7292V52.0792ZM49.7825 47.4042C49.7825 50.3292 51.8075 52.6542 54.4075 52.6542C56.3325 52.6542 57.5575 51.5292 57.8575 51.2042L57.9325 52.0792C57.9575 52.3042 58.0825 52.4042 58.2825 52.4042H58.5325C58.7075 52.4042 58.8575 52.2542 58.8575 52.0792V35.2292C58.8575 35.0542 58.7075 34.9042 58.5575 34.9042H58.1075C57.9075 34.9042 57.7825 35.0542 57.7825 35.2292V43.1542C57.7825 43.1542 56.6075 42.1542 54.7075 42.1542C51.8575 42.1542 49.7825 44.4542 49.7825 47.4042ZM50.8825 47.4042C50.8825 45.0292 52.5075 43.2292 54.8075 43.2292C56.6325 43.2292 57.7825 44.2792 57.7825 44.2792V49.8792C57.7325 49.9792 56.6575 51.6542 54.4825 51.6542C52.3825 51.6542 50.8825 49.7292 50.8825 47.4042ZM61.9407 47.3792C61.9407 50.3042 63.8157 52.6542 66.8657 52.6542C68.4157 52.6542 69.9907 51.9792 70.4907 51.4792C70.6407 51.3292 70.6657 51.1792 70.5907 51.0792L70.3407 50.7292C70.2157 50.5542 70.1157 50.5792 69.8907 50.7292C69.2907 51.1292 68.2657 51.6542 66.9407 51.6542C64.6907 51.6542 63.1407 49.8542 63.0407 47.7042H71.0157C71.3907 47.7042 71.3907 47.1292 71.3907 46.7292C71.3907 44.0792 69.4907 42.1542 66.8657 42.1542C63.8157 42.1542 61.9407 44.5292 61.9407 47.3792ZM63.0657 46.8042C63.1907 44.7542 64.6657 43.1542 66.8657 43.1542C69.1157 43.1542 70.2907 44.8542 70.2907 46.8042H63.0657ZM74.3356 52.0792C74.3356 52.2542 74.4356 52.4042 74.6106 52.4042H75.1106C75.3356 52.4042 75.4356 52.2792 75.4356 52.0792V44.9542C75.5106 44.8042 76.4606 43.2292 78.4106 43.2292C79.0856 43.2292 79.5856 43.4792 79.7106 43.5292C79.8856 43.6042 80.0356 43.5792 80.1106 43.4042L80.3106 42.9042C80.3856 42.7042 80.2606 42.5292 80.0356 42.4542C79.8356 42.3792 79.2856 42.1542 78.4856 42.1542C76.6106 42.1542 75.6106 43.3542 75.3606 43.7042L75.2606 42.6792C75.2356 42.5042 75.1106 42.4042 74.9606 42.4042H74.6606C74.4856 42.4042 74.3356 42.5542 74.3356 42.7292V52.0792ZM87.111 47.3792C87.111 50.3042 89.311 52.6542 92.136 52.6542C94.936 52.6542 97.161 50.3042 97.161 47.3792C97.161 44.5292 94.936 42.1542 92.136 42.1542C89.311 42.1542 87.111 44.5292 87.111 47.3792ZM88.186 47.3792C88.186 45.0792 89.911 43.2042 92.136 43.2042C94.336 43.2042 96.061 45.0792 96.061 47.3792C96.061 49.7542 94.336 51.6292 92.136 51.6292C89.911 51.6292 88.186 49.7542 88.186 47.3792ZM100.839 52.0792C100.839 52.2542 100.989 52.4042 101.164 52.4042H101.614C101.789 52.4042 101.939 52.2542 101.939 52.0792V43.3792H105.639C105.864 43.3792 105.964 43.2542 105.964 43.0792V42.7042C105.964 42.5292 105.839 42.4042 105.639 42.4042H101.939V38.9792C101.939 36.6792 103.039 35.6542 104.614 35.6542C105.539 35.6542 106.414 36.1542 106.789 36.5042C106.939 36.6542 107.114 36.6292 107.214 36.4792L107.464 36.1292C107.539 36.0292 107.539 35.8792 107.414 35.7292C107.039 35.2542 105.889 34.6542 104.614 34.6542C102.439 34.6542 100.839 36.0292 100.839 38.9792V42.4042H99.3395C99.1645 42.4042 99.0145 42.5542 99.0145 42.7292V43.0542C99.0145 43.2042 99.1145 43.3792 99.3395 43.3792H100.839V52.0792ZM116.871 52.0792C116.871 52.2542 117.021 52.4042 117.196 52.4042H117.646C117.896 52.4042 118.046 52.2542 118.046 52.0792V35.9792H122.846C123.046 35.9792 123.171 35.8292 123.171 35.6542V35.2292C123.171 35.0542 123.046 34.9042 122.846 34.9042H112.096C111.921 34.9042 111.771 35.0292 111.771 35.2292V35.6042C111.771 35.8292 111.846 35.9792 112.096 35.9792H116.871V52.0792ZM123.725 52.0792C123.725 52.2542 123.825 52.4042 124 52.4042H124.5C124.725 52.4042 124.825 52.2792 124.825 52.0792V44.9542C124.9 44.8042 125.85 43.2292 127.8 43.2292C128.475 43.2292 128.975 43.4792 129.1 43.5292C129.275 43.6042 129.425 43.5792 129.5 43.4042L129.7 42.9042C129.775 42.7042 129.65 42.5292 129.425 42.4542C129.225 42.3792 128.675 42.1542 127.875 42.1542C126 42.1542 125 43.3542 124.75 43.7042L124.65 42.6792C124.625 42.5042 124.5 42.4042 124.35 42.4042H124.05C123.875 42.4042 123.725 42.5542 123.725 42.7292V52.0792ZM131.007 47.3792C131.007 50.3042 133.207 52.6542 136.032 52.6542C138.832 52.6542 141.057 50.3042 141.057 47.3792C141.057 44.5292 138.832 42.1542 136.032 42.1542C133.207 42.1542 131.007 44.5292 131.007 47.3792ZM132.082 47.3792C132.082 45.0792 133.807 43.2042 136.032 43.2042C138.232 43.2042 139.957 45.0792 139.957 47.3792C139.957 49.7542 138.232 51.6292 136.032 51.6292C133.807 51.6292 132.082 49.7542 132.082 47.3792ZM144.111 52.0792C144.111 52.2542 144.211 52.4042 144.386 52.4042H144.861C145.086 52.4042 145.186 52.2792 145.186 52.0792V44.9542C145.286 44.8292 146.711 43.2292 148.761 43.2292C150.661 43.2292 151.736 44.4292 151.736 46.7292V52.0792C151.736 52.2542 151.886 52.4042 152.061 52.4042H152.511C152.686 52.4042 152.836 52.2542 152.836 52.0792V46.7292C152.836 43.9292 151.611 42.1542 148.811 42.1542C146.811 42.1542 145.436 43.3792 145.111 43.7292L145.011 42.6542C144.986 42.5042 144.886 42.4042 144.711 42.4042H144.461C144.261 42.4042 144.111 42.5542 144.111 42.7292V52.0792Z" fill="white"/>
</svg>
