<svg width="140" height="40" viewBox="0 0 140 40" fill="none" xmlns="http://www.w3.org/2000/svg">
<path d="M22.3795 39.9199C21.653 39.9413 20.946 39.68 20.4033 39.1894C19.8606 38.699 19.5232 38.0164 19.4604 37.2818L19.1319 34.6691C16.0033 33.7643 14.173 31.4151 13.6975 27.685L10.8817 5.67227C10.2777 5.57363 9.6663 5.52902 9.05459 5.53893C8.14916 5.53141 7.24699 5.64998 6.37333 5.89131V39.2754H0.848145V12.4405C0.848145 8.79924 2.4594 6.22782 5.39406 5.15798V3.42782C5.39406 1.42782 6.59233 0.0849629 8.37254 0.0849629C10.1527 0.0849629 11.2697 1.20877 11.5575 3.25957L11.7765 4.86275C14.9896 5.77386 16.8668 8.3929 17.4237 12.6437L20.0268 33.8628C21.582 34.1675 23.1802 34.1675 24.7353 33.8628L27.3384 12.6469C27.8828 8.3929 29.7818 5.77386 32.9856 4.85321L33.2046 3.25005C33.4924 1.20877 34.625 0.0754395 36.3896 0.0754395C38.1541 0.0754395 39.368 1.4183 39.368 3.4183V5.14846C42.3027 6.2183 43.9139 8.78972 43.9139 12.431V39.2659H38.3825V5.88813C37.5089 5.6468 36.6067 5.52823 35.7012 5.53576C35.0895 5.52585 34.4781 5.57046 33.8741 5.66909L31.0583 27.685C30.5922 31.3484 28.7181 33.7548 25.6239 34.6691L25.3142 37.285C25.2658 38.0279 24.9304 38.7214 24.3809 39.2149C23.8314 39.7083 23.1122 39.9617 22.3795 39.9199ZM20.155 34.9231L20.4398 37.1739C20.4696 37.6674 20.69 38.1291 21.0531 38.459C21.4161 38.7888 21.8927 38.9601 22.3795 38.9358C22.6217 38.9534 22.8648 38.9215 23.0946 38.8421C23.3245 38.7627 23.5362 38.6372 23.7174 38.4732C23.8986 38.3092 24.0455 38.11 24.1494 37.8873C24.2533 37.6647 24.3121 37.4232 24.3223 37.177L24.6071 34.9231C23.1329 35.1685 21.6292 35.1685 20.155 34.9231ZM39.368 38.2913H42.9285V12.4405C42.9285 9.3548 41.702 7.22465 39.368 6.23099V38.2913ZM1.82428 38.2913H5.39406V6.23099C3.06323 7.22465 1.84931 9.3548 1.84931 12.4405L1.82428 38.2913ZM11.9173 5.94528L14.6768 27.5548C15.071 30.6818 16.5258 32.704 18.9974 33.5865L16.4476 12.7675C15.9782 9.09766 14.4922 6.85639 11.9173 5.94528ZM32.8448 5.94528C30.2699 6.85639 28.7776 9.09767 28.3145 12.7707L25.7647 33.5739C28.2395 32.6913 29.6912 30.6691 30.0853 27.5421L32.8448 5.94528ZM6.37959 4.84052C7.25721 4.62398 8.15767 4.51736 9.06084 4.52306C9.62565 4.51701 10.1902 4.55096 10.7503 4.62465L10.5814 3.37702C10.3655 1.84687 9.62087 1.07226 8.37254 1.07226C7.12421 1.07226 6.37959 1.97068 6.37959 3.41512V4.84052ZM35.7012 4.52306C36.6044 4.51736 37.5049 4.62398 38.3825 4.84052V3.42782C38.3825 1.98338 37.6191 1.08496 36.3896 1.08496C35.16 1.08496 34.3966 1.85957 34.1808 3.38972L34.0118 4.63735C34.572 4.56365 35.1364 4.5297 35.7012 4.53576V4.52306Z" fill="#F5FCFE"/>
<path d="M59.1651 39.2755H53.7368V0.729492H59.1651V39.2755ZM54.7224 38.2755H58.1795V1.7295H54.7224V38.2755Z" fill="#F5FCFE"/>
<path d="M94.3814 39.9199C92.0255 39.9199 91.4874 37.739 91.3122 37.0214L90.9054 35.1929C87.3795 34.558 85.2269 32.2501 84.3353 28.158L79.2262 5.6437C78.6419 5.56944 78.0537 5.53338 77.4647 5.53575C76.4869 5.51967 75.5123 5.65346 74.5739 5.93258V39.2659H69.0425V12.2818C69.0425 8.78973 70.6068 6.36115 73.5884 5.22465V3.42782C73.5884 1.42782 74.7835 0.0849609 76.5638 0.0849609C78.0999 0.0849609 79.2293 1.07544 79.5861 2.73258L80.0397 4.76433C83.4811 5.39925 85.5461 7.64052 86.5066 11.7961L91.7158 34.3135C92.3021 34.3877 92.8926 34.4238 93.4835 34.4214C94.4573 34.4291 95.428 34.3085 96.3712 34.0628V0.729407H101.903V28.5739C101.903 31.431 100.254 33.6723 97.3568 34.7739V36.5103C97.3568 38.6183 96.2179 39.9199 94.3814 39.9199ZM91.9536 35.3517L92.2664 36.7898C92.6387 38.3009 93.252 38.9199 94.3783 38.9199C95.6297 38.9199 96.3681 38.0469 96.3681 36.5231V35.0881C95.421 35.308 94.4519 35.4145 93.4803 35.4057C92.9704 35.4068 92.4609 35.3814 91.9536 35.3294V35.3453V35.3517ZM70.028 38.2754H73.5884V6.29766C71.2231 7.33576 70.028 9.34529 70.028 12.2787V38.2754ZM80.2805 5.831L85.2864 27.9358C86.0623 31.4754 87.7893 33.4595 90.6552 34.1231L85.5492 12.0183C84.717 8.42782 83.0808 6.48814 80.2805 5.831ZM97.3568 1.72941V33.7103C99.6594 32.7199 100.917 30.9199 100.917 28.5865V1.72941H97.3568ZM74.5739 4.87862C75.5179 4.63165 76.4899 4.51211 77.4647 4.52306C77.9746 4.52184 78.4843 4.54727 78.9916 4.59925V4.58337L78.6224 2.93576C78.4722 2.23734 77.9967 1.07226 76.5638 1.07226C75.1308 1.07226 74.5739 2.28178 74.5739 3.41512V4.87862Z" fill="#F5FCFE"/>
<path d="M139.885 39.2754H134.096L131.243 27.7961H115.199L112.399 39.2754H106.611L114.076 11.3961C114.939 8.21194 116.913 6.03417 119.798 5.08179L120.314 2.89131C120.627 1.68495 121.253 0.0944824 123.227 0.0944824C125.202 0.0944824 125.83 1.68179 126.137 2.88179L126.646 5.08179C129.525 6.03417 131.5 8.22147 132.366 11.4024L139.885 39.2754ZM134.862 38.2754H138.592L131.415 11.6595C130.705 9.04687 129.165 7.1929 126.938 6.26273L131.374 24.0436H115.137L119.516 6.24687C117.286 7.19924 115.746 9.04369 115.037 11.6436L107.909 38.2754H111.639L114.438 26.7961H132L134.862 38.2754ZM116.404 23.0373H130.101L125.833 5.86273C124.123 5.42144 122.331 5.42144 120.621 5.86273L116.404 23.0373ZM120.893 4.73892V4.77702C122.434 4.45638 124.023 4.45638 125.565 4.77702V4.73575L125.182 3.10718C124.81 1.65003 124.262 1.07861 123.23 1.07861C122.197 1.07861 121.65 1.65004 121.275 3.11671L120.893 4.73575V4.73892Z" fill="#F5FCFE"/>
</svg>
