<svg width="105" height="46" viewBox="0 0 105 46" fill="none" xmlns="http://www.w3.org/2000/svg">
<g clip-path="url(#clip0_2862:1356)">
<path d="M16.4782 37.9966C15.9312 38.0128 15.399 37.816 14.9904 37.4467C14.5818 37.0775 14.3279 36.5636 14.2806 36.0106L14.0333 34.0436C11.6779 33.3625 10.3 31.5939 9.94202 28.7857L7.82214 12.2135C7.36741 12.1393 6.90713 12.1057 6.4466 12.1132C5.76496 12.1075 5.08577 12.1968 4.42804 12.3784V37.5115H0.268433V17.309C0.268433 14.5677 1.48146 12.6318 3.6908 11.8264V10.5238C3.6908 9.01813 4.59291 8.00717 5.93313 8.00717C7.27334 8.00717 8.11421 8.85322 8.33091 10.3972L8.49576 11.6041C10.9147 12.29 12.328 14.2618 12.7473 17.4619L14.7069 33.4366C15.8778 33.666 17.081 33.666 18.2518 33.4366L20.2114 17.4643C20.6213 14.2618 22.051 12.29 24.4629 11.5969L24.6278 10.39C24.8445 8.85322 25.6971 8 27.0256 8C28.354 8 29.2679 9.01097 29.2679 10.5167V11.8192C31.4773 12.6246 32.6902 14.5605 32.6902 17.3018V37.5043H28.526V12.3761C27.8682 12.1944 27.189 12.1051 26.5074 12.1108C26.0468 12.1033 25.5866 12.1369 25.1318 12.2111L23.012 28.7857C22.661 31.5437 21.2502 33.3553 18.9207 34.0436L18.6875 36.013C18.6511 36.5723 18.3986 37.0944 17.9849 37.4659C17.5712 37.8374 17.0298 38.0281 16.4782 37.9966ZM14.8035 34.2349L15.0179 35.9293C15.0403 36.3009 15.2062 36.6485 15.4796 36.8968C15.7529 37.1451 16.1117 37.2741 16.4782 37.2558C16.6605 37.2691 16.8435 37.2451 17.0166 37.1852C17.1896 37.1254 17.349 37.031 17.4854 36.9075C17.6218 36.7841 17.7324 36.6341 17.8106 36.4664C17.8889 36.2988 17.9332 36.117 17.9408 35.9317L18.1552 34.2349C17.0454 34.4196 15.9133 34.4196 14.8035 34.2349ZM29.2679 36.7706H31.9483V17.309C31.9483 14.9859 31.025 13.3822 29.2679 12.6342V36.7706ZM1.00331 36.7706H3.6908V12.6342C1.93605 13.3822 1.02216 14.9859 1.02216 17.309L1.00331 36.7706ZM8.60179 12.4191L10.6792 28.6876C10.976 31.0418 12.0713 32.5642 13.932 33.2286L12.0124 17.5552C11.659 14.7923 10.5403 13.105 8.60179 12.4191ZM24.3569 12.4191C22.4184 13.105 21.295 14.7923 20.9463 17.5575L19.0267 33.2191C20.8898 32.5547 21.9827 31.0323 22.2795 28.6781L24.3569 12.4191ZM4.43275 11.5874C5.09346 11.4243 5.77136 11.3441 6.45131 11.3484C6.87652 11.3438 7.30152 11.3694 7.72321 11.4248L7.59603 10.4856C7.43351 9.33361 6.87292 8.75045 5.93313 8.75045C4.99333 8.75045 4.43275 9.42682 4.43275 10.5143V11.5874ZM26.5074 11.3484C27.1873 11.3441 27.8653 11.4243 28.526 11.5874V10.5238C28.526 9.43638 27.9512 8.76001 27.0256 8.76001C26.0999 8.76001 25.5252 9.34317 25.3627 10.4951L25.2355 11.4344C25.6572 11.3789 26.0822 11.3534 26.5074 11.3579V11.3484Z" fill="#F5FCFE"/>
<path d="M44.172 37.5118H40.0853V8.49268H44.172V37.5118ZM40.8273 36.759H43.43V9.24552H40.8273V36.759Z" fill="#F5FCFE"/>
<path d="M70.6844 37.9968C68.9108 37.9968 68.5057 36.3549 68.3738 35.8147L68.0675 34.4381C65.4131 33.9601 63.7925 32.2227 63.1213 29.1419L59.2749 12.1922C58.835 12.1363 58.3922 12.1091 57.9488 12.1109C57.2127 12.0988 56.4789 12.1995 55.7724 12.4097V37.5044H51.6082V17.1896C51.6082 14.5607 52.7858 12.7323 55.0305 11.8767V10.524C55.0305 9.01829 55.9303 8.00732 57.2705 8.00732C58.427 8.00732 59.2772 8.753 59.5458 10.0006L59.8874 11.5302C62.4782 12.0082 64.0328 13.6955 64.7559 16.824L68.6776 33.7761C69.1191 33.8319 69.5636 33.8591 70.0084 33.8573C70.7416 33.8631 71.4723 33.7723 72.1824 33.5873V8.49249H76.3468V29.455C76.3468 31.606 75.1055 33.2934 72.9244 34.1227V35.4299C72.9244 37.0169 72.067 37.9968 70.6844 37.9968ZM68.8566 34.5576L69.0922 35.6403C69.3725 36.778 69.8341 37.244 70.6821 37.244C71.6242 37.244 72.1801 36.5867 72.1801 35.4396V34.3592C71.4671 34.5248 70.7375 34.605 70.006 34.5983C69.6222 34.5991 69.2385 34.5801 68.8566 34.5409V34.5529V34.5576ZM52.3501 36.7588H55.0305V12.6845C53.2498 13.466 52.3501 14.9789 52.3501 17.1873V36.7588ZM60.0687 12.3332L63.8373 28.9746C64.4214 31.6395 65.7216 33.1332 67.8792 33.6327L64.0351 16.9913C63.4086 14.2882 62.1768 12.8279 60.0687 12.3332ZM72.9244 9.24533V33.322C74.6579 32.5763 75.6048 31.2212 75.6048 29.4646V9.24533H72.9244ZM55.7724 11.6162C56.4831 11.4303 57.2149 11.3403 57.9488 11.3485C58.3327 11.3476 58.7164 11.3667 59.0983 11.4059V11.3939L58.8203 10.1535C58.7073 9.62773 58.3493 8.75061 57.2705 8.75061C56.1917 8.75061 55.7724 9.66119 55.7724 10.5144V11.6162Z" fill="#F5FCFE"/>
<path d="M104.941 37.5118H100.583L98.4356 28.8696H86.3568L84.2485 37.5118H79.8912L85.511 16.523C86.1613 14.1258 87.6474 12.4863 89.8192 11.7693L90.2079 10.1202C90.443 9.21203 90.9142 8.01465 92.4003 8.01465C93.8873 8.01465 94.3601 9.20964 94.5911 10.1131L94.9748 11.7693C97.1417 12.4863 98.6287 14.133 99.2806 16.5278L104.941 37.5118ZM101.16 36.7589H103.968L98.5651 16.7213C98.0304 14.7544 96.8711 13.3586 95.1943 12.6584L98.5338 26.0446H86.3098L89.6071 12.6464C87.9279 13.3634 86.7686 14.752 86.2347 16.7094L80.8687 36.7589H83.6767L85.7842 28.1168H99.0049L101.16 36.7589ZM87.2637 25.287H97.5758L94.3626 12.3572C93.0753 12.025 91.7262 12.025 90.4389 12.3572L87.2637 25.287ZM90.6435 11.5112V11.5399C91.8037 11.2985 93.0002 11.2985 94.1604 11.5399V11.5088L93.8724 10.2827C93.5927 9.18573 93.1801 8.75554 92.4028 8.75554C91.6255 8.75554 91.2137 9.18574 90.9307 10.2899L90.6435 11.5088V11.5112Z" fill="#F5FCFE"/>
</g>
<defs>
<clipPath id="clip0_2862:1356">
<rect width="104.673" height="45.15" fill="white" transform="translate(0.268433 0.424805)"/>
</clipPath>
</defs>
</svg>
