<svg width="209" height="55" viewBox="0 0 209 55" fill="none" xmlns="http://www.w3.org/2000/svg">
<g clip-path="url(#clip0_3270_2241)">
<path d="M104.622 11.5285V43.5325C104.622 43.7763 104.439 44.0201 104.134 44.0201H100.782C99.2576 44.0201 97.7946 43.2277 96.9411 41.9475L81.8231 18.5999L82.3108 30.2432V43.5934C82.3108 43.8373 82.1279 44.0811 81.8231 44.0811H77.434C77.1901 44.0811 76.9463 43.8982 76.9463 43.5934V11.5285C76.9463 11.2847 77.1292 11.0408 77.434 11.0408H80.7258C82.2498 11.0408 83.7128 11.8333 84.5663 13.1135L99.6843 36.4002L99.1967 24.7568V11.5285C99.1967 11.2847 99.3795 11.0408 99.6843 11.0408H104.073C104.439 11.0408 104.622 11.2237 104.622 11.5285Z" fill="white"/>
<path d="M149.611 43.9592H144.978C144.673 43.9592 144.429 43.6544 144.551 43.3496L156.865 11.4676C156.987 11.2237 157.231 11.0408 157.475 11.0408H163.327C163.632 11.0408 163.875 11.2237 163.936 11.4676L176.311 43.3496C176.433 43.6544 176.189 43.9592 175.885 43.9592H171.252C171.069 43.9592 170.886 43.8373 170.825 43.6544L160.888 17.4416C160.766 17.0759 160.157 17.0759 160.035 17.4416L150.098 43.6544C149.977 43.8373 149.794 43.9592 149.611 43.9592Z" fill="white"/>
<path d="M208.62 43.2277L199.354 31.4014C204.597 30.4261 207.645 26.8904 207.645 21.465C207.645 15.2471 203.621 11.0408 196.428 11.0408H183.505C183.139 11.0408 182.834 11.3456 182.834 11.7114C182.834 14.1498 184.785 16.1005 187.223 16.1005H195.94C200.269 16.1005 202.341 18.2951 202.341 21.5259C202.341 24.7568 200.329 26.9514 195.94 26.9514H183.626C183.261 26.9514 182.956 27.2562 182.956 27.6219V43.4715C182.956 43.7153 183.139 43.9592 183.444 43.9592H187.833C188.077 43.9592 188.32 43.7763 188.32 43.4715V31.7062H193.38L201.427 42.1913C202.28 43.3496 203.621 43.9592 205.084 43.9592H208.437C208.681 43.9592 208.864 43.5325 208.62 43.2277Z" fill="white"/>
<path d="M135.712 11.0408H115.29C114.925 11.0408 114.681 11.2847 114.681 11.6504C114.681 14.0888 116.692 16.1005 119.131 16.1005H135.712C135.956 16.1005 136.2 15.9176 136.2 15.6128V11.4676C136.139 11.2237 135.956 11.0408 135.712 11.0408ZM135.712 38.8995H120.472C120.228 38.8995 119.984 38.7166 119.984 38.4118V30.1822C119.984 29.9384 120.167 29.6946 120.472 29.6946H134.554C134.797 29.6946 135.041 29.5117 135.041 29.2069V25.0616C135.041 24.8178 134.858 24.5739 134.554 24.5739H115.351C114.985 24.5739 114.681 24.8787 114.681 25.2445V43.2277C114.681 43.5934 114.985 43.8982 115.351 43.8982H135.712C135.956 43.8982 136.2 43.7153 136.2 43.4105V39.2653C136.139 39.0824 135.956 38.8995 135.712 38.8995Z" fill="white"/>
<path d="M44.2718 2.87221L32.8114 19.88C32.0189 21.0383 33.5429 22.4403 34.6402 21.465L45.9178 11.6504C46.2226 11.4066 46.6493 11.5895 46.6493 12.0162V42.679C46.6493 43.1058 46.1006 43.2886 45.8568 42.9838L11.7193 2.14069C10.622 0.799573 9.03702 0.0680542 7.26918 0.0680542H6.04998C2.88007 0.0680542 0.258789 2.68933 0.258789 5.92021V49.0798C0.258789 52.3107 2.88007 54.932 6.11094 54.932C8.12262 54.932 10.0124 53.8957 11.1097 52.1278L22.5701 35.12C23.3626 33.9618 21.8386 32.5597 20.7413 33.535L9.46374 43.2886C9.15894 43.5325 8.73222 43.3496 8.73222 42.9229V12.321C8.73222 11.8943 9.28086 11.7114 9.5247 12.0162L43.6622 52.8593C44.7595 54.2005 46.4054 54.932 48.1123 54.932H49.3315C52.5624 54.932 55.1837 52.3107 55.1837 49.0798V5.92021C55.1227 2.68933 52.5014 0.0680542 49.2706 0.0680542C47.2589 0.0680542 45.3691 1.10437 44.2718 2.87221Z" fill="white"/>
</g>
<defs>
<clipPath id="clip0_3270_2241">
<rect width="208.483" height="54.8639" fill="white" transform="translate(0.258789 0.0680542)"/>
</clipPath>
</defs>
</svg>
