<svg width="286" height="61" viewBox="0 0 286 61" fill="none" xmlns="http://www.w3.org/2000/svg">
<path d="M75.4242 20.93C75.4242 21.23 75.6642 21.5 75.9942 21.5H79.5642C79.8642 21.5 80.1342 21.23 80.1342 20.93V13.28H82.2042L86.1942 21.23C86.2542 21.35 86.4342 21.5 86.6742 21.5H90.6642C91.1742 21.5 91.3842 21.02 91.1742 20.63L87.0642 13.01C89.6742 11.96 91.5042 9.74 91.5042 6.98C91.5042 3.41 88.5642 0.499999 84.9642 0.499999H75.9942C75.6642 0.499999 75.4242 0.769999 75.4242 1.07V20.93ZM80.1342 9.47V4.79H84.5742C85.8042 4.79 86.8542 5.81 86.8542 7.07C86.8542 8.33 85.8042 9.47 84.5742 9.47H80.1342ZM95.9902 5.87C97.3102 5.87 98.3902 4.82 98.3902 3.5C98.3902 2.18 97.3102 1.1 95.9902 1.1C94.6702 1.1 93.6202 2.18 93.6202 3.5C93.6202 4.82 94.6702 5.87 95.9902 5.87ZM93.8002 20.93C93.8002 21.23 94.0702 21.5 94.3702 21.5H97.6702C97.9702 21.5 98.2402 21.23 98.2402 20.93V10.07C98.2402 9.74 97.9702 9.5 97.6702 9.5H94.3702C94.0702 9.5 93.8002 9.74 93.8002 10.07V20.93ZM100.546 15.5C100.546 19.1 103.576 21.8 106.996 21.8C109.156 21.8 110.716 20.96 111.826 19.28C112.036 18.98 111.886 18.68 111.616 18.44L109.816 16.88C109.636 16.73 109.366 16.79 109.156 17C108.676 17.48 108.166 17.93 107.116 17.93C105.796 17.93 104.776 16.85 104.776 15.5C104.776 14.18 105.856 13.07 107.176 13.07C107.866 13.07 108.496 13.4 108.916 13.85C109.066 14 109.426 14.06 109.576 13.91L111.376 12.2C111.646 11.96 111.736 11.63 111.526 11.36C110.386 9.98 108.916 9.2 107.026 9.2C103.606 9.2 100.546 11.96 100.546 15.5ZM114.074 20.93C114.074 21.23 114.344 21.5 114.644 21.5H117.884C118.394 21.5 118.544 21.32 118.544 20.93V15.44C118.544 13.61 119.594 13.07 120.554 13.07C121.874 13.07 122.744 14.12 122.744 15.44V20.93C122.744 21.23 122.984 21.5 123.314 21.5H126.494C126.794 21.5 127.064 21.23 127.064 20.93V15.5C127.064 12.17 125.114 9.2 121.334 9.2C120.434 9.2 119.444 9.44 118.544 9.89V1.07C118.544 0.769999 118.274 0.499999 117.974 0.499999H114.644C114.344 0.499999 114.074 0.769999 114.074 1.07V20.93ZM129.172 17.84C129.172 20.21 130.942 21.8 133.312 21.8C135.202 21.8 136.252 20.93 136.942 20.3L137.362 21.11C137.512 21.44 137.722 21.5 137.902 21.5H139.222C139.522 21.5 139.792 21.23 139.792 20.93V14.3C139.792 10.76 138.442 9.2 134.722 9.2C133.102 9.2 131.002 9.56 130.732 9.65C130.462 9.74 130.192 9.95 130.282 10.46L130.552 12.35C130.612 12.8 130.822 13.13 131.272 12.98C132.052 12.74 133.462 12.53 134.272 12.53C135.712 12.53 135.892 13.13 135.892 14.3C135.892 14.3 134.932 13.82 133.582 13.82C130.852 13.82 129.172 15.53 129.172 17.84ZM133.072 17.54C133.072 16.85 133.642 16.28 134.362 16.28C135.082 16.28 135.652 16.85 135.682 17.54C135.682 18.26 135.082 18.86 134.362 18.86C133.642 18.86 133.072 18.26 133.072 17.54ZM142.843 20.93C142.843 21.23 143.113 21.5 143.413 21.5H146.473C146.953 21.5 147.133 21.29 147.133 20.93V14.72C147.133 13.7 147.823 13.01 148.723 13.01C148.993 13.01 149.293 13.1 149.443 13.16C149.773 13.28 149.983 13.1 150.103 12.89L151.573 10.49C151.993 9.8 150.823 9.2 149.173 9.2C147.613 9.2 146.503 10.31 145.903 11.18L145.363 9.86C145.273 9.68 145.153 9.5 144.823 9.5H143.413C143.113 9.5 142.843 9.74 142.843 10.07V20.93ZM152.227 15.5C152.227 18.95 154.777 21.8 158.167 21.8C160.807 21.8 162.187 19.91 162.187 19.91L162.547 20.9C162.667 21.23 162.877 21.5 163.177 21.5H164.587C164.887 21.5 165.157 21.23 165.157 20.93V1.07C165.157 0.769999 164.887 0.499999 164.587 0.499999H161.257C160.957 0.499999 160.687 0.769999 160.687 1.07V9.77C160.327 9.56 159.217 9.2 158.197 9.2C154.987 9.2 152.227 11.27 152.227 15.5ZM156.337 15.47C156.337 14.12 157.387 13.07 158.767 13.07C160.147 13.07 161.167 14.12 161.167 15.47C161.167 16.85 160.147 17.93 158.767 17.93C157.387 17.93 156.337 16.85 156.337 15.47ZM174.651 20.84C174.591 21.23 174.861 21.5 175.221 21.5H178.761C179.061 21.5 179.301 21.26 179.331 21.02L180.651 11.75H180.711L185.781 21.47C185.871 21.65 186.111 21.8 186.291 21.8H186.831C186.981 21.8 187.251 21.65 187.341 21.47L192.381 11.75H192.441L193.791 21.02C193.821 21.26 194.091 21.5 194.361 21.5H197.901C198.261 21.5 198.531 21.23 198.471 20.84L195.081 0.68C195.051 0.41 194.781 0.199999 194.541 0.199999H194.061C193.911 0.199999 193.641 0.319999 193.551 0.499999L186.591 13.46H186.531L179.571 0.499999C179.481 0.319999 179.211 0.199999 179.061 0.199999H178.581C178.341 0.199999 178.071 0.41 178.041 0.68L174.651 20.84ZM200.187 17.84C200.187 20.21 201.957 21.8 204.327 21.8C206.217 21.8 207.267 20.93 207.957 20.3L208.377 21.11C208.527 21.44 208.737 21.5 208.917 21.5H210.237C210.537 21.5 210.807 21.23 210.807 20.93V14.3C210.807 10.76 209.457 9.2 205.737 9.2C204.117 9.2 202.017 9.56 201.747 9.65C201.477 9.74 201.207 9.95 201.297 10.46L201.567 12.35C201.627 12.8 201.837 13.13 202.287 12.98C203.067 12.74 204.477 12.53 205.287 12.53C206.727 12.53 206.907 13.13 206.907 14.3C206.907 14.3 205.947 13.82 204.597 13.82C201.867 13.82 200.187 15.53 200.187 17.84ZM204.087 17.54C204.087 16.85 204.657 16.28 205.377 16.28C206.097 16.28 206.667 16.85 206.697 17.54C206.697 18.26 206.097 18.86 205.377 18.86C204.657 18.86 204.087 18.26 204.087 17.54ZM0.951582 50.93C0.951582 51.23 1.19158 51.5 1.52158 51.5H5.06158C5.36158 51.5 5.63158 51.23 5.63158 50.93V43.64H12.4716C12.7716 43.64 13.0416 43.37 13.0416 43.07V39.8C13.0416 39.5 12.7716 39.23 12.4716 39.23H5.63158V34.91H13.9416C14.2716 34.91 14.5116 34.64 14.5116 34.34V31.07C14.5116 30.77 14.2716 30.5 13.9416 30.5H1.52158C1.19158 30.5 0.951582 30.77 0.951582 31.07V50.93ZM15.0577 45.47C15.0577 48.92 17.8777 51.8 21.2977 51.8C24.7177 51.8 27.5377 48.92 27.5377 45.47C27.5377 42.08 24.7177 39.2 21.2977 39.2C17.8777 39.2 15.0577 42.08 15.0577 45.47ZM18.9277 45.47C18.9277 44.15 19.9777 43.07 21.2977 43.07C22.6177 43.07 23.6677 44.15 23.6677 45.47C23.6677 46.82 22.6177 47.93 21.2977 47.93C19.9777 47.93 18.9277 46.82 18.9277 45.47ZM29.5751 45.5C29.5751 48.92 31.2851 51.8 34.8551 51.8C37.1651 51.8 38.1251 50.72 38.9051 49.97L39.3551 51.08C39.4451 51.29 39.6551 51.5 39.9251 51.5H41.3351C41.6351 51.5 41.9051 51.23 41.9051 50.93V40.07C41.9051 39.74 41.6351 39.5 41.3351 39.5H38.2751C37.9751 39.5 37.6451 39.59 37.6451 40.07V45.8C37.6451 46.82 37.0151 47.93 35.8451 47.93C34.6151 47.93 33.9251 46.85 33.9251 45.62V40.07C33.9251 39.74 33.6551 39.5 33.3551 39.5H30.1451C29.8451 39.5 29.5751 39.74 29.5751 40.07V45.5ZM45.1381 50.93C45.1381 51.23 45.4081 51.5 45.7081 51.5H48.8581C49.2781 51.5 49.3981 51.2 49.3981 50.93V45.17C49.3981 43.94 50.4781 43.07 51.6781 43.07C53.0281 43.07 53.7181 44.12 53.7181 45.32V50.93C53.7181 51.23 53.9581 51.5 54.2881 51.5H57.4981C57.7981 51.5 58.0681 51.23 58.0681 50.93V45.47C58.0681 42.05 56.0881 39.2 52.3681 39.2C50.1781 39.2 48.7981 40.34 48.1381 41.06L47.6581 39.86C47.5681 39.65 47.2981 39.5 47.1181 39.5H45.7081C45.4081 39.5 45.1381 39.74 45.1381 40.07V50.93ZM60.1177 45.5C60.1177 48.95 62.6677 51.8 66.0577 51.8C68.6977 51.8 70.0777 49.91 70.0777 49.91L70.4377 50.9C70.5577 51.23 70.7677 51.5 71.0677 51.5H72.4777C72.7777 51.5 73.0477 51.23 73.0477 50.93V31.07C73.0477 30.77 72.7777 30.5 72.4777 30.5H69.1477C68.8477 30.5 68.5777 30.77 68.5777 31.07V39.77C68.2177 39.56 67.1077 39.2 66.0877 39.2C62.8777 39.2 60.1177 41.27 60.1177 45.5ZM64.2277 45.47C64.2277 44.12 65.2777 43.07 66.6577 43.07C68.0377 43.07 69.0577 44.12 69.0577 45.47C69.0577 46.85 68.0377 47.93 66.6577 47.93C65.2777 47.93 64.2277 46.85 64.2277 45.47ZM75.3806 45.5C75.3806 48.95 78.0806 51.8 81.6506 51.8C83.5406 51.8 85.0406 51.14 86.0906 50.09C86.3606 49.82 86.3006 49.46 86.1206 49.22L84.6206 47.42C84.4406 47.21 84.1406 47.21 83.8706 47.42C83.3906 47.78 82.5206 48.14 81.7706 48.14C80.2106 48.14 79.5506 46.97 79.4606 46.16H86.6606C86.9306 46.16 87.2006 45.95 87.2306 45.65C87.2606 45.44 87.2906 45.05 87.2906 44.84C87.2906 41.54 84.6506 39.2 81.5906 39.2C78.0506 39.2 75.3806 42.11 75.3806 45.5ZM79.8506 43.82C79.9706 43.04 80.6606 42.41 81.4706 42.41C82.2506 42.41 83.0006 43.04 83.0606 43.82H79.8506ZM89.4642 50.93C89.4642 51.23 89.7342 51.5 90.0342 51.5H93.0942C93.5742 51.5 93.7542 51.29 93.7542 50.93V44.72C93.7542 43.7 94.4442 43.01 95.3442 43.01C95.6142 43.01 95.9142 43.1 96.0642 43.16C96.3942 43.28 96.6042 43.1 96.7242 42.89L98.1942 40.49C98.6142 39.8 97.4442 39.2 95.7942 39.2C94.2342 39.2 93.1242 40.31 92.5242 41.18L91.9842 39.86C91.8942 39.68 91.7742 39.5 91.4442 39.5H90.0342C89.7342 39.5 89.4642 39.74 89.4642 40.07V50.93ZM105.497 45.47C105.497 48.92 108.317 51.8 111.737 51.8C115.157 51.8 117.977 48.92 117.977 45.47C117.977 42.08 115.157 39.2 111.737 39.2C108.317 39.2 105.497 42.08 105.497 45.47ZM109.367 45.47C109.367 44.15 110.417 43.07 111.737 43.07C113.057 43.07 114.107 44.15 114.107 45.47C114.107 46.82 113.057 47.93 111.737 47.93C110.417 47.93 109.367 46.82 109.367 45.47ZM120.915 50.93C120.915 51.23 121.185 51.5 121.485 51.5H124.935C125.235 51.5 125.505 51.23 125.505 50.93V43.31H128.265C128.595 43.31 128.835 43.04 128.835 42.74V40.07C128.835 39.74 128.595 39.5 128.265 39.5H125.505V36.74C125.505 35.27 126.015 34.25 127.275 34.25C127.875 34.25 128.445 34.52 128.835 34.73C129.075 34.85 129.435 34.73 129.525 34.52L130.785 32.03C130.905 31.82 130.845 31.49 130.665 31.34C130.155 30.86 128.565 30.2 127.005 30.2C123.525 30.2 120.915 32.54 120.915 36.74V39.5H120.285C119.955 39.5 119.715 39.74 119.715 40.07V42.74C119.715 43.04 119.955 43.31 120.285 43.31H120.915V50.93ZM137.029 41.03C137.029 47.03 141.799 51.8 147.799 51.8C148.009 51.8 148.369 51.8 148.729 51.77L151.909 57.14C151.999 57.29 152.149 57.44 152.389 57.44H156.439C156.919 57.44 157.159 56.96 156.919 56.54L153.049 50.48C156.349 48.47 158.599 44.93 158.599 41.03C158.599 35.03 153.799 30.2 147.799 30.2C141.799 30.2 137.029 35.03 137.029 41.03ZM141.829 41.03C141.829 37.73 144.529 35 147.799 35C151.099 35 153.799 37.73 153.799 41.03C153.799 44.3 151.099 47 147.799 47C144.529 47 141.829 44.3 141.829 41.03ZM160.649 45.5C160.649 48.92 162.359 51.8 165.929 51.8C168.239 51.8 169.199 50.72 169.979 49.97L170.429 51.08C170.519 51.29 170.729 51.5 170.999 51.5H172.409C172.709 51.5 172.979 51.23 172.979 50.93V40.07C172.979 39.74 172.709 39.5 172.409 39.5H169.349C169.049 39.5 168.719 39.59 168.719 40.07V45.8C168.719 46.82 168.089 47.93 166.919 47.93C165.689 47.93 164.999 46.85 164.999 45.62V40.07C164.999 39.74 164.729 39.5 164.429 39.5H161.219C160.919 39.5 160.649 39.74 160.649 40.07V45.5ZM175.402 47.84C175.402 50.21 177.172 51.8 179.542 51.8C181.432 51.8 182.482 50.93 183.172 50.3L183.592 51.11C183.742 51.44 183.952 51.5 184.132 51.5H185.452C185.752 51.5 186.022 51.23 186.022 50.93V44.3C186.022 40.76 184.672 39.2 180.952 39.2C179.332 39.2 177.232 39.56 176.962 39.65C176.692 39.74 176.422 39.95 176.512 40.46L176.782 42.35C176.842 42.8 177.052 43.13 177.502 42.98C178.282 42.74 179.692 42.53 180.502 42.53C181.942 42.53 182.122 43.13 182.122 44.3C182.122 44.3 181.162 43.82 179.812 43.82C177.082 43.82 175.402 45.53 175.402 47.84ZM179.302 47.54C179.302 46.85 179.872 46.28 180.592 46.28C181.312 46.28 181.882 46.85 181.912 47.54C181.912 48.26 181.312 48.86 180.592 48.86C179.872 48.86 179.302 48.26 179.302 47.54ZM189.074 50.93C189.074 51.23 189.344 51.5 189.644 51.5H192.794C193.214 51.5 193.334 51.2 193.334 50.93V45.17C193.334 43.94 194.414 43.07 195.614 43.07C196.964 43.07 197.654 44.12 197.654 45.32V50.93C197.654 51.23 197.894 51.5 198.224 51.5H201.434C201.734 51.5 202.004 51.23 202.004 50.93V45.47C202.004 42.05 200.024 39.2 196.304 39.2C194.114 39.2 192.734 40.34 192.074 41.06L191.594 39.86C191.504 39.65 191.234 39.5 191.054 39.5H189.644C189.344 39.5 189.074 39.74 189.074 40.07V50.93ZM205.315 47.63C205.315 50.36 206.635 51.8 208.915 51.8C210.415 51.8 212.545 51.14 212.545 51.14C212.845 51.05 212.995 50.72 212.935 50.45L212.275 47.96C212.185 47.63 211.915 47.51 211.615 47.57C211.315 47.63 210.865 47.78 210.445 47.78C210.085 47.78 209.635 47.72 209.635 47.06V43.31H211.855C212.185 43.31 212.425 43.04 212.425 42.74V40.07C212.425 39.74 212.185 39.5 211.855 39.5H209.635V36.17C209.635 35.87 209.395 35.6 209.095 35.6H205.885C205.585 35.6 205.315 35.87 205.315 36.17V39.5H204.535C204.235 39.5 203.995 39.74 203.995 40.07V42.74C203.995 43.04 204.235 43.31 204.535 43.31H205.315V47.63ZM214.728 50.81C215.328 51.29 216.828 51.8 218.808 51.8C222.198 51.8 223.878 50.09 223.878 47.99C223.878 45.59 222.198 44.63 219.768 43.79C218.748 43.43 218.418 43.13 218.418 42.83C218.418 42.5 218.688 42.41 219.078 42.41C220.248 42.41 221.628 43.1 221.628 43.1C221.868 43.19 222.168 43.1 222.258 42.92L223.368 40.88C223.548 40.58 223.338 40.31 223.068 40.13C222.408 39.71 220.968 39.2 219.078 39.2C215.838 39.2 214.398 40.82 214.398 42.83C214.398 44.69 215.418 46.04 217.758 46.85C219.288 47.39 219.468 47.81 219.468 48.11C219.468 48.47 219.198 48.65 218.898 48.65C217.608 48.65 216.198 47.87 216.198 47.87C215.958 47.75 215.658 47.93 215.568 48.11L214.518 50.18C214.368 50.45 214.518 50.63 214.728 50.81ZM226.761 47.63C226.761 50.36 228.081 51.8 230.361 51.8C231.861 51.8 233.991 51.14 233.991 51.14C234.291 51.05 234.441 50.72 234.381 50.45L233.721 47.96C233.631 47.63 233.361 47.51 233.061 47.57C232.761 47.63 232.311 47.78 231.891 47.78C231.531 47.78 231.081 47.72 231.081 47.06V43.31H233.301C233.631 43.31 233.871 43.04 233.871 42.74V40.07C233.871 39.74 233.631 39.5 233.301 39.5H231.081V36.17C231.081 35.87 230.841 35.6 230.541 35.6H227.331C227.031 35.6 226.761 35.87 226.761 36.17V39.5H225.981C225.681 39.5 225.441 39.74 225.441 40.07V42.74C225.441 43.04 225.681 43.31 225.981 43.31H226.761V47.63ZM235.783 47.84C235.783 50.21 237.553 51.8 239.923 51.8C241.813 51.8 242.863 50.93 243.553 50.3L243.973 51.11C244.123 51.44 244.333 51.5 244.513 51.5H245.833C246.133 51.5 246.403 51.23 246.403 50.93V44.3C246.403 40.76 245.053 39.2 241.333 39.2C239.713 39.2 237.613 39.56 237.343 39.65C237.073 39.74 236.803 39.95 236.893 40.46L237.163 42.35C237.223 42.8 237.433 43.13 237.883 42.98C238.663 42.74 240.073 42.53 240.883 42.53C242.323 42.53 242.503 43.13 242.503 44.3C242.503 44.3 241.543 43.82 240.193 43.82C237.463 43.82 235.783 45.53 235.783 47.84ZM239.683 47.54C239.683 46.85 240.253 46.28 240.973 46.28C241.693 46.28 242.263 46.85 242.293 47.54C242.293 48.26 241.693 48.86 240.973 48.86C240.253 48.86 239.683 48.26 239.683 47.54ZM249.454 50.93C249.454 51.23 249.694 51.5 250.024 51.5H253.174C253.474 51.5 253.744 51.23 253.744 50.93V45.17C253.744 43.94 254.644 43.07 255.844 43.07C257.194 43.07 257.734 44.12 257.734 45.32V50.93C257.734 51.23 257.974 51.5 258.304 51.5H261.184C261.514 51.5 261.754 51.23 261.754 50.93V45.11C261.754 43.94 262.714 43.07 263.764 43.07C265.144 43.07 265.774 44.12 265.774 45.32V50.93C265.774 51.23 266.014 51.5 266.344 51.5H269.524C269.854 51.5 270.094 51.23 270.094 50.93V45.5C270.094 42.08 268.264 39.2 264.544 39.2C262.504 39.2 261.094 40.34 260.404 41.03C259.324 39.83 258.154 39.2 256.474 39.2C254.554 39.2 253.174 40.28 252.424 41.06L251.914 39.83C251.824 39.65 251.614 39.5 251.404 39.5H250.024C249.694 39.5 249.454 39.74 249.454 40.07V50.93ZM277.508 51.23C277.868 51.44 278.978 51.8 279.998 51.8C283.208 51.8 285.968 49.73 285.968 45.5C285.968 42.05 283.418 39.2 280.028 39.2C277.388 39.2 276.008 41.09 276.008 41.09L275.648 40.1C275.528 39.77 275.318 39.5 275.018 39.5H273.608C273.308 39.5 273.038 39.77 273.038 40.07V59.93C273.038 60.23 273.308 60.5 273.608 60.5H276.938C277.238 60.5 277.508 60.23 277.508 59.93V51.23ZM277.028 45.53C277.028 44.15 278.048 43.07 279.428 43.07C280.808 43.07 281.858 44.15 281.858 45.53C281.858 46.88 280.808 47.93 279.428 47.93C278.048 47.93 277.028 46.88 277.028 45.53Z" fill="white"/>
</svg>
