<svg width="192" height="42" viewBox="0 0 192 42" fill="none" xmlns="http://www.w3.org/2000/svg">
<path d="M21.8248 3.59465C22.8238 2.47995 23.9593 1.49562 25.2045 0.664919C23.4586 0.22543 21.6653 0.00243922 19.865 0.000976562C14.6585 0.101542 9.69935 2.24072 6.05333 5.95873C2.4073 9.67674 0.365467 14.6768 0.3667 19.8842C0.3667 31.1732 9.48888 39.9974 19.865 39.9974C21.6696 40.0289 23.469 39.7931 25.2045 39.2975C24.0055 38.419 22.8914 37.43 21.8768 36.3437C9.37092 36.0137 3.96538 27.9805 3.96538 19.8792C3.96538 11.7779 9.95387 3.18469 21.8248 3.59465Z" fill="white"/>
<path d="M38.8113 39.9092C35.9417 39.9308 33.0977 39.3688 30.452 38.2574C28.0424 37.2338 25.8674 35.7285 24.0606 33.8338C22.2977 31.9853 20.9108 29.8119 19.977 27.4344C18.0696 22.578 18.0621 17.1813 19.956 12.3197C20.876 9.96286 22.2514 7.81039 24.0036 5.98528C25.8094 4.10804 27.9827 2.62326 30.3881 1.62367C33.0598 0.527564 35.9235 -0.0241675 38.8113 0.000811778C41.6879 -0.0223202 44.5339 0.592364 47.1446 1.80065C49.5045 2.91249 51.6098 4.49906 53.329 6.46124C54.9882 8.3442 56.2921 10.5124 57.1777 12.8607C58.0362 15.097 58.485 17.4696 58.5025 19.865C58.4825 22.2715 58.0268 24.6544 57.1577 26.8984C56.71 28.068 56.1617 29.1964 55.5188 30.2711C54.865 31.3649 54.1137 32.3973 53.274 33.3558C51.553 35.3356 49.4458 36.943 47.0816 38.0794C44.4973 39.3029 41.6705 39.9283 38.8113 39.9092ZM38.5223 3.37051C28.6772 3.37051 22.0648 11.8988 22.0648 19.869C22.0388 22.0412 22.4462 24.1968 23.2631 26.2097C24.0799 28.2226 25.2899 30.0525 26.8223 31.5923C28.3546 33.1321 30.1786 34.351 32.1875 35.1776C34.1965 36.0042 36.35 36.422 38.5223 36.4066C48.7944 36.4066 54.9319 27.9953 54.9319 19.864C54.9319 11.9317 48.6584 3.37051 38.5223 3.37051Z" fill="white"/>
<path d="M32.1011 8.5662C33.2332 8.0192 34.4205 7.59451 35.6428 7.29932C38.2425 10.812 40.2123 14.1757 40.2123 20.1392C40.1282 24.7065 38.5198 29.1147 35.6428 32.663C34.4499 32.3518 33.3058 31.877 32.243 31.2522C35.108 28.1584 36.699 24.0968 36.6976 19.8802C36.6918 15.6552 35.0435 11.5981 32.1011 8.5662Z" fill="#EDEDED"/>
<path d="M71.4453 3.6438V10.8122H72.8452C72.8452 10.8122 74.726 5.22667 77.2148 5.22667H80.4735V25.1249C80.4735 27.1117 79.1626 27.6007 76.6178 27.6007V28.9246H90.7256V27.5917C90.7256 27.5917 86.813 27.7086 86.813 25.1159V5.21769H89.6977C91.8115 5.21769 93.3533 7.83746 94.4672 10.8032H95.9522V3.6438H71.4453Z" fill="white"/>
<path d="M114.596 28.9733H101.203V27.4734C104.058 27.4734 104.883 26.8925 104.883 24.8827V7.32325C104.883 6.22335 103.866 5.6694 103.012 5.40042C102.405 5.2186 101.778 5.1105 101.146 5.07845V3.63858H115.767C117.662 3.58249 119.553 3.85308 121.357 4.43851C123.882 5.37342 125.163 7.08927 125.163 9.53805C125.183 10.774 124.845 11.9892 124.19 13.0377C123.637 13.8882 122.907 14.61 122.051 15.1546C121.097 15.7713 120.044 16.2182 118.938 16.4754C118.997 16.5494 125.391 24.5957 126.706 26.0626C127.641 26.9765 128.899 27.484 130.206 27.4744H130.274V28.9743H120.451C117.092 23.5968 112.303 17.6333 112.252 17.5753H111.198V24.8877C111.172 25.3536 111.291 25.8161 111.538 26.212C111.785 26.608 112.148 26.9182 112.577 27.1005C113.168 27.3557 113.805 27.4858 114.448 27.4824C114.54 27.4824 114.594 27.4824 114.596 27.4824V28.9823V28.9733ZM111.197 5.27543V15.7875H112.854C116.139 15.7875 118.023 13.7207 118.023 10.116C118.023 5.90738 114.784 5.27943 112.854 5.27943L111.197 5.27543Z" fill="white"/>
<path d="M156.826 3.59613H155.156L154.145 4.52604C151.959 3.54038 149.599 2.99826 147.202 2.93115C139.723 2.93115 133.057 7.43076 133.057 16.6299C133.057 25.8291 140.056 29.6698 146.667 29.6698C150.64 29.667 154.545 28.6452 158.009 26.702V17.2629H148.112V18.6248C148.112 18.6248 151.925 18.5718 151.925 21.2525V26.2641C150.595 27.3465 148.912 27.9008 147.199 27.821C144.059 27.821 140.2 25.2452 140.2 16.241C140.2 7.2368 144.5 4.53105 147.199 4.53105C149.899 4.53105 153.18 5.78093 155.399 12.8353H157.039L156.826 3.59613Z" fill="white"/>
<path d="M187.886 3.63543H186.148L185.134 4.55936C183.117 3.47298 180.862 2.90469 178.571 2.90552C171.024 2.90552 164.623 7.83404 164.623 16.6742C164.623 25.5145 171.138 29.6161 178.571 29.6161C186.004 29.6161 189.092 22.6098 189.092 22.6098L187.592 21.6368C187.592 21.6368 184.714 27.0863 179.581 27.0863C174.447 27.0863 171.81 22.8187 171.81 16.0423C171.81 9.26595 174.127 4.56034 178.568 4.56034C183.008 4.56034 185.18 8.93899 186.386 12.8806H188.06L187.886 3.63543Z" fill="white"/>
<path d="M73.0601 39.9968H190.347" stroke="white" stroke-width="3" stroke-linecap="round"/>
</svg>
