<svg width="20" height="20" viewBox="0 0 20 20" fill="none" xmlns="http://www.w3.org/2000/svg">
<g clip-path="url(#clip0)">
<path d="M19.6641 8.94076L17.9745 7.40127V2.29646C17.9745 1.97166 17.7112 1.7083 17.3864 1.7083H13.3194C12.9946 1.7083 12.7312 1.97162 12.7312 2.29646V2.62357L10.6907 0.764316C10.2969 0.405371 9.70292 0.40541 9.30921 0.764277L0.335853 8.9408C0.0203847 9.2283 -0.0838731 9.67127 0.0702675 10.0693C0.224447 10.4673 0.599838 10.7244 1.02667 10.7244H2.45984V18.9167C2.45984 19.2415 2.72316 19.5048 3.048 19.5048H7.96648C8.29128 19.5048 8.55464 19.2415 8.55464 18.9167V13.9426H11.4453V18.9167C11.4453 19.2415 11.7086 19.5049 12.0335 19.5049H16.9518C17.2766 19.5049 17.5399 19.2415 17.5399 18.9167V10.7245H18.9734C19.4002 10.7245 19.7756 10.4673 19.9298 10.0693C20.0839 9.67127 19.9796 9.2283 19.6641 8.94076ZM16.9518 9.54814C16.6269 9.54814 16.3636 9.81146 16.3636 10.1363V18.3285H12.6217V13.3544C12.6217 13.0296 12.3583 12.7663 12.0335 12.7663H7.96648C7.64167 12.7663 7.37831 13.0296 7.37831 13.3544V18.3285H3.63613V10.1363C3.63613 9.8115 3.37281 9.54814 3.04796 9.54814H1.41581L10 1.72627L12.9233 4.38998C13.0955 4.54686 13.3441 4.58729 13.5571 4.49326C13.7701 4.39912 13.9076 4.18811 13.9076 3.95521V2.88463H16.7983V7.66104C16.7983 7.82654 16.868 7.98432 16.9903 8.0958L18.5842 9.54814H16.9518Z" fill="white"/>
</g>
<defs>
<clipPath id="clip0">
<rect width="20" height="20" fill="white"/>
</clipPath>
</defs>
</svg>
